<?xml version="1.0" encoding="UTF-8" standalone="no"?>
<svg
   width="200px"
   height="200px"
   viewBox="0 0 14 14"
   fill="white"
   version="1.1"
   id="svg4"
   sodipodi:docname="wokwi-cat.svg"
   inkscape:version="1.2.2 (b0a8486541, 2022-12-01)"
   xmlns:inkscape="http://www.inkscape.org/namespaces/inkscape"
   xmlns:sodipodi="http://sodipodi.sourceforge.net/DTD/sodipodi-0.dtd"
   xmlns="http://www.w3.org/2000/svg"
   xmlns:svg="http://www.w3.org/2000/svg">
  <defs
     id="defs8" />
  <sodipodi:namedview
     id="namedview6"
     pagecolor="#505050"
     bordercolor="#eeeeee"
     borderopacity="1"
     inkscape:showpageshadow="0"
     inkscape:pageopacity="0"
     inkscape:pagecheckerboard="0"
     inkscape:deskcolor="#505050"
     showgrid="false"
     inkscape:zoom="2.125"
     inkscape:cx="32.941176"
     inkscape:cy="110.11765"
     inkscape:window-width="1920"
     inkscape:window-height="1020"
     inkscape:window-x="0"
     inkscape:window-y="0"
     inkscape:window-maximized="1"
     inkscape:current-layer="svg4" />
  <path
     d="M9.736.003c-.362.023-.758.176-1.159.472-1.275.94-1.064 1.568-4.177 2.186a7.187 7.187 0 00-2.547-1.073c-.965-.2-1.492.149-1.41 1.372.073 1.116.326 2.22.744 3.257.264.654.146.76-.296 1.217-1.55 1.6-.631 4.31-.523 4.971.02.12.003.281.17.398.016.01.12.046.123.053-.58-1.566-.901-4.74.69-5.213.534-.16 1.134.076 1.583.359 2.227 1.398 1.067 3.623-.506 3.09-.476-.16-.849-.564-1.026-1.034-.045-.122-.18-.275-.266-.177-.134.153.31 1.322 1.408 1.494.425.066.873-.026 1.281.111.636.214.992.918 1.606 1.188.565.248 1.35.096 1.7.723 0 0-.03.102-.065.24-.018.073-.027.144-.054.213-.012.031-.018.07.004.095.021.025.168.082.207.04.051-.053.045-.105.116-.378.01-.041.093-.352.13-.413.27-.454.663-.835 1.129-1.085 1.617-.865 2.773.414 2.637 1.494.098.074.25.009.306-.1.13-.247-.105-1.188-.868-1.756 1.097-1.924 1.12-2.053 1.367-2.115.277-.07.522.243.526.53.004.286-.14.55-.221.826-.281.963.36 2.095 1.33 2.35.107.025.2.017.264-.063a.226.226 0 00.048-.137 5.238 5.238 0 00-1.267-3.485c-.226-.26-.488-.517-.563-.853-.073-.327.046-.661.127-.986.492-1.981-.503-3.056-.76-4.286-.13-.626-.077-1.278-.18-1.909C11.165.534 10.531-.047 9.735.003zm.03.388a.645.645 0 01.13.007c.909.142 1.503 1.977 1.042 3.21-.036.095-.042.153.023.24.74.984.925 1.458 1.043 2.642.088.892-.105 2.01-.268 2.37-.168.371-.26 1.486-2.035 2.332-1.349.644-1.953.913-2.872.872-1.092-.048-2.512-.797-2.63-.873-.064-.04-.18-.087-.112-.17.03-.037.073-.058.105-.09.07-.074.119-.165.183-.244.246-.3.174-.771.061-1.182-.103-.375-.2-.765-.467-1.062-.083-.091-.146-.202-.236-.288-.23-.22.128-.147.784-1.338.279-.506.508-.823.608-1.978.03-.347.079-.75-.047-1.083-.059-.157-.14-.366-.247-.495-.256-.308.434-.449.597-.494.692-.191 1.421-.285 1.593-.284.096 0 .152.005.232-.061.198-.163.33-.461.5-.66.328-.384.685-.732 1.117-.997.241-.147.584-.359.895-.374zm.092.66c-.2-.012-.411.067-.575.162-.333.194-.609.52-.818.839-.383.58.082.637.314.755.637.323.754.393.94.435.595.136.747-.471.71-1.074-.013-.222-.07-.437-.116-.654-.034-.16-.102-.348-.263-.418a.562.562 0 00-.192-.045zm-.176.34c.15.016.213.43.247.565.064.259.098.525.097.791 0 .1.001.168-.112.15-.104-.015-.552-.195-.833-.417-.22-.174-.356-.228-.164-.468.168-.21.446-.658.765-.622zM1.536 2.687c.211.006.44.083.57.158.168.097.766.355.79.975.016.392-.358.762-.647.979-.218.162-.407.298-.666-.124-.381-.623-.425-.98-.495-1.28-.033-.146-.067-.3-.024-.442.065-.208.26-.272.472-.266zm8.307 3.544c-.178.013-.283.143-.422.22-.713.393-.203.843-.06.628.107-.162.07-.359.363-.487.283-.124.298.209.558.158.202-.04.212-.331-.234-.487a.504.504 0 00-.205-.032zM11.038 7.3c-.122-.01-.491.121-.584.16-.061.025-.202.062-.216.14-.013.077.054.186.132.198.108.016.199-.075.293-.11.077-.028.16-.025.24-.04.07-.015.12-.052.182-.085.01-.004.017-.018.02-.029.022-.105.037-.225-.067-.234zm-5.521.283c-.321-.004-.528.133-.714.504-.061.122-.032.209.094.267.046.02.128-.01.159-.046.03-.033.037-.082.061-.118.356-.523.668-.232.806-.217.087.01.238-.048.196-.158-.043-.113-.14-.163-.24-.185a1.852 1.852 0 00-.362-.047zm5.756.32c-.059-.003-.16.04-.563.141-.055.014-.116.033-.148.084-.021.033-.047.109.001.128.048.02.1.037.16.019.122-.037.236-.11.348-.088.093-.007.162-.008.23-.021.035-.007.076-.019.084-.048a.18.18 0 00-.058-.199.124.124 0 00-.054-.017zm-3.205.092a1.061 1.061 0 00-.776.403c-.063.083-.116.188-.092.29.08.343.747.197.743.41-.003.129.107.455.032.683-.047.142-.084.267-.215.356-.247.169-.58.062-.773-.138-.055-.056-.122-.127-.197-.104-.093.028-.157.218-.062.361.217.33 1.166.38 1.33.01.054-.122.186-.342.348-.32.038.006.068.03.106.039.098.022.555.016.714-.012.103-.02.165-.092.238-.16.189-.172.285-.18.298-.41.007-.124.083-.348-.072-.405-.103-.038-.321-.041-.314.117.005.115-.015.225-.042.333-.085.333-.914.3-.986-.086-.036-.199-.033-.382.057-.566.1-.207.284-.44.214-.608-.054-.13-.284-.211-.55-.193zm2.842.808a.481.481 0 00-.2.025c-.042.025-.072.082-.053.131.037.1.092.135.193.11.347-.082.34.273.612-.017.148-.158-.277-.246-.552-.25zm-5.492.13c-.077-.008-.457.157-.627.33-.072.075-.164.232.024.215.077-.007.428-.167.49-.195.082-.037.18-.054.202-.152.015-.07-.001-.187-.09-.197zm-2.102.16c-.044.004-.074.028-.074.072-.001.255.289.491.36.515.092.03.187-.051.191-.144.004-.076-.15-.269-.204-.322-.086-.085-.2-.13-.273-.121zm-.709.303c-.042-.002-.078.024-.099.098-.034.123.107.081.19.291.025.065.037.154.1.199.05.036.12.013.177.009.118-.008.01-.27-.02-.316a1.032 1.032 0 00-.209-.208c-.048-.04-.097-.07-.14-.073zm2.762.253c-.215-.002-.503.15-.54.35-.014.074.057.2.144.193a.378.378 0 00.184-.118c.069-.102.14-.07.246-.069.273.003.273-.187.144-.3a.269.269 0 00-.178-.056zm-3.463.08a.067.067 0 00-.063.025c-.021.024-.016.127.004.154.23.305.118.475.263.48.165.006.204-.26.012-.494-.05-.06-.144-.155-.216-.164zm3.612.607c-.145-.022-.272.182-.364.274a.43.43 0 00-.078.097c-.069.127.058.256.223.202a.333.333 0 00.182-.14c.05-.092.118-.092.208-.11.075-.015.154-.05.155-.138 0-.074-.006-.084-.072-.12-.08-.043-.167-.05-.254-.065z"
     id="path2" />
</svg>
