<?xml version="1.0" encoding="UTF-8" standalone="no"?>
<svg
   width="160mm"
   height="110mm"
   viewBox="0 0 160 110"
   version="1.1"
   id="svg2038"
   sodipodi:docname="wokwi-lcd1602-fonta00-2.svg"
   inkscape:version="1.2.2 (b0a8486541, 2022-12-01)"
   xmlns:inkscape="http://www.inkscape.org/namespaces/inkscape"
   xmlns:sodipodi="http://sodipodi.sourceforge.net/DTD/sodipodi-0.dtd"
   xmlns="http://www.w3.org/2000/svg"
   xmlns:svg="http://www.w3.org/2000/svg">
  <defs
     id="defs2042" />
  <sodipodi:namedview
     id="namedview2040"
     pagecolor="#505050"
     bordercolor="#eeeeee"
     borderopacity="1"
     inkscape:showpageshadow="0"
     inkscape:pageopacity="0"
     inkscape:pagecheckerboard="0"
     inkscape:deskcolor="#505050"
     inkscape:document-units="mm"
     showgrid="false"
     inkscape:zoom="1.4456852"
     inkscape:cx="261.46772"
     inkscape:cy="196.44664"
     inkscape:window-width="1920"
     inkscape:window-height="1020"
     inkscape:window-x="0"
     inkscape:window-y="0"
     inkscape:window-maximized="1"
     inkscape:current-layer="svg2038" />
  <style
     id="style1656">
path { 
}
    text {
      font-size:5px;
      text-anchor:end;
    }
  </style>
  <g
     id="index"
     inkscape:label="index">
    <text
       x="7"
       y="4"
       id="text1658">160</text>
    <text
       x="7"
       y="12"
       id="text1660">161</text>
    <text
       x="7"
       y="20"
       id="text1664">162</text>
    <text
       x="7"
       y="28"
       id="text1668">163</text>
    <text
       x="7"
       y="36"
       id="text1672">164</text>
    <text
       x="7"
       y="44"
       id="text1676">165</text>
    <text
       x="7"
       y="52"
       id="text1680">166</text>
    <text
       x="7"
       y="60"
       id="text1684">167</text>
    <text
       x="7"
       y="68"
       id="text1688">168</text>
    <text
       x="7"
       y="76"
       id="text1692">169</text>
    <text
       x="7"
       y="84"
       id="text1696">170</text>
    <text
       x="7"
       y="92"
       id="text1700">171</text>
    <text
       x="7"
       y="100"
       id="text1704">172</text>
    <text
       x="7"
       y="108"
       id="text1708">173</text>
    <text
       x="31"
       y="4"
       id="text1712">174</text>
    <text
       x="31"
       y="12"
       id="text1716">175</text>
    <text
       x="31"
       y="20"
       id="text1720">176</text>
    <text
       x="31"
       y="28"
       id="text1724">177</text>
    <text
       x="31"
       y="36"
       id="text1728">178</text>
    <text
       x="31"
       y="44"
       id="text1732">179</text>
    <text
       x="31"
       y="52"
       id="text1736">180</text>
    <text
       x="31"
       y="60"
       id="text1740">181</text>
    <text
       x="31"
       y="68"
       id="text1744">182</text>
    <text
       x="31"
       y="76"
       id="text1748">183</text>
    <text
       x="31"
       y="84"
       id="text1752">184</text>
    <text
       x="31"
       y="92"
       id="text1756">185</text>
    <text
       x="31"
       y="100"
       id="text1760">186</text>
    <text
       x="31"
       y="108"
       id="text1764">187</text>
    <text
       x="55"
       y="4"
       id="text1768">188</text>
    <text
       x="55"
       y="12"
       id="text1772">189</text>
    <text
       x="55"
       y="20"
       id="text1776">190</text>
    <text
       x="55"
       y="28"
       id="text1780">191</text>
    <text
       x="55"
       y="36"
       id="text1784">192</text>
    <text
       x="55"
       y="44"
       id="text1788">193</text>
    <text
       x="55"
       y="52"
       id="text1792">194</text>
    <text
       x="55"
       y="60"
       id="text1796">195</text>
    <text
       x="55"
       y="68"
       id="text1800">196</text>
    <text
       x="55"
       y="76"
       id="text1804">197</text>
    <text
       x="55"
       y="84"
       id="text1808">198</text>
    <text
       x="55"
       y="92"
       id="text1812">199</text>
    <text
       x="55"
       y="100"
       id="text1816">200</text>
    <text
       x="55"
       y="108"
       id="text1820">201</text>
    <text
       x="79"
       y="4"
       id="text1824">202</text>
    <text
       x="79"
       y="12"
       id="text1828">203</text>
    <text
       x="79"
       y="20"
       id="text1832">204</text>
    <text
       x="79"
       y="28"
       id="text1836">205</text>
    <text
       x="79"
       y="36"
       id="text1840">206</text>
    <text
       x="79"
       y="44"
       id="text1844">207</text>
    <text
       x="79"
       y="52"
       id="text1848">208</text>
    <text
       x="79"
       y="60"
       id="text1852">209</text>
    <text
       x="79"
       y="68"
       id="text1856">210</text>
    <text
       x="79"
       y="76"
       id="text1860">211</text>
    <text
       x="79"
       y="84"
       id="text1864">212</text>
    <text
       x="79"
       y="92"
       id="text1868">213</text>
    <text
       x="79"
       y="100"
       id="text1872">214</text>
    <text
       x="79"
       y="108"
       id="text1876">215</text>
    <text
       x="103"
       y="4"
       id="text1880">216</text>
    <text
       x="103"
       y="12"
       id="text1884">217</text>
    <text
       x="103"
       y="20"
       id="text1888">218</text>
    <text
       x="103"
       y="28"
       id="text1892">219</text>
    <text
       x="103"
       y="36"
       id="text1896">220</text>
    <text
       x="103"
       y="44"
       id="text1900">221</text>
    <text
       x="103"
       y="52"
       id="text1904">222</text>
    <text
       x="103"
       y="60"
       id="text1908">223</text>
    <text
       x="103"
       y="68"
       id="text1912">224</text>
    <text
       x="103"
       y="76"
       id="text1916">225</text>
    <text
       x="103"
       y="84"
       id="text1920">226</text>
    <text
       x="103"
       y="92"
       id="text1924">227</text>
    <text
       x="103"
       y="100"
       id="text1928">228</text>
    <text
       x="103"
       y="108"
       id="text1932">229</text>
    <text
       x="127"
       y="4"
       id="text1936">230</text>
    <text
       x="127"
       y="12"
       id="text1940">231</text>
    <text
       x="127"
       y="20"
       id="text1944">232</text>
    <text
       x="127"
       y="28"
       id="text1948">233</text>
    <text
       x="127"
       y="36"
       id="text1952">234</text>
    <text
       x="127"
       y="44"
       id="text1956">235</text>
    <text
       x="127"
       y="52"
       id="text1960">236</text>
    <text
       x="127"
       y="60"
       id="text1964">237</text>
    <text
       x="127"
       y="68"
       id="text1968">238</text>
    <text
       x="127"
       y="76"
       id="text1972">239</text>
    <text
       x="127"
       y="84"
       id="text1976">240</text>
    <text
       x="127"
       y="92"
       id="text1980">241</text>
    <text
       x="127"
       y="100"
       id="text1984">242</text>
    <text
       x="127"
       y="108"
       id="text1988">243</text>
    <text
       x="151"
       y="4"
       id="text1992">244</text>
    <text
       x="151"
       y="12"
       id="text1996">245</text>
    <text
       x="151"
       y="20"
       id="text2000">246</text>
    <text
       x="151"
       y="28"
       id="text2004">247</text>
    <text
       x="151"
       y="36"
       id="text2008">248</text>
    <text
       x="151"
       y="44"
       id="text2012">249</text>
    <text
       x="151"
       y="52"
       id="text2016">250</text>
    <text
       x="151"
       y="60"
       id="text2020">251</text>
    <text
       x="151"
       y="68"
       id="text2024">252</text>
    <text
       x="151"
       y="76"
       id="text2028">253</text>
    <text
       x="151"
       y="84"
       id="text2032">254</text>
    <text
       x="151"
       y="92"
       id="text2034">255</text>
  </g>
  <g
     id="symbols"
     inkscape:label="symbols">
    <path
       d="M10 10.8h.55v.65H10zm.6 0h.55v.65h-.55zm.6 0h.55v.65h-.55zm-1.2.7h.55v.65H10zm1.2 0h.55v.65h-.55zm-1.2.7h.55v.65H10zm.6 0h.55v.65h-.55zm.6 0h.55v.65h-.55z"
       id="path1662" />
    <path
       d="M11.2 16h.55v.65h-.55zm.6 0h.55v.65h-.55zm.6 0h.55v.65h-.55zm-1.2.7h.55v.65h-.55zm0 .7h.55v.65h-.55zm0 .7h.55v.65h-.55z"
       id="path1666" />
    <path
       d="M11.2 26.1h.55v.65h-.55zm0 .7h.55v.65h-.55zm0 .7h.55v.65h-.55zm-1.2.7h.55v.65H10zm.6 0h.55v.65h-.55zm.6 0h.55v.65h-.55z"
       id="path1670" />
    <path
       d="M10 34.8h.55v.65H10zm.6.7h.55v.65h-.55zm.6.7h.55v.65h-.55z"
       id="path1674" />
    <path
       d="M10.6 42.1h.55v.65h-.55zm.6 0h.55v.65h-.55zm-.6.7h.55v.65h-.55zm.6 0h.55v.65h-.55z"
       id="path1678" />
    <path
       d="M10 48.7h.55v.65H10zm.6 0h.55v.65h-.55zm.6 0h.55v.65h-.55zm.6 0h.55v.65h-.55zm.6 0h.55v.65h-.55zm0 .7h.55v.65h-.55zm-2.4.7h.55v.65H10zm.6 0h.55v.65h-.55zm.6 0h.55v.65h-.55zm.6 0h.55v.65h-.55zm.6 0h.55v.65h-.55zm0 .7h.55v.65h-.55zm-.6.7h.55v.65h-.55zm-.6.7h.55v.65h-.55z"
       id="path1682" />
    <path
       d="M10 57.4h.55v.65H10zm.6 0h.55v.65h-.55zm.6 0h.55v.65h-.55zm.6 0h.55v.65h-.55zm.6 0h.55v.65h-.55zm0 .7h.55v.65h-.55zm-1.2.7h.55v.65h-.55zm.6 0h.55v.65h-.55zm-.6.7h.55v.65h-.55zm-.6.7h.55v.65h-.55z"
       id="path1686" />
    <path
       d="M11.8 65.4h.55v.65h-.55zm-.6.7h.55v.65h-.55zm-.6.7h.55v.65h-.55zm.6 0h.55v.65h-.55zm-1.2.7h.55v.65H10zm1.2 0h.55v.65h-.55zm0 .7h.55v.65h-.55z"
       id="path1690" />
    <path
       d="M11.2 73.4h.55v.65h-.55zm-1.2.7h.55v.65H10zm.6 0h.55v.65h-.55zm.6 0h.55v.65h-.55zm.6 0h.55v.65h-.55zm.6 0h.55v.65h-.55zm-2.4.7h.55v.65H10zm2.4 0h.55v.65h-.55zm0 .7h.55v.65h-.55zm-1.2.7h.55v.65h-.55zm.6 0h.55v.65h-.55z"
       id="path1694" />
    <path
       d="M10 81.4h.55v.65H10zm.6 0h.55v.65h-.55zm.6 0h.55v.65h-.55zm.6 0h.55v.65h-.55zm.6 0h.55v.65h-.55zm-1.2.7h.55v.65h-.55zm0 .7h.55v.65h-.55zm0 .7h.55v.65h-.55zm-1.2.7h.55v.65H10zm.6 0h.55v.65h-.55zm.6 0h.55v.65h-.55zm.6 0h.55v.65h-.55zm.6 0h.55v.65h-.55z"
       id="path1698" />
    <path
       d="M11.8 89.4h.55v.65h-.55zm-1.8.7h.55v.65H10zm.6 0h.55v.65h-.55zm.6 0h.55v.65h-.55zm.6 0h.55v.65h-.55zm.6 0h.55v.65h-.55zm-1.2.7h.55v.65h-.55zm.6 0h.55v.65h-.55zm-1.2.7h.55v.65h-.55zm1.2 0h.55v.65h-.55zm-1.8.7h.55v.65H10zm1.8 0h.55v.65h-.55z"
       id="path1702" />
    <path
       d="M10.6 97.4h.55v.65h-.55zm-.6.7h.55v.65H10zm.6 0h.55v.65h-.55zm.6 0h.55v.65h-.55zm.6 0h.55v.65h-.55zm.6 0h.55v.65h-.55zm-1.8.7h.55v.65h-.55zm1.8 0h.55v.65h-.55zm-1.8.7h.55v.65h-.55zm1.2 0h.55v.65h-.55zm-1.2.7h.55v.65h-.55z"
       id="path1706" />
    <path
       d="M10.6 106.1h.55v.65h-.55zm.6 0h.55v.65h-.55zm.6 0h.55v.65h-.55zm0 .7h.55v.65h-.55zm0 .7h.55v.65h-.55zm-1.8.7h.55v.65H10zm.6 0h.55v.65h-.55zm.6 0h.55v.65h-.55zm.6 0h.55v.65h-.55zm.6 0h.55v.65h-.55z"
       id="path1710" />
    <path
       d="M34 1.4h.55v.65H34zm.6 0h.55v.65h-.55zm.6 0h.55v.65h-.55zm.6 0h.55v.65h-.55zm0 .7h.55v.65h-.55zm-1.8.7h.55v.65H34zm.6 0h.55v.65h-.55zm.6 0h.55v.65h-.55zm.6 0h.55v.65h-.55zm0 .7h.55v.65h-.55zm-1.8.7h.55v.65H34zm.6 0h.55v.65h-.55zm.6 0h.55v.65h-.55zm.6 0h.55v.65h-.55z"
       id="path1714" />
    <path
       d="M34 10.1h.55v.65H34zm1.2 0h.55v.65h-.55zm1.2 0h.55v.65h-.55zm-2.4.7h.55v.65H34zm1.2 0h.55v.65h-.55zm1.2 0h.55v.65h-.55zm0 .7h.55v.65h-.55zm-1.2.7h.55v.65h-.55zm.6 0h.55v.65h-.55z"
       id="path1718" />
    <path
       d="M34 18.1h.55v.65H34zm.6 0h.55v.65h-.55zm.6 0h.55v.65h-.55zm.6 0h.55v.65h-.55zm.6 0h.55v.65h-.55z"
       id="path1722" />
    <path
       d="M34 24h.55v.65H34zm.6 0h.55v.65h-.55zm.6 0h.55v.65h-.55zm.6 0h.55v.65h-.55zm.6 0h.55v.65h-.55zm0 .7h.55v.65h-.55zm-1.2.7h.55v.65h-.55zm1.2 0h.55v.65h-.55zm-1.2.7h.55v.65h-.55zm.6 0h.55v.65h-.55zm-.6.7h.55v.65h-.55zm0 .7h.55v.65h-.55zm-.6.7h.55v.65h-.55z"
       id="path1726" />
    <path
       d="M36.4 32h.55v.65h-.55zm-.6.7h.55v.65h-.55zm-.6.7h.55v.65h-.55zm-.6.7h.55v.65h-.55zm.6 0h.55v.65h-.55zm-1.2.7h.55v.65H34zm1.2 0h.55v.65h-.55zm0 .7h.55v.65h-.55zm0 .7h.55v.65h-.55z"
       id="path1730" />
    <path
       d="M35.2 40h.55v.65h-.55zm-1.2.7h.55v.65H34zm.6 0h.55v.65h-.55zm.6 0h.55v.65h-.55zm.6 0h.55v.65h-.55zm.6 0h.55v.65h-.55zm-2.4.7h.55v.65H34zm2.4 0h.55v.65h-.55zm-2.4.7h.55v.65H34zm2.4 0h.55v.65h-.55zm0 .7h.55v.65h-.55zm-.6.7h.55v.65h-.55zm-.6.7h.55v.65h-.55z"
       id="path1734" />
    <path
       d="M34 48.7h.55v.65H34zm.6 0h.55v.65h-.55zm.6 0h.55v.65h-.55zm.6 0h.55v.65h-.55zm.6 0h.55v.65h-.55zm-1.2.7h.55v.65h-.55zm0 .7h.55v.65h-.55zm0 .7h.55v.65h-.55zm0 .7h.55v.65h-.55zm-1.2.7h.55v.65H34zm.6 0h.55v.65h-.55zm.6 0h.55v.65h-.55zm.6 0h.55v.65h-.55zm.6 0h.55v.65h-.55z"
       id="path1738" />
    <path
       d="M35.8 56h.55v.65h-.55zm-1.8.7h.55v.65H34zm.6 0h.55v.65h-.55zm.6 0h.55v.65h-.55zm.6 0h.55v.65h-.55zm.6 0h.55v.65h-.55zm-.6.7h.55v.65h-.55zm-.6.7h.55v.65h-.55zm.6 0h.55v.65h-.55zm-1.2.7h.55v.65h-.55zm1.2 0h.55v.65h-.55zm-1.8.7h.55v.65H34zm1.8 0h.55v.65h-.55zm0 .7h.55v.65h-.55z"
       id="path1742" />
    <path
       d="M34.6 64h.55v.65h-.55zm-.6.7h.55v.65H34zm.6 0h.55v.65h-.55zm.6 0h.55v.65h-.55zm.6 0h.55v.65h-.55zm.6 0h.55v.65h-.55zm-1.8.7h.55v.65h-.55zm1.8 0h.55v.65h-.55zm-1.8.7h.55v.65h-.55zm1.8 0h.55v.65h-.55zm-1.8.7h.55v.65h-.55zm1.8 0h.55v.65h-.55zm-1.8.7h.55v.65h-.55zm1.8 0h.55v.65h-.55zm-2.4.7h.55v.65H34zm1.8 0h.55v.65h-.55z"
       id="path1746" />
    <path
       d="M35.2 72h.55v.65h-.55zm-1.2.7h.55v.65H34zm.6 0h.55v.65h-.55zm.6 0h.55v.65h-.55zm.6 0h.55v.65h-.55zm.6 0h.55v.65h-.55zm-1.2.7h.55v.65h-.55zm-1.2.7h.55v.65H34zm.6 0h.55v.65h-.55zm.6 0h.55v.65h-.55zm.6 0h.55v.65h-.55zm.6 0h.55v.65h-.55zm-1.2.7h.55v.65h-.55zm0 .7h.55v.65h-.55zm0 .7h.55v.65h-.55z"
       id="path1750" />
    <path
       d="M34.6 80.7h.55v.65h-.55zm.6 0h.55v.65h-.55zm.6 0h.55v.65h-.55zm.6 0h.55v.65h-.55zm-1.8.7h.55v.65h-.55zm1.8 0h.55v.65h-.55zm-2.4.7h.55v.65H34zm2.4 0h.55v.65h-.55zm0 .7h.55v.65h-.55zm-.6.7h.55v.65h-.55zm-1.2.7h.55v.65h-.55zm.6 0h.55v.65h-.55z"
       id="path1754" />
    <path
       d="M34.6 88h.55v.65h-.55zm0 .7h.55v.65h-.55zm.6 0h.55v.65h-.55zm.6 0h.55v.65h-.55zm.6 0h.55v.65h-.55zm-2.4.7h.55v.65H34zm1.8 0h.55v.65h-.55zm0 .7h.55v.65h-.55zm0 .7h.55v.65h-.55zm0 .7h.55v.65h-.55zm-.6.7h.55v.65h-.55z"
       id="path1758" />
    <path
       d="M34 96.7h.55v.65H34zm.6 0h.55v.65h-.55zm.6 0h.55v.65h-.55zm.6 0h.55v.65h-.55zm.6 0h.55v.65h-.55zm0 .7h.55v.65h-.55zm0 .7h.55v.65h-.55zm0 .7h.55v.65h-.55zm0 .7h.55v.65h-.55zm-2.4.7h.55v.65H34zm.6 0h.55v.65h-.55zm.6 0h.55v.65h-.55zm.6 0h.55v.65h-.55zm.6 0h.55v.65h-.55z"
       id="path1762" />
    <path
       d="M34.6 104h.55v.65h-.55zm1.2 0h.55v.65h-.55zm-1.8.7h.55v.65H34zm.6 0h.55v.65h-.55zm.6 0h.55v.65h-.55zm.6 0h.55v.65h-.55zm.6 0h.55v.65h-.55zm-1.8.7h.55v.65h-.55zm1.2 0h.55v.65h-.55zm-1.2.7h.55v.65h-.55zm1.2 0h.55v.65h-.55zm0 .7h.55v.65h-.55zm-.6.7h.55v.65h-.55zm-.6.7h.55v.65h-.55z"
       id="path1766" />
    <path
       d="M58 .7h.55v.65H58zm.6 0h.55v.65h-.55zm1.8.7h.55v.65h-.55zm-2.4.7h.55v.65H58zm.6 0h.55v.65h-.55zm1.8 0h.55v.65h-.55zm0 .7h.55v.65h-.55zm-.6.7h.55v.65h-.55zm-1.8.7h.55v.65H58zm.6 0h.55v.65h-.55zm.6 0h.55v.65h-.55z"
       id="path1770" />
    <path
       d="M58 8.7h.55v.65H58zm.6 0h.55v.65h-.55zm.6 0h.55v.65h-.55zm.6 0h.55v.65h-.55zm.6 0h.55v.65h-.55zm0 .7h.55v.65h-.55zm-.6.7h.55v.65h-.55zm-.6.7h.55v.65h-.55zm-.6.7h.55v.65h-.55zm1.2 0h.55v.65h-.55zm-1.8.7h.55v.65H58zm2.4 0h.55v.65h-.55z"
       id="path1774" />
    <path
       d="M58.6 16h.55v.65h-.55zm-.6.7h.55v.65H58zm.6 0h.55v.65h-.55zm.6 0h.55v.65h-.55zm.6 0h.55v.65h-.55zm.6 0h.55v.65h-.55zm-1.8.7h.55v.65h-.55zm1.8 0h.55v.65h-.55zm-1.8.7h.55v.65h-.55zm1.2 0h.55v.65h-.55zm-1.2.7h.55v.65h-.55zm0 .7h.55v.65h-.55zm.6.7h.55v.65h-.55zm.6 0h.55v.65h-.55zm.6 0h.55v.65h-.55z"
       id="path1778" />
    <path
       d="M58 24.7h.55v.65H58zm2.4 0h.55v.65h-.55zm-2.4.7h.55v.65H58zm2.4 0h.55v.65h-.55zm-1.8.7h.55v.65h-.55zm1.8 0h.55v.65h-.55zm0 .7h.55v.65h-.55zm-.6.7h.55v.65h-.55zm-1.2.7h.55v.65h-.55zm.6 0h.55v.65h-.55z"
       id="path1782" />
    <path
       d="M58.6 32.7h.55v.65h-.55zm.6 0h.55v.65h-.55zm.6 0h.55v.65h-.55zm.6 0h.55v.65h-.55zm-1.8.7h.55v.65h-.55zm1.8 0h.55v.65h-.55zm-2.4.7h.55v.65H58zm1.2 0h.55v.65h-.55zm1.2 0h.55v.65h-.55zm-.6.7h.55v.65h-.55zm.6 0h.55v.65h-.55zm-.6.7h.55v.65h-.55zm-1.2.7h.55v.65h-.55zm.6 0h.55v.65h-.55z"
       id="path1786" />
    <path
       d="M59.8 40h.55v.65h-.55zm-1.8.7h.55v.65H58zm.6 0h.55v.65h-.55zm.6 0h.55v.65h-.55zm0 .7h.55v.65h-.55zm-1.2.7h.55v.65H58zm.6 0h.55v.65h-.55zm.6 0h.55v.65h-.55zm.6 0h.55v.65h-.55zm.6 0h.55v.65h-.55zm-1.2.7h.55v.65h-.55zm0 .7h.55v.65h-.55zm-.6.7h.55v.65h-.55z"
       id="path1790" />
    <path
       d="M58 48.7h.55v.65H58zm1.2 0h.55v.65h-.55zm1.2 0h.55v.65h-.55zm-2.4.7h.55v.65H58zm1.2 0h.55v.65h-.55zm1.2 0h.55v.65h-.55zm-2.4.7h.55v.65H58zm1.2 0h.55v.65h-.55zm1.2 0h.55v.65h-.55zm0 .7h.55v.65h-.55zm-.6.7h.55v.65h-.55zm-.6.7h.55v.65h-.55z"
       id="path1794" />
    <path
       d="M58.6 56h.55v.65h-.55zm.6 0h.55v.65h-.55zm.6 0h.55v.65h-.55zM58 57.4h.55v.65H58zm.6 0h.55v.65h-.55zm.6 0h.55v.65h-.55zm.6 0h.55v.65h-.55zm.6 0h.55v.65h-.55zm-1.2.7h.55v.65h-.55zm0 .7h.55v.65h-.55zm0 .7h.55v.65h-.55zm-.6.7h.55v.65h-.55z"
       id="path1798" />
    <path
       d="M58.6 64h.55v.65h-.55zm0 .7h.55v.65h-.55zm0 .7h.55v.65h-.55zm0 .7h.55v.65h-.55zm.6 0h.55v.65h-.55zm-.6.7h.55v.65h-.55zm1.2 0h.55v.65h-.55zm-1.2.7h.55v.65h-.55zm0 .7h.55v.65h-.55z"
       id="path1802" />
    <path
       d="M59.2 72h.55v.65h-.55zm0 .7h.55v.65h-.55zm-1.2.7h.55v.65H58zm.6 0h.55v.65h-.55zm.6 0h.55v.65h-.55zm.6 0h.55v.65h-.55zm.6 0h.55v.65h-.55zm-1.2.7h.55v.65h-.55zm0 .7h.55v.65h-.55zm-.6.7h.55v.65h-.55zm-.6.7h.55v.65H58z"
       id="path1806" />
    <path
       d="M58.6 80.7h.55v.65h-.55zm.6 0h.55v.65h-.55zm.6 0h.55v.65h-.55zM58 84.2h.55v.65H58zm.6 0h.55v.65h-.55zm.6 0h.55v.65h-.55zm.6 0h.55v.65h-.55zm.6 0h.55v.65h-.55z"
       id="path1810" />
    <path
       d="M58 88.7h.55v.65H58zm.6 0h.55v.65h-.55zm.6 0h.55v.65h-.55zm.6 0h.55v.65h-.55zm.6 0h.55v.65h-.55zm0 .7h.55v.65h-.55zm-1.8.7h.55v.65h-.55zm1.2 0h.55v.65h-.55zm-.6.7h.55v.65h-.55zm-.6.7h.55v.65h-.55zm1.2 0h.55v.65h-.55zm-1.8.7h.55v.65H58z"
       id="path1814" />
    <path
       d="M59.2 96h.55v.65h-.55zm-1.2.7h.55v.65H58zm.6 0h.55v.65h-.55zm.6 0h.55v.65h-.55zm.6 0h.55v.65h-.55zm.6 0h.55v.65h-.55zm-.6.7h.55v.65h-.55zm-.6.7h.55v.65h-.55zm-.6.7h.55v.65h-.55zm.6 0h.55v.65h-.55zm.6 0h.55v.65h-.55zm-1.8.7h.55v.65H58zm1.2 0h.55v.65h-.55zm1.2 0h.55v.65h-.55zm-1.2.7h.55v.65h-.55z"
       id="path1818" />
    <path
       d="M59.8 104h.55v.65h-.55zm0 .7h.55v.65h-.55zm0 .7h.55v.65h-.55zm0 .7h.55v.65h-.55zm0 .7h.55v.65h-.55zm-.6.7h.55v.65h-.55zm-.6.7h.55v.65h-.55z"
       id="path1822" />
    <path
       d="M83.2.7h.55v.65h-.55zm.6.7h.55v.65h-.55zm-1.8.7h.55v.65H82zm2.4 0h.55v.65h-.55zm-2.4.7h.55v.65H82zm2.4 0h.55v.65h-.55zm-2.4.7h.55v.65H82zm2.4 0h.55v.65h-.55zm-2.4.7h.55v.65H82zm2.4 0h.55v.65h-.55z"
       id="path1826" />
    <path
       d="M82 8h.55v.65H82zm0 .7h.55v.65H82zm0 .7h.55v.65H82zm.6 0h.55v.65h-.55zm.6 0h.55v.65h-.55zm.6 0h.55v.65h-.55zm.6 0h.55v.65h-.55zm-2.4.7h.55v.65H82zm0 .7h.55v.65H82zm0 .7h.55v.65H82zm.6.7h.55v.65h-.55zm.6 0h.55v.65h-.55zm.6 0h.55v.65h-.55zm.6 0h.55v.65h-.55z"
       id="path1830" />
    <path
       d="M82 16.7h.55v.65H82zm.6 0h.55v.65h-.55zm.6 0h.55v.65h-.55zm.6 0h.55v.65h-.55zm.6 0h.55v.65h-.55zm0 .7h.55v.65h-.55zm0 .7h.55v.65h-.55zm0 .7h.55v.65h-.55zm-.6.7h.55v.65h-.55zm-1.2.7h.55v.65h-.55zm.6 0h.55v.65h-.55z"
       id="path1834" />
    <path
       d="M82.6 24.7h.55v.65h-.55zm-.6.7h.55v.65H82zm1.2 0h.55v.65h-.55zm.6.7h.55v.65h-.55zm.6.7h.55v.65h-.55zm0 .7h.55v.65h-.55z"
       id="path1838" />
    <path
       d="M83.2 32h.55v.65h-.55zm-1.2.7h.55v.65H82zm.6 0h.55v.65h-.55zm.6 0h.55v.65h-.55zm.6 0h.55v.65h-.55zm.6 0h.55v.65h-.55zm-1.2.7h.55v.65h-.55zm0 .7h.55v.65h-.55zm-1.2.7h.55v.65H82zm1.2 0h.55v.65h-.55zm1.2 0h.55v.65h-.55zm-2.4.7h.55v.65H82zm1.2 0h.55v.65h-.55zm1.2 0h.55v.65h-.55zm-1.2.7h.55v.65h-.55z"
       id="path1842" />
    <path
       d="M82 40.7h.55v.65H82zm.6 0h.55v.65h-.55zm.6 0h.55v.65h-.55zm.6 0h.55v.65h-.55zm.6 0h.55v.65h-.55zm0 .7h.55v.65h-.55zm0 .7h.55v.65h-.55zm-1.8.7h.55v.65h-.55zm1.2 0h.55v.65h-.55zm-.6.7h.55v.65h-.55zm.6.7h.55v.65h-.55z"
       id="path1846" />
    <path
       d="M82.6 48.7h.55v.65h-.55zm.6 0h.55v.65h-.55zm.6 0h.55v.65h-.55zm-1.2 1.4h.55v.65h-.55zm.6 0h.55v.65h-.55zm.6 0h.55v.65h-.55zm-1.2 1.4h.55v.65h-.55zm.6 0h.55v.65h-.55zm.6 0h.55v.65h-.55zm.6.7h.55v.65h-.55z"
       id="path1850" />
    <path
       d="M83.2 56.7h.55v.65h-.55zm-.6.7h.55v.65h-.55zm-.6.7h.55v.65H82zm0 .7h.55v.65H82zm2.4 0h.55v.65h-.55zm-2.4.7h.55v.65H82zm.6 0h.55v.65h-.55zm.6 0h.55v.65h-.55zm.6 0h.55v.65h-.55zm.6 0h.55v.65h-.55zm0 .7h.55v.65h-.55z"
       id="path1854" />
    <path
       d="M84.4 64.7h.55v.65h-.55zm0 .7h.55v.65h-.55zm-1.8.7h.55v.65h-.55zm1.2 0h.55v.65h-.55zm-.6.7h.55v.65h-.55zm-.6.7h.55v.65h-.55zm1.2 0h.55v.65h-.55zm-1.8.7h.55v.65H82z"
       id="path1858" />
    <path
       d="M82 72.7h.55v.65H82zm.6 0h.55v.65h-.55zm.6 0h.55v.65h-.55zm.6 0h.55v.65h-.55zm.6 0h.55v.65h-.55zm-1.8.7h.55v.65h-.55zm-.6.7h.55v.65H82zm.6 0h.55v.65h-.55zm.6 0h.55v.65h-.55zm.6 0h.55v.65h-.55zm.6 0h.55v.65h-.55zm-1.8.7h.55v.65h-.55zm0 .7h.55v.65h-.55zm.6.7h.55v.65h-.55zm.6 0h.55v.65h-.55zm.6 0h.55v.65h-.55z"
       id="path1862" />
    <path
       d="M82.6 80h.55v.65h-.55zm0 .7h.55v.65h-.55zm-.6.7h.55v.65H82zm.6 0h.55v.65h-.55zm.6 0h.55v.65h-.55zm.6 0h.55v.65h-.55zm.6 0h.55v.65h-.55zm-1.8.7h.55v.65h-.55zm1.8 0h.55v.65h-.55zm-1.8.7h.55v.65h-.55zm1.2 0h.55v.65h-.55zm-1.2.7h.55v.65h-.55zm0 .7h.55v.65h-.55z"
       id="path1866" />
    <path
       d="M82.6 88.7h.55v.65h-.55zm.6 0h.55v.65h-.55zm.6 0h.55v.65h-.55zm0 .7h.55v.65h-.55zm0 .7h.55v.65h-.55zm0 .7h.55v.65h-.55zm0 .7h.55v.65h-.55zm-1.8.7h.55v.65H82zm.6 0h.55v.65h-.55zm.6 0h.55v.65h-.55zm.6 0h.55v.65h-.55zm.6 0h.55v.65h-.55z"
       id="path1870" />
    <path
       d="M82 96.7h.55v.65H82zm.6 0h.55v.65h-.55zm.6 0h.55v.65h-.55zm.6 0h.55v.65h-.55zm.6 0h.55v.65h-.55zm0 .7h.55v.65h-.55zm-2.4.7h.55v.65H82zm.6 0h.55v.65h-.55zm.6 0h.55v.65h-.55zm.6 0h.55v.65h-.55zm.6 0h.55v.65h-.55zm0 .7h.55v.65h-.55zm0 .7h.55v.65h-.55zm-2.4.7h.55v.65H82zm.6 0h.55v.65h-.55zm.6 0h.55v.65h-.55zm.6 0h.55v.65h-.55zm.6 0h.55v.65h-.55z"
       id="path1874" />
    <path
       d="M82.6 104h.55v.65h-.55zm.6 0h.55v.65h-.55zm.6 0h.55v.65h-.55zm-1.8 1.4h.55v.65H82zm.6 0h.55v.65h-.55zm.6 0h.55v.65h-.55zm.6 0h.55v.65h-.55zm.6 0h.55v.65h-.55zm0 .7h.55v.65h-.55zm0 .7h.55v.65h-.55zm-.6.7h.55v.65h-.55zm-.6.7h.55v.65h-.55z"
       id="path1878" />
    <path
       d="M106 0h.55v.65H106zm1.8 0h.55v.65h-.55zm-1.8.7h.55v.65H106zm1.8 0h.55v.65h-.55zm-1.8.7h.55v.65H106zm1.8 0h.55v.65h-.55zm-1.8.7h.55v.65H106zm1.8 0h.55v.65h-.55zm0 .7h.55v.65h-.55zm-.6.7h.55v.65h-.55zm-.6.7h.55v.65h-.55z"
       id="path1882" />
    <path
       d="M107.2 8.7h.55v.65h-.55zm-1.2.7h.55v.65H106zm1.2 0h.55v.65h-.55zm-1.2.7h.55v.65H106zm1.2 0h.55v.65h-.55zm-1.2.7h.55v.65H106zm1.2 0h.55v.65h-.55zm1.2 0h.55v.65h-.55zm-2.4.7h.55v.65H106zm1.2 0h.55v.65h-.55zm1.2 0h.55v.65h-.55zm-2.4.7h.55v.65H106zm1.2 0h.55v.65h-.55zm.6 0h.55v.65h-.55z"
       id="path1886" />
    <path
       d="M106 16.7h.55v.65H106zm0 .7h.55v.65H106zm0 .7h.55v.65H106zm2.4 0h.55v.65h-.55zm-2.4.7h.55v.65H106zm1.8 0h.55v.65h-.55zm-1.8.7h.55v.65H106zm1.2 0h.55v.65h-.55zm-1.2.7h.55v.65H106zm.6 0h.55v.65h-.55z"
       id="path1890" />
    <path
       d="M106 24.7h.55v.65H106zm.6 0h.55v.65h-.55zm.6 0h.55v.65h-.55zm.6 0h.55v.65h-.55zm.6 0h.55v.65h-.55zm-2.4.7h.55v.65H106zm2.4 0h.55v.65h-.55zm-2.4.7h.55v.65H106zm2.4 0h.55v.65h-.55zm-2.4.7h.55v.65H106zm2.4 0h.55v.65h-.55zm-2.4.7h.55v.65H106zm2.4 0h.55v.65h-.55zm-2.4.7h.55v.65H106zm.6 0h.55v.65h-.55zm.6 0h.55v.65h-.55zm.6 0h.55v.65h-.55zm.6 0h.55v.65h-.55z"
       id="path1894" />
    <path
       d="M106 32.7h.55v.65H106zm.6 0h.55v.65h-.55zm.6 0h.55v.65h-.55zm.6 0h.55v.65h-.55zm.6 0h.55v.65h-.55zm-2.4.7h.55v.65H106zm2.4 0h.55v.65h-.55zm-2.4.7h.55v.65H106zm2.4 0h.55v.65h-.55zm0 .7h.55v.65h-.55zm-.6.7h.55v.65h-.55zm-.6.7h.55v.65h-.55z"
       id="path1898" />
    <path
       d="M106 40.7h.55v.65H106zm.6 0h.55v.65h-.55zm1.8 1.4h.55v.65h-.55zm0 .7h.55v.65h-.55zm-.6.7h.55v.65h-.55zm-1.8.7h.55v.65H106zm.6 0h.55v.65h-.55zm.6 0h.55v.65h-.55z"
       id="path1902" />
    <path
       d="M107.2 48h.55v.65h-.55zm-1.2.7h.55v.65H106zm1.8 0h.55v.65h-.55zm-1.2.7h.55v.65h-.55z"
       id="path1906" />
    <path
       d="M106 56h.55v.65H106zm.6 0h.55v.65h-.55zm.6 0h.55v.65h-.55zm-1.2.7h.55v.65H106zm1.2 0h.55v.65h-.55zm-1.2.7h.55v.65H106zm.6 0h.55v.65h-.55zm.6 0h.55v.65h-.55z"
       id="path1910" />
    <path
       d="M106.6 65.4h.55v.65h-.55zm1.8 0h.55v.65h-.55zm-2.4.7h.55v.65H106zm1.2 0h.55v.65h-.55zm1.2 0h.55v.65h-.55zm-2.4.7h.55v.65H106zm1.8 0h.55v.65h-.55zm-1.8.7h.55v.65H106zm1.8 0h.55v.65h-.55zm-1.2.7h.55v.65h-.55zm.6 0h.55v.65h-.55zm1.2 0h.55v.65h-.55z"
       id="path1914" />
    <path
       d="M106.6 72h.55v.65h-.55zm1.2 0h.55v.65h-.55zm-1.2 1.4h.55v.65h-.55zm.6 0h.55v.65h-.55zm.6 0h.55v.65h-.55zm.6.7h.55v.65h-.55zm-1.8.7h.55v.65h-.55zm.6 0h.55v.65h-.55zm.6 0h.55v.65h-.55zm.6 0h.55v.65h-.55zm-2.4.7h.55v.65H106zm2.4 0h.55v.65h-.55zm-1.8.7h.55v.65h-.55zm.6 0h.55v.65h-.55zm.6 0h.55v.65h-.55zm.6 0h.55v.65h-.55z"
       id="path1918" />
    <path
       d="M106.6 81.4h.55v.65h-.55zm.6 0h.55v.65h-.55zm.6 0h.55v.65h-.55zm-1.8.7h.55v.65H106zm2.4 0h.55v.65h-.55zm-2.4.7h.55v.65H106zm.6 0h.55v.65h-.55zm.6 0h.55v.65h-.55zm.6 0h.55v.65h-.55zm-1.8.7h.55v.65H106zm2.4 0h.55v.65h-.55zm-2.4.7h.55v.65H106zm.6 0h.55v.65h-.55zm.6 0h.55v.65h-.55zm.6 0h.55v.65h-.55zm-1.8.7h.55v.65H106z"
       id="path1922" />
    <path
       d="M106.6 89.4h.55v.65h-.55zm.6 0h.55v.65h-.55zm.6 0h.55v.65h-.55zm-1.8.7h.55v.65H106zm.6.7h.55v.65h-.55zm.6 0h.55v.65h-.55zm-1.2.7h.55v.65H106zm2.4 0h.55v.65h-.55zm-1.8.7h.55v.65h-.55zm.6 0h.55v.65h-.55zm.6 0h.55v.65h-.55z"
       id="path1926" />
    <path
       d="M106 97.4h.55v.65H106zm2.4 0h.55v.65h-.55zm-2.4.7h.55v.65H106zm2.4 0h.55v.65h-.55zm-2.4.7h.55v.65H106zm2.4 0h.55v.65h-.55zm-2.4.7h.55v.65H106zm1.8 0h.55v.65h-.55zm.6 0h.55v.65h-.55zm-2.4.7h.55v.65H106zm.6 0h.55v.65h-.55zm.6 0h.55v.65h-.55zm1.2 0h.55v.65h-.55zm-2.4.7h.55v.65H106z"
       id="path1930" />
    <path
       d="M106.6 105.4h.55v.65h-.55zm.6 0h.55v.65h-.55zm.6 0h.55v.65h-.55zm.6 0h.55v.65h-.55zm-2.4.7h.55v.65H106zm1.2 0h.55v.65h-.55zm-1.2.7h.55v.65H106zm1.8 0h.55v.65h-.55zm-1.8.7h.55v.65H106zm2.4 0h.55v.65h-.55zm-1.8.7h.55v.65h-.55zm.6 0h.55v.65h-.55zm.6 0h.55v.65h-.55z"
       id="path1934" />
    <path
       d="M131.2 1.4h.55v.65h-.55zm.6 0h.55v.65h-.55zm-1.2.7h.55v.65h-.55zm1.8 0h.55v.65h-.55zm-2.4.7h.55v.65H130zm2.4 0h.55v.65h-.55zm-2.4.7h.55v.65H130zm2.4 0h.55v.65h-.55zm-2.4.7h.55v.65H130zm.6 0h.55v.65h-.55zm.6 0h.55v.65h-.55zm.6 0h.55v.65h-.55zm-1.8.7h.55v.65H130z"
       id="path1938" />
    <path
       d="M130.6 9.4h.55v.65h-.55zm.6 0h.55v.65h-.55zm.6 0h.55v.65h-.55zm.6 0h.55v.65h-.55zm-2.4.7h.55v.65H130zm2.4 0h.55v.65h-.55zm-2.4.7h.55v.65H130zm2.4 0h.55v.65h-.55zm-2.4.7h.55v.65H130zm2.4 0h.55v.65h-.55zm-1.8.7h.55v.65h-.55zm.6 0h.55v.65h-.55zm.6 0h.55v.65h-.55zm.6 0h.55v.65h-.55zm0 .7h.55v.65h-.55z"
       id="path1942" />
    <path
       d="M131.2 17.4h.55v.65h-.55zm.6 0h.55v.65h-.55zm.6 0h.55v.65h-.55zm-1.2.7h.55v.65h-.55zm0 .7h.55v.65h-.55zm-1.2.7h.55v.65H130zm1.2 0h.55v.65h-.55zm-.6.7h.55v.65h-.55z"
       id="path1946" />
    <path
       d="M131.8 24.7h.55v.65h-.55zm-1.8.7h.55v.65H130zm.6 0h.55v.65h-.55zm1.2 0h.55v.65h-.55zm0 .7h.55v.65h-.55z"
       id="path1950" />
    <path
       d="M131.8 32h.55v.65h-.55zm-.6 1.4h.55v.65h-.55zm.6 0h.55v.65h-.55zm0 .7h.55v.65h-.55zm0 .7h.55v.65h-.55zm0 .7h.55v.65h-.55zm0 .7h.55v.65h-.55zm0 .7h.55v.65h-.55z"
       id="path1954" />
    <path
       d="M130 40.7h.55v.65H130zm1.2 0h.55v.65h-.55zm-.6.7h.55v.65h-.55zm-.6.7h.55v.65H130zm1.2 0h.55v.65h-.55z"
       id="path1958" />
    <path
       d="M131.2 48.7h.55v.65h-.55zm-.6.7h.55v.65h-.55zm.6 0h.55v.65h-.55zm.6 0h.55v.65h-.55zm-1.8.7h.55v.65H130zm1.2 0h.55v.65h-.55zm-1.2.7h.55v.65H130zm1.2 0h.55v.65h-.55zm1.2 0h.55v.65h-.55zm-1.8.7h.55v.65h-.55zm.6 0h.55v.65h-.55zm.6 0h.55v.65h-.55zm-.6.7h.55v.65h-.55z"
       id="path1962" />
    <path
       d="M130.6 56h.55v.65h-.55zm0 .7h.55v.65h-.55zm-.6.7h.55v.65H130zm.6 0h.55v.65h-.55zm.6 0h.55v.65h-.55zm-.6.7h.55v.65h-.55zm-.6.7h.55v.65H130zm.6 0h.55v.65h-.55zm.6 0h.55v.65h-.55zm-.6.7h.55v.65h-.55zm0 .7h.55v.65h-.55zm.6 0h.55v.65h-.55zm.6 0h.55v.65h-.55zm.6 0h.55v.65h-.55z"
       id="path1966" />
    <path
       d="M130.6 64h.55v.65h-.55zm.6 0h.55v.65h-.55zm.6 0h.55v.65h-.55zm-1.8 1.4h.55v.65H130zm1.2 0h.55v.65h-.55zm.6 0h.55v.65h-.55zm-1.8.7h.55v.65H130zm.6 0h.55v.65h-.55zm1.8 0h.55v.65h-.55zm-2.4.7h.55v.65H130zm2.4 0h.55v.65h-.55zm-2.4.7h.55v.65H130zm2.4 0h.55v.65h-.55zm-2.4.7h.55v.65H130zm2.4 0h.55v.65h-.55z"
       id="path1970" />
    <path
       d="M130.6 72h.55v.65h-.55zm1.2 0h.55v.65h-.55zm-1.2 1.4h.55v.65h-.55zm.6 0h.55v.65h-.55zm.6 0h.55v.65h-.55zm-1.8.7h.55v.65H130zm2.4 0h.55v.65h-.55zm-2.4.7h.55v.65H130zm2.4 0h.55v.65h-.55zm-2.4.7h.55v.65H130zm2.4 0h.55v.65h-.55zm-1.8.7h.55v.65h-.55zm.6 0h.55v.65h-.55zm.6 0h.55v.65h-.55z"
       id="path1974" />
    <path
       d="M130 81.4h.55v.65H130zm1.2 0h.55v.65h-.55zm.6 0h.55v.65h-.55zm-1.8.7h.55v.65H130zm.6 0h.55v.65h-.55zm1.8 0h.55v.65h-.55zm-2.4.7h.55v.65H130zm2.4 0h.55v.65h-.55zm-2.4.7h.55v.65H130zm2.4 0h.55v.65h-.55zm-2.4.7h.55v.65H130zm.6 0h.55v.65h-.55zm.6 0h.55v.65h-.55zm.6 0h.55v.65h-.55zm-1.8.7h.55v.65H130z"
       id="path1978" />
    <path
       d="M130.6 89.4h.55v.65h-.55zm.6 0h.55v.65h-.55zm1.2 0h.55v.65h-.55zm-2.4.7h.55v.65H130zm1.8 0h.55v.65h-.55zm.6 0h.55v.65h-.55zm-2.4.7h.55v.65H130zm2.4 0h.55v.65h-.55zm-2.4.7h.55v.65H130zm2.4 0h.55v.65h-.55zm-1.8.7h.55v.65h-.55zm.6 0h.55v.65h-.55zm.6 0h.55v.65h-.55zm.6 0h.55v.65h-.55zm0 .7h.55v.65h-.55z"
       id="path1982" />
    <path
       d="M130.6 96.7h.55v.65h-.55zm.6 0h.55v.65h-.55zm.6 0h.55v.65h-.55zm-1.8.7h.55v.65H130zm2.4 0h.55v.65h-.55zm-2.4.7h.55v.65H130zm.6 0h.55v.65h-.55zm.6 0h.55v.65h-.55zm.6 0h.55v.65h-.55zm.6 0h.55v.65h-.55zm-2.4.7h.55v.65H130zm2.4 0h.55v.65h-.55zm-2.4.7h.55v.65H130zm2.4 0h.55v.65h-.55zm-1.8.7h.55v.65h-.55zm.6 0h.55v.65h-.55zm.6 0h.55v.65h-.55z"
       id="path1986" />
    <path
       d="M130.6 106.1h.55v.65h-.55zm1.2 0h.55v.65h-.55zm.6 0h.55v.65h-.55zm-2.4.7h.55v.65H130zm1.2 0h.55v.65h-.55zm1.2 0h.55v.65h-.55zm-2.4.7h.55v.65H130zm.6 0h.55v.65h-.55zm1.2 0h.55v.65h-.55z"
       id="path1990" />
    <path
       d="M154.6 1.4h.55v.65h-.55zm.6 0h.55v.65h-.55zm.6 0h.55v.65h-.55zm-1.8.7h.55v.65H154zm2.4 0h.55v.65h-.55zm-2.4.7h.55v.65H154zm2.4 0h.55v.65h-.55zm-1.8.7h.55v.65h-.55zm1.2 0h.55v.65h-.55zm-1.8.7h.55v.65H154zm.6 0h.55v.65h-.55zm1.2 0h.55v.65h-.55zm.6 0h.55v.65h-.55z"
       id="path1994" />
    <path
       d="M154.6 8h.55v.65h-.55zm1.2 0h.55v.65h-.55zM154 9.4h.55v.65H154zm2.4 0h.55v.65h-.55zm-2.4.7h.55v.65H154zm2.4 0h.55v.65h-.55zm-2.4.7h.55v.65H154zm2.4 0h.55v.65h-.55zm-2.4.7h.55v.65H154zm2.4 0h.55v.65h-.55zm-2.4.7h.55v.65H154zm1.8 0h.55v.65h-.55zm.6 0h.55v.65h-.55zm-1.8.7h.55v.65h-.55zm.6 0h.55v.65h-.55zm1.2 0h.55v.65h-.55z"
       id="path1998" />
    <path
       d="M154 16h.55v.65H154zm.6 0h.55v.65h-.55zm.6 0h.55v.65h-.55zm.6 0h.55v.65h-.55zm.6 0h.55v.65h-.55zm-2.4.7h.55v.65H154zm.6.7h.55v.65h-.55zm.6.7h.55v.65h-.55zm-.6.7h.55v.65h-.55zm-.6.7h.55v.65H154zm0 .7h.55v.65H154zm.6 0h.55v.65h-.55zm.6 0h.55v.65h-.55zm.6 0h.55v.65h-.55zm.6 0h.55v.65h-.55z"
       id="path2002" />
    <path
       d="M154 25.4h.55v.65H154zm.6 0h.55v.65h-.55zm.6 0h.55v.65h-.55zm.6 0h.55v.65h-.55zm.6 0h.55v.65h-.55zm-1.8.7h.55v.65h-.55zm1.2 0h.55v.65h-.55zm-1.2.7h.55v.65h-.55zm1.2 0h.55v.65h-.55zm-1.2.7h.55v.65h-.55zm1.2 0h.55v.65h-.55zm-1.8.7h.55v.65H154zm1.8 0h.55v.65h-.55zm.6 0h.55v.65h-.55z"
       id="path2006" />
    <path
       d="M154 32h.55v.65H154zm.6 0h.55v.65h-.55zm.6 0h.55v.65h-.55zm.6 0h.55v.65h-.55zm.6 0h.55v.65h-.55zm-2.4 1.4h.55v.65H154zm2.4 0h.55v.65h-.55zm-1.8.7h.55v.65h-.55zm1.2 0h.55v.65h-.55zm-.6.7h.55v.65h-.55zm-.6.7h.55v.65h-.55zm1.2 0h.55v.65h-.55zm-1.8.7h.55v.65H154zm2.4 0h.55v.65h-.55z"
       id="path2010" />
    <path
       d="M154 41.4h.55v.65H154zm2.4 0h.55v.65h-.55zm-2.4.7h.55v.65H154zm2.4 0h.55v.65h-.55zm-2.4.7h.55v.65H154zm2.4 0h.55v.65h-.55zm-2.4.7h.55v.65H154zm2.4 0h.55v.65h-.55zm-1.8.7h.55v.65h-.55zm.6 0h.55v.65h-.55zm.6 0h.55v.65h-.55zm.6 0h.55v.65h-.55zm0 .7h.55v.65h-.55z"
       id="path2014" />
    <path
       d="M156.4 48.7h.55v.65h-.55zm-2.4.7h.55v.65H154zm.6 0h.55v.65h-.55zm.6 0h.55v.65h-.55zm.6 0h.55v.65h-.55zm-.6.7h.55v.65h-.55zm-1.2.7h.55v.65H154zm.6 0h.55v.65h-.55zm.6 0h.55v.65h-.55zm.6 0h.55v.65h-.55zm.6 0h.55v.65h-.55zm-1.2.7h.55v.65h-.55zm0 .7h.55v.65h-.55z"
       id="path2018" />
    <path
       d="M154 57.4h.55v.65H154zm.6 0h.55v.65h-.55zm.6 0h.55v.65h-.55zm.6 0h.55v.65h-.55zm.6 0h.55v.65h-.55zm-1.8.7h.55v.65h-.55zm0 .7h.55v.65h-.55zm.6 0h.55v.65h-.55zm.6 0h.55v.65h-.55zm.6 0h.55v.65h-.55zm-1.8.7h.55v.65h-.55zm1.8 0h.55v.65h-.55zm-2.4.7h.55v.65H154zm2.4 0h.55v.65h-.55z"
       id="path2022" />
    <path
       d="M154 65.4h.55v.65H154zm.6 0h.55v.65h-.55zm.6 0h.55v.65h-.55zm.6 0h.55v.65h-.55zm.6 0h.55v.65h-.55zm-2.4.7h.55v.65H154zm1.2 0h.55v.65h-.55zm1.2 0h.55v.65h-.55zm-2.4.7h.55v.65H154zm.6 0h.55v.65h-.55zm.6 0h.55v.65h-.55zm.6 0h.55v.65h-.55zm.6 0h.55v.65h-.55zm-2.4.7h.55v.65H154zm2.4 0h.55v.65h-.55zm-2.4.7h.55v.65H154zm2.4 0h.55v.65h-.55z"
       id="path2026" />
    <path
       d="M155.2 72.7h.55v.65h-.55zm-1.2 1.4h.55v.65H154zm.6 0h.55v.65h-.55zm.6 0h.55v.65h-.55zm.6 0h.55v.65h-.55zm.6 0h.55v.65h-.55zm-1.2 1.4h.55v.65h-.55z"
       id="path2030" />
    <path
       d="M154 88h.55v.65H154zm.6 0h.55v.65h-.55zm.6 0h.55v.65h-.55zm.6 0h.55v.65h-.55zm.6 0h.55v.65h-.55zm-2.4.7h.55v.65H154zm.6 0h.55v.65h-.55zm.6 0h.55v.65h-.55zm.6 0h.55v.65h-.55zm.6 0h.55v.65h-.55zm-2.4.7h.55v.65H154zm.6 0h.55v.65h-.55zm.6 0h.55v.65h-.55zm.6 0h.55v.65h-.55zm.6 0h.55v.65h-.55zm-2.4.7h.55v.65H154zm.6 0h.55v.65h-.55zm.6 0h.55v.65h-.55zm.6 0h.55v.65h-.55zm.6 0h.55v.65h-.55zm-2.4.7h.55v.65H154zm.6 0h.55v.65h-.55zm.6 0h.55v.65h-.55zm.6 0h.55v.65h-.55zm.6 0h.55v.65h-.55zm-2.4.7h.55v.65H154zm.6 0h.55v.65h-.55zm.6 0h.55v.65h-.55zm.6 0h.55v.65h-.55zm.6 0h.55v.65h-.55zm-2.4.7h.55v.65H154zm.6 0h.55v.65h-.55zm.6 0h.55v.65h-.55zm.6 0h.55v.65h-.55zm.6 0h.55v.65h-.55zm-2.4.7h.55v.65H154zm.6 0h.55v.65h-.55zm.6 0h.55v.65h-.55zm.6 0h.55v.65h-.55zm.6 0h.55v.65h-.55z"
       id="path2036" />
  </g>
</svg>
