<svg width="159mm" height="74.6mm" version="1.1" viewBox="-3 0 159 74.6" xmlns="http://www.w3.org/2000/svg" xmlns:xlink="http://www.w3.org/1999/xlink">
 <defs>
  <linearGradient id="a" x1="2.18" x2="9.82" y1="2.18" y2="9.82" gradientUnits="userSpaceOnUse">
   <stop stop-color="#fff" offset="0"/>
   <stop stop-color="red" offset=".3"/>
   <stop stop-color="red" offset=".5"/>
   <stop offset="1"/>
  </linearGradient>
 </defs>
 <g fill="#999" stroke-width="3.78">
  <path d="m35.2 9.13c-0.363 0-0.656 0.293-0.656 0.656v2.41h-13.4c-0.727 0-1.31 0.583-1.31 1.31v3.16c0 0.727 0.583 1.31 1.31 1.31h13.4v2.51c0 0.363 0.293 0.653 0.656 0.653h79.1c0.363 0 0.653-0.29 0.653-0.653v-2.51h13.4c0.727 0 1.31-0.587 1.31-1.31v-3.16c0-0.727-0.583-1.31-1.31-1.31h-13.4v-2.41c-7e-5 -0.363-0.29-0.656-0.653-0.656h-77z"/>
  <path d="m35.2 53.6c-0.363 0-0.656 0.293-0.656 0.656v2.41h-13.4c-0.727 0-1.31 0.587-1.31 1.31v3.16c0 0.727 0.583 1.31 1.31 1.31h13.4v2.51c0 0.363 0.293 0.656 0.656 0.656h79.1c0.363 0 0.653-0.293 0.653-0.656v-2.51h13.4c0.727 0 1.31-0.583 1.31-1.31v-3.16c0-0.727-0.583-1.31-1.31-1.31h-13.4v-2.41c0-0.363-0.29-0.656-0.653-0.656h-77z"/>
 </g>
 <path d="m40.1 0c-1.52 0-2.74 1.22-2.74 2.73v69.1c0 1.52 1.22 2.73 2.74 2.73h69.1c1.52 0 2.74-1.22 2.74-2.73v-69.1c0-1.52-1.22-2.73-2.74-2.73zm3.24 4.66h62.7c0.727 0 1.31 0.587 1.31 1.31v62.7c0 0.727-0.584 1.31-1.31 1.31h-62.7c-0.727 0-1.31-0.584-1.31-1.31v-62.7c0-0.727 0.584-1.31 1.31-1.31z" fill="#464646" stroke-width="6.22"/>
 <rect x="42.1" y="4.66" width="65.3" height="65.3" rx="1.31" ry="1.31" fill="#eaeaea" fill-opacity=".302" stroke-width="6.22"/>
 <g transform="matrix(6.22 0 0 6.22 37.4 0)" stroke-linecap="round">
  <rect x="5.94" y="7.01" width=".331" height="1.77" stroke-width=".0569"/>
  <circle cx="6.11" cy="6.94" r=".318" stroke-width=".14"/>
  <rect x="5.94" y="3.31" width=".331" height="1.77" stroke-width=".0569"/>
  <rect transform="rotate(-38.4)" x=".315" y="7.34" width=".331" height="1.77" stroke-width=".0569"/>
  <circle cx="6.08" cy="5.25" r=".318" stroke-width=".14"/>
 </g>
 <g transform="matrix(6.22 0 0 6.22 37.4 0)" opacity=".426">
  <circle class="button-circle" cx="6" cy="6" r="3.82" fill="url(#a)"/>
  <circle cx="6" cy="6" r="2.9" fill="#f00" stroke="#2f2f2f" stroke-opacity=".47" stroke-width=".08"/>
 </g>
 <g font-family="sans-serif" font-size="15px">
  <text x="-2" y="20">1.l</text>
  <text x="-2" y="65">2.l</text>
  <text x="135" y="20">1.r</text>
  <text x="135" y="65">2.r</text>
 </g>
</svg>
