<svg xmlns="http://www.w3.org/2000/svg" width="80" height="60" viewBox="0 0 80 60"><rect x="1" y="1" width="78" height="58" rx="6" ry="6" fill="#2c3e50" stroke="#34495e" stroke-width="1.5"></rect><g transform="translate(40, 28)" fill="none" stroke="#3498db" stroke-width="2" stroke-linecap="round"><circle cx="0" cy="0" r="2.5" fill="#3498db" stroke="none"></circle><path d="M-6,-5 A8,8 0 0,1 6,-5"></path><path d="M-11,-9 A14,14 0 0,1 11,-9"></path><path d="M-16,-13 A21,21 0 0,1 16,-13"></path></g><g transform="translate(64, 8)" fill="#e67e22"><rect x="1" y="4" width="8" height="6" rx="1"></rect><path d="M2.5,4 V2.5 A2.5,2.5 0 0,1 7.5,2.5 V4" fill="none" stroke="#e67e22" stroke-width="1.2"></path></g><g transform="translate(6, 8)" fill="none" stroke="#2ecc71" stroke-width="1.2"><circle cx="5" cy="5" r="4.5"></circle><ellipse cx="5" cy="5" rx="2" ry="4.5"></ellipse><line x1="0.5" y1="5" x2="9.5" y2="5"></line></g><text x="40" y="48" text-anchor="middle" fill="white" font-size="10" font-family="sans-serif">Wokwi-WiFi</text></svg>