<?xml version="1.0" encoding="UTF-8"?>
<svg width="120mm" height="72.9mm" version="1.1" viewBox="0 0 120 72.9" xmlns="http://www.w3.org/2000/svg" stroke-linecap="round" stroke-linejoin="round">
 <g fill="none" stroke="#840000" stroke-width=".229">
  <path d="m36.3 31.3v0.381"/>
  <path d="m36.3 24.4v-0.381"/>
  <path d="m36.3 29 1.52 0.572-3.05 1.14 1.52 0.572"/>
  <path d="m36.3 26.7 1.52 0.572-3.05 1.14 1.52 0.572"/>
  <path d="m36.3 24.4 1.52 0.572-3.05 1.14 1.52 0.572"/>
 </g>
 <g>
  <path d="m36.3 24v-1.91" fill-opacity="0" stroke="#840000" stroke-width=".229"/>
  <path d="m36.3 31.7v1.91" fill-opacity="0" stroke="#840000" stroke-width=".229"/>
  <text transform="matrix(.00381 0 0 .00381 -87.6 -187)" x="24650" y="50540" fill="#008484" font-size="920px" text-anchor="middle">VCC</text>
 </g>
 <g fill="none" stroke="#840000" stroke-width=".229">
  <path d="m4.64 8.79 1.14-1.91"/>
  <path d="m5.79 10.7v-3.81"/>
  <path d="m5.79 6.89 1.14 1.91"/>
 </g>
 <text transform="matrix(.00381 0 0 .00381 -87.6 -187)" x="24550" y="67500" fill="#008484" font-size="920px" text-anchor="middle">GND</text>
 <path d="m55.1 27.8 1.71-0.762v1.52z" fill="#840000" fill-rule="evenodd" stroke="#840000" stroke-width=".229"/>
 <g fill="none" stroke="#840000" stroke-width=".229">
  <path d="m5.79 62.1v1.91h1.91l-1.91 1.91-1.91-1.91h1.91"/>
  <path d="m53.4 31.3v0.381"/>
  <path d="m5.79 29.4v0.381"/>
  <path d="m5.79 22.5v-0.381"/>
  <path d="m5.79 27.1 1.52 0.572-3.05 1.14 1.52 0.572"/>
  <path d="m5.79 24.8 1.52 0.572-3.05 1.14 1.52 0.572"/>
  <path d="m5.79 22.5 1.52 0.572-3.05 1.14 1.52 0.572"/>
 </g>
 <path d="m5.79 22.1v-1.91" fill-opacity="0" stroke="#840000" stroke-width=".229"/>
 <path d="m5.79 29.7v1.91" fill-opacity="0" stroke="#840000" stroke-width=".229"/>
 <g fill="none" stroke="#840000" stroke-width=".229">
  <path d="m53.4 24v0.381"/>
  <path d="m57.2 27.8h-1.52"/>
  <path d="m53.4 29 1.52 0.572-3.05 1.14 1.52 0.572"/>
  <path d="m53.4 26.7 1.52 0.572-3.05 1.14 1.52 0.572"/>
  <path d="m53.4 24.4 1.52 0.572-3.05 1.14 1.52 0.572"/>
 </g>
 <g>
  <path d="m53.4 24v-1.91" fill-opacity="0" stroke="#840000" stroke-width=".229"/>
  <text transform="matrix(0 -.00381 .00381 0 -157 164)" x="36900" y="55050" fill="#840000" font-size="920px" text-anchor="middle">1</text>
  <path d="m57.2 27.8h1.91" fill-opacity="0" stroke="#840000" stroke-width=".229"/>
  <text transform="matrix(.00381 0 0 .00381 -87.6 -187)" x="38250" y="56200" fill="#840000" font-size="920px" text-anchor="middle">2</text>
  <path d="m53.4 31.7v1.91" fill-opacity="0" stroke="#840000" stroke-width=".229"/>
  <text transform="matrix(0 -.00381 .00381 0 -167 173)" x="36900" y="57700" fill="#840000" font-size="920px" text-anchor="middle">3</text>
 </g>
 <g fill="none" stroke="#840000">
  <path d="m5.79 46.9v-3.81" stroke-width=".229"/>
  <path d="m7.69 46.9h-3.81" stroke-width=".381"/>
  <path d="m7.69 43.1h-3.81l1.91 3.81z" stroke-width=".381"/>
  <path d="m6.93 49.6 2.29 2.29v-1.14 1.14h-1.14" stroke-width=".229"/>
  <path d="m6.93 47.7 2.29 2.29v-1.14 1.14h-1.14" stroke-width=".229"/>
 </g>
 <path d="m5.79 46.9v3.81" fill-opacity="0" stroke="#840000" stroke-width=".229"/>
 <path d="m5.79 43.1v-3.81" fill-opacity="0" stroke="#840000" stroke-width=".229"/>
 <g fill="#008484" font-size="920px" text-anchor="middle">
  <text transform="matrix(.00381 0 0 .00381 -87.6 -187)" x="26490" y="60830">PWR</text>
  <text transform="matrix(.00381 0 0 .00381 -87.6 -187)" x="26390" y="61740">LED</text>
  <text transform="matrix(.00381 0 0 .00381 -87.6 -187)" x="32650" y="50540">VCC</text>
  <text transform="matrix(.00381 0 0 .00381 -87.6 -187)" x="32550" y="67500">GND</text>
 </g>
 <g fill="none" stroke="#840000">
  <g stroke-width=".229">
   <path d="m35.1 8.79 1.14-1.91"/>
   <path d="m36.3 10.7v-3.81"/>
   <path d="m36.3 6.89 1.14 1.91"/>
   <path d="m95.3 35.5v-3.81"/>
   <path d="m36.3 62.1v1.91h1.91l-1.91 1.91-1.91-1.91h1.91"/>
  </g>
  <path d="m97.2 35.5h-3.81" stroke-width=".381"/>
  <g stroke-width=".229">
   <path d="m95.3 23.7v0.381"/>
   <path d="m95.3 16.8v-0.381"/>
   <path d="m95.3 21.4 1.52 0.572-3.05 1.14 1.52 0.572"/>
   <path d="m95.3 19.1 1.52 0.572-3.05 1.14 1.52 0.572"/>
   <path d="m95.3 16.8 1.52 0.572-3.05 1.14 1.52 0.572"/>
  </g>
 </g>
 <path d="m95.3 16.4v-1.91" fill-opacity="0" stroke="#840000" stroke-width=".229"/>
 <path d="m95.3 24v1.91" fill-opacity="0" stroke="#840000" stroke-width=".229"/>
 <g fill="none" stroke="#840000">
  <path d="m97.2 31.7h-3.81l1.91 3.81z" stroke-width=".381"/>
  <path d="m96.5 38.1 2.29 2.29v-1.14 1.14h-1.14" stroke-width=".229"/>
  <path d="m96.5 36.2 2.29 2.29v-1.14 1.14h-1.14" stroke-width=".229"/>
 </g>
 <g>
  <path d="m95.3 35.5v3.81" fill-opacity="0" stroke="#840000" stroke-width=".229"/>
  <path d="m95.3 31.7v-3.81" fill-opacity="0" stroke="#840000" stroke-width=".229"/>
  <text transform="matrix(.00381 0 0 .00381 -87.6 -187)" x="49720" y="57830" fill="#008484" font-size="920px" text-anchor="middle">DO</text>
  <text transform="matrix(.00381 0 0 .00381 -87.6 -187)" x="49890" y="58740" fill="#008484" font-size="920px" text-anchor="middle">LED</text>
  <path d="m83.9 39.3h3.81" fill-opacity="0" stroke="#840000" stroke-width=".229"/>
  <text transform="matrix(.00381 0 0 .00381 -87.6 -187)" x="45500" y="59400" fill="#840000" font-size="920px" text-anchor="middle">1</text>
 </g>
 <g stroke="#840000">
  <path d="m68.7 43.1h-3.81" fill-opacity="0" stroke-width=".229"/>
  <path d="m68.7 31.7 15.2 7.62-15.2 7.62z" fill="none" stroke-width=".381"/>
  <path d="m68.7 31.7 15.2 7.62-15.2 7.62z" fill="none" stroke-width=".381"/>
 </g>
 <path d="m68.7 31.7 15.2 7.62-15.2 7.62z" fill="#ffffc2" fill-opacity=".6" fill-rule="evenodd" stroke-width="0"/>
 <g>
  <path d="m69.9 35.3h1.49" fill-opacity="0" stroke="#008484" stroke-width=".229"/>
  <text transform="matrix(.00381 0 0 .00381 -87.6 -187)" x="40500" y="60300" fill="#840000" font-size="920px" text-anchor="middle">3</text>
 </g>
 <g fill-opacity="0" stroke-width=".229">
  <path d="m68.7 35.5h-3.81" stroke="#840000"/>
  <path d="m69.9 43h1.49" stroke="#008484"/>
  <path d="m70.7 43.8v-1.45" stroke="#008484"/>
 </g>
 <text transform="matrix(.00381 0 0 .00381 -87.6 -187)" x="40500" y="58200" fill="#840000" font-size="920px" text-anchor="middle">2</text>
 <g fill="none" stroke="#840000" stroke-width=".229">
  <path d="m34 56-3.81-3.81"/>
  <path d="m34 56h-1.14"/>
  <path d="m34 56v-1.14"/>
  <path d="m34 53.7-3.81-3.81"/>
  <path d="m34 53.7h-1.14"/>
  <path d="m34 53.7v-1.14"/>
 </g>
 <g>
  <path d="m36.3 48.8v-1.91" fill-opacity="0" stroke="#840000" stroke-width=".229"/>
  <path d="m36.3 56.4v1.91" fill-opacity="0" stroke="#840000" stroke-width=".229"/>
  <text transform="matrix(.00381 0 0 .00381 -86.8 -187)" x="33930" y="63270" fill="#008484" font-size="920px" text-anchor="middle">LDR</text>
 </g>
 <g fill-opacity="0">
  <rect x="34.7" y="48.8" width="3.05" height="7.62" rx="0" stroke="#840000" stroke-width=".381"/>
  <g stroke="#008400" stroke-width=".229">
   <path d="m61 43.1h3.81"/>
   <path d="m5.79 31.7v7.62"/>
   <path d="m61 48.8h55.2"/>
   <path d="m53.4 14.5h41.9"/>
   <path d="m36.3 14.5h17.1"/>
   <path d="m95.3 39.3v3.81"/>
   <path d="m95.3 43.1h-3.81"/>
   <path d="m91.5 43.1v-3.81"/>
   <path d="m91.5 39.3h-3.81"/>
   <path d="m95.3 27.8v-1.91"/>
   <path d="m36.3 62.1v-1.91"/>
   <path d="m5.79 50.7v11.4"/>
   <path d="m5.79 10.7v9.53"/>
   <path d="m53.4 60.2h-17.1"/>
   <path d="m116 43.1h-21"/>
   <path d="m36.3 14.5v7.62"/>
   <path d="m36.3 10.7v3.81"/>
   <path d="m59.1 27.8v7.62"/>
   <path d="m59.1 35.5h5.72"/>
   <path d="m53.4 22.1v-7.62"/>
   <path d="m53.4 33.6v26.7"/>
   <path d="m36.3 33.6v9.53"/>
   <path d="m36.3 58.3v1.91"/>
   <path d="m36.3 43.1h24.8"/>
   <path d="m36.3 43.1v3.81"/>
   <path d="m61 43.1v5.72"/>
  </g>
 </g>
 <text transform="matrix(.00381 0 0 .00381 -87.6 -187)" x="52200" y="60300" fill="#008484" font-size="920px">DO</text>
 <text transform="matrix(.00381 0 0 .00381 -87.6 -187)" x="52200" y="61800" fill="#008484" font-size="920px">AO</text>
 <g fill="#008400" stroke="#008400" stroke-width=".381">
  <circle cx="61" cy="43.1" r=".762"/>
  <circle cx="95.3" cy="43.1" r=".762"/>
  <circle cx="36.3" cy="60.2" r=".762"/>
  <circle cx="53.4" cy="14.5" r=".762"/>
  <circle cx="36.3" cy="43.1" r=".762"/>
  <circle cx="36.3" cy="14.5" r=".762"/>
 </g>
 <text transform="matrix(0 -.00381 .00381 0 -191 129)" x="26490" y="60830" fill="#008484" font-size="920px" text-anchor="middle">10K</text>
</svg>
