
<svg xmlns="http://www.w3.org/2000/svg" width="160mm" height="110mm" viewBox="0 0 160 110">
  <style>
    path {
      fill:#00f;
    }
    text {
      font-size:5px;
      text-anchor:end;
    }
  </style>
  <text x="7" y="5">32</text>
  <text x="7" y="13">33</text>
  <path d="M11.2 8.7h.55v.65h-.55Zm0 .7h.55v.65h-.55Zm0 .7h.55v.65h-.55Zm0 .7h.55v.65h-.55Zm0 2.1h.55v.65h-.55Z"/>
  <text x="7" y="21">34</text>
  <path d="M10.6 16.7h.55v.65h-.55Zm1.2 0h.55v.65h-.55Zm-1.2.7h.55v.65h-.55Zm1.2 0h.55v.65h-.55Zm-1.2.7h.55v.65h-.55Zm1.2 0h.55v.65h-.55Z"/>
  <text x="7" y="29">35</text>
  <path d="M10.6 24.7h.55v.65h-.55Zm1.2 0h.55v.65h-.55Zm-1.2.7h.55v.65h-.55Zm1.2 0h.55v.65h-.55Zm-1.8.7h.55v.65H10Zm.6 0h.55v.65h-.55Zm.6 0h.55v.65h-.55Zm.6 0h.55v.65h-.55Zm.6 0h.55v.65h-.55Zm-1.8.7h.55v.65h-.55Zm1.2 0h.55v.65h-.55Zm-1.8.7h.55v.65H10Zm.6 0h.55v.65h-.55Zm.6 0h.55v.65h-.55Zm.6 0h.55v.65h-.55Zm.6 0h.55v.65h-.55Zm-1.8.7h.55v.65h-.55Zm1.2 0h.55v.65h-.55Zm-1.2.7h.55v.65h-.55Zm1.2 0h.55v.65h-.55Z"/>
  <text x="7" y="37">36</text>
  <path d="M11.2 32.7h.55v.65h-.55Zm-.6.7h.55v.65h-.55Zm.6 0h.55v.65h-.55Zm.6 0h.55v.65h-.55Zm.6 0h.55v.65h-.55Zm-2.4.7h.55v.65H10Zm1.2 0h.55v.65h-.55Zm-.6.7h.55v.65h-.55Zm.6 0h.55v.65h-.55Zm.6 0h.55v.65h-.55Zm-.6.7h.55v.65h-.55Zm1.2 0h.55v.65h-.55Zm-2.4.7h.55v.65H10Zm.6 0h.55v.65h-.55Zm.6 0h.55v.65h-.55Zm.6 0h.55v.65h-.55Zm-.6.7h.55v.65h-.55Z"/>
  <text x="7" y="45">37</text>
  <path d="M10 40.7h.55v.65H10Zm.6 0h.55v.65h-.55Zm-.6.7h.55v.65H10Zm.6 0h.55v.65h-.55Zm1.8 0h.55v.65h-.55Zm-.6.7h.55v.65h-.55Zm-.6.7h.55v.65h-.55Zm-.6.7h.55v.65h-.55Zm-.6.7h.55v.65H10Zm1.8 0h.55v.65h-.55Zm.6 0h.55v.65h-.55Zm-.6.7h.55v.65h-.55Zm.6 0h.55v.65h-.55Z"/>
  <text x="7" y="53">38</text>
  <path d="M10.6 48.7h.55v.65h-.55Zm.6 0h.55v.65h-.55Zm-1.2.7h.55v.65H10Zm1.8 0h.55v.65h-.55Zm-1.8.7h.55v.65H10Zm1.2 0h.55v.65h-.55Zm-.6.7h.55v.65h-.55Zm-.6.7h.55v.65H10Zm1.2 0h.55v.65h-.55Zm1.2 0h.55v.65h-.55Zm-2.4.7h.55v.65H10Zm1.8 0h.55v.65h-.55Zm-1.2.7h.55v.65h-.55Zm.6 0h.55v.65h-.55Zm1.2 0h.55v.65h-.55Z"/>
  <text x="7" y="61">39</text>
  <path d="M10.6 56.7h.55v.65h-.55Zm.6 0h.55v.65h-.55Zm0 .7h.55v.65h-.55Zm-.6.7h.55v.65h-.55Z"/>
  <text x="7" y="69">40</text>
  <path d="M11.8 64.7h.55v.65h-.55Zm-.6.7h.55v.65h-.55Zm-.6.7h.55v.65h-.55Zm0 .7h.55v.65h-.55Zm0 .7h.55v.65h-.55Zm.6.7h.55v.65h-.55Zm.6.7h.55v.65h-.55Z"/>
  <text x="7" y="77">41</text>
  <path d="M10.6 72.7h.55v.65h-.55Zm.6.7h.55v.65h-.55Zm.6.7h.55v.65h-.55Zm0 .7h.55v.65h-.55Zm0 .7h.55v.65h-.55Zm-.6.7h.55v.65h-.55Zm-.6.7h.55v.65h-.55Z"/>
  <text x="7" y="85">42</text>
  <path d="M11.2 81.4h.55v.65h-.55Zm-1.2.7h.55v.65H10Zm1.2 0h.55v.65h-.55Zm1.2 0h.55v.65h-.55Zm-1.8.7h.55v.65h-.55Zm.6 0h.55v.65h-.55Zm.6 0h.55v.65h-.55Zm-1.8.7h.55v.65H10Zm1.2 0h.55v.65h-.55Zm1.2 0h.55v.65h-.55Zm-1.2.7h.55v.65h-.55Z"/>
  <text x="7" y="93">43</text>
  <path d="M11.2 89.4h.55v.65h-.55Zm0 .7h.55v.65h-.55Zm-1.2.7h.55v.65H10Zm.6 0h.55v.65h-.55Zm.6 0h.55v.65h-.55Zm.6 0h.55v.65h-.55Zm.6 0h.55v.65h-.55Zm-1.2.7h.55v.65h-.55Zm0 .7h.55v.65h-.55Z"/>
  <text x="7" y="101">44</text>
  <path d="M10.6 99.5h.55v.65h-.55Zm.6 0h.55v.65h-.55Zm0 .7h.55v.65h-.55Zm-.6.7h.55v.65h-.55Z"/>
  <text x="7" y="109">45</text>
  <path d="M10 106.8h.55v.65H10Zm.6 0h.55v.65h-.55Zm.6 0h.55v.65h-.55Zm.6 0h.55v.65h-.55Zm.6 0h.55v.65h-.55Z"/>
  <text x="31" y="5">46</text>
  <path d="M34.6 4.2h.55v.65h-.55Zm.6 0h.55v.65h-.55Zm-.6.7h.55v.65h-.55Zm.6 0h.55v.65h-.55Z"/>
  <text x="31" y="13">47</text>
  <path d="M36.4 9.4h.55v.65h-.55Zm-.6.7h.55v.65h-.55Zm-.6.7h.55v.65h-.55Zm-.6.7h.55v.65h-.55Zm-.6.7h.55v.65H34Z"/>
  <text x="31" y="21">48</text>
  <path d="M34.6 16.7h.55v.65h-.55Zm.6 0h.55v.65h-.55Zm.6 0h.55v.65h-.55Zm-1.8.7h.55v.65H34Zm2.4 0h.55v.65h-.55Zm-2.4.7h.55v.65H34Zm1.8 0h.55v.65h-.55Zm.6 0h.55v.65h-.55Zm-2.4.7h.55v.65H34Zm1.2 0h.55v.65h-.55Zm1.2 0h.55v.65h-.55Zm-2.4.7h.55v.65H34Zm.6 0h.55v.65h-.55Zm1.8 0h.55v.65h-.55Zm-2.4.7h.55v.65H34Zm2.4 0h.55v.65h-.55Zm-1.8.7h.55v.65h-.55Zm.6 0h.55v.65h-.55Zm.6 0h.55v.65h-.55Z"/>
  <text x="31" y="29">49</text>
  <path d="M35.2 24.7h.55v.65h-.55Zm-.6.7h.55v.65h-.55Zm.6 0h.55v.65h-.55Zm0 .7h.55v.65h-.55Zm0 .7h.55v.65h-.55Zm0 .7h.55v.65h-.55Zm0 .7h.55v.65h-.55Zm-.6.7h.55v.65h-.55Zm.6 0h.55v.65h-.55Zm.6 0h.55v.65h-.55Z"/>
  <text x="31" y="37">50</text>
  <path d="M34.6 32.7h.55v.65h-.55Zm.6 0h.55v.65h-.55Zm.6 0h.55v.65h-.55Zm-1.8.7h.55v.65H34Zm2.4 0h.55v.65h-.55Zm0 .7h.55v.65h-.55Zm-.6.7h.55v.65h-.55Zm-.6.7h.55v.65h-.55Zm-.6.7h.55v.65h-.55Zm-.6.7h.55v.65H34Zm.6 0h.55v.65h-.55Zm.6 0h.55v.65h-.55Zm.6 0h.55v.65h-.55Zm.6 0h.55v.65h-.55Z"/>
  <text x="31" y="45">51</text>
  <path d="M34 40.7h.55v.65H34Zm.6 0h.55v.65h-.55Zm.6 0h.55v.65h-.55Zm.6 0h.55v.65h-.55Zm.6 0h.55v.65h-.55Zm-.6.7h.55v.65h-.55Zm-.6.7h.55v.65h-.55Zm.6.7h.55v.65h-.55Zm.6.7h.55v.65h-.55Zm-2.4.7h.55v.65H34Zm2.4 0h.55v.65h-.55Zm-1.8.7h.55v.65h-.55Zm.6 0h.55v.65h-.55Zm.6 0h.55v.65h-.55Z"/>
  <text x="31" y="53">52</text>
  <path d="M35.8 48.7h.55v.65h-.55Zm-.6.7h.55v.65h-.55Zm.6 0h.55v.65h-.55Zm-1.2.7h.55v.65h-.55Zm1.2 0h.55v.65h-.55Zm-1.8.7h.55v.65H34Zm1.8 0h.55v.65h-.55Zm-1.8.7h.55v.65H34Zm.6 0h.55v.65h-.55Zm.6 0h.55v.65h-.55Zm.6 0h.55v.65h-.55Zm.6 0h.55v.65h-.55Zm-.6.7h.55v.65h-.55Zm0 .7h.55v.65h-.55Z"/>
  <text x="31" y="61">53</text>
  <path d="M34 56.7h.55v.65H34Zm.6 0h.55v.65h-.55Zm.6 0h.55v.65h-.55Zm.6 0h.55v.65h-.55Zm.6 0h.55v.65h-.55Zm-2.4.7h.55v.65H34Zm0 .7h.55v.65H34Zm.6 0h.55v.65h-.55Zm.6 0h.55v.65h-.55Zm.6 0h.55v.65h-.55Zm.6.7h.55v.65h-.55Zm0 .7h.55v.65h-.55Zm-2.4.7h.55v.65H34Zm2.4 0h.55v.65h-.55Zm-1.8.7h.55v.65h-.55Zm.6 0h.55v.65h-.55Zm.6 0h.55v.65h-.55Z"/>
  <text x="31" y="69">54</text>
  <path d="M35.2 64.7h.55v.65h-.55Zm.6 0h.55v.65h-.55Zm-1.2.7h.55v.65h-.55Zm-.6.7h.55v.65H34Zm0 .7h.55v.65H34Zm.6 0h.55v.65h-.55Zm.6 0h.55v.65h-.55Zm.6 0h.55v.65h-.55Zm-1.8.7h.55v.65H34Zm2.4 0h.55v.65h-.55Zm-2.4.7h.55v.65H34Zm2.4 0h.55v.65h-.55Zm-1.8.7h.55v.65h-.55Zm.6 0h.55v.65h-.55Zm.6 0h.55v.65h-.55Z"/>
  <text x="31" y="77">55</text>
  <path d="M34 72.7h.55v.65H34Zm.6 0h.55v.65h-.55Zm.6 0h.55v.65h-.55Zm.6 0h.55v.65h-.55Zm.6 0h.55v.65h-.55Zm-2.4.7h.55v.65H34Zm2.4 0h.55v.65h-.55Zm0 .7h.55v.65h-.55Zm-.6.7h.55v.65h-.55Zm-.6.7h.55v.65h-.55Zm0 .7h.55v.65h-.55Zm0 .7h.55v.65h-.55Z"/>
  <text x="31" y="85">56</text>
  <path d="M34.6 80.7h.55v.65h-.55Zm.6 0h.55v.65h-.55Zm.6 0h.55v.65h-.55Zm-1.8.7h.55v.65H34Zm2.4 0h.55v.65h-.55Zm-2.4.7h.55v.65H34Zm2.4 0h.55v.65h-.55Zm-1.8.7h.55v.65h-.55Zm.6 0h.55v.65h-.55Zm.6 0h.55v.65h-.55Zm-1.8.7h.55v.65H34Zm2.4 0h.55v.65h-.55Zm-2.4.7h.55v.65H34Zm2.4 0h.55v.65h-.55Zm-1.8.7h.55v.65h-.55Zm.6 0h.55v.65h-.55Zm.6 0h.55v.65h-.55Z"/>
  <text x="31" y="93">57</text>
  <path d="M34.6 88.7h.55v.65h-.55Zm.6 0h.55v.65h-.55Zm.6 0h.55v.65h-.55Zm-1.8.7h.55v.65H34Zm2.4 0h.55v.65h-.55Zm-2.4.7h.55v.65H34Zm2.4 0h.55v.65h-.55Zm-1.8.7h.55v.65h-.55Zm.6 0h.55v.65h-.55Zm.6 0h.55v.65h-.55Zm.6 0h.55v.65h-.55Zm0 .7h.55v.65h-.55Zm-.6.7h.55v.65h-.55Zm-1.2.7h.55v.65h-.55Zm.6 0h.55v.65h-.55Z"/>
  <text x="31" y="101">58</text>
  <path d="M34.6 97.4h.55v.65h-.55Zm.6 0h.55v.65h-.55Zm-.6.7h.55v.65h-.55Zm.6 0h.55v.65h-.55Zm-.6 1.4h.55v.65h-.55Zm.6 0h.55v.65h-.55Zm-.6.7h.55v.65h-.55Zm.6 0h.55v.65h-.55Z"/>
  <text x="31" y="109">59</text>
  <path d="M34.6 105.4h.55v.65h-.55Zm.6 0h.55v.65h-.55Zm-.6.7h.55v.65h-.55Zm.6 0h.55v.65h-.55Zm-.6 1.4h.55v.65h-.55Zm.6 0h.55v.65h-.55Zm0 .7h.55v.65h-.55Zm-.6.7h.55v.65h-.55Z"/>
  <text x="55" y="5">60</text>
  <path d="M59.8.7h.55v.65h-.55Zm-.6.7h.55v.65h-.55Zm-.6.7h.55v.65h-.55Zm-.6.7h.55v.65H58Zm.6.7h.55v.65h-.55Zm.6.7h.55v.65h-.55Zm.6.7h.55v.65h-.55Z"/>
  <text x="55" y="13">61</text>
  <path d="M58 10.1h.55v.65H58Zm.6 0h.55v.65h-.55Zm.6 0h.55v.65h-.55Zm.6 0h.55v.65h-.55Zm.6 0h.55v.65h-.55ZM58 11.5h.55v.65H58Zm.6 0h.55v.65h-.55Zm.6 0h.55v.65h-.55Zm.6 0h.55v.65h-.55Zm.6 0h.55v.65h-.55Z"/>
  <text x="55" y="21">62</text>
  <path d="M58.6 16.7h.55v.65h-.55Zm.6.7h.55v.65h-.55Zm.6.7h.55v.65h-.55Zm.6.7h.55v.65h-.55Zm-.6.7h.55v.65h-.55Zm-.6.7h.55v.65h-.55Zm-.6.7h.55v.65h-.55Z"/>
  <text x="55" y="29">63</text>
  <path d="M58.6 24.7h.55v.65h-.55Zm.6 0h.55v.65h-.55Zm.6 0h.55v.65h-.55Zm-1.8.7h.55v.65H58Zm2.4 0h.55v.65h-.55Zm0 .7h.55v.65h-.55Zm-.6.7h.55v.65h-.55Zm-.6.7h.55v.65h-.55Zm0 1.4h.55v.65h-.55Z"/>
  <text x="55" y="37">64</text>
  <path d="M58.6 32.7h.55v.65h-.55Zm.6 0h.55v.65h-.55Zm.6 0h.55v.65h-.55Zm-1.8.7h.55v.65H58Zm2.4 0h.55v.65h-.55Zm0 .7h.55v.65h-.55Zm-1.8.7h.55v.65h-.55Zm.6 0h.55v.65h-.55Zm1.2 0h.55v.65h-.55Zm-2.4.7h.55v.65H58Zm1.2 0h.55v.65h-.55Zm1.2 0h.55v.65h-.55Zm-2.4.7h.55v.65H58Zm1.2 0h.55v.65h-.55Zm1.2 0h.55v.65h-.55Zm-1.8.7h.55v.65h-.55Zm.6 0h.55v.65h-.55Zm.6 0h.55v.65h-.55Z"/>
  <text x="55" y="45">65</text>
  <path d="M59.2 40.7h.55v.65h-.55Zm-.6.7h.55v.65h-.55Zm1.2 0h.55v.65h-.55Zm-1.8.7h.55v.65H58Zm2.4 0h.55v.65h-.55Zm-2.4.7h.55v.65H58Zm2.4 0h.55v.65h-.55Zm-2.4.7h.55v.65H58Zm.6 0h.55v.65h-.55Zm.6 0h.55v.65h-.55Zm.6 0h.55v.65h-.55Zm.6 0h.55v.65h-.55Zm-2.4.7h.55v.65H58Zm2.4 0h.55v.65h-.55Zm-2.4.7h.55v.65H58Zm2.4 0h.55v.65h-.55Z"/>
  <text x="55" y="53">66</text>
  <path d="M58 48.7h.55v.65H58Zm.6 0h.55v.65h-.55Zm.6 0h.55v.65h-.55Zm.6 0h.55v.65h-.55Zm-1.8.7h.55v.65H58Zm2.4 0h.55v.65h-.55Zm-2.4.7h.55v.65H58Zm2.4 0h.55v.65h-.55Zm-2.4.7h.55v.65H58Zm.6 0h.55v.65h-.55Zm.6 0h.55v.65h-.55Zm.6 0h.55v.65h-.55Zm-1.8.7h.55v.65H58Zm2.4 0h.55v.65h-.55Zm-2.4.7h.55v.65H58Zm2.4 0h.55v.65h-.55Zm-2.4.7h.55v.65H58Zm.6 0h.55v.65h-.55Zm.6 0h.55v.65h-.55Zm.6 0h.55v.65h-.55Z"/>
  <text x="55" y="61">67</text>
  <path d="M58.6 56.7h.55v.65h-.55Zm.6 0h.55v.65h-.55Zm.6 0h.55v.65h-.55Zm-1.8.7h.55v.65H58Zm2.4 0h.55v.65h-.55Zm-2.4.7h.55v.65H58Zm0 .7h.55v.65H58Zm0 .7h.55v.65H58Zm0 .7h.55v.65H58Zm2.4 0h.55v.65h-.55Zm-1.8.7h.55v.65h-.55Zm.6 0h.55v.65h-.55Zm.6 0h.55v.65h-.55Z"/>
  <text x="55" y="69">68</text>
  <path d="M58 64.7h.55v.65H58Zm.6 0h.55v.65h-.55Zm.6 0h.55v.65h-.55Zm-1.2.7h.55v.65H58Zm1.8 0h.55v.65h-.55Zm-1.8.7h.55v.65H58Zm2.4 0h.55v.65h-.55Zm-2.4.7h.55v.65H58Zm2.4 0h.55v.65h-.55Zm-2.4.7h.55v.65H58Zm2.4 0h.55v.65h-.55Zm-2.4.7h.55v.65H58Zm1.8 0h.55v.65h-.55Zm-1.8.7h.55v.65H58Zm.6 0h.55v.65h-.55Zm.6 0h.55v.65h-.55Z"/>
  <text x="55" y="77">69</text>
  <path d="M58 72.7h.55v.65H58Zm.6 0h.55v.65h-.55Zm.6 0h.55v.65h-.55Zm.6 0h.55v.65h-.55Zm.6 0h.55v.65h-.55Zm-2.4.7h.55v.65H58Zm0 .7h.55v.65H58Zm0 .7h.55v.65H58Zm.6 0h.55v.65h-.55Zm.6 0h.55v.65h-.55Zm.6 0h.55v.65h-.55Zm-1.8.7h.55v.65H58Zm0 .7h.55v.65H58Zm0 .7h.55v.65H58Zm.6 0h.55v.65h-.55Zm.6 0h.55v.65h-.55Zm.6 0h.55v.65h-.55Zm.6 0h.55v.65h-.55Z"/>
  <text x="55" y="85">70</text>
  <path d="M58 80.7h.55v.65H58Zm.6 0h.55v.65h-.55Zm.6 0h.55v.65h-.55Zm.6 0h.55v.65h-.55Zm.6 0h.55v.65h-.55Zm-2.4.7h.55v.65H58Zm0 .7h.55v.65H58Zm0 .7h.55v.65H58Zm.6 0h.55v.65h-.55Zm.6 0h.55v.65h-.55Zm.6 0h.55v.65h-.55Zm-1.8.7h.55v.65H58Zm0 .7h.55v.65H58Zm0 .7h.55v.65H58Z"/>
  <text x="55" y="93">71</text>
  <path d="M58.6 88.7h.55v.65h-.55Zm.6 0h.55v.65h-.55Zm.6 0h.55v.65h-.55Zm-1.8.7h.55v.65H58Zm2.4 0h.55v.65h-.55Zm-2.4.7h.55v.65H58Zm0 .7h.55v.65H58Zm1.2 0h.55v.65h-.55Zm.6 0h.55v.65h-.55Zm.6 0h.55v.65h-.55Zm-2.4.7h.55v.65H58Zm2.4 0h.55v.65h-.55Zm-2.4.7h.55v.65H58Zm2.4 0h.55v.65h-.55Zm-1.8.7h.55v.65h-.55Zm.6 0h.55v.65h-.55Zm.6 0h.55v.65h-.55Zm.6 0h.55v.65h-.55Z"/>
  <text x="55" y="101">72</text>
  <path d="M58 96.7h.55v.65H58Zm2.4 0h.55v.65h-.55Zm-2.4.7h.55v.65H58Zm2.4 0h.55v.65h-.55Zm-2.4.7h.55v.65H58Zm2.4 0h.55v.65h-.55Zm-2.4.7h.55v.65H58Zm.6 0h.55v.65h-.55Zm.6 0h.55v.65h-.55Zm.6 0h.55v.65h-.55Zm.6 0h.55v.65h-.55Zm-2.4.7h.55v.65H58Zm2.4 0h.55v.65h-.55Zm-2.4.7h.55v.65H58Zm2.4 0h.55v.65h-.55Zm-2.4.7h.55v.65H58Zm2.4 0h.55v.65h-.55Z"/>
  <text x="55" y="109">73</text>
  <path d="M58.6 104.7h.55v.65h-.55Zm.6 0h.55v.65h-.55Zm.6 0h.55v.65h-.55Zm-.6.7h.55v.65h-.55Zm0 .7h.55v.65h-.55Zm0 .7h.55v.65h-.55Zm0 .7h.55v.65h-.55Zm0 .7h.55v.65h-.55Zm-.6.7h.55v.65h-.55Zm.6 0h.55v.65h-.55Zm.6 0h.55v.65h-.55Z"/>
  <text x="79" y="5">74</text>
  <path d="M83.2.7h.55v.65h-.55Zm.6 0h.55v.65h-.55Zm.6 0h.55v.65h-.55Zm-.6.7h.55v.65h-.55Zm0 .7h.55v.65h-.55Zm0 .7h.55v.65h-.55Zm0 .7h.55v.65h-.55Zm-1.8.7h.55v.65H82Zm1.8 0h.55v.65h-.55Zm-1.2.7h.55v.65h-.55Zm.6 0h.55v.65h-.55Z"/>
  <text x="79" y="13">75</text>
  <path d="M82 8.7h.55v.65H82Zm2.4 0h.55v.65h-.55Zm-2.4.7h.55v.65H82Zm1.8 0h.55v.65h-.55Zm-1.8.7h.55v.65H82Zm1.2 0h.55v.65h-.55Zm-1.2.7h.55v.65H82Zm.6 0h.55v.65h-.55Zm-.6.7h.55v.65H82Zm1.2 0h.55v.65h-.55Zm-1.2.7h.55v.65H82Zm1.8 0h.55v.65h-.55Zm-1.8.7h.55v.65H82Zm2.4 0h.55v.65h-.55Z"/>
  <text x="79" y="21">76</text>
  <path d="M82 16.7h.55v.65H82Zm0 .7h.55v.65H82Zm0 .7h.55v.65H82Zm0 .7h.55v.65H82Zm0 .7h.55v.65H82Zm0 .7h.55v.65H82Zm0 .7h.55v.65H82Zm.6 0h.55v.65h-.55Zm.6 0h.55v.65h-.55Zm.6 0h.55v.65h-.55Zm.6 0h.55v.65h-.55Z"/>
  <text x="79" y="29">77</text>
  <path d="M82 24.7h.55v.65H82Zm2.4 0h.55v.65h-.55Zm-2.4.7h.55v.65H82Zm.6 0h.55v.65h-.55Zm1.2 0h.55v.65h-.55Zm.6 0h.55v.65h-.55Zm-2.4.7h.55v.65H82Zm1.2 0h.55v.65h-.55Zm1.2 0h.55v.65h-.55Zm-2.4.7h.55v.65H82Zm1.2 0h.55v.65h-.55Zm1.2 0h.55v.65h-.55Zm-2.4.7h.55v.65H82Zm2.4 0h.55v.65h-.55Zm-2.4.7h.55v.65H82Zm2.4 0h.55v.65h-.55Zm-2.4.7h.55v.65H82Zm2.4 0h.55v.65h-.55Z"/>
  <text x="79" y="37">78</text>
  <path d="M82 32.7h.55v.65H82Zm2.4 0h.55v.65h-.55Zm-2.4.7h.55v.65H82Zm2.4 0h.55v.65h-.55Zm-2.4.7h.55v.65H82Zm.6 0h.55v.65h-.55Zm1.8 0h.55v.65h-.55Zm-2.4.7h.55v.65H82Zm1.2 0h.55v.65h-.55Zm1.2 0h.55v.65h-.55Zm-2.4.7h.55v.65H82Zm1.8 0h.55v.65h-.55Zm.6 0h.55v.65h-.55Zm-2.4.7h.55v.65H82Zm2.4 0h.55v.65h-.55Zm-2.4.7h.55v.65H82Zm2.4 0h.55v.65h-.55Z"/>
  <text x="79" y="45">79</text>
  <path d="M82.6 40.7h.55v.65h-.55Zm.6 0h.55v.65h-.55Zm.6 0h.55v.65h-.55Zm-1.8.7h.55v.65H82Zm2.4 0h.55v.65h-.55Zm-2.4.7h.55v.65H82Zm2.4 0h.55v.65h-.55Zm-2.4.7h.55v.65H82Zm2.4 0h.55v.65h-.55Zm-2.4.7h.55v.65H82Zm2.4 0h.55v.65h-.55Zm-2.4.7h.55v.65H82Zm2.4 0h.55v.65h-.55Zm-1.8.7h.55v.65h-.55Zm.6 0h.55v.65h-.55Zm.6 0h.55v.65h-.55Z"/>
  <text x="79" y="53">80</text>
  <path d="M82 48.7h.55v.65H82Zm.6 0h.55v.65h-.55Zm.6 0h.55v.65h-.55Zm.6 0h.55v.65h-.55Zm-1.8.7h.55v.65H82Zm2.4 0h.55v.65h-.55Zm-2.4.7h.55v.65H82Zm2.4 0h.55v.65h-.55Zm-2.4.7h.55v.65H82Zm.6 0h.55v.65h-.55Zm.6 0h.55v.65h-.55Zm.6 0h.55v.65h-.55Zm-1.8.7h.55v.65H82Zm0 .7h.55v.65H82Zm0 .7h.55v.65H82Z"/>
  <text x="79" y="61">81</text>
  <path d="M82.6 56.7h.55v.65h-.55Zm.6 0h.55v.65h-.55Zm.6 0h.55v.65h-.55Zm-1.8.7h.55v.65H82Zm2.4 0h.55v.65h-.55Zm-2.4.7h.55v.65H82Zm2.4 0h.55v.65h-.55Zm-2.4.7h.55v.65H82Zm2.4 0h.55v.65h-.55Zm-2.4.7h.55v.65H82Zm1.2 0h.55v.65h-.55Zm1.2 0h.55v.65h-.55Zm-2.4.7h.55v.65H82Zm1.8 0h.55v.65h-.55Zm-1.2.7h.55v.65h-.55Zm.6 0h.55v.65h-.55Zm1.2 0h.55v.65h-.55Z"/>
  <text x="79" y="69">82</text>
  <path d="M82 64.7h.55v.65H82Zm.6 0h.55v.65h-.55Zm.6 0h.55v.65h-.55Zm.6 0h.55v.65h-.55Zm-1.8.7h.55v.65H82Zm2.4 0h.55v.65h-.55Zm-2.4.7h.55v.65H82Zm2.4 0h.55v.65h-.55Zm-2.4.7h.55v.65H82Zm.6 0h.55v.65h-.55Zm.6 0h.55v.65h-.55Zm.6 0h.55v.65h-.55Zm-1.8.7h.55v.65H82Zm1.2 0h.55v.65h-.55Zm-1.2.7h.55v.65H82Zm1.8 0h.55v.65h-.55Zm-1.8.7h.55v.65H82Zm2.4 0h.55v.65h-.55Z"/>
  <text x="79" y="77">83</text>
  <path d="M82.6 72.7h.55v.65h-.55Zm.6 0h.55v.65h-.55Zm.6 0h.55v.65h-.55Zm-1.8.7h.55v.65H82Zm2.4 0h.55v.65h-.55Zm-2.4.7h.55v.65H82Zm.6.7h.55v.65h-.55Zm.6 0h.55v.65h-.55Zm.6 0h.55v.65h-.55Zm.6.7h.55v.65h-.55Zm-2.4.7h.55v.65H82Zm2.4 0h.55v.65h-.55Zm-1.8.7h.55v.65h-.55Zm.6 0h.55v.65h-.55Zm.6 0h.55v.65h-.55Z"/>
  <text x="79" y="85">84</text>
  <path d="M82 80.7h.55v.65H82Zm.6 0h.55v.65h-.55Zm.6 0h.55v.65h-.55Zm.6 0h.55v.65h-.55Zm.6 0h.55v.65h-.55Zm-1.2.7h.55v.65h-.55Zm0 .7h.55v.65h-.55Zm0 .7h.55v.65h-.55Zm0 .7h.55v.65h-.55Zm0 .7h.55v.65h-.55Zm0 .7h.55v.65h-.55Z"/>
  <text x="79" y="93">85</text>
  <path d="M82 88.7h.55v.65H82Zm2.4 0h.55v.65h-.55Zm-2.4.7h.55v.65H82Zm2.4 0h.55v.65h-.55Zm-2.4.7h.55v.65H82Zm2.4 0h.55v.65h-.55Zm-2.4.7h.55v.65H82Zm2.4 0h.55v.65h-.55Zm-2.4.7h.55v.65H82Zm2.4 0h.55v.65h-.55Zm-2.4.7h.55v.65H82Zm2.4 0h.55v.65h-.55Zm-1.8.7h.55v.65h-.55Zm.6 0h.55v.65h-.55Zm.6 0h.55v.65h-.55Z"/>
  <text x="79" y="101">86</text>
  <path d="M82 96.7h.55v.65H82Zm2.4 0h.55v.65h-.55Zm-2.4.7h.55v.65H82Zm2.4 0h.55v.65h-.55Zm-2.4.7h.55v.65H82Zm2.4 0h.55v.65h-.55Zm-2.4.7h.55v.65H82Zm2.4 0h.55v.65h-.55Zm-2.4.7h.55v.65H82Zm2.4 0h.55v.65h-.55Zm-1.8.7h.55v.65h-.55Zm1.2 0h.55v.65h-.55Zm-.6.7h.55v.65h-.55Z"/>
  <text x="79" y="109">87</text>
  <path d="M82 104.7h.55v.65H82Zm2.4 0h.55v.65h-.55Zm-2.4.7h.55v.65H82Zm2.4 0h.55v.65h-.55Zm-2.4.7h.55v.65H82Zm2.4 0h.55v.65h-.55Zm-2.4.7h.55v.65H82Zm1.2 0h.55v.65h-.55Zm1.2 0h.55v.65h-.55Zm-2.4.7h.55v.65H82Zm1.2 0h.55v.65h-.55Zm1.2 0h.55v.65h-.55Zm-2.4.7h.55v.65H82Zm1.2 0h.55v.65h-.55Zm1.2 0h.55v.65h-.55Zm-1.8.7h.55v.65h-.55Zm1.2 0h.55v.65h-.55Z"/>
  <text x="103" y="5">88</text>
  <path d="M106 .7h.55v.65H106Zm2.4 0h.55v.65h-.55Zm-2.4.7h.55v.65H106Zm2.4 0h.55v.65h-.55Zm-1.8.7h.55v.65h-.55Zm1.2 0h.55v.65h-.55Zm-.6.7h.55v.65h-.55Zm-.6.7h.55v.65h-.55Zm1.2 0h.55v.65h-.55Zm-1.8.7h.55v.65H106Zm2.4 0h.55v.65h-.55Zm-2.4.7h.55v.65H106Zm2.4 0h.55v.65h-.55Z"/>
  <text x="103" y="13">89</text>
  <path d="M106 8.7h.55v.65H106Zm2.4 0h.55v.65h-.55Zm-2.4.7h.55v.65H106Zm2.4 0h.55v.65h-.55Zm-2.4.7h.55v.65H106Zm2.4 0h.55v.65h-.55Zm-1.8.7h.55v.65h-.55Zm1.2 0h.55v.65h-.55Zm-.6.7h.55v.65h-.55Zm0 .7h.55v.65h-.55Zm0 .7h.55v.65h-.55Z"/>
  <text x="103" y="21">90</text>
  <path d="M106 16.7h.55v.65H106Zm.6 0h.55v.65h-.55Zm.6 0h.55v.65h-.55Zm.6 0h.55v.65h-.55Zm.6 0h.55v.65h-.55Zm0 .7h.55v.65h-.55Zm-.6.7h.55v.65h-.55Zm-.6.7h.55v.65h-.55Zm-.6.7h.55v.65h-.55Zm-.6.7h.55v.65H106Zm0 .7h.55v.65H106Zm.6 0h.55v.65h-.55Zm.6 0h.55v.65h-.55Zm.6 0h.55v.65h-.55Zm.6 0h.55v.65h-.55Z"/>
  <text x="103" y="29">91</text>
  <path d="M106.6 24.7h.55v.65h-.55Zm.6 0h.55v.65h-.55Zm.6 0h.55v.65h-.55Zm-1.2.7h.55v.65h-.55Zm0 .7h.55v.65h-.55Zm0 .7h.55v.65h-.55Zm0 .7h.55v.65h-.55Zm0 .7h.55v.65h-.55Zm0 .7h.55v.65h-.55Zm.6 0h.55v.65h-.55Zm.6 0h.55v.65h-.55Z"/>
  <text x="103" y="37">92</text>
  <path d="M106 33.4h.55v.65H106Zm.6.7h.55v.65h-.55Zm.6.7h.55v.65h-.55Zm.6.7h.55v.65h-.55Zm.6.7h.55v.65h-.55Z"/>
  <text x="103" y="45">93</text>
  <path d="M106.6 40.7h.55v.65h-.55Zm.6 0h.55v.65h-.55Zm.6 0h.55v.65h-.55Zm0 .7h.55v.65h-.55Zm0 .7h.55v.65h-.55Zm0 .7h.55v.65h-.55Zm0 .7h.55v.65h-.55Zm0 .7h.55v.65h-.55Zm-1.2.7h.55v.65h-.55Zm.6 0h.55v.65h-.55Zm.6 0h.55v.65h-.55Z"/>
  <text x="103" y="53">94</text>
  <path d="M107.2 48.7h.55v.65h-.55Zm-.6.7h.55v.65h-.55Zm1.2 0h.55v.65h-.55Zm-1.8.7h.55v.65H106Zm2.4 0h.55v.65h-.55Z"/>
  <text x="103" y="61">95</text>
  <path d="M106 60.9h.55v.65H106Zm.6 0h.55v.65h-.55Zm.6 0h.55v.65h-.55Zm.6 0h.55v.65h-.55Zm.6 0h.55v.65h-.55Z"/>
  <text x="103" y="69">96</text>
  <path d="M106.6 64.7h.55v.65h-.55Zm.6.7h.55v.65h-.55Zm.6.7h.55v.65h-.55Z"/>
  <text x="103" y="77">97</text>
  <path d="M106.6 74.1h.55v.65h-.55Zm.6 0h.55v.65h-.55Zm.6 0h.55v.65h-.55Zm.6.7h.55v.65h-.55Zm-1.8.7h.55v.65h-.55Zm.6 0h.55v.65h-.55Zm.6 0h.55v.65h-.55Zm.6 0h.55v.65h-.55Zm-2.4.7h.55v.65H106Zm2.4 0h.55v.65h-.55Zm-1.8.7h.55v.65h-.55Zm.6 0h.55v.65h-.55Zm.6 0h.55v.65h-.55Zm.6 0h.55v.65h-.55Z"/>
  <text x="103" y="85">98</text>
  <path d="M106 80.7h.55v.65H106Zm0 .7h.55v.65H106Zm0 .7h.55v.65H106Zm1.2 0h.55v.65h-.55Zm.6 0h.55v.65h-.55Zm-1.8.7h.55v.65H106Zm.6 0h.55v.65h-.55Zm1.8 0h.55v.65h-.55Zm-2.4.7h.55v.65H106Zm2.4 0h.55v.65h-.55Zm-2.4.7h.55v.65H106Zm2.4 0h.55v.65h-.55Zm-2.4.7h.55v.65H106Zm.6 0h.55v.65h-.55Zm.6 0h.55v.65h-.55Zm.6 0h.55v.65h-.55Z"/>
  <text x="103" y="93">99</text>
  <path d="M106.6 90.1h.55v.65h-.55Zm.6 0h.55v.65h-.55Zm.6 0h.55v.65h-.55Zm-1.8.7h.55v.65H106Zm0 .7h.55v.65H106Zm0 .7h.55v.65H106Zm2.4 0h.55v.65h-.55Zm-1.8.7h.55v.65h-.55Zm.6 0h.55v.65h-.55Zm.6 0h.55v.65h-.55Z"/>
  <text x="103" y="101">100</text>
  <path d="M108.4 96.7h.55v.65h-.55Zm0 .7h.55v.65h-.55Zm-1.8.7h.55v.65h-.55Zm.6 0h.55v.65h-.55Zm1.2 0h.55v.65h-.55Zm-2.4.7h.55v.65H106Zm1.8 0h.55v.65h-.55Zm.6 0h.55v.65h-.55Zm-2.4.7h.55v.65H106Zm2.4 0h.55v.65h-.55Zm-2.4.7h.55v.65H106Zm2.4 0h.55v.65h-.55Zm-1.8.7h.55v.65h-.55Zm.6 0h.55v.65h-.55Zm.6 0h.55v.65h-.55Zm.6 0h.55v.65h-.55Z"/>
  <text x="103" y="109">101</text>
  <path d="M106.6 106.1h.55v.65h-.55Zm.6 0h.55v.65h-.55Zm.6 0h.55v.65h-.55Zm-1.8.7h.55v.65H106Zm2.4 0h.55v.65h-.55Zm-2.4.7h.55v.65H106Zm.6 0h.55v.65h-.55Zm.6 0h.55v.65h-.55Zm.6 0h.55v.65h-.55Zm.6 0h.55v.65h-.55Zm-2.4.7h.55v.65H106Zm.6.7h.55v.65h-.55Zm.6 0h.55v.65h-.55Zm.6 0h.55v.65h-.55Z"/>
  <text x="127" y="5">102</text>
  <path d="M131.2.7h.55v.65h-.55Zm.6 0h.55v.65h-.55Zm-1.2.7h.55v.65h-.55Zm1.8 0h.55v.65h-.55Zm-1.8.7h.55v.65h-.55Zm-.6.7h.55v.65H130Zm.6 0h.55v.65h-.55Zm.6 0h.55v.65h-.55Zm-.6.7h.55v.65h-.55Zm0 .7h.55v.65h-.55Zm0 .7h.55v.65h-.55Z"/>
  <text x="127" y="13">103</text>
  <path d="M130.6 10.1h.55v.65h-.55Zm.6 0h.55v.65h-.55Zm.6 0h.55v.65h-.55Zm.6 0h.55v.65h-.55Zm-2.4.7h.55v.65H130Zm2.4 0h.55v.65h-.55Zm-1.8.7h.55v.65h-.55Zm.6 0h.55v.65h-.55Zm.6 0h.55v.65h-.55Zm.6 0h.55v.65h-.55Zm0 .7h.55v.65h-.55Zm-1.8.7h.55v.65h-.55Zm.6 0h.55v.65h-.55Zm.6 0h.55v.65h-.55Z"/>
  <text x="127" y="21">104</text>
  <path d="M130 16.7h.55v.65H130Zm0 .7h.55v.65H130Zm0 .7h.55v.65H130Zm1.2 0h.55v.65h-.55Zm.6 0h.55v.65h-.55Zm-1.8.7h.55v.65H130Zm.6 0h.55v.65h-.55Zm1.8 0h.55v.65h-.55Zm-2.4.7h.55v.65H130Zm2.4 0h.55v.65h-.55Zm-2.4.7h.55v.65H130Zm2.4 0h.55v.65h-.55Zm-2.4.7h.55v.65H130Zm2.4 0h.55v.65h-.55Z"/>
  <text x="127" y="29">105</text>
  <path d="M131.2 24.7h.55v.65h-.55Zm0 1.4h.55v.65h-.55Zm-.6.7h.55v.65h-.55Zm.6 0h.55v.65h-.55Zm0 .7h.55v.65h-.55Zm0 .7h.55v.65h-.55Zm-.6.7h.55v.65h-.55Zm.6 0h.55v.65h-.55Zm.6 0h.55v.65h-.55Z"/>
  <text x="127" y="37">106</text>
  <path d="M131.8 32.7h.55v.65h-.55Zm-.6 1.4h.55v.65h-.55Zm.6 0h.55v.65h-.55Zm0 .7h.55v.65h-.55Zm0 .7h.55v.65h-.55Zm-1.8.7h.55v.65H130Zm1.8 0h.55v.65h-.55Zm-1.2.7h.55v.65h-.55Zm.6 0h.55v.65h-.55Z"/>
  <text x="127" y="45">107</text>
  <path d="M130 40.7h.55v.65H130Zm0 .7h.55v.65H130Zm0 .7h.55v.65H130Zm1.8 0h.55v.65h-.55Zm-1.8.7h.55v.65H130Zm1.2 0h.55v.65h-.55Zm-1.2.7h.55v.65H130Zm.6 0h.55v.65h-.55Zm-.6.7h.55v.65H130Zm1.2 0h.55v.65h-.55Zm-1.2.7h.55v.65H130Zm1.8 0h.55v.65h-.55Z"/>
  <text x="127" y="53">108</text>
  <path d="M130.6 48.7h.55v.65h-.55Zm.6 0h.55v.65h-.55Zm0 .7h.55v.65h-.55Zm0 .7h.55v.65h-.55Zm0 .7h.55v.65h-.55Zm0 .7h.55v.65h-.55Zm0 .7h.55v.65h-.55Zm-.6.7h.55v.65h-.55Zm.6 0h.55v.65h-.55Zm.6 0h.55v.65h-.55Z"/>
  <text x="127" y="61">109</text>
  <path d="M130 58.1h.55v.65H130Zm.6 0h.55v.65h-.55Zm1.2 0h.55v.65h-.55Zm-1.8.7h.55v.65H130Zm1.2 0h.55v.65h-.55Zm1.2 0h.55v.65h-.55Zm-2.4.7h.55v.65H130Zm1.2 0h.55v.65h-.55Zm1.2 0h.55v.65h-.55Zm-2.4.7h.55v.65H130Zm1.2 0h.55v.65h-.55Zm1.2 0h.55v.65h-.55Zm-2.4.7h.55v.65H130Zm1.2 0h.55v.65h-.55Zm1.2 0h.55v.65h-.55Z"/>
  <text x="127" y="69">110</text>
  <path d="M130 66.1h.55v.65H130Zm1.2 0h.55v.65h-.55Zm.6 0h.55v.65h-.55Zm-1.8.7h.55v.65H130Zm.6 0h.55v.65h-.55Zm1.8 0h.55v.65h-.55Zm-2.4.7h.55v.65H130Zm2.4 0h.55v.65h-.55Zm-2.4.7h.55v.65H130Zm2.4 0h.55v.65h-.55Zm-2.4.7h.55v.65H130Zm2.4 0h.55v.65h-.55Z"/>
  <text x="127" y="77">111</text>
  <path d="M130.6 74.1h.55v.65h-.55Zm.6 0h.55v.65h-.55Zm.6 0h.55v.65h-.55Zm-1.8.7h.55v.65H130Zm2.4 0h.55v.65h-.55Zm-2.4.7h.55v.65H130Zm2.4 0h.55v.65h-.55Zm-2.4.7h.55v.65H130Zm2.4 0h.55v.65h-.55Zm-1.8.7h.55v.65h-.55Zm.6 0h.55v.65h-.55Zm.6 0h.55v.65h-.55Z"/>
  <text x="127" y="85">112</text>
  <path d="M130 82.1h.55v.65H130Zm.6 0h.55v.65h-.55Zm.6 0h.55v.65h-.55Zm.6 0h.55v.65h-.55Zm-1.8.7h.55v.65H130Zm2.4 0h.55v.65h-.55Zm-2.4.7h.55v.65H130Zm.6 0h.55v.65h-.55Zm.6 0h.55v.65h-.55Zm.6 0h.55v.65h-.55Zm-1.8.7h.55v.65H130Zm0 .7h.55v.65H130Z"/>
  <text x="127" y="93">113</text>
  <path d="M130.6 90.1h.55v.65h-.55Zm.6 0h.55v.65h-.55Zm1.2 0h.55v.65h-.55Zm-2.4.7h.55v.65H130Zm1.8 0h.55v.65h-.55Zm.6 0h.55v.65h-.55Zm-1.8.7h.55v.65h-.55Zm.6 0h.55v.65h-.55Zm.6 0h.55v.65h-.55Zm.6 0h.55v.65h-.55Zm0 .7h.55v.65h-.55Zm0 .7h.55v.65h-.55Z"/>
  <text x="127" y="101">114</text>
  <path d="M130 98.1h.55v.65H130Zm1.2 0h.55v.65h-.55Zm.6 0h.55v.65h-.55Zm-1.8.7h.55v.65H130Zm.6 0h.55v.65h-.55Zm1.8 0h.55v.65h-.55Zm-2.4.7h.55v.65H130Zm0 .7h.55v.65H130Zm0 .7h.55v.65H130Z"/>
  <text x="127" y="109">115</text>
  <path d="M130.6 106.1h.55v.65h-.55Zm.6 0h.55v.65h-.55Zm.6 0h.55v.65h-.55Zm-1.8.7h.55v.65H130Zm.6.7h.55v.65h-.55Zm.6 0h.55v.65h-.55Zm.6 0h.55v.65h-.55Zm.6.7h.55v.65h-.55Zm-2.4.7h.55v.65H130Zm.6 0h.55v.65h-.55Zm.6 0h.55v.65h-.55Zm.6 0h.55v.65h-.55Z"/>
  <text x="151" y="5">116</text>
  <path d="M154.6.7h.55v.65h-.55Zm0 .7h.55v.65h-.55Zm-.6.7h.55v.65H154Zm.6 0h.55v.65h-.55Zm.6 0h.55v.65h-.55Zm-.6.7h.55v.65h-.55Zm0 .7h.55v.65h-.55Zm0 .7h.55v.65h-.55Zm1.8 0h.55v.65h-.55Zm-1.2.7h.55v.65h-.55Zm.6 0h.55v.65h-.55Z"/>
  <text x="151" y="13">117</text>
  <path d="M154 10.1h.55v.65H154Zm2.4 0h.55v.65h-.55Zm-2.4.7h.55v.65H154Zm2.4 0h.55v.65h-.55Zm-2.4.7h.55v.65H154Zm2.4 0h.55v.65h-.55Zm-2.4.7h.55v.65H154Zm1.8 0h.55v.65h-.55Zm.6 0h.55v.65h-.55Zm-1.8.7h.55v.65h-.55Zm.6 0h.55v.65h-.55Zm1.2 0h.55v.65h-.55Z"/>
  <text x="151" y="21">118</text>
  <path d="M154 18.1h.55v.65H154Zm2.4 0h.55v.65h-.55Zm-2.4.7h.55v.65H154Zm2.4 0h.55v.65h-.55Zm-2.4.7h.55v.65H154Zm2.4 0h.55v.65h-.55Zm-1.8.7h.55v.65h-.55Zm1.2 0h.55v.65h-.55Zm-.6.7h.55v.65h-.55Z"/>
  <text x="151" y="29">119</text>
  <path d="M154 26.1h.55v.65H154Zm2.4 0h.55v.65h-.55Zm-2.4.7h.55v.65H154Zm2.4 0h.55v.65h-.55Zm-2.4.7h.55v.65H154Zm1.2 0h.55v.65h-.55Zm1.2 0h.55v.65h-.55Zm-2.4.7h.55v.65H154Zm1.2 0h.55v.65h-.55Zm1.2 0h.55v.65h-.55Zm-1.8.7h.55v.65h-.55Zm1.2 0h.55v.65h-.55Z"/>
  <text x="151" y="37">120</text>
  <path d="M154 34.1h.55v.65H154Zm2.4 0h.55v.65h-.55Zm-1.8.7h.55v.65h-.55Zm1.2 0h.55v.65h-.55Zm-.6.7h.55v.65h-.55Zm-.6.7h.55v.65h-.55Zm1.2 0h.55v.65h-.55Zm-1.8.7h.55v.65H154Zm2.4 0h.55v.65h-.55Z"/>
  <text x="151" y="45">121</text>
  <path d="M154 42.1h.55v.65H154Zm2.4 0h.55v.65h-.55Zm-2.4.7h.55v.65H154Zm2.4 0h.55v.65h-.55Zm-1.8.7h.55v.65h-.55Zm.6 0h.55v.65h-.55Zm.6 0h.55v.65h-.55Zm.6 0h.55v.65h-.55Zm0 .7h.55v.65h-.55Zm-1.8.7h.55v.65h-.55Zm.6 0h.55v.65h-.55Zm.6 0h.55v.65h-.55Z"/>
  <text x="151" y="53">122</text>
  <path d="M154 50.1h.55v.65H154Zm.6 0h.55v.65h-.55Zm.6 0h.55v.65h-.55Zm.6 0h.55v.65h-.55Zm.6 0h.55v.65h-.55Zm-.6.7h.55v.65h-.55Zm-.6.7h.55v.65h-.55Zm-.6.7h.55v.65h-.55Zm-.6.7h.55v.65H154Zm.6 0h.55v.65h-.55Zm.6 0h.55v.65h-.55Zm.6 0h.55v.65h-.55Zm.6 0h.55v.65h-.55Z"/>
  <text x="151" y="61">123</text>
  <path d="M155.8 56.7h.55v.65h-.55Zm-.6.7h.55v.65h-.55Zm0 .7h.55v.65h-.55Zm-.6.7h.55v.65h-.55Zm.6.7h.55v.65h-.55Zm0 .7h.55v.65h-.55Zm.6.7h.55v.65h-.55Z"/>
  <text x="151" y="69">124</text>
  <path d="M155.2 64.7h.55v.65h-.55Zm0 .7h.55v.65h-.55Zm0 .7h.55v.65h-.55Zm0 .7h.55v.65h-.55Zm0 .7h.55v.65h-.55Zm0 .7h.55v.65h-.55Zm0 .7h.55v.65h-.55Z"/>
  <text x="151" y="77">125</text>
  <path d="M154.6 72.7h.55v.65h-.55Zm.6.7h.55v.65h-.55Zm0 .7h.55v.65h-.55Zm.6.7h.55v.65h-.55Zm-.6.7h.55v.65h-.55Zm0 .7h.55v.65h-.55Zm-.6.7h.55v.65h-.55Z"/>
  <text x="151" y="85">126</text>
  <path d="M154.6 82.8h.55v.65h-.55Zm.6 0h.55v.65h-.55Zm1.2 0h.55v.65h-.55Zm-2.4.7h.55v.65H154Zm1.8 0h.55v.65h-.55Z"/>
  <text x="151" y="93">127</text>
  <path d="M155.2 88.7h.55v.65h-.55Zm-.6.7h.55v.65h-.55Zm1.2 0h.55v.65h-.55Zm-1.8.7h.55v.65H154Zm2.4 0h.55v.65h-.55Zm-2.4.7h.55v.65H154Zm2.4 0h.55v.65h-.55Zm-2.4.7h.55v.65H154Zm2.4 0h.55v.65h-.55Zm-2.4.7h.55v.65H154Zm.6 0h.55v.65h-.55Zm.6 0h.55v.65h-.55Zm.6 0h.55v.65h-.55Zm.6 0h.55v.65h-.55Z"/>
</svg>
