<svg xmlns="http://www.w3.org/2000/svg" width="160mm" height="150mm" viewBox="0 0 160 150">
  <style>
    path {
      fill:#00f;
    }
    text {
      font-size:5px;
      text-anchor:end;
    }
  </style>
  <text x="7" y="5">128</text>
  <path d="M10 .7h.55v.65H10Zm.6 0h.55v.65h-.55Zm.6 0h.55v.65h-.55Zm.6 0h.55v.65h-.55Zm.6 0h.55v.65h-.55Zm-2.4.7h.55v.65H10Zm2.4 0h.55v.65h-.55Zm-2.4.7h.55v.65H10Zm0 .7h.55v.65H10Zm.6 0h.55v.65h-.55Zm.6 0h.55v.65h-.55Zm.6 0h.55v.65h-.55Zm-1.8.7h.55v.65H10Zm2.4 0h.55v.65h-.55Zm-2.4.7h.55v.65H10Zm2.4 0h.55v.65h-.55Zm-2.4.7h.55v.65H10Zm.6 0h.55v.65h-.55Zm.6 0h.55v.65h-.55Zm.6 0h.55v.65h-.55Z"/>
  <text x="7" y="13">129</text>
  <path d="M10.6 8h.55v.65h-.55Zm.6 0h.55v.65h-.55Zm.6 0h.55v.65h-.55Zm.6 0h.55v.65h-.55Zm-1.2.7h.55v.65h-.55Zm1.2 0h.55v.65h-.55Zm-1.2.7h.55v.65h-.55Zm1.2 0h.55v.65h-.55Zm-1.8.7h.55v.65h-.55Zm1.8 0h.55v.65h-.55Zm-2.4.7h.55v.65H10Zm2.4 0h.55v.65h-.55Zm-2.4.7h.55v.65H10Zm.6 0h.55v.65h-.55Zm.6 0h.55v.65h-.55Zm.6 0h.55v.65h-.55Zm.6 0h.55v.65h-.55Zm-2.4.7h.55v.65H10Zm2.4 0h.55v.65h-.55Zm-2.4.7h.55v.65H10Zm2.4 0h.55v.65h-.55Z"/>
  <text x="7" y="21">130</text>
  <path d="M10 16.7h.55v.65H10Zm1.2 0h.55v.65h-.55Zm1.2 0h.55v.65h-.55Zm-2.4.7h.55v.65H10Zm1.2 0h.55v.65h-.55Zm1.2 0h.55v.65h-.55Zm-2.4.7h.55v.65H10Zm1.2 0h.55v.65h-.55Zm1.2 0h.55v.65h-.55Zm-1.8.7h.55v.65h-.55Zm.6 0h.55v.65h-.55Zm.6 0h.55v.65h-.55Zm-1.8.7h.55v.65H10Zm1.2 0h.55v.65h-.55Zm1.2 0h.55v.65h-.55Zm-2.4.7h.55v.65H10Zm1.2 0h.55v.65h-.55Zm1.2 0h.55v.65h-.55Zm-2.4.7h.55v.65H10Zm1.2 0h.55v.65h-.55Zm1.2 0h.55v.65h-.55Z"/>
  <text x="7" y="29">131</text>
  <path d="M10 24.7h.55v.65H10Zm.6 0h.55v.65h-.55Zm.6 0h.55v.65h-.55Zm.6 0h.55v.65h-.55Zm.6.7h.55v.65h-.55Zm0 .7h.55v.65h-.55Zm-1.2.7h.55v.65h-.55Zm.6 0h.55v.65h-.55Zm.6.7h.55v.65h-.55Zm0 .7h.55v.65h-.55Zm-2.4.7h.55v.65H10Zm.6 0h.55v.65h-.55Zm.6 0h.55v.65h-.55Zm.6 0h.55v.65h-.55Z"/>
  <text x="7" y="37">132</text>
  <path d="M10 32.7h.55v.65H10Zm2.4 0h.55v.65h-.55Zm-2.4.7h.55v.65H10Zm2.4 0h.55v.65h-.55Zm-2.4.7h.55v.65H10Zm1.8 0h.55v.65h-.55Zm.6 0h.55v.65h-.55Zm-2.4.7h.55v.65H10Zm1.2 0h.55v.65h-.55Zm1.2 0h.55v.65h-.55Zm-2.4.7h.55v.65H10Zm.6 0h.55v.65h-.55Zm1.8 0h.55v.65h-.55Zm-2.4.7h.55v.65H10Zm2.4 0h.55v.65h-.55Zm-2.4.7h.55v.65H10Zm2.4 0h.55v.65h-.55Z"/>
  <text x="7" y="45">133</text>
  <path d="M10.6 40h.55v.65h-.55Zm1.2 0h.55v.65h-.55Zm-.6.7h.55v.65h-.55Zm-1.2.7h.55v.65H10Zm2.4 0h.55v.65h-.55Zm-2.4.7h.55v.65H10Zm2.4 0h.55v.65h-.55Zm-2.4.7h.55v.65H10Zm1.8 0h.55v.65h-.55Zm.6 0h.55v.65h-.55Zm-2.4.7h.55v.65H10Zm1.2 0h.55v.65h-.55Zm1.2 0h.55v.65h-.55Zm-2.4.7h.55v.65H10Zm.6 0h.55v.65h-.55Zm1.8 0h.55v.65h-.55Zm-2.4.7h.55v.65H10Zm2.4 0h.55v.65h-.55Z"/>
  <text x="7" y="53">134</text>
  <path d="M10.6 48.7h.55v.65h-.55Zm.6 0h.55v.65h-.55Zm.6 0h.55v.65h-.55Zm.6 0h.55v.65h-.55Zm-1.2.7h.55v.65h-.55Zm1.2 0h.55v.65h-.55Zm-1.2.7h.55v.65h-.55Zm1.2 0h.55v.65h-.55Zm-1.2.7h.55v.65h-.55Zm1.2 0h.55v.65h-.55Zm-1.2.7h.55v.65h-.55Zm1.2 0h.55v.65h-.55Zm-2.4.7h.55v.65H10Zm1.2 0h.55v.65h-.55Zm1.2 0h.55v.65h-.55Zm-1.8.7h.55v.65h-.55Zm1.8 0h.55v.65h-.55Z"/>
  <text x="7" y="61">135</text>
  <path d="M10 56.7h.55v.65H10Zm.6 0h.55v.65h-.55Zm.6 0h.55v.65h-.55Zm.6 0h.55v.65h-.55Zm.6 0h.55v.65h-.55Zm-2.4.7h.55v.65H10Zm2.4 0h.55v.65h-.55Zm-2.4.7h.55v.65H10Zm2.4 0h.55v.65h-.55Zm-2.4.7h.55v.65H10Zm2.4 0h.55v.65h-.55Zm-2.4.7h.55v.65H10Zm2.4 0h.55v.65h-.55Zm-2.4.7h.55v.65H10Zm2.4 0h.55v.65h-.55Zm-2.4.7h.55v.65H10Zm2.4 0h.55v.65h-.55Z"/>
  <text x="7" y="69">136</text>
  <path d="M10 64.7h.55v.65H10Zm2.4 0h.55v.65h-.55Zm-2.4.7h.55v.65H10Zm2.4 0h.55v.65h-.55Zm-2.4.7h.55v.65H10Zm2.4 0h.55v.65h-.55Zm-1.8.7h.55v.65h-.55Zm1.2 0h.55v.65h-.55Zm-.6.7h.55v.65h-.55Zm-.6.7h.55v.65h-.55Zm-.6.7h.55v.65H10Z"/>
  <text x="7" y="77">137</text>
  <path d="M10 72.7h.55v.65H10Zm2.4 0h.55v.65h-.55Zm-2.4.7h.55v.65H10Zm2.4 0h.55v.65h-.55Zm-2.4.7h.55v.65H10Zm2.4 0h.55v.65h-.55Zm-2.4.7h.55v.65H10Zm2.4 0h.55v.65h-.55Zm-2.4.7h.55v.65H10Zm2.4 0h.55v.65h-.55Zm-2.4.7h.55v.65H10Zm.6 0h.55v.65h-.55Zm.6 0h.55v.65h-.55Zm.6 0h.55v.65h-.55Zm.6 0h.55v.65h-.55Zm0 .7h.55v.65h-.55Z"/>
  <text x="7" y="85">138</text>
  <path d="M10 80.7h.55v.65H10Zm2.4 0h.55v.65h-.55Zm-2.4.7h.55v.65H10Zm2.4 0h.55v.65h-.55Zm-2.4.7h.55v.65H10Zm2.4 0h.55v.65h-.55Zm-1.8.7h.55v.65h-.55Zm.6 0h.55v.65h-.55Zm.6 0h.55v.65h-.55Zm.6 0h.55v.65h-.55Zm0 .7h.55v.65h-.55Zm0 .7h.55v.65h-.55Zm0 .7h.55v.65h-.55Z"/>
  <text x="7" y="93">139</text>
  <path d="M10 89.4h.55v.65H10Zm1.2 0h.55v.65h-.55Zm1.2 0h.55v.65h-.55Zm-2.4.7h.55v.65H10Zm1.2 0h.55v.65h-.55Zm1.2 0h.55v.65h-.55Zm-2.4.7h.55v.65H10Zm1.2 0h.55v.65h-.55Zm1.2 0h.55v.65h-.55Zm-2.4.7h.55v.65H10Zm1.2 0h.55v.65h-.55Zm1.2 0h.55v.65h-.55Zm-2.4.7h.55v.65H10Zm1.2 0h.55v.65h-.55Zm1.2 0h.55v.65h-.55Zm-2.4.7h.55v.65H10Zm.6 0h.55v.65h-.55Zm.6 0h.55v.65h-.55Zm.6 0h.55v.65h-.55Zm.6 0h.55v.65h-.55Z"/>
  <text x="7" y="101">140</text>
  <path d="M10 96.7h.55v.65H10Zm1.2 0h.55v.65h-.55Zm1.2 0h.55v.65h-.55Zm-2.4.7h.55v.65H10Zm1.2 0h.55v.65h-.55Zm1.2 0h.55v.65h-.55Zm-2.4.7h.55v.65H10Zm1.2 0h.55v.65h-.55Zm1.2 0h.55v.65h-.55Zm-2.4.7h.55v.65H10Zm1.2 0h.55v.65h-.55Zm1.2 0h.55v.65h-.55Zm-2.4.7h.55v.65H10Zm1.2 0h.55v.65h-.55Zm1.2 0h.55v.65h-.55Zm-2.4.7h.55v.65H10Zm.6 0h.55v.65h-.55Zm.6 0h.55v.65h-.55Zm.6 0h.55v.65h-.55Zm.6 0h.55v.65h-.55Zm0 .7h.55v.65h-.55Z"/>
  <text x="7" y="109">141</text>
  <path d="M10 104.7h.55v.65H10Zm.6 0h.55v.65h-.55Zm0 .7h.55v.65h-.55Zm0 .7h.55v.65h-.55Zm0 .7h.55v.65h-.55Zm.6 0h.55v.65h-.55Zm.6 0h.55v.65h-.55Zm-1.2.7h.55v.65h-.55Zm1.8 0h.55v.65h-.55Zm-1.8.7h.55v.65h-.55Zm1.8 0h.55v.65h-.55Zm-1.8.7h.55v.65h-.55Zm.6 0h.55v.65h-.55Zm.6 0h.55v.65h-.55Z"/>
  <text x="7" y="117">142</text>
  <path d="M10 112.7h.55v.65H10Zm2.4 0h.55v.65h-.55Zm-2.4.7h.55v.65H10Zm2.4 0h.55v.65h-.55Zm-2.4.7h.55v.65H10Zm2.4 0h.55v.65h-.55Zm-2.4.7h.55v.65H10Zm.6 0h.55v.65h-.55Zm1.8 0h.55v.65h-.55Zm-2.4.7h.55v.65H10Zm1.2 0h.55v.65h-.55Zm1.2 0h.55v.65h-.55Zm-2.4.7h.55v.65H10Zm1.2 0h.55v.65h-.55Zm1.2 0h.55v.65h-.55Zm-2.4.7h.55v.65H10Zm.6 0h.55v.65h-.55Zm1.8 0h.55v.65h-.55Z"/>
  <text x="7" y="125">143</text>
  <path d="M10.6 120.7h.55v.65h-.55Zm.6 0h.55v.65h-.55Zm.6 0h.55v.65h-.55Zm-1.8.7h.55v.65H10Zm2.4 0h.55v.65h-.55Zm-1.2.7h.55v.65h-.55Zm1.2 0h.55v.65h-.55Zm-1.8.7h.55v.65h-.55Zm1.2 0h.55v.65h-.55Zm.6 0h.55v.65h-.55Zm0 .7h.55v.65h-.55Zm-2.4.7h.55v.65H10Zm2.4 0h.55v.65h-.55Zm-1.8.7h.55v.65h-.55Zm.6 0h.55v.65h-.55Zm.6 0h.55v.65h-.55Z"/>
  <text x="7" y="133">144</text>
  <path d="M10.6 130.1h.55v.65h-.55Zm1.8 0h.55v.65h-.55Zm-2.4.7h.55v.65H10Zm1.2 0h.55v.65h-.55Zm1.2 0h.55v.65h-.55Zm-2.4.7h.55v.65H10Zm1.8 0h.55v.65h-.55Zm-1.8.7h.55v.65H10Zm1.8 0h.55v.65h-.55Zm-1.2.7h.55v.65h-.55Zm.6 0h.55v.65h-.55Zm1.2 0h.55v.65h-.55Z"/>
  <text x="7" y="141">145</text>
  <path d="M11.2 136.7h.55v.65h-.55Zm0 .7h.55v.65h-.55Zm.6 0h.55v.65h-.55Zm-.6.7h.55v.65h-.55Zm1.2 0h.55v.65h-.55Zm-1.2.7h.55v.65h-.55Zm1.2 0h.55v.65h-.55Zm-1.2.7h.55v.65h-.55Zm-1.2.7h.55v.65H10Zm.6 0h.55v.65h-.55Zm.6 0h.55v.65h-.55Zm-1.2.7h.55v.65H10Zm.6 0h.55v.65h-.55Zm.6 0h.55v.65h-.55Z"/>
  <text x="7" y="149">146</text>
  <path d="M10 144.7h.55v.65H10Zm.6 0h.55v.65h-.55Zm.6 0h.55v.65h-.55Zm.6 0h.55v.65h-.55Zm.6 0h.55v.65h-.55Zm-2.4.7h.55v.65H10Zm2.4 0h.55v.65h-.55Zm-2.4.7h.55v.65H10Zm0 .7h.55v.65H10Zm0 .7h.55v.65H10Zm0 .7h.55v.65H10Zm0 .7h.55v.65H10Z"/>
  <text x="31" y="5">147</text>
  <path d="M34 2.1h.55v.65H34Zm.6 0h.55v.65h-.55Zm.6 0h.55v.65h-.55Zm.6 0h.55v.65h-.55Zm.6 0h.55v.65h-.55Zm-1.8.7h.55v.65h-.55Zm1.2 0h.55v.65h-.55Zm-1.2.7h.55v.65h-.55Zm1.2 0h.55v.65h-.55Zm-1.2.7h.55v.65h-.55Zm1.2 0h.55v.65h-.55Zm-1.8.7h.55v.65H34Zm1.8 0h.55v.65h-.55Zm.6 0h.55v.65h-.55Z"/>
  <text x="31" y="13">148</text>
  <path d="M34 8.7h.55v.65H34Zm.6 0h.55v.65h-.55Zm.6 0h.55v.65h-.55Zm.6 0h.55v.65h-.55Zm.6 0h.55v.65h-.55Zm-2.4.7h.55v.65H34Zm.6.7h.55v.65h-.55Zm.6.7h.55v.65h-.55Zm-.6.7h.55v.65h-.55Zm-.6.7h.55v.65H34Zm0 .7h.55v.65H34Zm.6 0h.55v.65h-.55Zm.6 0h.55v.65h-.55Zm.6 0h.55v.65h-.55Zm.6 0h.55v.65h-.55Z"/>
  <text x="31" y="21">149</text>
  <path d="M34.6 18.1h.55v.65h-.55Zm.6 0h.55v.65h-.55Zm.6 0h.55v.65h-.55Zm.6 0h.55v.65h-.55Zm-2.4.7h.55v.65H34Zm1.8 0h.55v.65h-.55Zm-1.8.7h.55v.65H34Zm1.8 0h.55v.65h-.55Zm-1.8.7h.55v.65H34Zm1.8 0h.55v.65h-.55Zm-1.2.7h.55v.65h-.55Zm.6 0h.55v.65h-.55Z"/>
  <text x="31" y="29">150</text>
  <path d="M35.2 24h.55v.65h-.55Zm.6 0h.55v.65h-.55Zm-.6.7h.55v.65h-.55Zm1.2 0h.55v.65h-.55Zm-1.2.7h.55v.65h-.55Zm.6 0h.55v.65h-.55Zm.6 0h.55v.65h-.55Zm-1.2.7h.55v.65h-.55Zm1.2 0h.55v.65h-.55Zm-1.2.7h.55v.65h-.55Zm1.2 0h.55v.65h-.55Zm-2.4.7h.55v.65H34Zm.6 0h.55v.65h-.55Zm.6 0h.55v.65h-.55Zm1.2 0h.55v.65h-.55Zm-2.4.7h.55v.65H34Zm.6 0h.55v.65h-.55Zm1.2 0h.55v.65h-.55Zm.6 0h.55v.65h-.55Zm-.6.7h.55v.65h-.55Zm.6 0h.55v.65h-.55Z"/>
  <text x="31" y="37">151</text>
  <path d="M36.4 33.4h.55v.65h-.55Zm-1.8.7h.55v.65h-.55Zm.6 0h.55v.65h-.55Zm.6 0h.55v.65h-.55Zm-1.8.7h.55v.65H34Zm1.2 0h.55v.65h-.55Zm0 .7h.55v.65h-.55Zm0 .7h.55v.65h-.55Zm.6.7h.55v.65h-.55Z"/>
  <text x="31" y="45">152</text>
  <path d="M35.2 40.7h.55v.65h-.55Zm-.6.7h.55v.65h-.55Zm.6 0h.55v.65h-.55Zm.6 0h.55v.65h-.55Zm-1.2.7h.55v.65h-.55Zm.6 0h.55v.65h-.55Zm.6 0h.55v.65h-.55Zm-1.2.7h.55v.65h-.55Zm.6 0h.55v.65h-.55Zm.6 0h.55v.65h-.55Zm-1.8.7h.55v.65H34Zm.6 0h.55v.65h-.55Zm.6 0h.55v.65h-.55Zm.6 0h.55v.65h-.55Zm.6 0h.55v.65h-.55Zm-1.2.7h.55v.65h-.55Z"/>
  <text x="31" y="53">153</text>
  <path d="M34.6 48.7h.55v.65h-.55Zm.6 0h.55v.65h-.55Zm.6 0h.55v.65h-.55Zm-1.8.7h.55v.65H34Zm2.4 0h.55v.65h-.55Zm-2.4.7h.55v.65H34Zm2.4 0h.55v.65h-.55Zm-2.4.7h.55v.65H34Zm.6 0h.55v.65h-.55Zm.6 0h.55v.65h-.55Zm.6 0h.55v.65h-.55Zm.6 0h.55v.65h-.55Zm-2.4.7h.55v.65H34Zm2.4 0h.55v.65h-.55Zm-2.4.7h.55v.65H34Zm2.4 0h.55v.65h-.55Zm-1.8.7h.55v.65h-.55Zm.6 0h.55v.65h-.55Zm.6 0h.55v.65h-.55Z"/>
  <text x="31" y="61">154</text>
  <path d="M34.6 57.4h.55v.65h-.55Zm.6 0h.55v.65h-.55Zm.6 0h.55v.65h-.55Zm-1.8.7h.55v.65H34Zm2.4 0h.55v.65h-.55Zm-2.4.7h.55v.65H34Zm2.4 0h.55v.65h-.55Zm-2.4.7h.55v.65H34Zm2.4 0h.55v.65h-.55Zm-1.8.7h.55v.65h-.55Zm1.2 0h.55v.65h-.55Zm-1.8.7h.55v.65H34Zm.6 0h.55v.65h-.55Zm1.2 0h.55v.65h-.55Zm.6 0h.55v.65h-.55Z"/>
  <text x="31" y="69">155</text>
  <path d="M35.2 64.7h.55v.65h-.55Zm.6 0h.55v.65h-.55Zm-1.2.7h.55v.65h-.55Zm1.8 0h.55v.65h-.55Zm-1.2.7h.55v.65h-.55Zm-.6.7h.55v.65h-.55Zm1.2 0h.55v.65h-.55Zm-1.8.7h.55v.65H34Zm2.4 0h.55v.65h-.55Zm-2.4.7h.55v.65H34Zm2.4 0h.55v.65h-.55Zm-1.8.7h.55v.65h-.55Zm.6 0h.55v.65h-.55Zm.6 0h.55v.65h-.55Z"/>
  <text x="31" y="77">156</text>
  <path d="M34.6 74.1h.55v.65h-.55Zm1.2 0h.55v.65h-.55Zm.6 0h.55v.65h-.55Zm-2.4.7h.55v.65H34Zm1.2 0h.55v.65h-.55Zm1.2 0h.55v.65h-.55Zm-2.4.7h.55v.65H34Zm.6 0h.55v.65h-.55Zm1.2 0h.55v.65h-.55Z"/>
  <text x="31" y="85">157</text>
  <path d="M34.6 81.4h.55v.65h-.55Zm1.2 0h.55v.65h-.55Zm-1.8.7h.55v.65H34Zm.6 0h.55v.65h-.55Zm.6 0h.55v.65h-.55Zm.6 0h.55v.65h-.55Zm.6 0h.55v.65h-.55Zm-2.4.7h.55v.65H34Zm.6 0h.55v.65h-.55Zm.6 0h.55v.65h-.55Zm.6 0h.55v.65h-.55Zm.6 0h.55v.65h-.55Zm-2.4.7h.55v.65H34Zm.6 0h.55v.65h-.55Zm.6 0h.55v.65h-.55Zm.6 0h.55v.65h-.55Zm.6 0h.55v.65h-.55Zm-1.8.7h.55v.65h-.55Zm.6 0h.55v.65h-.55Zm.6 0h.55v.65h-.55Zm-.6.7h.55v.65h-.55Z"/>
  <text x="31" y="93">158</text>
  <path d="M34.6 90.1h.55v.65h-.55Zm.6 0h.55v.65h-.55Zm.6 0h.55v.65h-.55Zm-1.8.7h.55v.65H34Zm.6.7h.55v.65h-.55Zm.6 0h.55v.65h-.55Zm-1.2.7h.55v.65H34Zm2.4 0h.55v.65h-.55Zm-1.8.7h.55v.65h-.55Zm.6 0h.55v.65h-.55Zm.6 0h.55v.65h-.55Z"/>
  <text x="31" y="101">159</text>
  <path d="M34.6 96.7h.55v.65h-.55Zm.6 0h.55v.65h-.55Zm.6 0h.55v.65h-.55Zm-1.8.7h.55v.65H34Zm2.4 0h.55v.65h-.55Zm-2.4.7h.55v.65H34Zm2.4 0h.55v.65h-.55Zm-2.4.7h.55v.65H34Zm2.4 0h.55v.65h-.55Zm-2.4.7h.55v.65H34Zm2.4 0h.55v.65h-.55Zm-2.4.7h.55v.65H34Zm2.4 0h.55v.65h-.55Zm-2.4.7h.55v.65H34Zm2.4 0h.55v.65h-.55Z"/>
  <text x="31" y="109">160</text>
  <path d="M34 104.7h.55v.65H34Zm.6 0h.55v.65h-.55Zm1.2 0h.55v.65h-.55Zm.6 0h.55v.65h-.55Zm-2.4.7h.55v.65H34Zm.6 0h.55v.65h-.55Zm1.2 0h.55v.65h-.55Zm.6 0h.55v.65h-.55Zm-2.4.7h.55v.65H34Zm.6 0h.55v.65h-.55Zm1.2 0h.55v.65h-.55Zm.6 0h.55v.65h-.55Zm-2.4.7h.55v.65H34Zm.6 0h.55v.65h-.55Zm1.2 0h.55v.65h-.55Zm.6 0h.55v.65h-.55Zm-2.4.7h.55v.65H34Zm.6 0h.55v.65h-.55Zm1.2 0h.55v.65h-.55Zm.6 0h.55v.65h-.55Zm-2.4.7h.55v.65H34Zm.6 0h.55v.65h-.55Zm1.2 0h.55v.65h-.55Zm.6 0h.55v.65h-.55Zm-2.4.7h.55v.65H34Zm.6 0h.55v.65h-.55Zm1.2 0h.55v.65h-.55Zm.6 0h.55v.65h-.55Z"/>
  <text x="31" y="117">161</text>
  <path d="M35.2 112.7h.55v.65h-.55Zm0 2.1h.55v.65h-.55Zm0 .7h.55v.65h-.55Zm0 .7h.55v.65h-.55Zm0 .7h.55v.65h-.55Z"/>
  <text x="31" y="125">162</text>
  <path d="M35.2 120.7h.55v.65h-.55Zm-.6.7h.55v.65h-.55Zm.6 0h.55v.65h-.55Zm.6 0h.55v.65h-.55Zm-1.8.7h.55v.65H34Zm1.2 0h.55v.65h-.55Zm-1.2.7h.55v.65H34Zm1.2 0h.55v.65h-.55Zm-1.2.7h.55v.65H34Zm1.2 0h.55v.65h-.55Zm1.2 0h.55v.65h-.55Zm-1.8.7h.55v.65h-.55Zm.6 0h.55v.65h-.55Zm.6 0h.55v.65h-.55Zm-.6.7h.55v.65h-.55Z"/>
  <text x="31" y="133">163</text>
  <path d="M35.2 128.7h.55v.65h-.55Zm.6 0h.55v.65h-.55Zm-1.2.7h.55v.65h-.55Zm0 .7h.55v.65h-.55Zm-.6.7h.55v.65H34Zm.6 0h.55v.65h-.55Zm.6 0h.55v.65h-.55Zm-.6.7h.55v.65h-.55Zm0 .7h.55v.65h-.55Zm1.8 0h.55v.65h-.55Zm-2.4.7h.55v.65H34Zm1.2 0h.55v.65h-.55Zm.6 0h.55v.65h-.55Z"/>
  <text x="31" y="141">164</text>
  <path d="M34 137.4h.55v.65H34Zm2.4 0h.55v.65h-.55Zm-1.8.7h.55v.65h-.55Zm.6 0h.55v.65h-.55Zm.6 0h.55v.65h-.55Zm-1.2.7h.55v.65h-.55Zm1.2 0h.55v.65h-.55Zm-1.2.7h.55v.65h-.55Zm.6 0h.55v.65h-.55Zm.6 0h.55v.65h-.55Zm-1.8.7h.55v.65H34Zm2.4 0h.55v.65h-.55Z"/>
  <text x="31" y="149">165</text>
  <path d="M34 144.7h.55v.65H34Zm2.4 0h.55v.65h-.55Zm-1.8.7h.55v.65h-.55Zm1.2 0h.55v.65h-.55Zm-1.8.7h.55v.65H34Zm.6 0h.55v.65h-.55Zm.6 0h.55v.65h-.55Zm.6 0h.55v.65h-.55Zm.6 0h.55v.65h-.55Zm-1.2.7h.55v.65h-.55Zm-1.2.7h.55v.65H34Zm.6 0h.55v.65h-.55Zm.6 0h.55v.65h-.55Zm.6 0h.55v.65h-.55Zm.6 0h.55v.65h-.55Zm-1.2.7h.55v.65h-.55Zm0 .7h.55v.65h-.55Z"/>
  <text x="55" y="5">166</text>
  <path d="M59.2.7h.55v.65h-.55Zm0 .7h.55v.65h-.55Zm0 .7h.55v.65h-.55Zm0 1.4h.55v.65h-.55Zm0 .7h.55v.65h-.55Zm0 .7h.55v.65h-.55Z"/>
  <text x="55" y="13">167</text>
  <path d="M59.2 8.7h.55v.65h-.55Zm.6 0h.55v.65h-.55Zm-1.2.7h.55v.65h-.55Zm1.8 0h.55v.65h-.55Zm-1.2.7h.55v.65h-.55Zm-.6.7h.55v.65h-.55Zm1.2 0h.55v.65h-.55Zm-.6.7h.55v.65h-.55Zm-1.2.7h.55v.65H58Zm1.8 0h.55v.65h-.55Zm-1.2.7h.55v.65h-.55Zm.6 0h.55v.65h-.55Z"/>
  <text x="55" y="21">168</text>
  <path d="M59.8 16.7h.55v.65h-.55Zm-.6.7h.55v.65h-.55Zm1.2 0h.55v.65h-.55Zm-1.2.7h.55v.65h-.55Zm-1.2.7h.55v.65H58Zm.6 0h.55v.65h-.55Zm.6 0h.55v.65h-.55Zm.6 0h.55v.65h-.55Zm.6 0h.55v.65h-.55Zm-1.2.7h.55v.65h-.55Zm-1.2.7h.55v.65H58Zm1.2 0h.55v.65h-.55Zm-.6.7h.55v.65h-.55Z"/>
  <text x="55" y="29">169</text>
  <path d="M58 24.7h.55v.65H58Zm.6 0h.55v.65h-.55Zm.6 0h.55v.65h-.55Zm.6 0h.55v.65h-.55Zm.6 0h.55v.65h-.55Zm-2.4.7h.55v.65H58Zm2.4 0h.55v.65h-.55Zm-2.4.7h.55v.65H58Zm1.2 0h.55v.65h-.55Zm1.2 0h.55v.65h-.55Zm-2.4.7h.55v.65H58Zm1.2 0h.55v.65h-.55Zm.6 0h.55v.65h-.55Zm.6 0h.55v.65h-.55Zm-2.4.7h.55v.65H58Zm1.2 0h.55v.65h-.55Zm1.2 0h.55v.65h-.55Zm-2.4.7h.55v.65H58Zm2.4 0h.55v.65h-.55Zm-2.4.7h.55v.65H58Zm.6 0h.55v.65h-.55Zm.6 0h.55v.65h-.55Zm.6 0h.55v.65h-.55Zm.6 0h.55v.65h-.55Z"/>
  <text x="55" y="37">170</text>
  <path d="M58.6 32.7h.55v.65h-.55Zm.6 0h.55v.65h-.55Zm.6 0h.55v.65h-.55Zm.6.7h.55v.65h-.55Zm-1.8.7h.55v.65h-.55Zm.6 0h.55v.65h-.55Zm.6 0h.55v.65h-.55Zm.6 0h.55v.65h-.55Zm-2.4.7h.55v.65H58Zm2.4 0h.55v.65h-.55Zm-1.8.7h.55v.65h-.55Zm.6 0h.55v.65h-.55Zm.6 0h.55v.65h-.55Zm.6 0h.55v.65h-.55ZM58 36.9h.55v.65H58Zm.6 0h.55v.65h-.55Zm.6 0h.55v.65h-.55Zm.6 0h.55v.65h-.55Zm.6 0h.55v.65h-.55Z"/>
  <text x="55" y="45">171</text>
  <path d="M59.2 41.4h.55v.65h-.55Zm1.2 0h.55v.65h-.55Zm-1.8.7h.55v.65h-.55Zm1.2 0h.55v.65h-.55Zm-1.8.7h.55v.65H58Zm1.2 0h.55v.65h-.55Zm-.6.7h.55v.65h-.55Zm1.2 0h.55v.65h-.55Zm-.6.7h.55v.65h-.55Zm1.2 0h.55v.65h-.55Z"/>
  <text x="55" y="53">172</text>
  <path d="M58 48.7h.55v.65H58Zm1.8 0h.55v.65h-.55Zm-1.8.7h.55v.65H58Zm1.2 0h.55v.65h-.55Zm1.2 0h.55v.65h-.55Zm-2.4.7h.55v.65H58Zm1.2 0h.55v.65h-.55Zm1.2 0h.55v.65h-.55Zm-2.4.7h.55v.65H58Zm.6 0h.55v.65h-.55Zm.6 0h.55v.65h-.55Zm1.2 0h.55v.65h-.55Zm-2.4.7h.55v.65H58Zm1.2 0h.55v.65h-.55Zm1.2 0h.55v.65h-.55Zm-2.4.7h.55v.65H58Zm1.2 0h.55v.65h-.55Zm1.2 0h.55v.65h-.55Zm-2.4.7h.55v.65H58Zm1.8 0h.55v.65h-.55Z"/>
  <text x="55" y="61">173</text>
  <path d="M58.6 56.7h.55v.65h-.55Zm.6 0h.55v.65h-.55Zm.6 0h.55v.65h-.55Zm.6 0h.55v.65h-.55Zm-2.4.7h.55v.65H58Zm2.4 0h.55v.65h-.55Zm-2.4.7h.55v.65H58Zm2.4 0h.55v.65h-.55Zm-1.8.7h.55v.65h-.55Zm.6 0h.55v.65h-.55Zm.6 0h.55v.65h-.55Zm.6 0h.55v.65h-.55Zm-1.2.7h.55v.65h-.55Zm1.2 0h.55v.65h-.55Zm-1.8.7h.55v.65h-.55Zm1.8 0h.55v.65h-.55Zm-2.4.7h.55v.65H58Zm2.4 0h.55v.65h-.55Z"/>
  <text x="55" y="69">174</text>
  <path d="M58 64.7h.55v.65H58Zm.6 0h.55v.65h-.55Zm.6 0h.55v.65h-.55Zm.6 0h.55v.65h-.55Zm.6 0h.55v.65h-.55Zm-2.4.7h.55v.65H58Zm2.4 0h.55v.65h-.55Zm-2.4.7h.55v.65H58Zm1.2 0h.55v.65h-.55Zm1.2 0h.55v.65h-.55Zm-2.4.7h.55v.65H58Zm2.4 0h.55v.65h-.55Zm-2.4.7h.55v.65H58Zm1.8 0h.55v.65h-.55Zm.6 0h.55v.65h-.55Zm-2.4.7h.55v.65H58Zm1.2 0h.55v.65h-.55Zm1.2 0h.55v.65h-.55Zm-2.4.7h.55v.65H58Zm.6 0h.55v.65h-.55Zm.6 0h.55v.65h-.55Zm.6 0h.55v.65h-.55Zm.6 0h.55v.65h-.55Z"/>
  <text x="55" y="77">175</text>
  <path d="M59.2 72.7h.55v.65h-.55Zm-.6.7h.55v.65h-.55Zm0 .7h.55v.65h-.55Zm.6 0h.55v.65h-.55Z"/>
  <text x="55" y="85">176</text>
  <path d="M58.6 80h.55v.65h-.55Zm.6 0h.55v.65h-.55Zm-1.2.7h.55v.65H58Zm1.8 0h.55v.65h-.55Zm-1.8.7h.55v.65H58Zm1.8 0h.55v.65h-.55Zm-1.8.7h.55v.65H58Zm1.8 0h.55v.65h-.55Zm-1.2.7h.55v.65h-.55Zm.6 0h.55v.65h-.55Z"/>
  <text x="55" y="93">177</text>
  <path d="M59.2 88.7h.55v.65h-.55Zm0 .7h.55v.65h-.55Zm-1.2.7h.55v.65H58Zm.6 0h.55v.65h-.55Zm.6 0h.55v.65h-.55Zm.6 0h.55v.65h-.55Zm.6 0h.55v.65h-.55Zm-1.2.7h.55v.65h-.55Zm0 .7h.55v.65h-.55ZM58 92.9h.55v.65H58Zm.6 0h.55v.65h-.55Zm.6 0h.55v.65h-.55Zm.6 0h.55v.65h-.55Zm.6 0h.55v.65h-.55Z"/>
  <text x="55" y="101">178</text>
  <path d="M58.6 96h.55v.65h-.55Zm.6 0h.55v.65h-.55Zm-1.2.7h.55v.65H58Zm1.8 0h.55v.65h-.55Zm-.6.7h.55v.65h-.55Zm-.6.7h.55v.65h-.55Zm-.6.7h.55v.65H58Zm.6 0h.55v.65h-.55Zm.6 0h.55v.65h-.55Zm.6 0h.55v.65h-.55Z"/>
  <text x="55" y="109">179</text>
  <path d="M58 104h.55v.65H58Zm.6 0h.55v.65h-.55Zm.6 0h.55v.65h-.55Zm.6.7h.55v.65h-.55Zm-1.2.7h.55v.65h-.55Zm.6 0h.55v.65h-.55Zm.6.7h.55v.65h-.55Zm-1.8.7h.55v.65H58Zm.6 0h.55v.65h-.55Zm.6 0h.55v.65h-.55Z"/>
  <text x="55" y="117">180</text>
  <path d="M58 112h.55v.65H58Zm.6 0h.55v.65h-.55Zm.6 0h.55v.65h-.55Zm-1.2.7h.55v.65H58Zm1.8 0h.55v.65h-.55Zm-1.8.7h.55v.65H58Zm.6 0h.55v.65h-.55Zm.6 0h.55v.65h-.55Zm-1.2.7h.55v.65H58Zm0 .7h.55v.65H58Zm1.8 0h.55v.65h-.55Zm-1.8.7h.55v.65H58Zm1.2 0h.55v.65h-.55Zm.6 0h.55v.65h-.55Zm.6 0h.55v.65h-.55Zm-2.4.7h.55v.65H58Zm1.8 0h.55v.65h-.55Zm0 .7h.55v.65h-.55Zm.6 0h.55v.65h-.55Z"/>
  <text x="55" y="125">181</text>
  <path d="M58 120.7h.55v.65H58Zm2.4 0h.55v.65h-.55Zm-2.4.7h.55v.65H58Zm2.4 0h.55v.65h-.55Zm-2.4.7h.55v.65H58Zm2.4 0h.55v.65h-.55Zm-2.4.7h.55v.65H58Zm1.8 0h.55v.65h-.55Zm.6 0h.55v.65h-.55Zm-2.4.7h.55v.65H58Zm.6 0h.55v.65h-.55Zm.6 0h.55v.65h-.55Zm1.2 0h.55v.65h-.55Zm-2.4.7h.55v.65H58Zm0 .7h.55v.65H58Z"/>
  <text x="55" y="133">182</text>
  <path d="M58.6 128.7h.55v.65h-.55Zm.6 0h.55v.65h-.55Zm.6 0h.55v.65h-.55Zm.6 0h.55v.65h-.55Zm-2.4.7h.55v.65H58Zm1.8 0h.55v.65h-.55Zm.6 0h.55v.65h-.55Zm-2.4.7h.55v.65H58Zm1.8 0h.55v.65h-.55Zm.6 0h.55v.65h-.55Zm-1.8.7h.55v.65h-.55Zm.6 0h.55v.65h-.55Zm.6 0h.55v.65h-.55Zm.6 0h.55v.65h-.55Zm-.6.7h.55v.65h-.55Zm.6 0h.55v.65h-.55Zm-.6.7h.55v.65h-.55Zm.6 0h.55v.65h-.55Zm-.6.7h.55v.65h-.55Zm.6 0h.55v.65h-.55Z"/>
  <text x="55" y="141">183</text>
  <path d="M58.6 138.8h.55v.65h-.55Zm.6 0h.55v.65h-.55Zm-.6.7h.55v.65h-.55Zm.6 0h.55v.65h-.55Z"/>
  <text x="55" y="149">184</text>
  <path d="M58.6 146.1h.55v.65h-.55Zm1.2 0h.55v.65h-.55Zm-1.8.7h.55v.65H58Zm2.4 0h.55v.65h-.55Zm-2.4.7h.55v.65H58Zm1.2 0h.55v.65h-.55Zm1.2 0h.55v.65h-.55Zm-2.4.7h.55v.65H58Zm1.2 0h.55v.65h-.55Zm1.2 0h.55v.65h-.55Zm-1.8.7h.55v.65h-.55Zm1.2 0h.55v.65h-.55Z"/>
  <text x="79" y="5">185</text>
  <path d="M82.6 0h.55v.65h-.55Zm-.6.7h.55v.65H82Zm.6 0h.55v.65h-.55Zm0 .7h.55v.65h-.55Zm0 .7h.55v.65h-.55Zm-.6.7h.55v.65H82Zm.6 0h.55v.65h-.55Zm.6 0h.55v.65h-.55Z"/>
  <text x="79" y="13">186</text>
  <path d="M82.6 8.7h.55v.65h-.55Zm.6 0h.55v.65h-.55Zm.6 0h.55v.65h-.55Zm-1.8.7h.55v.65H82Zm2.4 0h.55v.65h-.55Zm-2.4.7h.55v.65H82Zm2.4 0h.55v.65h-.55Zm-2.4.7h.55v.65H82Zm2.4 0h.55v.65h-.55Zm-1.8.7h.55v.65h-.55Zm.6 0h.55v.65h-.55Zm.6 0h.55v.65h-.55ZM82 12.9h.55v.65H82Zm.6 0h.55v.65h-.55Zm.6 0h.55v.65h-.55Zm.6 0h.55v.65h-.55Zm.6 0h.55v.65h-.55Z"/>
  <text x="79" y="21">187</text>
  <path d="M82 17.4h.55v.65H82Zm1.2 0h.55v.65h-.55Zm-.6.7h.55v.65h-.55Zm1.2 0h.55v.65h-.55Zm-.6.7h.55v.65h-.55Zm1.2 0h.55v.65h-.55Zm-1.8.7h.55v.65h-.55Zm1.2 0h.55v.65h-.55Zm-1.8.7h.55v.65H82Zm1.2 0h.55v.65h-.55Z"/>
  <text x="79" y="29">188</text>
  <path d="M82 24h.55v.65H82Zm2.4 0h.55v.65h-.55Zm-2.4.7h.55v.65H82Zm1.8 0h.55v.65h-.55Zm-1.8.7h.55v.65H82Zm1.2 0h.55v.65h-.55Zm-.6.7h.55v.65h-.55Zm1.2 0h.55v.65h-.55Zm-1.8.7h.55v.65H82Zm1.2 0h.55v.65h-.55Zm.6 0h.55v.65h-.55Zm-1.2.7h.55v.65h-.55Zm1.2 0h.55v.65h-.55Zm-1.2.7h.55v.65h-.55Zm.6 0h.55v.65h-.55Zm.6 0h.55v.65h-.55Zm.6 0h.55v.65h-.55Zm-.6.7h.55v.65h-.55Z"/>
  <text x="79" y="37">189</text>
  <path d="M82 32h.55v.65H82Zm2.4 0h.55v.65h-.55Zm-2.4.7h.55v.65H82Zm1.8 0h.55v.65h-.55Zm-1.8.7h.55v.65H82Zm1.2 0h.55v.65h-.55Zm-.6.7h.55v.65h-.55Zm1.2 0h.55v.65h-.55Zm-1.8.7h.55v.65H82Zm1.2 0h.55v.65h-.55Zm1.2 0h.55v.65h-.55Zm0 .7h.55v.65h-.55Zm-.6.7h.55v.65h-.55Zm-.6.7h.55v.65h-.55Zm.6 0h.55v.65h-.55Zm.6 0h.55v.65h-.55Z"/>
  <text x="79" y="45">190</text>
  <path d="M82 40h.55v.65H82Zm.6 0h.55v.65h-.55Zm0 .7h.55v.65h-.55Zm-.6.7h.55v.65H82Zm.6 0h.55v.65h-.55Zm0 .7h.55v.65h-.55Zm1.8 0h.55v.65h-.55Zm-2.4.7h.55v.65H82Zm.6 0h.55v.65h-.55Zm1.2 0h.55v.65h-.55Zm.6 0h.55v.65h-.55Zm-1.2.7h.55v.65h-.55Zm1.2 0h.55v.65h-.55Zm-1.2.7h.55v.65h-.55Zm.6 0h.55v.65h-.55Zm.6 0h.55v.65h-.55Zm0 .7h.55v.65h-.55Z"/>
  <text x="79" y="53">191</text>
  <path d="M83.2 48.7h.55v.65h-.55Zm0 1.4h.55v.65h-.55Zm-.6.7h.55v.65h-.55Zm-.6.7h.55v.65H82Zm0 .7h.55v.65H82Zm2.4 0h.55v.65h-.55Zm-1.8.7h.55v.65h-.55Zm.6 0h.55v.65h-.55Zm.6 0h.55v.65h-.55Z"/>
  <text x="79" y="61">192</text>
  <path d="M82.6 56h.55v.65h-.55Zm.6.7h.55v.65h-.55Zm0 .7h.55v.65h-.55Zm-.6.7h.55v.65h-.55Zm1.2 0h.55v.65h-.55Zm-1.8.7h.55v.65H82Zm2.4 0h.55v.65h-.55Zm-2.4.7h.55v.65H82Zm.6 0h.55v.65h-.55Zm.6 0h.55v.65h-.55Zm.6 0h.55v.65h-.55Zm.6 0h.55v.65h-.55Zm-2.4.7h.55v.65H82Zm2.4 0h.55v.65h-.55Zm-2.4.7h.55v.65H82Zm2.4 0h.55v.65h-.55Z"/>
  <text x="79" y="69">193</text>
  <path d="M83.8 64h.55v.65h-.55Zm-.6.7h.55v.65h-.55Zm0 .7h.55v.65h-.55Zm-.6.7h.55v.65h-.55Zm1.2 0h.55v.65h-.55Zm-1.8.7h.55v.65H82Zm2.4 0h.55v.65h-.55Zm-2.4.7h.55v.65H82Zm.6 0h.55v.65h-.55Zm.6 0h.55v.65h-.55Zm.6 0h.55v.65h-.55Zm.6 0h.55v.65h-.55Zm-2.4.7h.55v.65H82Zm2.4 0h.55v.65h-.55Zm-2.4.7h.55v.65H82Zm2.4 0h.55v.65h-.55Z"/>
  <text x="79" y="77">194</text>
  <path d="M83.2 72h.55v.65h-.55Zm-.6.7h.55v.65h-.55Zm1.2 0h.55v.65h-.55Zm-1.2 1.4h.55v.65h-.55Zm.6 0h.55v.65h-.55Zm.6 0h.55v.65h-.55Zm-1.8.7h.55v.65H82Zm2.4 0h.55v.65h-.55Zm-2.4.7h.55v.65H82Zm.6 0h.55v.65h-.55Zm.6 0h.55v.65h-.55Zm.6 0h.55v.65h-.55Zm.6 0h.55v.65h-.55Zm-2.4.7h.55v.65H82Zm2.4 0h.55v.65h-.55Zm-2.4.7h.55v.65H82Zm2.4 0h.55v.65h-.55Z"/>
  <text x="79" y="85">195</text>
  <path d="M82.6 80h.55v.65h-.55Zm.6 0h.55v.65h-.55Zm1.2 0h.55v.65h-.55Zm-2.4.7h.55v.65H82Zm1.8 0h.55v.65h-.55Zm-1.2 1.4h.55v.65h-.55Zm.6 0h.55v.65h-.55Zm.6 0h.55v.65h-.55Zm-1.8.7h.55v.65H82Zm2.4 0h.55v.65h-.55Zm-2.4.7h.55v.65H82Zm.6 0h.55v.65h-.55Zm.6 0h.55v.65h-.55Zm.6 0h.55v.65h-.55Zm.6 0h.55v.65h-.55Zm-2.4.7h.55v.65H82Zm2.4 0h.55v.65h-.55Zm-2.4.7h.55v.65H82Zm2.4 0h.55v.65h-.55Z"/>
  <text x="79" y="93">196</text>
  <path d="M82.6 88h.55v.65h-.55Zm1.2 0h.55v.65h-.55Zm-.6 1.4h.55v.65h-.55Zm-.6.7h.55v.65h-.55Zm1.2 0h.55v.65h-.55Zm-1.8.7h.55v.65H82Zm2.4 0h.55v.65h-.55Zm-2.4.7h.55v.65H82Zm.6 0h.55v.65h-.55Zm.6 0h.55v.65h-.55Zm.6 0h.55v.65h-.55Zm.6 0h.55v.65h-.55Zm-2.4.7h.55v.65H82Zm2.4 0h.55v.65h-.55Zm-2.4.7h.55v.65H82Zm2.4 0h.55v.65h-.55Z"/>
  <text x="79" y="101">197</text>
  <path d="M83.2 96h.55v.65h-.55Zm-.6.7h.55v.65h-.55Zm1.2 0h.55v.65h-.55Zm-.6.7h.55v.65h-.55Zm-.6.7h.55v.65h-.55Zm.6 0h.55v.65h-.55Zm.6 0h.55v.65h-.55Zm-1.8.7h.55v.65H82Zm2.4 0h.55v.65h-.55Zm-2.4.7h.55v.65H82Zm.6 0h.55v.65h-.55Zm.6 0h.55v.65h-.55Zm.6 0h.55v.65h-.55Zm.6 0h.55v.65h-.55Zm-2.4.7h.55v.65H82Zm2.4 0h.55v.65h-.55Zm-2.4.7h.55v.65H82Zm2.4 0h.55v.65h-.55Z"/>
  <text x="79" y="109">198</text>
  <path d="M83.2 104.7h.55v.65h-.55Zm.6 0h.55v.65h-.55Zm.6 0h.55v.65h-.55Zm-1.8.7h.55v.65h-.55Zm.6 0h.55v.65h-.55Zm-1.2.7h.55v.65H82Zm1.2 0h.55v.65h-.55Zm-1.2.7h.55v.65H82Zm1.2 0h.55v.65h-.55Zm.6 0h.55v.65h-.55Zm.6 0h.55v.65h-.55Zm-2.4.7h.55v.65H82Zm.6 0h.55v.65h-.55Zm.6 0h.55v.65h-.55Zm-1.2.7h.55v.65H82Zm1.2 0h.55v.65h-.55Zm-1.2.7h.55v.65H82Zm1.2 0h.55v.65h-.55Zm.6 0h.55v.65h-.55Zm.6 0h.55v.65h-.55Z"/>
  <text x="79" y="117">199</text>
  <path d="M82.6 112h.55v.65h-.55Zm.6 0h.55v.65h-.55Zm.6 0h.55v.65h-.55Zm-1.8.7h.55v.65H82Zm2.4 0h.55v.65h-.55Zm-2.4.7h.55v.65H82Zm0 .7h.55v.65H82Zm0 .7h.55v.65H82Zm2.4 0h.55v.65h-.55Zm-1.8.7h.55v.65h-.55Zm.6 0h.55v.65h-.55Zm.6 0h.55v.65h-.55Zm0 .7h.55v.65h-.55Zm-.6.7h.55v.65h-.55Zm.6 0h.55v.65h-.55Z"/>
  <text x="79" y="125">200</text>
  <path d="M82.6 120h.55v.65h-.55Zm.6.7h.55v.65h-.55Zm-1.2 1.4h.55v.65H82Zm.6 0h.55v.65h-.55Zm.6 0h.55v.65h-.55Zm.6 0h.55v.65h-.55Zm.6 0h.55v.65h-.55Zm-2.4.7h.55v.65H82Zm0 .7h.55v.65H82Zm.6 0h.55v.65h-.55Zm.6 0h.55v.65h-.55Zm.6 0h.55v.65h-.55Zm-1.8.7h.55v.65H82Zm0 .7h.55v.65H82Zm.6 0h.55v.65h-.55Zm.6 0h.55v.65h-.55Zm.6 0h.55v.65h-.55Zm.6 0h.55v.65h-.55Z"/>
  <text x="79" y="133">201</text>
  <path d="M83.8 128h.55v.65h-.55Zm-.6.7h.55v.65h-.55Zm-1.2 1.4h.55v.65H82Zm.6 0h.55v.65h-.55Zm.6 0h.55v.65h-.55Zm.6 0h.55v.65h-.55Zm.6 0h.55v.65h-.55Zm-2.4.7h.55v.65H82Zm0 .7h.55v.65H82Zm.6 0h.55v.65h-.55Zm.6 0h.55v.65h-.55Zm.6 0h.55v.65h-.55Zm-1.8.7h.55v.65H82Zm0 .7h.55v.65H82Zm.6 0h.55v.65h-.55Zm.6 0h.55v.65h-.55Zm.6 0h.55v.65h-.55Zm.6 0h.55v.65h-.55Z"/>
  <text x="79" y="141">202</text>
  <path d="M83.2 136h.55v.65h-.55Zm-.6.7h.55v.65h-.55Zm1.2 0h.55v.65h-.55Zm-1.8 1.4h.55v.65H82Zm.6 0h.55v.65h-.55Zm.6 0h.55v.65h-.55Zm.6 0h.55v.65h-.55Zm.6 0h.55v.65h-.55Zm-2.4.7h.55v.65H82Zm0 .7h.55v.65H82Zm.6 0h.55v.65h-.55Zm.6 0h.55v.65h-.55Zm.6 0h.55v.65h-.55Zm-1.8.7h.55v.65H82Zm0 .7h.55v.65H82Zm.6 0h.55v.65h-.55Zm.6 0h.55v.65h-.55Zm.6 0h.55v.65h-.55Zm.6 0h.55v.65h-.55Z"/>
  <text x="79" y="149">203</text>
  <path d="M82.6 144.7h.55v.65h-.55Zm1.2 0h.55v.65h-.55Zm-1.8 1.4h.55v.65H82Zm.6 0h.55v.65h-.55Zm.6 0h.55v.65h-.55Zm.6 0h.55v.65h-.55Zm.6 0h.55v.65h-.55Zm-2.4.7h.55v.65H82Zm0 .7h.55v.65H82Zm.6 0h.55v.65h-.55Zm.6 0h.55v.65h-.55Zm.6 0h.55v.65h-.55Zm-1.8.7h.55v.65H82Zm0 .7h.55v.65H82Zm.6 0h.55v.65h-.55Zm.6 0h.55v.65h-.55Zm.6 0h.55v.65h-.55Zm.6 0h.55v.65h-.55Z"/>
  <text x="103" y="5">204</text>
  <path d="M106.6 0h.55v.65h-.55Zm.6.7h.55v.65h-.55Zm-.6 1.4h.55v.65h-.55Zm.6 0h.55v.65h-.55Zm.6 0h.55v.65h-.55Zm-.6.7h.55v.65h-.55Zm0 .7h.55v.65h-.55Zm0 .7h.55v.65h-.55Zm-.6.7h.55v.65h-.55Zm.6 0h.55v.65h-.55Zm.6 0h.55v.65h-.55Z"/>
  <text x="103" y="13">205</text>
  <path d="M107.8 8h.55v.65h-.55Zm-.6.7h.55v.65h-.55Zm-.6 1.4h.55v.65h-.55Zm.6 0h.55v.65h-.55Zm.6 0h.55v.65h-.55Zm-.6.7h.55v.65h-.55Zm0 .7h.55v.65h-.55Zm0 .7h.55v.65h-.55Zm-.6.7h.55v.65h-.55Zm.6 0h.55v.65h-.55Zm.6 0h.55v.65h-.55Z"/>
  <text x="103" y="21">206</text>
  <path d="M107.2 16h.55v.65h-.55Zm-.6.7h.55v.65h-.55Zm1.2 0h.55v.65h-.55Zm-1.2 1.4h.55v.65h-.55Zm.6 0h.55v.65h-.55Zm.6 0h.55v.65h-.55Zm-.6.7h.55v.65h-.55Zm0 .7h.55v.65h-.55Zm0 .7h.55v.65h-.55Zm-.6.7h.55v.65h-.55Zm.6 0h.55v.65h-.55Zm.6 0h.55v.65h-.55Z"/>
  <text x="103" y="29">207</text>
  <path d="M106.6 24.7h.55v.65h-.55Zm1.2 0h.55v.65h-.55Zm-1.2 1.4h.55v.65h-.55Zm.6 0h.55v.65h-.55Zm.6 0h.55v.65h-.55Zm-.6.7h.55v.65h-.55Zm0 .7h.55v.65h-.55Zm0 .7h.55v.65h-.55Zm-.6.7h.55v.65h-.55Zm.6 0h.55v.65h-.55Zm.6 0h.55v.65h-.55Z"/>
  <text x="103" y="37">208</text>
  <path d="M106.6 32.7h.55v.65h-.55Zm.6 0h.55v.65h-.55Zm.6 0h.55v.65h-.55Zm-1.2.7h.55v.65h-.55Zm1.8 0h.55v.65h-.55Zm-1.8.7h.55v.65h-.55Zm1.8 0h.55v.65h-.55Zm-2.4.7h.55v.65H106Zm.6 0h.55v.65h-.55Zm.6 0h.55v.65h-.55Zm1.2 0h.55v.65h-.55Zm-1.8.7h.55v.65h-.55Zm1.8 0h.55v.65h-.55Zm-1.8.7h.55v.65h-.55Zm1.8 0h.55v.65h-.55Zm-1.8.7h.55v.65h-.55Zm.6 0h.55v.65h-.55Zm.6 0h.55v.65h-.55Z"/>
  <text x="103" y="45">209</text>
  <path d="M106.6 40h.55v.65h-.55Zm.6 0h.55v.65h-.55Zm1.2 0h.55v.65h-.55Zm-2.4.7h.55v.65H106Zm1.8 0h.55v.65h-.55Zm-1.8 1.4h.55v.65H106Zm2.4 0h.55v.65h-.55Zm-2.4.7h.55v.65H106Zm.6 0h.55v.65h-.55Zm1.8 0h.55v.65h-.55Zm-2.4.7h.55v.65H106Zm1.2 0h.55v.65h-.55Zm1.2 0h.55v.65h-.55Zm-2.4.7h.55v.65H106Zm1.8 0h.55v.65h-.55Zm.6 0h.55v.65h-.55Zm-2.4.7h.55v.65H106Zm2.4 0h.55v.65h-.55Z"/>
  <text x="103" y="53">210</text>
  <path d="M106.6 48h.55v.65h-.55Zm.6.7h.55v.65h-.55Zm-.6.7h.55v.65h-.55Zm.6 0h.55v.65h-.55Zm.6 0h.55v.65h-.55Zm-1.8.7h.55v.65H106Zm2.4 0h.55v.65h-.55Zm-2.4.7h.55v.65H106Zm2.4 0h.55v.65h-.55Zm-2.4.7h.55v.65H106Zm2.4 0h.55v.65h-.55Zm-2.4.7h.55v.65H106Zm2.4 0h.55v.65h-.55Zm-1.8.7h.55v.65h-.55Zm.6 0h.55v.65h-.55Zm.6 0h.55v.65h-.55Z"/>
  <text x="103" y="61">211</text>
  <path d="M107.8 56h.55v.65h-.55Zm-.6.7h.55v.65h-.55Zm-.6.7h.55v.65h-.55Zm.6 0h.55v.65h-.55Zm.6 0h.55v.65h-.55Zm-1.8.7h.55v.65H106Zm2.4 0h.55v.65h-.55Zm-2.4.7h.55v.65H106Zm2.4 0h.55v.65h-.55Zm-2.4.7h.55v.65H106Zm2.4 0h.55v.65h-.55Zm-2.4.7h.55v.65H106Zm2.4 0h.55v.65h-.55Zm-1.8.7h.55v.65h-.55Zm.6 0h.55v.65h-.55Zm.6 0h.55v.65h-.55Z"/>
  <text x="103" y="69">212</text>
  <path d="M107.2 64h.55v.65h-.55Zm-.6.7h.55v.65h-.55Zm1.2 0h.55v.65h-.55Zm-1.2 1.4h.55v.65h-.55Zm.6 0h.55v.65h-.55Zm.6 0h.55v.65h-.55Zm-1.8.7h.55v.65H106Zm2.4 0h.55v.65h-.55Zm-2.4.7h.55v.65H106Zm2.4 0h.55v.65h-.55Zm-2.4.7h.55v.65H106Zm2.4 0h.55v.65h-.55Zm-1.8.7h.55v.65h-.55Zm.6 0h.55v.65h-.55Zm.6 0h.55v.65h-.55Z"/>
  <text x="103" y="77">213</text>
  <path d="M106.6 72h.55v.65h-.55Zm.6 0h.55v.65h-.55Zm1.2 0h.55v.65h-.55Zm-2.4.7h.55v.65H106Zm1.8 0h.55v.65h-.55Zm-1.2 1.4h.55v.65h-.55Zm.6 0h.55v.65h-.55Zm.6 0h.55v.65h-.55Zm-1.8.7h.55v.65H106Zm2.4 0h.55v.65h-.55Zm-2.4.7h.55v.65H106Zm2.4 0h.55v.65h-.55Zm-2.4.7h.55v.65H106Zm2.4 0h.55v.65h-.55Zm-1.8.7h.55v.65h-.55Zm.6 0h.55v.65h-.55Zm.6 0h.55v.65h-.55Z"/>
  <text x="103" y="85">214</text>
  <path d="M106.6 80h.55v.65h-.55Zm1.2 0h.55v.65h-.55Zm-1.2 1.4h.55v.65h-.55Zm.6 0h.55v.65h-.55Zm.6 0h.55v.65h-.55Zm-1.8.7h.55v.65H106Zm2.4 0h.55v.65h-.55Zm-2.4.7h.55v.65H106Zm2.4 0h.55v.65h-.55Zm-2.4.7h.55v.65H106Zm2.4 0h.55v.65h-.55Zm-2.4.7h.55v.65H106Zm2.4 0h.55v.65h-.55Zm-1.8.7h.55v.65h-.55Zm.6 0h.55v.65h-.55Zm.6 0h.55v.65h-.55Z"/>
  <text x="103" y="93">215</text>
  <path d="M106 89.4h.55v.65H106Zm2.4 0h.55v.65h-.55Zm-1.8.7h.55v.65h-.55Zm1.2 0h.55v.65h-.55Zm-.6.7h.55v.65h-.55Zm-.6.7h.55v.65h-.55Zm1.2 0h.55v.65h-.55Zm-1.8.7h.55v.65H106Zm2.4 0h.55v.65h-.55Z"/>
  <text x="103" y="101">216</text>
  <path d="M106.6 96.7h.55v.65h-.55Zm.6 0h.55v.65h-.55Zm.6 0h.55v.65h-.55Zm-.6.7h.55v.65h-.55Zm-.6.7h.55v.65h-.55Zm.6 0h.55v.65h-.55Zm.6 0h.55v.65h-.55Zm-1.8.7h.55v.65H106Zm1.2 0h.55v.65h-.55Zm1.2 0h.55v.65h-.55Zm-1.8.7h.55v.65h-.55Zm.6 0h.55v.65h-.55Zm.6 0h.55v.65h-.55Zm-.6.7h.55v.65h-.55Zm-.6.7h.55v.65h-.55Zm.6 0h.55v.65h-.55Zm.6 0h.55v.65h-.55Z"/>
  <text x="103" y="109">217</text>
  <path d="M106.6 104h.55v.65h-.55Zm.6.7h.55v.65h-.55Zm-1.2.7h.55v.65H106Zm2.4 0h.55v.65h-.55Zm-2.4.7h.55v.65H106Zm2.4 0h.55v.65h-.55Zm-2.4.7h.55v.65H106Zm2.4 0h.55v.65h-.55Zm-2.4.7h.55v.65H106Zm2.4 0h.55v.65h-.55Zm-2.4.7h.55v.65H106Zm2.4 0h.55v.65h-.55Zm-1.8.7h.55v.65h-.55Zm.6 0h.55v.65h-.55Zm.6 0h.55v.65h-.55Z"/>
  <text x="103" y="117">218</text>
  <path d="M107.8 112h.55v.65h-.55Zm-.6.7h.55v.65h-.55Zm-1.2.7h.55v.65H106Zm2.4 0h.55v.65h-.55Zm-2.4.7h.55v.65H106Zm2.4 0h.55v.65h-.55Zm-2.4.7h.55v.65H106Zm2.4 0h.55v.65h-.55Zm-2.4.7h.55v.65H106Zm2.4 0h.55v.65h-.55Zm-2.4.7h.55v.65H106Zm2.4 0h.55v.65h-.55Zm-1.8.7h.55v.65h-.55Zm.6 0h.55v.65h-.55Zm.6 0h.55v.65h-.55Z"/>
  <text x="103" y="125">219</text>
  <path d="M107.2 120h.55v.65h-.55Zm-.6.7h.55v.65h-.55Zm1.2 0h.55v.65h-.55Zm-1.8 1.4h.55v.65H106Zm2.4 0h.55v.65h-.55Zm-2.4.7h.55v.65H106Zm2.4 0h.55v.65h-.55Zm-2.4.7h.55v.65H106Zm2.4 0h.55v.65h-.55Zm-2.4.7h.55v.65H106Zm2.4 0h.55v.65h-.55Zm-1.8.7h.55v.65h-.55Zm.6 0h.55v.65h-.55Zm.6 0h.55v.65h-.55Z"/>
  <text x="103" y="133">220</text>
  <path d="M106.6 128h.55v.65h-.55Zm1.2 0h.55v.65h-.55Zm-1.8 1.4h.55v.65H106Zm2.4 0h.55v.65h-.55Zm-2.4.7h.55v.65H106Zm2.4 0h.55v.65h-.55Zm-2.4.7h.55v.65H106Zm2.4 0h.55v.65h-.55Zm-2.4.7h.55v.65H106Zm2.4 0h.55v.65h-.55Zm-2.4.7h.55v.65H106Zm2.4 0h.55v.65h-.55Zm-1.8.7h.55v.65h-.55Zm.6 0h.55v.65h-.55Zm.6 0h.55v.65h-.55Z"/>
  <text x="103" y="141">221</text>
  <path d="M107.8 136h.55v.65h-.55Zm-.6.7h.55v.65h-.55Zm-1.2.7h.55v.65H106Zm2.4 0h.55v.65h-.55Zm-1.8.7h.55v.65h-.55Zm1.2 0h.55v.65h-.55Zm-.6.7h.55v.65h-.55Zm0 .7h.55v.65h-.55Zm0 .7h.55v.65h-.55Zm0 .7h.55v.65h-.55Z"/>
  <text x="103" y="149">222</text>
  <path d="M106 144h.55v.65H106Zm.6 0h.55v.65h-.55Zm0 .7h.55v.65h-.55Zm0 .7h.55v.65h-.55Zm.6 0h.55v.65h-.55Zm.6 0h.55v.65h-.55Zm-1.2.7h.55v.65h-.55Zm1.8 0h.55v.65h-.55Zm-1.8.7h.55v.65h-.55Zm1.8 0h.55v.65h-.55Zm-1.8.7h.55v.65h-.55Zm.6 0h.55v.65h-.55Zm.6 0h.55v.65h-.55Zm-1.2.7h.55v.65h-.55Zm-.6.7h.55v.65H106Zm.6 0h.55v.65h-.55Zm.6 0h.55v.65h-.55Z"/>
  <text x="127" y="5">223</text>
  <path d="M131.2.7h.55v.65h-.55Zm.6 0h.55v.65h-.55Zm-1.2.7h.55v.65h-.55Zm1.8 0h.55v.65h-.55Zm-1.8.7h.55v.65h-.55Zm1.8 0h.55v.65h-.55Zm-1.8.7h.55v.65h-.55Zm.6 0h.55v.65h-.55Zm.6 0h.55v.65h-.55Zm-1.2.7h.55v.65h-.55Zm1.8 0h.55v.65h-.55Zm-1.8.7h.55v.65h-.55Zm1.8 0h.55v.65h-.55Zm-2.4.7h.55v.65H130Zm1.2 0h.55v.65h-.55Zm.6 0h.55v.65h-.55Z"/>
  <text x="127" y="13">224</text>
  <path d="M130.6 8h.55v.65h-.55Zm.6.7h.55v.65h-.55Zm-.6 1.4h.55v.65h-.55Zm.6 0h.55v.65h-.55Zm.6 0h.55v.65h-.55Zm.6.7h.55v.65h-.55Zm-1.8.7h.55v.65h-.55Zm.6 0h.55v.65h-.55Zm.6 0h.55v.65h-.55Zm.6 0h.55v.65h-.55Zm-2.4.7h.55v.65H130Zm2.4 0h.55v.65h-.55Zm-1.8.7h.55v.65h-.55Zm.6 0h.55v.65h-.55Zm.6 0h.55v.65h-.55Zm.6 0h.55v.65h-.55Z"/>
  <text x="127" y="21">225</text>
  <path d="M131.8 16h.55v.65h-.55Zm-.6.7h.55v.65h-.55Zm-.6 1.4h.55v.65h-.55Zm.6 0h.55v.65h-.55Zm.6 0h.55v.65h-.55Zm.6.7h.55v.65h-.55Zm-1.8.7h.55v.65h-.55Zm.6 0h.55v.65h-.55Zm.6 0h.55v.65h-.55Zm.6 0h.55v.65h-.55Zm-2.4.7h.55v.65H130Zm2.4 0h.55v.65h-.55Zm-1.8.7h.55v.65h-.55Zm.6 0h.55v.65h-.55Zm.6 0h.55v.65h-.55Zm.6 0h.55v.65h-.55Z"/>
  <text x="127" y="29">226</text>
  <path d="M131.2 24h.55v.65h-.55Zm-.6.7h.55v.65h-.55Zm1.2 0h.55v.65h-.55Zm-1.2 1.4h.55v.65h-.55Zm.6 0h.55v.65h-.55Zm.6 0h.55v.65h-.55Zm.6.7h.55v.65h-.55Zm-1.8.7h.55v.65h-.55Zm.6 0h.55v.65h-.55Zm.6 0h.55v.65h-.55Zm.6 0h.55v.65h-.55Zm-2.4.7h.55v.65H130Zm2.4 0h.55v.65h-.55Zm-1.8.7h.55v.65h-.55Zm.6 0h.55v.65h-.55Zm.6 0h.55v.65h-.55Zm.6 0h.55v.65h-.55Z"/>
  <text x="127" y="37">227</text>
  <path d="M130.6 32h.55v.65h-.55Zm.6 0h.55v.65h-.55Zm1.2 0h.55v.65h-.55Zm-2.4.7h.55v.65H130Zm1.8 0h.55v.65h-.55Zm-1.2 1.4h.55v.65h-.55Zm.6 0h.55v.65h-.55Zm.6 0h.55v.65h-.55Zm.6.7h.55v.65h-.55Zm-1.8.7h.55v.65h-.55Zm.6 0h.55v.65h-.55Zm.6 0h.55v.65h-.55Zm.6 0h.55v.65h-.55Zm-2.4.7h.55v.65H130Zm2.4 0h.55v.65h-.55Zm-1.8.7h.55v.65h-.55Zm.6 0h.55v.65h-.55Zm.6 0h.55v.65h-.55Zm.6 0h.55v.65h-.55Z"/>
  <text x="127" y="45">228</text>
  <path d="M130.6 40.7h.55v.65h-.55Zm1.2 0h.55v.65h-.55Zm-1.2 1.4h.55v.65h-.55Zm.6 0h.55v.65h-.55Zm.6 0h.55v.65h-.55Zm.6.7h.55v.65h-.55Zm-1.8.7h.55v.65h-.55Zm.6 0h.55v.65h-.55Zm.6 0h.55v.65h-.55Zm.6 0h.55v.65h-.55Zm-2.4.7h.55v.65H130Zm2.4 0h.55v.65h-.55Zm-1.8.7h.55v.65h-.55Zm.6 0h.55v.65h-.55Zm.6 0h.55v.65h-.55Zm.6 0h.55v.65h-.55Z"/>
  <text x="127" y="53">229</text>
  <path d="M131.2 48h.55v.65h-.55Zm-.6.7h.55v.65h-.55Zm1.2 0h.55v.65h-.55Zm-.6.7h.55v.65h-.55Zm-.6.7h.55v.65h-.55Zm.6 0h.55v.65h-.55Zm.6 0h.55v.65h-.55Zm.6.7h.55v.65h-.55Zm-1.8.7h.55v.65h-.55Zm.6 0h.55v.65h-.55Zm.6 0h.55v.65h-.55Zm.6 0h.55v.65h-.55Zm-2.4.7h.55v.65H130Zm2.4 0h.55v.65h-.55Zm-1.8.7h.55v.65h-.55Zm.6 0h.55v.65h-.55Zm.6 0h.55v.65h-.55Zm.6 0h.55v.65h-.55Z"/>
  <text x="127" y="61">230</text>
  <path d="M130 57.4h.55v.65H130Zm.6 0h.55v.65h-.55Zm1.2 0h.55v.65h-.55Zm-.6.7h.55v.65h-.55Zm1.2 0h.55v.65h-.55Zm-1.8.7h.55v.65h-.55Zm.6 0h.55v.65h-.55Zm.6 0h.55v.65h-.55Zm.6 0h.55v.65h-.55Zm-2.4.7h.55v.65H130Zm1.2 0h.55v.65h-.55Zm-1.2.7h.55v.65H130Zm1.2 0h.55v.65h-.55Zm1.2 0h.55v.65h-.55Zm-1.8.7h.55v.65h-.55Zm1.2 0h.55v.65h-.55Z"/>
  <text x="127" y="69">231</text>
  <path d="M130.6 65.4h.55v.65h-.55Zm.6 0h.55v.65h-.55Zm.6 0h.55v.65h-.55Zm-1.8.7h.55v.65H130Zm0 .7h.55v.65H130Zm2.4 0h.55v.65h-.55Zm-1.8.7h.55v.65h-.55Zm.6 0h.55v.65h-.55Zm.6 0h.55v.65h-.55Zm-.6.7h.55v.65h-.55Zm-.6.7h.55v.65h-.55Zm.6 0h.55v.65h-.55Z"/>
  <text x="127" y="77">232</text>
  <path d="M130.6 72h.55v.65h-.55Zm.6.7h.55v.65h-.55Zm-.6 1.4h.55v.65h-.55Zm.6 0h.55v.65h-.55Zm.6 0h.55v.65h-.55Zm-1.8.7h.55v.65H130Zm2.4 0h.55v.65h-.55Zm-2.4.7h.55v.65H130Zm.6 0h.55v.65h-.55Zm.6 0h.55v.65h-.55Zm.6 0h.55v.65h-.55Zm.6 0h.55v.65h-.55Zm-2.4.7h.55v.65H130Zm.6.7h.55v.65h-.55Zm.6 0h.55v.65h-.55Zm.6 0h.55v.65h-.55Z"/>
  <text x="127" y="85">233</text>
  <path d="M131.8 80h.55v.65h-.55Zm-.6.7h.55v.65h-.55Zm-.6 1.4h.55v.65h-.55Zm.6 0h.55v.65h-.55Zm.6 0h.55v.65h-.55Zm-1.8.7h.55v.65H130Zm2.4 0h.55v.65h-.55Zm-2.4.7h.55v.65H130Zm.6 0h.55v.65h-.55Zm.6 0h.55v.65h-.55Zm.6 0h.55v.65h-.55Zm.6 0h.55v.65h-.55Zm-2.4.7h.55v.65H130Zm.6.7h.55v.65h-.55Zm.6 0h.55v.65h-.55Zm.6 0h.55v.65h-.55Z"/>
  <text x="127" y="93">234</text>
  <path d="M131.2 88h.55v.65h-.55Zm-.6.7h.55v.65h-.55Zm1.2 0h.55v.65h-.55Zm-1.2 1.4h.55v.65h-.55Zm.6 0h.55v.65h-.55Zm.6 0h.55v.65h-.55Zm-1.8.7h.55v.65H130Zm2.4 0h.55v.65h-.55Zm-2.4.7h.55v.65H130Zm.6 0h.55v.65h-.55Zm.6 0h.55v.65h-.55Zm.6 0h.55v.65h-.55Zm.6 0h.55v.65h-.55Zm-2.4.7h.55v.65H130Zm.6.7h.55v.65h-.55Zm.6 0h.55v.65h-.55Zm.6 0h.55v.65h-.55Z"/>
  <text x="127" y="101">235</text>
  <path d="M130.6 96.7h.55v.65h-.55Zm1.2 0h.55v.65h-.55Zm-1.2 1.4h.55v.65h-.55Zm.6 0h.55v.65h-.55Zm.6 0h.55v.65h-.55Zm-1.8.7h.55v.65H130Zm2.4 0h.55v.65h-.55Zm-2.4.7h.55v.65H130Zm.6 0h.55v.65h-.55Zm.6 0h.55v.65h-.55Zm.6 0h.55v.65h-.55Zm.6 0h.55v.65h-.55Zm-2.4.7h.55v.65H130Zm.6.7h.55v.65h-.55Zm.6 0h.55v.65h-.55Zm.6 0h.55v.65h-.55Z"/>
  <text x="127" y="109">236</text>
  <path d="M130.6 104h.55v.65h-.55Zm.6.7h.55v.65h-.55Zm0 1.4h.55v.65h-.55Zm-.6.7h.55v.65h-.55Zm.6 0h.55v.65h-.55Zm0 .7h.55v.65h-.55Zm0 .7h.55v.65h-.55Zm-.6.7h.55v.65h-.55Zm.6 0h.55v.65h-.55Zm.6 0h.55v.65h-.55Z"/>
  <text x="127" y="117">237</text>
  <path d="M131.8 112h.55v.65h-.55Zm-.6.7h.55v.65h-.55Zm0 1.4h.55v.65h-.55Zm-.6.7h.55v.65h-.55Zm.6 0h.55v.65h-.55Zm0 .7h.55v.65h-.55Zm0 .7h.55v.65h-.55Zm-.6.7h.55v.65h-.55Zm.6 0h.55v.65h-.55Zm.6 0h.55v.65h-.55Z"/>
  <text x="127" y="125">238</text>
  <path d="M131.2 120h.55v.65h-.55Zm-.6.7h.55v.65h-.55Zm1.2 0h.55v.65h-.55Zm-.6 1.4h.55v.65h-.55Zm-.6.7h.55v.65h-.55Zm.6 0h.55v.65h-.55Zm0 .7h.55v.65h-.55Zm0 .7h.55v.65h-.55Zm-.6.7h.55v.65h-.55Zm.6 0h.55v.65h-.55Zm.6 0h.55v.65h-.55Z"/>
  <text x="127" y="133">239</text>
  <path d="M130.6 128.7h.55v.65h-.55Zm1.2 0h.55v.65h-.55Zm-.6 1.4h.55v.65h-.55Zm-.6.7h.55v.65h-.55Zm.6 0h.55v.65h-.55Zm0 .7h.55v.65h-.55Zm0 .7h.55v.65h-.55Zm-.6.7h.55v.65h-.55Zm.6 0h.55v.65h-.55Zm.6 0h.55v.65h-.55Z"/>
  <text x="127" y="141">240</text>
  <path d="M130 136.7h.55v.65H130Zm1.2 0h.55v.65h-.55Zm-.6.7h.55v.65h-.55Zm-.6.7h.55v.65H130Zm1.2 0h.55v.65h-.55Zm.6.7h.55v.65h-.55Zm-1.2.7h.55v.65h-.55Zm.6 0h.55v.65h-.55Zm.6 0h.55v.65h-.55Zm.6 0h.55v.65h-.55Zm-2.4.7h.55v.65H130Zm2.4 0h.55v.65h-.55Zm-1.8.7h.55v.65h-.55Zm.6 0h.55v.65h-.55Zm.6 0h.55v.65h-.55Z"/>
  <text x="127" y="149">241</text>
  <path d="M130.6 144h.55v.65h-.55Zm.6 0h.55v.65h-.55Zm1.2 0h.55v.65h-.55Zm-2.4.7h.55v.65H130Zm1.8 0h.55v.65h-.55Zm-1.8 1.4h.55v.65H130Zm1.2 0h.55v.65h-.55Zm.6 0h.55v.65h-.55Zm-1.8.7h.55v.65H130Zm.6 0h.55v.65h-.55Zm1.8 0h.55v.65h-.55Zm-2.4.7h.55v.65H130Zm2.4 0h.55v.65h-.55Zm-2.4.7h.55v.65H130Zm2.4 0h.55v.65h-.55Zm-2.4.7h.55v.65H130Zm2.4 0h.55v.65h-.55Z"/>
  <text x="151" y="5">242</text>
  <path d="M154.6 0h.55v.65h-.55Zm.6.7h.55v.65h-.55Zm-.6 1.4h.55v.65h-.55Zm.6 0h.55v.65h-.55Zm.6 0h.55v.65h-.55Zm-1.8.7h.55v.65H154Zm2.4 0h.55v.65h-.55Zm-2.4.7h.55v.65H154Zm2.4 0h.55v.65h-.55Zm-2.4.7h.55v.65H154Zm2.4 0h.55v.65h-.55Zm-1.8.7h.55v.65h-.55Zm.6 0h.55v.65h-.55Zm.6 0h.55v.65h-.55Z"/>
  <text x="151" y="13">243</text>
  <path d="M155.8 8h.55v.65h-.55Zm-.6.7h.55v.65h-.55Zm-.6 1.4h.55v.65h-.55Zm.6 0h.55v.65h-.55Zm.6 0h.55v.65h-.55Zm-1.8.7h.55v.65H154Zm2.4 0h.55v.65h-.55Zm-2.4.7h.55v.65H154Zm2.4 0h.55v.65h-.55Zm-2.4.7h.55v.65H154Zm2.4 0h.55v.65h-.55Zm-1.8.7h.55v.65h-.55Zm.6 0h.55v.65h-.55Zm.6 0h.55v.65h-.55Z"/>
  <text x="151" y="21">244</text>
  <path d="M155.2 16.7h.55v.65h-.55Zm-.6.7h.55v.65h-.55Zm1.2 0h.55v.65h-.55Zm-1.2 1.4h.55v.65h-.55Zm.6 0h.55v.65h-.55Zm.6 0h.55v.65h-.55Zm-1.8.7h.55v.65H154Zm2.4 0h.55v.65h-.55Zm-2.4.7h.55v.65H154Zm2.4 0h.55v.65h-.55Zm-1.8.7h.55v.65h-.55Zm.6 0h.55v.65h-.55Zm.6 0h.55v.65h-.55Z"/>
  <text x="151" y="29">245</text>
  <path d="M154.6 24.7h.55v.65h-.55Zm.6 0h.55v.65h-.55Zm1.2 0h.55v.65h-.55Zm-2.4.7h.55v.65H154Zm1.8 0h.55v.65h-.55Zm-1.2 1.4h.55v.65h-.55Zm.6 0h.55v.65h-.55Zm.6 0h.55v.65h-.55Zm-1.8.7h.55v.65H154Zm2.4 0h.55v.65h-.55Zm-2.4.7h.55v.65H154Zm2.4 0h.55v.65h-.55Zm-1.8.7h.55v.65h-.55Zm.6 0h.55v.65h-.55Zm.6 0h.55v.65h-.55Z"/>
  <text x="151" y="37">246</text>
  <path d="M154.6 32.7h.55v.65h-.55Zm1.2 0h.55v.65h-.55Zm-1.2 1.4h.55v.65h-.55Zm.6 0h.55v.65h-.55Zm.6 0h.55v.65h-.55Zm-1.8.7h.55v.65H154Zm2.4 0h.55v.65h-.55Zm-2.4.7h.55v.65H154Zm2.4 0h.55v.65h-.55Zm-2.4.7h.55v.65H154Zm2.4 0h.55v.65h-.55Zm-1.8.7h.55v.65h-.55Zm.6 0h.55v.65h-.55Zm.6 0h.55v.65h-.55Z"/>
  <text x="151" y="45">247</text>
  <path d="M155.2 41.4h.55v.65h-.55Zm-1.2 1.4h.55v.65H154Zm.6 0h.55v.65h-.55Zm.6 0h.55v.65h-.55Zm.6 0h.55v.65h-.55Zm.6 0h.55v.65h-.55Zm-1.2 1.4h.55v.65h-.55Z"/>
  <text x="151" y="53">248</text>
  <path d="M155.8 48.7h.55v.65h-.55Zm-.6.7h.55v.65h-.55Zm-.6.7h.55v.65h-.55Zm.6 0h.55v.65h-.55Zm.6 0h.55v.65h-.55Zm-1.8.7h.55v.65H154Zm1.2 0h.55v.65h-.55Zm1.2 0h.55v.65h-.55Zm-1.8.7h.55v.65h-.55Zm.6 0h.55v.65h-.55Zm.6 0h.55v.65h-.55Zm-.6.7h.55v.65h-.55Zm-.6.7h.55v.65h-.55Z"/>
  <text x="151" y="61">249</text>
  <path d="M154.6 56h.55v.65h-.55Zm.6.7h.55v.65h-.55Zm-1.2 1.4h.55v.65H154Zm2.4 0h.55v.65h-.55Zm-2.4.7h.55v.65H154Zm2.4 0h.55v.65h-.55Zm-2.4.7h.55v.65H154Zm2.4 0h.55v.65h-.55Zm-2.4.7h.55v.65H154Zm1.8 0h.55v.65h-.55Zm.6 0h.55v.65h-.55Zm-1.8.7h.55v.65h-.55Zm.6 0h.55v.65h-.55Zm1.2 0h.55v.65h-.55Z"/>
  <text x="151" y="69">250</text>
  <path d="M155.8 64h.55v.65h-.55Zm-.6.7h.55v.65h-.55Zm-1.2 1.4h.55v.65H154Zm2.4 0h.55v.65h-.55Zm-2.4.7h.55v.65H154Zm2.4 0h.55v.65h-.55Zm-2.4.7h.55v.65H154Zm2.4 0h.55v.65h-.55Zm-2.4.7h.55v.65H154Zm1.8 0h.55v.65h-.55Zm.6 0h.55v.65h-.55Zm-1.8.7h.55v.65h-.55Zm.6 0h.55v.65h-.55Zm1.2 0h.55v.65h-.55Z"/>
  <text x="151" y="77">251</text>
  <path d="M155.2 72h.55v.65h-.55Zm-.6.7h.55v.65h-.55Zm1.2 0h.55v.65h-.55Zm-1.8 1.4h.55v.65H154Zm2.4 0h.55v.65h-.55Zm-2.4.7h.55v.65H154Zm2.4 0h.55v.65h-.55Zm-2.4.7h.55v.65H154Zm2.4 0h.55v.65h-.55Zm-2.4.7h.55v.65H154Zm1.8 0h.55v.65h-.55Zm.6 0h.55v.65h-.55Zm-1.8.7h.55v.65h-.55Zm.6 0h.55v.65h-.55Zm1.2 0h.55v.65h-.55Z"/>
  <text x="151" y="85">252</text>
  <path d="M154.6 80.7h.55v.65h-.55Zm1.2 0h.55v.65h-.55Zm-1.8 1.4h.55v.65H154Zm2.4 0h.55v.65h-.55Zm-2.4.7h.55v.65H154Zm2.4 0h.55v.65h-.55Zm-2.4.7h.55v.65H154Zm2.4 0h.55v.65h-.55Zm-2.4.7h.55v.65H154Zm1.8 0h.55v.65h-.55Zm.6 0h.55v.65h-.55Zm-1.8.7h.55v.65h-.55Zm.6 0h.55v.65h-.55Zm1.2 0h.55v.65h-.55Z"/>
  <text x="151" y="93">253</text>
  <path d="M155.8 88.7h.55v.65h-.55Zm-.6.7h.55v.65h-.55Zm-1.2.7h.55v.65H154Zm2.4 0h.55v.65h-.55Zm-2.4.7h.55v.65H154Zm2.4 0h.55v.65h-.55Zm-1.8.7h.55v.65h-.55Zm.6 0h.55v.65h-.55Zm.6 0h.55v.65h-.55Zm.6 0h.55v.65h-.55Zm0 .7h.55v.65h-.55Zm-1.8.7h.55v.65h-.55Zm.6 0h.55v.65h-.55Zm.6 0h.55v.65h-.55Z"/>
  <text x="151" y="101">254</text>
  <path d="M154.6 96.7h.55v.65h-.55Zm.6 0h.55v.65h-.55Zm0 .7h.55v.65h-.55Zm0 .7h.55v.65h-.55Zm.6 0h.55v.65h-.55Zm-.6.7h.55v.65h-.55Zm1.2 0h.55v.65h-.55Zm-1.2.7h.55v.65h-.55Zm.6 0h.55v.65h-.55Zm-.6.7h.55v.65h-.55Zm-.6.7h.55v.65h-.55Zm.6 0h.55v.65h-.55Zm.6 0h.55v.65h-.55Z"/>
  <text x="151" y="109">255</text>
  <path d="M154.6 104.7h.55v.65h-.55Zm1.2 0h.55v.65h-.55Zm-1.8 1.4h.55v.65H154Zm2.4 0h.55v.65h-.55Zm-2.4.7h.55v.65H154Zm2.4 0h.55v.65h-.55Zm-1.8.7h.55v.65h-.55Zm.6 0h.55v.65h-.55Zm.6 0h.55v.65h-.55Zm.6 0h.55v.65h-.55Zm0 .7h.55v.65h-.55Zm-1.8.7h.55v.65h-.55Zm.6 0h.55v.65h-.55Zm.6 0h.55v.65h-.55Z"/>
</svg>
