<?xml version="1.0" encoding="UTF-8" standalone="no"?>
<svg
   width="160mm"
   height="150mm"
   viewBox="0 0 160 150"
   version="1.1"
   id="svg4947"
   sodipodi:docname="wokwi-lcd1602-fonta02-2.svg"
   inkscape:version="1.2.2 (b0a8486541, 2022-12-01)"
   xmlns:inkscape="http://www.inkscape.org/namespaces/inkscape"
   xmlns:sodipodi="http://sodipodi.sourceforge.net/DTD/sodipodi-0.dtd"
   xmlns="http://www.w3.org/2000/svg"
   xmlns:svg="http://www.w3.org/2000/svg">
  <defs
     id="defs4951" />
  <sodipodi:namedview
     id="namedview4949"
     pagecolor="#505050"
     bordercolor="#eeeeee"
     borderopacity="1"
     inkscape:showpageshadow="0"
     inkscape:pageopacity="0"
     inkscape:pagecheckerboard="0"
     inkscape:deskcolor="#505050"
     inkscape:document-units="mm"
     showgrid="false"
     inkscape:zoom="1.0601691"
     inkscape:cx="77.34615"
     inkscape:cy="302.78188"
     inkscape:window-width="1920"
     inkscape:window-height="1020"
     inkscape:window-x="0"
     inkscape:window-y="0"
     inkscape:window-maximized="1"
     inkscape:current-layer="svg4947" />
  <style
     id="style4433">
path { 
}
    text {
      font-size:5px;
      text-anchor:end;
    }
  </style>
  <g
     id="g5328"
     inkscape:label="index">
    <text
       x="7"
       y="5"
       id="text4435">128</text>
    <text
       x="7"
       y="13"
       id="text4439">129</text>
    <text
       x="7"
       y="21"
       id="text4443">130</text>
    <text
       x="7"
       y="29"
       id="text4447">131</text>
    <text
       x="7"
       y="37"
       id="text4451">132</text>
    <text
       x="7"
       y="45"
       id="text4455">133</text>
    <text
       x="7"
       y="53"
       id="text4459">134</text>
    <text
       x="7"
       y="61"
       id="text4463">135</text>
    <text
       x="7"
       y="69"
       id="text4467">136</text>
    <text
       x="7"
       y="77"
       id="text4471">137</text>
    <text
       x="7"
       y="85"
       id="text4475">138</text>
    <text
       x="7"
       y="93"
       id="text4479">139</text>
    <text
       x="7"
       y="101"
       id="text4483">140</text>
    <text
       x="7"
       y="109"
       id="text4487">141</text>
    <text
       x="7"
       y="117"
       id="text4491">142</text>
    <text
       x="7"
       y="125"
       id="text4495">143</text>
    <text
       x="7"
       y="133"
       id="text4499">144</text>
    <text
       x="7"
       y="141"
       id="text4503">145</text>
    <text
       x="7"
       y="149"
       id="text4507">146</text>
    <text
       x="31"
       y="5"
       id="text4511">147</text>
    <text
       x="31"
       y="13"
       id="text4515">148</text>
    <text
       x="31"
       y="21"
       id="text4519">149</text>
    <text
       x="31"
       y="29"
       id="text4523">150</text>
    <text
       x="31"
       y="37"
       id="text4527">151</text>
    <text
       x="31"
       y="45"
       id="text4531">152</text>
    <text
       x="31"
       y="53"
       id="text4535">153</text>
    <text
       x="31"
       y="61"
       id="text4539">154</text>
    <text
       x="31"
       y="69"
       id="text4543">155</text>
    <text
       x="31"
       y="77"
       id="text4547">156</text>
    <text
       x="31"
       y="85"
       id="text4551">157</text>
    <text
       x="31"
       y="93"
       id="text4555">158</text>
    <text
       x="31"
       y="101"
       id="text4559">159</text>
    <text
       x="31"
       y="109"
       id="text4563">160</text>
    <text
       x="31"
       y="117"
       id="text4567">161</text>
    <text
       x="31"
       y="125"
       id="text4571">162</text>
    <text
       x="31"
       y="133"
       id="text4575">163</text>
    <text
       x="31"
       y="141"
       id="text4579">164</text>
    <text
       x="31"
       y="149"
       id="text4583">165</text>
    <text
       x="55"
       y="5"
       id="text4587">166</text>
    <text
       x="55"
       y="13"
       id="text4591">167</text>
    <text
       x="55"
       y="21"
       id="text4595">168</text>
    <text
       x="55"
       y="29"
       id="text4599">169</text>
    <text
       x="55"
       y="37"
       id="text4603">170</text>
    <text
       x="55"
       y="45"
       id="text4607">171</text>
    <text
       x="55"
       y="53"
       id="text4611">172</text>
    <text
       x="55"
       y="61"
       id="text4615">173</text>
    <text
       x="55"
       y="69"
       id="text4619">174</text>
    <text
       x="55"
       y="77"
       id="text4623">175</text>
    <text
       x="55"
       y="85"
       id="text4627">176</text>
    <text
       x="55"
       y="93"
       id="text4631">177</text>
    <text
       x="55"
       y="101"
       id="text4635">178</text>
    <text
       x="55"
       y="109"
       id="text4639">179</text>
    <text
       x="55"
       y="117"
       id="text4643">180</text>
    <text
       x="55"
       y="125"
       id="text4647">181</text>
    <text
       x="55"
       y="133"
       id="text4651">182</text>
    <text
       x="55"
       y="141"
       id="text4655">183</text>
    <text
       x="55"
       y="149"
       id="text4659">184</text>
    <text
       x="79"
       y="5"
       id="text4663">185</text>
    <text
       x="79"
       y="13"
       id="text4667">186</text>
    <text
       x="79"
       y="21"
       id="text4671">187</text>
    <text
       x="79"
       y="29"
       id="text4675">188</text>
    <text
       x="79"
       y="37"
       id="text4679">189</text>
    <text
       x="79"
       y="45"
       id="text4683">190</text>
    <text
       x="79"
       y="53"
       id="text4687">191</text>
    <text
       x="79"
       y="61"
       id="text4691">192</text>
    <text
       x="79"
       y="69"
       id="text4695">193</text>
    <text
       x="79"
       y="77"
       id="text4699">194</text>
    <text
       x="79"
       y="85"
       id="text4703">195</text>
    <text
       x="79"
       y="93"
       id="text4707">196</text>
    <text
       x="79"
       y="101"
       id="text4711">197</text>
    <text
       x="79"
       y="109"
       id="text4715">198</text>
    <text
       x="79"
       y="117"
       id="text4719">199</text>
    <text
       x="79"
       y="125"
       id="text4723">200</text>
    <text
       x="79"
       y="133"
       id="text4727">201</text>
    <text
       x="79"
       y="141"
       id="text4731">202</text>
    <text
       x="79"
       y="149"
       id="text4735">203</text>
    <text
       x="103"
       y="5"
       id="text4739">204</text>
    <text
       x="103"
       y="13"
       id="text4743">205</text>
    <text
       x="103"
       y="21"
       id="text4747">206</text>
    <text
       x="103"
       y="29"
       id="text4751">207</text>
    <text
       x="103"
       y="37"
       id="text4755">208</text>
    <text
       x="103"
       y="45"
       id="text4759">209</text>
    <text
       x="103"
       y="53"
       id="text4763">210</text>
    <text
       x="103"
       y="61"
       id="text4767">211</text>
    <text
       x="103"
       y="69"
       id="text4771">212</text>
    <text
       x="103"
       y="77"
       id="text4775">213</text>
    <text
       x="103"
       y="85"
       id="text4779">214</text>
    <text
       x="103"
       y="93"
       id="text4783">215</text>
    <text
       x="103"
       y="101"
       id="text4787">216</text>
    <text
       x="103"
       y="109"
       id="text4791">217</text>
    <text
       x="103"
       y="117"
       id="text4795">218</text>
    <text
       x="103"
       y="125"
       id="text4799">219</text>
    <text
       x="103"
       y="133"
       id="text4803">220</text>
    <text
       x="103"
       y="141"
       id="text4807">221</text>
    <text
       x="103"
       y="149"
       id="text4811">222</text>
    <text
       x="127"
       y="5"
       id="text4815">223</text>
    <text
       x="127"
       y="13"
       id="text4819">224</text>
    <text
       x="127"
       y="21"
       id="text4823">225</text>
    <text
       x="127"
       y="29"
       id="text4827">226</text>
    <text
       x="127"
       y="37"
       id="text4831">227</text>
    <text
       x="127"
       y="45"
       id="text4835">228</text>
    <text
       x="127"
       y="53"
       id="text4839">229</text>
    <text
       x="127"
       y="61"
       id="text4843">230</text>
    <text
       x="127"
       y="69"
       id="text4847">231</text>
    <text
       x="127"
       y="77"
       id="text4851">232</text>
    <text
       x="127"
       y="85"
       id="text4855">233</text>
    <text
       x="127"
       y="93"
       id="text4859">234</text>
    <text
       x="127"
       y="101"
       id="text4863">235</text>
    <text
       x="127"
       y="109"
       id="text4867">236</text>
    <text
       x="127"
       y="117"
       id="text4871">237</text>
    <text
       x="127"
       y="125"
       id="text4875">238</text>
    <text
       x="127"
       y="133"
       id="text4879">239</text>
    <text
       x="127"
       y="141"
       id="text4883">240</text>
    <text
       x="127"
       y="149"
       id="text4887">241</text>
    <text
       x="151"
       y="5"
       id="text4891">242</text>
    <text
       x="151"
       y="13"
       id="text4895">243</text>
    <text
       x="151"
       y="21"
       id="text4899">244</text>
    <text
       x="151"
       y="29"
       id="text4903">245</text>
    <text
       x="151"
       y="37"
       id="text4907">246</text>
    <text
       x="151"
       y="45"
       id="text4911">247</text>
    <text
       x="151"
       y="53"
       id="text4915">248</text>
    <text
       x="151"
       y="61"
       id="text4919">249</text>
    <text
       x="151"
       y="69"
       id="text4923">250</text>
    <text
       x="151"
       y="77"
       id="text4927">251</text>
    <text
       x="151"
       y="85"
       id="text4931">252</text>
    <text
       x="151"
       y="93"
       id="text4935">253</text>
    <text
       x="151"
       y="101"
       id="text4939">254</text>
    <text
       x="151"
       y="109"
       id="text4943">255</text>
  </g>
  <g
     id="symbols"
     inkscape:label="symbols">
    <path
       d="M10 .7h.55v.65H10Zm.6 0h.55v.65h-.55Zm.6 0h.55v.65h-.55Zm.6 0h.55v.65h-.55Zm.6 0h.55v.65h-.55Zm-2.4.7h.55v.65H10Zm2.4 0h.55v.65h-.55Zm-2.4.7h.55v.65H10Zm0 .7h.55v.65H10Zm.6 0h.55v.65h-.55Zm.6 0h.55v.65h-.55Zm.6 0h.55v.65h-.55Zm-1.8.7h.55v.65H10Zm2.4 0h.55v.65h-.55Zm-2.4.7h.55v.65H10Zm2.4 0h.55v.65h-.55Zm-2.4.7h.55v.65H10Zm.6 0h.55v.65h-.55Zm.6 0h.55v.65h-.55Zm.6 0h.55v.65h-.55Z"
       id="path4437" />
    <path
       d="M10.6 8h.55v.65h-.55Zm.6 0h.55v.65h-.55Zm.6 0h.55v.65h-.55Zm.6 0h.55v.65h-.55Zm-1.2.7h.55v.65h-.55Zm1.2 0h.55v.65h-.55Zm-1.2.7h.55v.65h-.55Zm1.2 0h.55v.65h-.55Zm-1.8.7h.55v.65h-.55Zm1.8 0h.55v.65h-.55Zm-2.4.7h.55v.65H10Zm2.4 0h.55v.65h-.55Zm-2.4.7h.55v.65H10Zm.6 0h.55v.65h-.55Zm.6 0h.55v.65h-.55Zm.6 0h.55v.65h-.55Zm.6 0h.55v.65h-.55Zm-2.4.7h.55v.65H10Zm2.4 0h.55v.65h-.55Zm-2.4.7h.55v.65H10Zm2.4 0h.55v.65h-.55Z"
       id="path4441" />
    <path
       d="M10 16.7h.55v.65H10Zm1.2 0h.55v.65h-.55Zm1.2 0h.55v.65h-.55Zm-2.4.7h.55v.65H10Zm1.2 0h.55v.65h-.55Zm1.2 0h.55v.65h-.55Zm-2.4.7h.55v.65H10Zm1.2 0h.55v.65h-.55Zm1.2 0h.55v.65h-.55Zm-1.8.7h.55v.65h-.55Zm.6 0h.55v.65h-.55Zm.6 0h.55v.65h-.55Zm-1.8.7h.55v.65H10Zm1.2 0h.55v.65h-.55Zm1.2 0h.55v.65h-.55Zm-2.4.7h.55v.65H10Zm1.2 0h.55v.65h-.55Zm1.2 0h.55v.65h-.55Zm-2.4.7h.55v.65H10Zm1.2 0h.55v.65h-.55Zm1.2 0h.55v.65h-.55Z"
       id="path4445" />
    <path
       d="M10 24.7h.55v.65H10Zm.6 0h.55v.65h-.55Zm.6 0h.55v.65h-.55Zm.6 0h.55v.65h-.55Zm.6.7h.55v.65h-.55Zm0 .7h.55v.65h-.55Zm-1.2.7h.55v.65h-.55Zm.6 0h.55v.65h-.55Zm.6.7h.55v.65h-.55Zm0 .7h.55v.65h-.55Zm-2.4.7h.55v.65H10Zm.6 0h.55v.65h-.55Zm.6 0h.55v.65h-.55Zm.6 0h.55v.65h-.55Z"
       id="path4449" />
    <path
       d="M10 32.7h.55v.65H10Zm2.4 0h.55v.65h-.55Zm-2.4.7h.55v.65H10Zm2.4 0h.55v.65h-.55Zm-2.4.7h.55v.65H10Zm1.8 0h.55v.65h-.55Zm.6 0h.55v.65h-.55Zm-2.4.7h.55v.65H10Zm1.2 0h.55v.65h-.55Zm1.2 0h.55v.65h-.55Zm-2.4.7h.55v.65H10Zm.6 0h.55v.65h-.55Zm1.8 0h.55v.65h-.55Zm-2.4.7h.55v.65H10Zm2.4 0h.55v.65h-.55Zm-2.4.7h.55v.65H10Zm2.4 0h.55v.65h-.55Z"
       id="path4453" />
    <path
       d="M10.6 40h.55v.65h-.55Zm1.2 0h.55v.65h-.55Zm-.6.7h.55v.65h-.55Zm-1.2.7h.55v.65H10Zm2.4 0h.55v.65h-.55Zm-2.4.7h.55v.65H10Zm2.4 0h.55v.65h-.55Zm-2.4.7h.55v.65H10Zm1.8 0h.55v.65h-.55Zm.6 0h.55v.65h-.55Zm-2.4.7h.55v.65H10Zm1.2 0h.55v.65h-.55Zm1.2 0h.55v.65h-.55Zm-2.4.7h.55v.65H10Zm.6 0h.55v.65h-.55Zm1.8 0h.55v.65h-.55Zm-2.4.7h.55v.65H10Zm2.4 0h.55v.65h-.55Z"
       id="path4457" />
    <path
       d="M10.6 48.7h.55v.65h-.55Zm.6 0h.55v.65h-.55Zm.6 0h.55v.65h-.55Zm.6 0h.55v.65h-.55Zm-1.2.7h.55v.65h-.55Zm1.2 0h.55v.65h-.55Zm-1.2.7h.55v.65h-.55Zm1.2 0h.55v.65h-.55Zm-1.2.7h.55v.65h-.55Zm1.2 0h.55v.65h-.55Zm-1.2.7h.55v.65h-.55Zm1.2 0h.55v.65h-.55Zm-2.4.7h.55v.65H10Zm1.2 0h.55v.65h-.55Zm1.2 0h.55v.65h-.55Zm-1.8.7h.55v.65h-.55Zm1.8 0h.55v.65h-.55Z"
       id="path4461" />
    <path
       d="M10 56.7h.55v.65H10Zm.6 0h.55v.65h-.55Zm.6 0h.55v.65h-.55Zm.6 0h.55v.65h-.55Zm.6 0h.55v.65h-.55Zm-2.4.7h.55v.65H10Zm2.4 0h.55v.65h-.55Zm-2.4.7h.55v.65H10Zm2.4 0h.55v.65h-.55Zm-2.4.7h.55v.65H10Zm2.4 0h.55v.65h-.55Zm-2.4.7h.55v.65H10Zm2.4 0h.55v.65h-.55Zm-2.4.7h.55v.65H10Zm2.4 0h.55v.65h-.55Zm-2.4.7h.55v.65H10Zm2.4 0h.55v.65h-.55Z"
       id="path4465" />
    <path
       d="M10 64.7h.55v.65H10Zm2.4 0h.55v.65h-.55Zm-2.4.7h.55v.65H10Zm2.4 0h.55v.65h-.55Zm-2.4.7h.55v.65H10Zm2.4 0h.55v.65h-.55Zm-1.8.7h.55v.65h-.55Zm1.2 0h.55v.65h-.55Zm-.6.7h.55v.65h-.55Zm-.6.7h.55v.65h-.55Zm-.6.7h.55v.65H10Z"
       id="path4469" />
    <path
       d="M10 72.7h.55v.65H10Zm2.4 0h.55v.65h-.55Zm-2.4.7h.55v.65H10Zm2.4 0h.55v.65h-.55Zm-2.4.7h.55v.65H10Zm2.4 0h.55v.65h-.55Zm-2.4.7h.55v.65H10Zm2.4 0h.55v.65h-.55Zm-2.4.7h.55v.65H10Zm2.4 0h.55v.65h-.55Zm-2.4.7h.55v.65H10Zm.6 0h.55v.65h-.55Zm.6 0h.55v.65h-.55Zm.6 0h.55v.65h-.55Zm.6 0h.55v.65h-.55Zm0 .7h.55v.65h-.55Z"
       id="path4473" />
    <path
       d="M10 80.7h.55v.65H10Zm2.4 0h.55v.65h-.55Zm-2.4.7h.55v.65H10Zm2.4 0h.55v.65h-.55Zm-2.4.7h.55v.65H10Zm2.4 0h.55v.65h-.55Zm-1.8.7h.55v.65h-.55Zm.6 0h.55v.65h-.55Zm.6 0h.55v.65h-.55Zm.6 0h.55v.65h-.55Zm0 .7h.55v.65h-.55Zm0 .7h.55v.65h-.55Zm0 .7h.55v.65h-.55Z"
       id="path4477" />
    <path
       d="M10 89.4h.55v.65H10Zm1.2 0h.55v.65h-.55Zm1.2 0h.55v.65h-.55Zm-2.4.7h.55v.65H10Zm1.2 0h.55v.65h-.55Zm1.2 0h.55v.65h-.55Zm-2.4.7h.55v.65H10Zm1.2 0h.55v.65h-.55Zm1.2 0h.55v.65h-.55Zm-2.4.7h.55v.65H10Zm1.2 0h.55v.65h-.55Zm1.2 0h.55v.65h-.55Zm-2.4.7h.55v.65H10Zm1.2 0h.55v.65h-.55Zm1.2 0h.55v.65h-.55Zm-2.4.7h.55v.65H10Zm.6 0h.55v.65h-.55Zm.6 0h.55v.65h-.55Zm.6 0h.55v.65h-.55Zm.6 0h.55v.65h-.55Z"
       id="path4481" />
    <path
       d="M10 96.7h.55v.65H10Zm1.2 0h.55v.65h-.55Zm1.2 0h.55v.65h-.55Zm-2.4.7h.55v.65H10Zm1.2 0h.55v.65h-.55Zm1.2 0h.55v.65h-.55Zm-2.4.7h.55v.65H10Zm1.2 0h.55v.65h-.55Zm1.2 0h.55v.65h-.55Zm-2.4.7h.55v.65H10Zm1.2 0h.55v.65h-.55Zm1.2 0h.55v.65h-.55Zm-2.4.7h.55v.65H10Zm1.2 0h.55v.65h-.55Zm1.2 0h.55v.65h-.55Zm-2.4.7h.55v.65H10Zm.6 0h.55v.65h-.55Zm.6 0h.55v.65h-.55Zm.6 0h.55v.65h-.55Zm.6 0h.55v.65h-.55Zm0 .7h.55v.65h-.55Z"
       id="path4485" />
    <path
       d="M10 104.7h.55v.65H10Zm.6 0h.55v.65h-.55Zm0 .7h.55v.65h-.55Zm0 .7h.55v.65h-.55Zm0 .7h.55v.65h-.55Zm.6 0h.55v.65h-.55Zm.6 0h.55v.65h-.55Zm-1.2.7h.55v.65h-.55Zm1.8 0h.55v.65h-.55Zm-1.8.7h.55v.65h-.55Zm1.8 0h.55v.65h-.55Zm-1.8.7h.55v.65h-.55Zm.6 0h.55v.65h-.55Zm.6 0h.55v.65h-.55Z"
       id="path4489" />
    <path
       d="M10 112.7h.55v.65H10Zm2.4 0h.55v.65h-.55Zm-2.4.7h.55v.65H10Zm2.4 0h.55v.65h-.55Zm-2.4.7h.55v.65H10Zm2.4 0h.55v.65h-.55Zm-2.4.7h.55v.65H10Zm.6 0h.55v.65h-.55Zm1.8 0h.55v.65h-.55Zm-2.4.7h.55v.65H10Zm1.2 0h.55v.65h-.55Zm1.2 0h.55v.65h-.55Zm-2.4.7h.55v.65H10Zm1.2 0h.55v.65h-.55Zm1.2 0h.55v.65h-.55Zm-2.4.7h.55v.65H10Zm.6 0h.55v.65h-.55Zm1.8 0h.55v.65h-.55Z"
       id="path4493" />
    <path
       d="M10.6 120.7h.55v.65h-.55Zm.6 0h.55v.65h-.55Zm.6 0h.55v.65h-.55Zm-1.8.7h.55v.65H10Zm2.4 0h.55v.65h-.55Zm-1.2.7h.55v.65h-.55Zm1.2 0h.55v.65h-.55Zm-1.8.7h.55v.65h-.55Zm1.2 0h.55v.65h-.55Zm.6 0h.55v.65h-.55Zm0 .7h.55v.65h-.55Zm-2.4.7h.55v.65H10Zm2.4 0h.55v.65h-.55Zm-1.8.7h.55v.65h-.55Zm.6 0h.55v.65h-.55Zm.6 0h.55v.65h-.55Z"
       id="path4497" />
    <path
       d="M10.6 130.1h.55v.65h-.55Zm1.8 0h.55v.65h-.55Zm-2.4.7h.55v.65H10Zm1.2 0h.55v.65h-.55Zm1.2 0h.55v.65h-.55Zm-2.4.7h.55v.65H10Zm1.8 0h.55v.65h-.55Zm-1.8.7h.55v.65H10Zm1.8 0h.55v.65h-.55Zm-1.2.7h.55v.65h-.55Zm.6 0h.55v.65h-.55Zm1.2 0h.55v.65h-.55Z"
       id="path4501" />
    <path
       d="M11.2 136.7h.55v.65h-.55Zm0 .7h.55v.65h-.55Zm.6 0h.55v.65h-.55Zm-.6.7h.55v.65h-.55Zm1.2 0h.55v.65h-.55Zm-1.2.7h.55v.65h-.55Zm1.2 0h.55v.65h-.55Zm-1.2.7h.55v.65h-.55Zm-1.2.7h.55v.65H10Zm.6 0h.55v.65h-.55Zm.6 0h.55v.65h-.55Zm-1.2.7h.55v.65H10Zm.6 0h.55v.65h-.55Zm.6 0h.55v.65h-.55Z"
       id="path4505" />
    <path
       d="M10 144.7h.55v.65H10Zm.6 0h.55v.65h-.55Zm.6 0h.55v.65h-.55Zm.6 0h.55v.65h-.55Zm.6 0h.55v.65h-.55Zm-2.4.7h.55v.65H10Zm2.4 0h.55v.65h-.55Zm-2.4.7h.55v.65H10Zm0 .7h.55v.65H10Zm0 .7h.55v.65H10Zm0 .7h.55v.65H10Zm0 .7h.55v.65H10Z"
       id="path4509" />
    <path
       d="M34 2.1h.55v.65H34Zm.6 0h.55v.65h-.55Zm.6 0h.55v.65h-.55Zm.6 0h.55v.65h-.55Zm.6 0h.55v.65h-.55Zm-1.8.7h.55v.65h-.55Zm1.2 0h.55v.65h-.55Zm-1.2.7h.55v.65h-.55Zm1.2 0h.55v.65h-.55Zm-1.2.7h.55v.65h-.55Zm1.2 0h.55v.65h-.55Zm-1.8.7h.55v.65H34Zm1.8 0h.55v.65h-.55Zm.6 0h.55v.65h-.55Z"
       id="path4513" />
    <path
       d="M34 8.7h.55v.65H34Zm.6 0h.55v.65h-.55Zm.6 0h.55v.65h-.55Zm.6 0h.55v.65h-.55Zm.6 0h.55v.65h-.55Zm-2.4.7h.55v.65H34Zm.6.7h.55v.65h-.55Zm.6.7h.55v.65h-.55Zm-.6.7h.55v.65h-.55Zm-.6.7h.55v.65H34Zm0 .7h.55v.65H34Zm.6 0h.55v.65h-.55Zm.6 0h.55v.65h-.55Zm.6 0h.55v.65h-.55Zm.6 0h.55v.65h-.55Z"
       id="path4517" />
    <path
       d="M34.6 18.1h.55v.65h-.55Zm.6 0h.55v.65h-.55Zm.6 0h.55v.65h-.55Zm.6 0h.55v.65h-.55Zm-2.4.7h.55v.65H34Zm1.8 0h.55v.65h-.55Zm-1.8.7h.55v.65H34Zm1.8 0h.55v.65h-.55Zm-1.8.7h.55v.65H34Zm1.8 0h.55v.65h-.55Zm-1.2.7h.55v.65h-.55Zm.6 0h.55v.65h-.55Z"
       id="path4521" />
    <path
       d="M35.2 24h.55v.65h-.55Zm.6 0h.55v.65h-.55Zm-.6.7h.55v.65h-.55Zm1.2 0h.55v.65h-.55Zm-1.2.7h.55v.65h-.55Zm.6 0h.55v.65h-.55Zm.6 0h.55v.65h-.55Zm-1.2.7h.55v.65h-.55Zm1.2 0h.55v.65h-.55Zm-1.2.7h.55v.65h-.55Zm1.2 0h.55v.65h-.55Zm-2.4.7h.55v.65H34Zm.6 0h.55v.65h-.55Zm.6 0h.55v.65h-.55Zm1.2 0h.55v.65h-.55Zm-2.4.7h.55v.65H34Zm.6 0h.55v.65h-.55Zm1.2 0h.55v.65h-.55Zm.6 0h.55v.65h-.55Zm-.6.7h.55v.65h-.55Zm.6 0h.55v.65h-.55Z"
       id="path4525" />
    <path
       d="M36.4 33.4h.55v.65h-.55Zm-1.8.7h.55v.65h-.55Zm.6 0h.55v.65h-.55Zm.6 0h.55v.65h-.55Zm-1.8.7h.55v.65H34Zm1.2 0h.55v.65h-.55Zm0 .7h.55v.65h-.55Zm0 .7h.55v.65h-.55Zm.6.7h.55v.65h-.55Z"
       id="path4529" />
    <path
       d="M35.2 40.7h.55v.65h-.55Zm-.6.7h.55v.65h-.55Zm.6 0h.55v.65h-.55Zm.6 0h.55v.65h-.55Zm-1.2.7h.55v.65h-.55Zm.6 0h.55v.65h-.55Zm.6 0h.55v.65h-.55Zm-1.2.7h.55v.65h-.55Zm.6 0h.55v.65h-.55Zm.6 0h.55v.65h-.55Zm-1.8.7h.55v.65H34Zm.6 0h.55v.65h-.55Zm.6 0h.55v.65h-.55Zm.6 0h.55v.65h-.55Zm.6 0h.55v.65h-.55Zm-1.2.7h.55v.65h-.55Z"
       id="path4533" />
    <path
       d="M34.6 48.7h.55v.65h-.55Zm.6 0h.55v.65h-.55Zm.6 0h.55v.65h-.55Zm-1.8.7h.55v.65H34Zm2.4 0h.55v.65h-.55Zm-2.4.7h.55v.65H34Zm2.4 0h.55v.65h-.55Zm-2.4.7h.55v.65H34Zm.6 0h.55v.65h-.55Zm.6 0h.55v.65h-.55Zm.6 0h.55v.65h-.55Zm.6 0h.55v.65h-.55Zm-2.4.7h.55v.65H34Zm2.4 0h.55v.65h-.55Zm-2.4.7h.55v.65H34Zm2.4 0h.55v.65h-.55Zm-1.8.7h.55v.65h-.55Zm.6 0h.55v.65h-.55Zm.6 0h.55v.65h-.55Z"
       id="path4537" />
    <path
       d="M34.6 57.4h.55v.65h-.55Zm.6 0h.55v.65h-.55Zm.6 0h.55v.65h-.55Zm-1.8.7h.55v.65H34Zm2.4 0h.55v.65h-.55Zm-2.4.7h.55v.65H34Zm2.4 0h.55v.65h-.55Zm-2.4.7h.55v.65H34Zm2.4 0h.55v.65h-.55Zm-1.8.7h.55v.65h-.55Zm1.2 0h.55v.65h-.55Zm-1.8.7h.55v.65H34Zm.6 0h.55v.65h-.55Zm1.2 0h.55v.65h-.55Zm.6 0h.55v.65h-.55Z"
       id="path4541" />
    <path
       d="M35.2 64.7h.55v.65h-.55Zm.6 0h.55v.65h-.55Zm-1.2.7h.55v.65h-.55Zm1.8 0h.55v.65h-.55Zm-1.2.7h.55v.65h-.55Zm-.6.7h.55v.65h-.55Zm1.2 0h.55v.65h-.55Zm-1.8.7h.55v.65H34Zm2.4 0h.55v.65h-.55Zm-2.4.7h.55v.65H34Zm2.4 0h.55v.65h-.55Zm-1.8.7h.55v.65h-.55Zm.6 0h.55v.65h-.55Zm.6 0h.55v.65h-.55Z"
       id="path4545" />
    <path
       d="M34.6 74.1h.55v.65h-.55Zm1.2 0h.55v.65h-.55Zm.6 0h.55v.65h-.55Zm-2.4.7h.55v.65H34Zm1.2 0h.55v.65h-.55Zm1.2 0h.55v.65h-.55Zm-2.4.7h.55v.65H34Zm.6 0h.55v.65h-.55Zm1.2 0h.55v.65h-.55Z"
       id="path4549" />
    <path
       d="M34.6 81.4h.55v.65h-.55Zm1.2 0h.55v.65h-.55Zm-1.8.7h.55v.65H34Zm.6 0h.55v.65h-.55Zm.6 0h.55v.65h-.55Zm.6 0h.55v.65h-.55Zm.6 0h.55v.65h-.55Zm-2.4.7h.55v.65H34Zm.6 0h.55v.65h-.55Zm.6 0h.55v.65h-.55Zm.6 0h.55v.65h-.55Zm.6 0h.55v.65h-.55Zm-2.4.7h.55v.65H34Zm.6 0h.55v.65h-.55Zm.6 0h.55v.65h-.55Zm.6 0h.55v.65h-.55Zm.6 0h.55v.65h-.55Zm-1.8.7h.55v.65h-.55Zm.6 0h.55v.65h-.55Zm.6 0h.55v.65h-.55Zm-.6.7h.55v.65h-.55Z"
       id="path4553" />
    <path
       d="M34.6 90.1h.55v.65h-.55Zm.6 0h.55v.65h-.55Zm.6 0h.55v.65h-.55Zm-1.8.7h.55v.65H34Zm.6.7h.55v.65h-.55Zm.6 0h.55v.65h-.55Zm-1.2.7h.55v.65H34Zm2.4 0h.55v.65h-.55Zm-1.8.7h.55v.65h-.55Zm.6 0h.55v.65h-.55Zm.6 0h.55v.65h-.55Z"
       id="path4557" />
    <path
       d="M34.6 96.7h.55v.65h-.55Zm.6 0h.55v.65h-.55Zm.6 0h.55v.65h-.55Zm-1.8.7h.55v.65H34Zm2.4 0h.55v.65h-.55Zm-2.4.7h.55v.65H34Zm2.4 0h.55v.65h-.55Zm-2.4.7h.55v.65H34Zm2.4 0h.55v.65h-.55Zm-2.4.7h.55v.65H34Zm2.4 0h.55v.65h-.55Zm-2.4.7h.55v.65H34Zm2.4 0h.55v.65h-.55Zm-2.4.7h.55v.65H34Zm2.4 0h.55v.65h-.55Z"
       id="path4561" />
    <path
       d="M34 104.7h.55v.65H34Zm.6 0h.55v.65h-.55Zm1.2 0h.55v.65h-.55Zm.6 0h.55v.65h-.55Zm-2.4.7h.55v.65H34Zm.6 0h.55v.65h-.55Zm1.2 0h.55v.65h-.55Zm.6 0h.55v.65h-.55Zm-2.4.7h.55v.65H34Zm.6 0h.55v.65h-.55Zm1.2 0h.55v.65h-.55Zm.6 0h.55v.65h-.55Zm-2.4.7h.55v.65H34Zm.6 0h.55v.65h-.55Zm1.2 0h.55v.65h-.55Zm.6 0h.55v.65h-.55Zm-2.4.7h.55v.65H34Zm.6 0h.55v.65h-.55Zm1.2 0h.55v.65h-.55Zm.6 0h.55v.65h-.55Zm-2.4.7h.55v.65H34Zm.6 0h.55v.65h-.55Zm1.2 0h.55v.65h-.55Zm.6 0h.55v.65h-.55Zm-2.4.7h.55v.65H34Zm.6 0h.55v.65h-.55Zm1.2 0h.55v.65h-.55Zm.6 0h.55v.65h-.55Z"
       id="path4565" />
    <path
       d="M35.2 112.7h.55v.65h-.55Zm0 2.1h.55v.65h-.55Zm0 .7h.55v.65h-.55Zm0 .7h.55v.65h-.55Zm0 .7h.55v.65h-.55Z"
       id="path4569" />
    <path
       d="M35.2 120.7h.55v.65h-.55Zm-.6.7h.55v.65h-.55Zm.6 0h.55v.65h-.55Zm.6 0h.55v.65h-.55Zm-1.8.7h.55v.65H34Zm1.2 0h.55v.65h-.55Zm-1.2.7h.55v.65H34Zm1.2 0h.55v.65h-.55Zm-1.2.7h.55v.65H34Zm1.2 0h.55v.65h-.55Zm1.2 0h.55v.65h-.55Zm-1.8.7h.55v.65h-.55Zm.6 0h.55v.65h-.55Zm.6 0h.55v.65h-.55Zm-.6.7h.55v.65h-.55Z"
       id="path4573" />
    <path
       d="M35.2 128.7h.55v.65h-.55Zm.6 0h.55v.65h-.55Zm-1.2.7h.55v.65h-.55Zm0 .7h.55v.65h-.55Zm-.6.7h.55v.65H34Zm.6 0h.55v.65h-.55Zm.6 0h.55v.65h-.55Zm-.6.7h.55v.65h-.55Zm0 .7h.55v.65h-.55Zm1.8 0h.55v.65h-.55Zm-2.4.7h.55v.65H34Zm1.2 0h.55v.65h-.55Zm.6 0h.55v.65h-.55Z"
       id="path4577" />
    <path
       d="M34 137.4h.55v.65H34Zm2.4 0h.55v.65h-.55Zm-1.8.7h.55v.65h-.55Zm.6 0h.55v.65h-.55Zm.6 0h.55v.65h-.55Zm-1.2.7h.55v.65h-.55Zm1.2 0h.55v.65h-.55Zm-1.2.7h.55v.65h-.55Zm.6 0h.55v.65h-.55Zm.6 0h.55v.65h-.55Zm-1.8.7h.55v.65H34Zm2.4 0h.55v.65h-.55Z"
       id="path4581" />
    <path
       d="M34 144.7h.55v.65H34Zm2.4 0h.55v.65h-.55Zm-1.8.7h.55v.65h-.55Zm1.2 0h.55v.65h-.55Zm-1.8.7h.55v.65H34Zm.6 0h.55v.65h-.55Zm.6 0h.55v.65h-.55Zm.6 0h.55v.65h-.55Zm.6 0h.55v.65h-.55Zm-1.2.7h.55v.65h-.55Zm-1.2.7h.55v.65H34Zm.6 0h.55v.65h-.55Zm.6 0h.55v.65h-.55Zm.6 0h.55v.65h-.55Zm.6 0h.55v.65h-.55Zm-1.2.7h.55v.65h-.55Zm0 .7h.55v.65h-.55Z"
       id="path4585" />
    <path
       d="M59.2.7h.55v.65h-.55Zm0 .7h.55v.65h-.55Zm0 .7h.55v.65h-.55Zm0 1.4h.55v.65h-.55Zm0 .7h.55v.65h-.55Zm0 .7h.55v.65h-.55Z"
       id="path4589" />
    <path
       d="M59.2 8.7h.55v.65h-.55Zm.6 0h.55v.65h-.55Zm-1.2.7h.55v.65h-.55Zm1.8 0h.55v.65h-.55Zm-1.2.7h.55v.65h-.55Zm-.6.7h.55v.65h-.55Zm1.2 0h.55v.65h-.55Zm-.6.7h.55v.65h-.55Zm-1.2.7h.55v.65H58Zm1.8 0h.55v.65h-.55Zm-1.2.7h.55v.65h-.55Zm.6 0h.55v.65h-.55Z"
       id="path4593" />
    <path
       d="M59.8 16.7h.55v.65h-.55Zm-.6.7h.55v.65h-.55Zm1.2 0h.55v.65h-.55Zm-1.2.7h.55v.65h-.55Zm-1.2.7h.55v.65H58Zm.6 0h.55v.65h-.55Zm.6 0h.55v.65h-.55Zm.6 0h.55v.65h-.55Zm.6 0h.55v.65h-.55Zm-1.2.7h.55v.65h-.55Zm-1.2.7h.55v.65H58Zm1.2 0h.55v.65h-.55Zm-.6.7h.55v.65h-.55Z"
       id="path4597" />
    <path
       d="M58 24.7h.55v.65H58Zm.6 0h.55v.65h-.55Zm.6 0h.55v.65h-.55Zm.6 0h.55v.65h-.55Zm.6 0h.55v.65h-.55Zm-2.4.7h.55v.65H58Zm2.4 0h.55v.65h-.55Zm-2.4.7h.55v.65H58Zm1.2 0h.55v.65h-.55Zm1.2 0h.55v.65h-.55Zm-2.4.7h.55v.65H58Zm1.2 0h.55v.65h-.55Zm.6 0h.55v.65h-.55Zm.6 0h.55v.65h-.55Zm-2.4.7h.55v.65H58Zm1.2 0h.55v.65h-.55Zm1.2 0h.55v.65h-.55Zm-2.4.7h.55v.65H58Zm2.4 0h.55v.65h-.55Zm-2.4.7h.55v.65H58Zm.6 0h.55v.65h-.55Zm.6 0h.55v.65h-.55Zm.6 0h.55v.65h-.55Zm.6 0h.55v.65h-.55Z"
       id="path4601" />
    <path
       d="M58.6 32.7h.55v.65h-.55Zm.6 0h.55v.65h-.55Zm.6 0h.55v.65h-.55Zm.6.7h.55v.65h-.55Zm-1.8.7h.55v.65h-.55Zm.6 0h.55v.65h-.55Zm.6 0h.55v.65h-.55Zm.6 0h.55v.65h-.55Zm-2.4.7h.55v.65H58Zm2.4 0h.55v.65h-.55Zm-1.8.7h.55v.65h-.55Zm.6 0h.55v.65h-.55Zm.6 0h.55v.65h-.55Zm.6 0h.55v.65h-.55ZM58 36.9h.55v.65H58Zm.6 0h.55v.65h-.55Zm.6 0h.55v.65h-.55Zm.6 0h.55v.65h-.55Zm.6 0h.55v.65h-.55Z"
       id="path4605" />
    <path
       d="M59.2 41.4h.55v.65h-.55Zm1.2 0h.55v.65h-.55Zm-1.8.7h.55v.65h-.55Zm1.2 0h.55v.65h-.55Zm-1.8.7h.55v.65H58Zm1.2 0h.55v.65h-.55Zm-.6.7h.55v.65h-.55Zm1.2 0h.55v.65h-.55Zm-.6.7h.55v.65h-.55Zm1.2 0h.55v.65h-.55Z"
       id="path4609" />
    <path
       d="M58 48.7h.55v.65H58Zm1.8 0h.55v.65h-.55Zm-1.8.7h.55v.65H58Zm1.2 0h.55v.65h-.55Zm1.2 0h.55v.65h-.55Zm-2.4.7h.55v.65H58Zm1.2 0h.55v.65h-.55Zm1.2 0h.55v.65h-.55Zm-2.4.7h.55v.65H58Zm.6 0h.55v.65h-.55Zm.6 0h.55v.65h-.55Zm1.2 0h.55v.65h-.55Zm-2.4.7h.55v.65H58Zm1.2 0h.55v.65h-.55Zm1.2 0h.55v.65h-.55Zm-2.4.7h.55v.65H58Zm1.2 0h.55v.65h-.55Zm1.2 0h.55v.65h-.55Zm-2.4.7h.55v.65H58Zm1.8 0h.55v.65h-.55Z"
       id="path4613" />
    <path
       d="M58.6 56.7h.55v.65h-.55Zm.6 0h.55v.65h-.55Zm.6 0h.55v.65h-.55Zm.6 0h.55v.65h-.55Zm-2.4.7h.55v.65H58Zm2.4 0h.55v.65h-.55Zm-2.4.7h.55v.65H58Zm2.4 0h.55v.65h-.55Zm-1.8.7h.55v.65h-.55Zm.6 0h.55v.65h-.55Zm.6 0h.55v.65h-.55Zm.6 0h.55v.65h-.55Zm-1.2.7h.55v.65h-.55Zm1.2 0h.55v.65h-.55Zm-1.8.7h.55v.65h-.55Zm1.8 0h.55v.65h-.55Zm-2.4.7h.55v.65H58Zm2.4 0h.55v.65h-.55Z"
       id="path4617" />
    <path
       d="M58 64.7h.55v.65H58Zm.6 0h.55v.65h-.55Zm.6 0h.55v.65h-.55Zm.6 0h.55v.65h-.55Zm.6 0h.55v.65h-.55Zm-2.4.7h.55v.65H58Zm2.4 0h.55v.65h-.55Zm-2.4.7h.55v.65H58Zm1.2 0h.55v.65h-.55Zm1.2 0h.55v.65h-.55Zm-2.4.7h.55v.65H58Zm2.4 0h.55v.65h-.55Zm-2.4.7h.55v.65H58Zm1.8 0h.55v.65h-.55Zm.6 0h.55v.65h-.55Zm-2.4.7h.55v.65H58Zm1.2 0h.55v.65h-.55Zm1.2 0h.55v.65h-.55Zm-2.4.7h.55v.65H58Zm.6 0h.55v.65h-.55Zm.6 0h.55v.65h-.55Zm.6 0h.55v.65h-.55Zm.6 0h.55v.65h-.55Z"
       id="path4621" />
    <path
       d="M59.2 72.7h.55v.65h-.55Zm-.6.7h.55v.65h-.55Zm0 .7h.55v.65h-.55Zm.6 0h.55v.65h-.55Z"
       id="path4625" />
    <path
       d="M58.6 80h.55v.65h-.55Zm.6 0h.55v.65h-.55Zm-1.2.7h.55v.65H58Zm1.8 0h.55v.65h-.55Zm-1.8.7h.55v.65H58Zm1.8 0h.55v.65h-.55Zm-1.8.7h.55v.65H58Zm1.8 0h.55v.65h-.55Zm-1.2.7h.55v.65h-.55Zm.6 0h.55v.65h-.55Z"
       id="path4629" />
    <path
       d="M59.2 88.7h.55v.65h-.55Zm0 .7h.55v.65h-.55Zm-1.2.7h.55v.65H58Zm.6 0h.55v.65h-.55Zm.6 0h.55v.65h-.55Zm.6 0h.55v.65h-.55Zm.6 0h.55v.65h-.55Zm-1.2.7h.55v.65h-.55Zm0 .7h.55v.65h-.55ZM58 92.9h.55v.65H58Zm.6 0h.55v.65h-.55Zm.6 0h.55v.65h-.55Zm.6 0h.55v.65h-.55Zm.6 0h.55v.65h-.55Z"
       id="path4633" />
    <path
       d="M58.6 96h.55v.65h-.55Zm.6 0h.55v.65h-.55Zm-1.2.7h.55v.65H58Zm1.8 0h.55v.65h-.55Zm-.6.7h.55v.65h-.55Zm-.6.7h.55v.65h-.55Zm-.6.7h.55v.65H58Zm.6 0h.55v.65h-.55Zm.6 0h.55v.65h-.55Zm.6 0h.55v.65h-.55Z"
       id="path4637" />
    <path
       d="M58 104h.55v.65H58Zm.6 0h.55v.65h-.55Zm.6 0h.55v.65h-.55Zm.6.7h.55v.65h-.55Zm-1.2.7h.55v.65h-.55Zm.6 0h.55v.65h-.55Zm.6.7h.55v.65h-.55Zm-1.8.7h.55v.65H58Zm.6 0h.55v.65h-.55Zm.6 0h.55v.65h-.55Z"
       id="path4641" />
    <path
       d="M58 112h.55v.65H58Zm.6 0h.55v.65h-.55Zm.6 0h.55v.65h-.55Zm-1.2.7h.55v.65H58Zm1.8 0h.55v.65h-.55Zm-1.8.7h.55v.65H58Zm.6 0h.55v.65h-.55Zm.6 0h.55v.65h-.55Zm-1.2.7h.55v.65H58Zm0 .7h.55v.65H58Zm1.8 0h.55v.65h-.55Zm-1.8.7h.55v.65H58Zm1.2 0h.55v.65h-.55Zm.6 0h.55v.65h-.55Zm.6 0h.55v.65h-.55Zm-2.4.7h.55v.65H58Zm1.8 0h.55v.65h-.55Zm0 .7h.55v.65h-.55Zm.6 0h.55v.65h-.55Z"
       id="path4645" />
    <path
       d="M58 120.7h.55v.65H58Zm2.4 0h.55v.65h-.55Zm-2.4.7h.55v.65H58Zm2.4 0h.55v.65h-.55Zm-2.4.7h.55v.65H58Zm2.4 0h.55v.65h-.55Zm-2.4.7h.55v.65H58Zm1.8 0h.55v.65h-.55Zm.6 0h.55v.65h-.55Zm-2.4.7h.55v.65H58Zm.6 0h.55v.65h-.55Zm.6 0h.55v.65h-.55Zm1.2 0h.55v.65h-.55Zm-2.4.7h.55v.65H58Zm0 .7h.55v.65H58Z"
       id="path4649" />
    <path
       d="M58.6 128.7h.55v.65h-.55Zm.6 0h.55v.65h-.55Zm.6 0h.55v.65h-.55Zm.6 0h.55v.65h-.55Zm-2.4.7h.55v.65H58Zm1.8 0h.55v.65h-.55Zm.6 0h.55v.65h-.55Zm-2.4.7h.55v.65H58Zm1.8 0h.55v.65h-.55Zm.6 0h.55v.65h-.55Zm-1.8.7h.55v.65h-.55Zm.6 0h.55v.65h-.55Zm.6 0h.55v.65h-.55Zm.6 0h.55v.65h-.55Zm-.6.7h.55v.65h-.55Zm.6 0h.55v.65h-.55Zm-.6.7h.55v.65h-.55Zm.6 0h.55v.65h-.55Zm-.6.7h.55v.65h-.55Zm.6 0h.55v.65h-.55Z"
       id="path4653" />
    <path
       d="M58.6 138.8h.55v.65h-.55Zm.6 0h.55v.65h-.55Zm-.6.7h.55v.65h-.55Zm.6 0h.55v.65h-.55Z"
       id="path4657" />
    <path
       d="M58.6 146.1h.55v.65h-.55Zm1.2 0h.55v.65h-.55Zm-1.8.7h.55v.65H58Zm2.4 0h.55v.65h-.55Zm-2.4.7h.55v.65H58Zm1.2 0h.55v.65h-.55Zm1.2 0h.55v.65h-.55Zm-2.4.7h.55v.65H58Zm1.2 0h.55v.65h-.55Zm1.2 0h.55v.65h-.55Zm-1.8.7h.55v.65h-.55Zm1.2 0h.55v.65h-.55Z"
       id="path4661" />
    <path
       d="M82.6 0h.55v.65h-.55Zm-.6.7h.55v.65H82Zm.6 0h.55v.65h-.55Zm0 .7h.55v.65h-.55Zm0 .7h.55v.65h-.55Zm-.6.7h.55v.65H82Zm.6 0h.55v.65h-.55Zm.6 0h.55v.65h-.55Z"
       id="path4665" />
    <path
       d="M82.6 8.7h.55v.65h-.55Zm.6 0h.55v.65h-.55Zm.6 0h.55v.65h-.55Zm-1.8.7h.55v.65H82Zm2.4 0h.55v.65h-.55Zm-2.4.7h.55v.65H82Zm2.4 0h.55v.65h-.55Zm-2.4.7h.55v.65H82Zm2.4 0h.55v.65h-.55Zm-1.8.7h.55v.65h-.55Zm.6 0h.55v.65h-.55Zm.6 0h.55v.65h-.55ZM82 12.9h.55v.65H82Zm.6 0h.55v.65h-.55Zm.6 0h.55v.65h-.55Zm.6 0h.55v.65h-.55Zm.6 0h.55v.65h-.55Z"
       id="path4669" />
    <path
       d="M82 17.4h.55v.65H82Zm1.2 0h.55v.65h-.55Zm-.6.7h.55v.65h-.55Zm1.2 0h.55v.65h-.55Zm-.6.7h.55v.65h-.55Zm1.2 0h.55v.65h-.55Zm-1.8.7h.55v.65h-.55Zm1.2 0h.55v.65h-.55Zm-1.8.7h.55v.65H82Zm1.2 0h.55v.65h-.55Z"
       id="path4673" />
    <path
       d="M82 24h.55v.65H82Zm2.4 0h.55v.65h-.55Zm-2.4.7h.55v.65H82Zm1.8 0h.55v.65h-.55Zm-1.8.7h.55v.65H82Zm1.2 0h.55v.65h-.55Zm-.6.7h.55v.65h-.55Zm1.2 0h.55v.65h-.55Zm-1.8.7h.55v.65H82Zm1.2 0h.55v.65h-.55Zm.6 0h.55v.65h-.55Zm-1.2.7h.55v.65h-.55Zm1.2 0h.55v.65h-.55Zm-1.2.7h.55v.65h-.55Zm.6 0h.55v.65h-.55Zm.6 0h.55v.65h-.55Zm.6 0h.55v.65h-.55Zm-.6.7h.55v.65h-.55Z"
       id="path4677" />
    <path
       d="M82 32h.55v.65H82Zm2.4 0h.55v.65h-.55Zm-2.4.7h.55v.65H82Zm1.8 0h.55v.65h-.55Zm-1.8.7h.55v.65H82Zm1.2 0h.55v.65h-.55Zm-.6.7h.55v.65h-.55Zm1.2 0h.55v.65h-.55Zm-1.8.7h.55v.65H82Zm1.2 0h.55v.65h-.55Zm1.2 0h.55v.65h-.55Zm0 .7h.55v.65h-.55Zm-.6.7h.55v.65h-.55Zm-.6.7h.55v.65h-.55Zm.6 0h.55v.65h-.55Zm.6 0h.55v.65h-.55Z"
       id="path4681" />
    <path
       d="M82 40h.55v.65H82Zm.6 0h.55v.65h-.55Zm0 .7h.55v.65h-.55Zm-.6.7h.55v.65H82Zm.6 0h.55v.65h-.55Zm0 .7h.55v.65h-.55Zm1.8 0h.55v.65h-.55Zm-2.4.7h.55v.65H82Zm.6 0h.55v.65h-.55Zm1.2 0h.55v.65h-.55Zm.6 0h.55v.65h-.55Zm-1.2.7h.55v.65h-.55Zm1.2 0h.55v.65h-.55Zm-1.2.7h.55v.65h-.55Zm.6 0h.55v.65h-.55Zm.6 0h.55v.65h-.55Zm0 .7h.55v.65h-.55Z"
       id="path4685" />
    <path
       d="M83.2 48.7h.55v.65h-.55Zm0 1.4h.55v.65h-.55Zm-.6.7h.55v.65h-.55Zm-.6.7h.55v.65H82Zm0 .7h.55v.65H82Zm2.4 0h.55v.65h-.55Zm-1.8.7h.55v.65h-.55Zm.6 0h.55v.65h-.55Zm.6 0h.55v.65h-.55Z"
       id="path4689" />
    <path
       d="M82.6 56h.55v.65h-.55Zm.6.7h.55v.65h-.55Zm0 .7h.55v.65h-.55Zm-.6.7h.55v.65h-.55Zm1.2 0h.55v.65h-.55Zm-1.8.7h.55v.65H82Zm2.4 0h.55v.65h-.55Zm-2.4.7h.55v.65H82Zm.6 0h.55v.65h-.55Zm.6 0h.55v.65h-.55Zm.6 0h.55v.65h-.55Zm.6 0h.55v.65h-.55Zm-2.4.7h.55v.65H82Zm2.4 0h.55v.65h-.55Zm-2.4.7h.55v.65H82Zm2.4 0h.55v.65h-.55Z"
       id="path4693" />
    <path
       d="M83.8 64h.55v.65h-.55Zm-.6.7h.55v.65h-.55Zm0 .7h.55v.65h-.55Zm-.6.7h.55v.65h-.55Zm1.2 0h.55v.65h-.55Zm-1.8.7h.55v.65H82Zm2.4 0h.55v.65h-.55Zm-2.4.7h.55v.65H82Zm.6 0h.55v.65h-.55Zm.6 0h.55v.65h-.55Zm.6 0h.55v.65h-.55Zm.6 0h.55v.65h-.55Zm-2.4.7h.55v.65H82Zm2.4 0h.55v.65h-.55Zm-2.4.7h.55v.65H82Zm2.4 0h.55v.65h-.55Z"
       id="path4697" />
    <path
       d="M83.2 72h.55v.65h-.55Zm-.6.7h.55v.65h-.55Zm1.2 0h.55v.65h-.55Zm-1.2 1.4h.55v.65h-.55Zm.6 0h.55v.65h-.55Zm.6 0h.55v.65h-.55Zm-1.8.7h.55v.65H82Zm2.4 0h.55v.65h-.55Zm-2.4.7h.55v.65H82Zm.6 0h.55v.65h-.55Zm.6 0h.55v.65h-.55Zm.6 0h.55v.65h-.55Zm.6 0h.55v.65h-.55Zm-2.4.7h.55v.65H82Zm2.4 0h.55v.65h-.55Zm-2.4.7h.55v.65H82Zm2.4 0h.55v.65h-.55Z"
       id="path4701" />
    <path
       d="M82.6 80h.55v.65h-.55Zm.6 0h.55v.65h-.55Zm1.2 0h.55v.65h-.55Zm-2.4.7h.55v.65H82Zm1.8 0h.55v.65h-.55Zm-1.2 1.4h.55v.65h-.55Zm.6 0h.55v.65h-.55Zm.6 0h.55v.65h-.55Zm-1.8.7h.55v.65H82Zm2.4 0h.55v.65h-.55Zm-2.4.7h.55v.65H82Zm.6 0h.55v.65h-.55Zm.6 0h.55v.65h-.55Zm.6 0h.55v.65h-.55Zm.6 0h.55v.65h-.55Zm-2.4.7h.55v.65H82Zm2.4 0h.55v.65h-.55Zm-2.4.7h.55v.65H82Zm2.4 0h.55v.65h-.55Z"
       id="path4705" />
    <path
       d="M82.6 88h.55v.65h-.55Zm1.2 0h.55v.65h-.55Zm-.6 1.4h.55v.65h-.55Zm-.6.7h.55v.65h-.55Zm1.2 0h.55v.65h-.55Zm-1.8.7h.55v.65H82Zm2.4 0h.55v.65h-.55Zm-2.4.7h.55v.65H82Zm.6 0h.55v.65h-.55Zm.6 0h.55v.65h-.55Zm.6 0h.55v.65h-.55Zm.6 0h.55v.65h-.55Zm-2.4.7h.55v.65H82Zm2.4 0h.55v.65h-.55Zm-2.4.7h.55v.65H82Zm2.4 0h.55v.65h-.55Z"
       id="path4709" />
    <path
       d="M83.2 96h.55v.65h-.55Zm-.6.7h.55v.65h-.55Zm1.2 0h.55v.65h-.55Zm-.6.7h.55v.65h-.55Zm-.6.7h.55v.65h-.55Zm.6 0h.55v.65h-.55Zm.6 0h.55v.65h-.55Zm-1.8.7h.55v.65H82Zm2.4 0h.55v.65h-.55Zm-2.4.7h.55v.65H82Zm.6 0h.55v.65h-.55Zm.6 0h.55v.65h-.55Zm.6 0h.55v.65h-.55Zm.6 0h.55v.65h-.55Zm-2.4.7h.55v.65H82Zm2.4 0h.55v.65h-.55Zm-2.4.7h.55v.65H82Zm2.4 0h.55v.65h-.55Z"
       id="path4713" />
    <path
       d="M83.2 104.7h.55v.65h-.55Zm.6 0h.55v.65h-.55Zm.6 0h.55v.65h-.55Zm-1.8.7h.55v.65h-.55Zm.6 0h.55v.65h-.55Zm-1.2.7h.55v.65H82Zm1.2 0h.55v.65h-.55Zm-1.2.7h.55v.65H82Zm1.2 0h.55v.65h-.55Zm.6 0h.55v.65h-.55Zm.6 0h.55v.65h-.55Zm-2.4.7h.55v.65H82Zm.6 0h.55v.65h-.55Zm.6 0h.55v.65h-.55Zm-1.2.7h.55v.65H82Zm1.2 0h.55v.65h-.55Zm-1.2.7h.55v.65H82Zm1.2 0h.55v.65h-.55Zm.6 0h.55v.65h-.55Zm.6 0h.55v.65h-.55Z"
       id="path4717" />
    <path
       d="M82.6 112h.55v.65h-.55Zm.6 0h.55v.65h-.55Zm.6 0h.55v.65h-.55Zm-1.8.7h.55v.65H82Zm2.4 0h.55v.65h-.55Zm-2.4.7h.55v.65H82Zm0 .7h.55v.65H82Zm0 .7h.55v.65H82Zm2.4 0h.55v.65h-.55Zm-1.8.7h.55v.65h-.55Zm.6 0h.55v.65h-.55Zm.6 0h.55v.65h-.55Zm0 .7h.55v.65h-.55Zm-.6.7h.55v.65h-.55Zm.6 0h.55v.65h-.55Z"
       id="path4721" />
    <path
       d="M82.6 120h.55v.65h-.55Zm.6.7h.55v.65h-.55Zm-1.2 1.4h.55v.65H82Zm.6 0h.55v.65h-.55Zm.6 0h.55v.65h-.55Zm.6 0h.55v.65h-.55Zm.6 0h.55v.65h-.55Zm-2.4.7h.55v.65H82Zm0 .7h.55v.65H82Zm.6 0h.55v.65h-.55Zm.6 0h.55v.65h-.55Zm.6 0h.55v.65h-.55Zm-1.8.7h.55v.65H82Zm0 .7h.55v.65H82Zm.6 0h.55v.65h-.55Zm.6 0h.55v.65h-.55Zm.6 0h.55v.65h-.55Zm.6 0h.55v.65h-.55Z"
       id="path4725" />
    <path
       d="M83.8 128h.55v.65h-.55Zm-.6.7h.55v.65h-.55Zm-1.2 1.4h.55v.65H82Zm.6 0h.55v.65h-.55Zm.6 0h.55v.65h-.55Zm.6 0h.55v.65h-.55Zm.6 0h.55v.65h-.55Zm-2.4.7h.55v.65H82Zm0 .7h.55v.65H82Zm.6 0h.55v.65h-.55Zm.6 0h.55v.65h-.55Zm.6 0h.55v.65h-.55Zm-1.8.7h.55v.65H82Zm0 .7h.55v.65H82Zm.6 0h.55v.65h-.55Zm.6 0h.55v.65h-.55Zm.6 0h.55v.65h-.55Zm.6 0h.55v.65h-.55Z"
       id="path4729" />
    <path
       d="M83.2 136h.55v.65h-.55Zm-.6.7h.55v.65h-.55Zm1.2 0h.55v.65h-.55Zm-1.8 1.4h.55v.65H82Zm.6 0h.55v.65h-.55Zm.6 0h.55v.65h-.55Zm.6 0h.55v.65h-.55Zm.6 0h.55v.65h-.55Zm-2.4.7h.55v.65H82Zm0 .7h.55v.65H82Zm.6 0h.55v.65h-.55Zm.6 0h.55v.65h-.55Zm.6 0h.55v.65h-.55Zm-1.8.7h.55v.65H82Zm0 .7h.55v.65H82Zm.6 0h.55v.65h-.55Zm.6 0h.55v.65h-.55Zm.6 0h.55v.65h-.55Zm.6 0h.55v.65h-.55Z"
       id="path4733" />
    <path
       d="M82.6 144.7h.55v.65h-.55Zm1.2 0h.55v.65h-.55Zm-1.8 1.4h.55v.65H82Zm.6 0h.55v.65h-.55Zm.6 0h.55v.65h-.55Zm.6 0h.55v.65h-.55Zm.6 0h.55v.65h-.55Zm-2.4.7h.55v.65H82Zm0 .7h.55v.65H82Zm.6 0h.55v.65h-.55Zm.6 0h.55v.65h-.55Zm.6 0h.55v.65h-.55Zm-1.8.7h.55v.65H82Zm0 .7h.55v.65H82Zm.6 0h.55v.65h-.55Zm.6 0h.55v.65h-.55Zm.6 0h.55v.65h-.55Zm.6 0h.55v.65h-.55Z"
       id="path4737" />
    <path
       d="M106.6 0h.55v.65h-.55Zm.6.7h.55v.65h-.55Zm-.6 1.4h.55v.65h-.55Zm.6 0h.55v.65h-.55Zm.6 0h.55v.65h-.55Zm-.6.7h.55v.65h-.55Zm0 .7h.55v.65h-.55Zm0 .7h.55v.65h-.55Zm-.6.7h.55v.65h-.55Zm.6 0h.55v.65h-.55Zm.6 0h.55v.65h-.55Z"
       id="path4741" />
    <path
       d="M107.8 8h.55v.65h-.55Zm-.6.7h.55v.65h-.55Zm-.6 1.4h.55v.65h-.55Zm.6 0h.55v.65h-.55Zm.6 0h.55v.65h-.55Zm-.6.7h.55v.65h-.55Zm0 .7h.55v.65h-.55Zm0 .7h.55v.65h-.55Zm-.6.7h.55v.65h-.55Zm.6 0h.55v.65h-.55Zm.6 0h.55v.65h-.55Z"
       id="path4745" />
    <path
       d="M107.2 16h.55v.65h-.55Zm-.6.7h.55v.65h-.55Zm1.2 0h.55v.65h-.55Zm-1.2 1.4h.55v.65h-.55Zm.6 0h.55v.65h-.55Zm.6 0h.55v.65h-.55Zm-.6.7h.55v.65h-.55Zm0 .7h.55v.65h-.55Zm0 .7h.55v.65h-.55Zm-.6.7h.55v.65h-.55Zm.6 0h.55v.65h-.55Zm.6 0h.55v.65h-.55Z"
       id="path4749" />
    <path
       d="M106.6 24.7h.55v.65h-.55Zm1.2 0h.55v.65h-.55Zm-1.2 1.4h.55v.65h-.55Zm.6 0h.55v.65h-.55Zm.6 0h.55v.65h-.55Zm-.6.7h.55v.65h-.55Zm0 .7h.55v.65h-.55Zm0 .7h.55v.65h-.55Zm-.6.7h.55v.65h-.55Zm.6 0h.55v.65h-.55Zm.6 0h.55v.65h-.55Z"
       id="path4753" />
    <path
       d="M106.6 32.7h.55v.65h-.55Zm.6 0h.55v.65h-.55Zm.6 0h.55v.65h-.55Zm-1.2.7h.55v.65h-.55Zm1.8 0h.55v.65h-.55Zm-1.8.7h.55v.65h-.55Zm1.8 0h.55v.65h-.55Zm-2.4.7h.55v.65H106Zm.6 0h.55v.65h-.55Zm.6 0h.55v.65h-.55Zm1.2 0h.55v.65h-.55Zm-1.8.7h.55v.65h-.55Zm1.8 0h.55v.65h-.55Zm-1.8.7h.55v.65h-.55Zm1.8 0h.55v.65h-.55Zm-1.8.7h.55v.65h-.55Zm.6 0h.55v.65h-.55Zm.6 0h.55v.65h-.55Z"
       id="path4757" />
    <path
       d="M106.6 40h.55v.65h-.55Zm.6 0h.55v.65h-.55Zm1.2 0h.55v.65h-.55Zm-2.4.7h.55v.65H106Zm1.8 0h.55v.65h-.55Zm-1.8 1.4h.55v.65H106Zm2.4 0h.55v.65h-.55Zm-2.4.7h.55v.65H106Zm.6 0h.55v.65h-.55Zm1.8 0h.55v.65h-.55Zm-2.4.7h.55v.65H106Zm1.2 0h.55v.65h-.55Zm1.2 0h.55v.65h-.55Zm-2.4.7h.55v.65H106Zm1.8 0h.55v.65h-.55Zm.6 0h.55v.65h-.55Zm-2.4.7h.55v.65H106Zm2.4 0h.55v.65h-.55Z"
       id="path4761" />
    <path
       d="M106.6 48h.55v.65h-.55Zm.6.7h.55v.65h-.55Zm-.6.7h.55v.65h-.55Zm.6 0h.55v.65h-.55Zm.6 0h.55v.65h-.55Zm-1.8.7h.55v.65H106Zm2.4 0h.55v.65h-.55Zm-2.4.7h.55v.65H106Zm2.4 0h.55v.65h-.55Zm-2.4.7h.55v.65H106Zm2.4 0h.55v.65h-.55Zm-2.4.7h.55v.65H106Zm2.4 0h.55v.65h-.55Zm-1.8.7h.55v.65h-.55Zm.6 0h.55v.65h-.55Zm.6 0h.55v.65h-.55Z"
       id="path4765" />
    <path
       d="M107.8 56h.55v.65h-.55Zm-.6.7h.55v.65h-.55Zm-.6.7h.55v.65h-.55Zm.6 0h.55v.65h-.55Zm.6 0h.55v.65h-.55Zm-1.8.7h.55v.65H106Zm2.4 0h.55v.65h-.55Zm-2.4.7h.55v.65H106Zm2.4 0h.55v.65h-.55Zm-2.4.7h.55v.65H106Zm2.4 0h.55v.65h-.55Zm-2.4.7h.55v.65H106Zm2.4 0h.55v.65h-.55Zm-1.8.7h.55v.65h-.55Zm.6 0h.55v.65h-.55Zm.6 0h.55v.65h-.55Z"
       id="path4769" />
    <path
       d="M107.2 64h.55v.65h-.55Zm-.6.7h.55v.65h-.55Zm1.2 0h.55v.65h-.55Zm-1.2 1.4h.55v.65h-.55Zm.6 0h.55v.65h-.55Zm.6 0h.55v.65h-.55Zm-1.8.7h.55v.65H106Zm2.4 0h.55v.65h-.55Zm-2.4.7h.55v.65H106Zm2.4 0h.55v.65h-.55Zm-2.4.7h.55v.65H106Zm2.4 0h.55v.65h-.55Zm-1.8.7h.55v.65h-.55Zm.6 0h.55v.65h-.55Zm.6 0h.55v.65h-.55Z"
       id="path4773" />
    <path
       d="M106.6 72h.55v.65h-.55Zm.6 0h.55v.65h-.55Zm1.2 0h.55v.65h-.55Zm-2.4.7h.55v.65H106Zm1.8 0h.55v.65h-.55Zm-1.2 1.4h.55v.65h-.55Zm.6 0h.55v.65h-.55Zm.6 0h.55v.65h-.55Zm-1.8.7h.55v.65H106Zm2.4 0h.55v.65h-.55Zm-2.4.7h.55v.65H106Zm2.4 0h.55v.65h-.55Zm-2.4.7h.55v.65H106Zm2.4 0h.55v.65h-.55Zm-1.8.7h.55v.65h-.55Zm.6 0h.55v.65h-.55Zm.6 0h.55v.65h-.55Z"
       id="path4777" />
    <path
       d="M106.6 80h.55v.65h-.55Zm1.2 0h.55v.65h-.55Zm-1.2 1.4h.55v.65h-.55Zm.6 0h.55v.65h-.55Zm.6 0h.55v.65h-.55Zm-1.8.7h.55v.65H106Zm2.4 0h.55v.65h-.55Zm-2.4.7h.55v.65H106Zm2.4 0h.55v.65h-.55Zm-2.4.7h.55v.65H106Zm2.4 0h.55v.65h-.55Zm-2.4.7h.55v.65H106Zm2.4 0h.55v.65h-.55Zm-1.8.7h.55v.65h-.55Zm.6 0h.55v.65h-.55Zm.6 0h.55v.65h-.55Z"
       id="path4781" />
    <path
       d="M106 89.4h.55v.65H106Zm2.4 0h.55v.65h-.55Zm-1.8.7h.55v.65h-.55Zm1.2 0h.55v.65h-.55Zm-.6.7h.55v.65h-.55Zm-.6.7h.55v.65h-.55Zm1.2 0h.55v.65h-.55Zm-1.8.7h.55v.65H106Zm2.4 0h.55v.65h-.55Z"
       id="path4785" />
    <path
       d="M106.6 96.7h.55v.65h-.55Zm.6 0h.55v.65h-.55Zm.6 0h.55v.65h-.55Zm-.6.7h.55v.65h-.55Zm-.6.7h.55v.65h-.55Zm.6 0h.55v.65h-.55Zm.6 0h.55v.65h-.55Zm-1.8.7h.55v.65H106Zm1.2 0h.55v.65h-.55Zm1.2 0h.55v.65h-.55Zm-1.8.7h.55v.65h-.55Zm.6 0h.55v.65h-.55Zm.6 0h.55v.65h-.55Zm-.6.7h.55v.65h-.55Zm-.6.7h.55v.65h-.55Zm.6 0h.55v.65h-.55Zm.6 0h.55v.65h-.55Z"
       id="path4789" />
    <path
       d="M106.6 104h.55v.65h-.55Zm.6.7h.55v.65h-.55Zm-1.2.7h.55v.65H106Zm2.4 0h.55v.65h-.55Zm-2.4.7h.55v.65H106Zm2.4 0h.55v.65h-.55Zm-2.4.7h.55v.65H106Zm2.4 0h.55v.65h-.55Zm-2.4.7h.55v.65H106Zm2.4 0h.55v.65h-.55Zm-2.4.7h.55v.65H106Zm2.4 0h.55v.65h-.55Zm-1.8.7h.55v.65h-.55Zm.6 0h.55v.65h-.55Zm.6 0h.55v.65h-.55Z"
       id="path4793" />
    <path
       d="M107.8 112h.55v.65h-.55Zm-.6.7h.55v.65h-.55Zm-1.2.7h.55v.65H106Zm2.4 0h.55v.65h-.55Zm-2.4.7h.55v.65H106Zm2.4 0h.55v.65h-.55Zm-2.4.7h.55v.65H106Zm2.4 0h.55v.65h-.55Zm-2.4.7h.55v.65H106Zm2.4 0h.55v.65h-.55Zm-2.4.7h.55v.65H106Zm2.4 0h.55v.65h-.55Zm-1.8.7h.55v.65h-.55Zm.6 0h.55v.65h-.55Zm.6 0h.55v.65h-.55Z"
       id="path4797" />
    <path
       d="M107.2 120h.55v.65h-.55Zm-.6.7h.55v.65h-.55Zm1.2 0h.55v.65h-.55Zm-1.8 1.4h.55v.65H106Zm2.4 0h.55v.65h-.55Zm-2.4.7h.55v.65H106Zm2.4 0h.55v.65h-.55Zm-2.4.7h.55v.65H106Zm2.4 0h.55v.65h-.55Zm-2.4.7h.55v.65H106Zm2.4 0h.55v.65h-.55Zm-1.8.7h.55v.65h-.55Zm.6 0h.55v.65h-.55Zm.6 0h.55v.65h-.55Z"
       id="path4801" />
    <path
       d="M106.6 128h.55v.65h-.55Zm1.2 0h.55v.65h-.55Zm-1.8 1.4h.55v.65H106Zm2.4 0h.55v.65h-.55Zm-2.4.7h.55v.65H106Zm2.4 0h.55v.65h-.55Zm-2.4.7h.55v.65H106Zm2.4 0h.55v.65h-.55Zm-2.4.7h.55v.65H106Zm2.4 0h.55v.65h-.55Zm-2.4.7h.55v.65H106Zm2.4 0h.55v.65h-.55Zm-1.8.7h.55v.65h-.55Zm.6 0h.55v.65h-.55Zm.6 0h.55v.65h-.55Z"
       id="path4805" />
    <path
       d="M107.8 136h.55v.65h-.55Zm-.6.7h.55v.65h-.55Zm-1.2.7h.55v.65H106Zm2.4 0h.55v.65h-.55Zm-1.8.7h.55v.65h-.55Zm1.2 0h.55v.65h-.55Zm-.6.7h.55v.65h-.55Zm0 .7h.55v.65h-.55Zm0 .7h.55v.65h-.55Zm0 .7h.55v.65h-.55Z"
       id="path4809" />
    <path
       d="M106 144h.55v.65H106Zm.6 0h.55v.65h-.55Zm0 .7h.55v.65h-.55Zm0 .7h.55v.65h-.55Zm.6 0h.55v.65h-.55Zm.6 0h.55v.65h-.55Zm-1.2.7h.55v.65h-.55Zm1.8 0h.55v.65h-.55Zm-1.8.7h.55v.65h-.55Zm1.8 0h.55v.65h-.55Zm-1.8.7h.55v.65h-.55Zm.6 0h.55v.65h-.55Zm.6 0h.55v.65h-.55Zm-1.2.7h.55v.65h-.55Zm-.6.7h.55v.65H106Zm.6 0h.55v.65h-.55Zm.6 0h.55v.65h-.55Z"
       id="path4813" />
    <path
       d="M131.2.7h.55v.65h-.55Zm.6 0h.55v.65h-.55Zm-1.2.7h.55v.65h-.55Zm1.8 0h.55v.65h-.55Zm-1.8.7h.55v.65h-.55Zm1.8 0h.55v.65h-.55Zm-1.8.7h.55v.65h-.55Zm.6 0h.55v.65h-.55Zm.6 0h.55v.65h-.55Zm-1.2.7h.55v.65h-.55Zm1.8 0h.55v.65h-.55Zm-1.8.7h.55v.65h-.55Zm1.8 0h.55v.65h-.55Zm-2.4.7h.55v.65H130Zm1.2 0h.55v.65h-.55Zm.6 0h.55v.65h-.55Z"
       id="path4817" />
    <path
       d="M130.6 8h.55v.65h-.55Zm.6.7h.55v.65h-.55Zm-.6 1.4h.55v.65h-.55Zm.6 0h.55v.65h-.55Zm.6 0h.55v.65h-.55Zm.6.7h.55v.65h-.55Zm-1.8.7h.55v.65h-.55Zm.6 0h.55v.65h-.55Zm.6 0h.55v.65h-.55Zm.6 0h.55v.65h-.55Zm-2.4.7h.55v.65H130Zm2.4 0h.55v.65h-.55Zm-1.8.7h.55v.65h-.55Zm.6 0h.55v.65h-.55Zm.6 0h.55v.65h-.55Zm.6 0h.55v.65h-.55Z"
       id="path4821" />
    <path
       d="M131.8 16h.55v.65h-.55Zm-.6.7h.55v.65h-.55Zm-.6 1.4h.55v.65h-.55Zm.6 0h.55v.65h-.55Zm.6 0h.55v.65h-.55Zm.6.7h.55v.65h-.55Zm-1.8.7h.55v.65h-.55Zm.6 0h.55v.65h-.55Zm.6 0h.55v.65h-.55Zm.6 0h.55v.65h-.55Zm-2.4.7h.55v.65H130Zm2.4 0h.55v.65h-.55Zm-1.8.7h.55v.65h-.55Zm.6 0h.55v.65h-.55Zm.6 0h.55v.65h-.55Zm.6 0h.55v.65h-.55Z"
       id="path4825" />
    <path
       d="M131.2 24h.55v.65h-.55Zm-.6.7h.55v.65h-.55Zm1.2 0h.55v.65h-.55Zm-1.2 1.4h.55v.65h-.55Zm.6 0h.55v.65h-.55Zm.6 0h.55v.65h-.55Zm.6.7h.55v.65h-.55Zm-1.8.7h.55v.65h-.55Zm.6 0h.55v.65h-.55Zm.6 0h.55v.65h-.55Zm.6 0h.55v.65h-.55Zm-2.4.7h.55v.65H130Zm2.4 0h.55v.65h-.55Zm-1.8.7h.55v.65h-.55Zm.6 0h.55v.65h-.55Zm.6 0h.55v.65h-.55Zm.6 0h.55v.65h-.55Z"
       id="path4829" />
    <path
       d="M130.6 32h.55v.65h-.55Zm.6 0h.55v.65h-.55Zm1.2 0h.55v.65h-.55Zm-2.4.7h.55v.65H130Zm1.8 0h.55v.65h-.55Zm-1.2 1.4h.55v.65h-.55Zm.6 0h.55v.65h-.55Zm.6 0h.55v.65h-.55Zm.6.7h.55v.65h-.55Zm-1.8.7h.55v.65h-.55Zm.6 0h.55v.65h-.55Zm.6 0h.55v.65h-.55Zm.6 0h.55v.65h-.55Zm-2.4.7h.55v.65H130Zm2.4 0h.55v.65h-.55Zm-1.8.7h.55v.65h-.55Zm.6 0h.55v.65h-.55Zm.6 0h.55v.65h-.55Zm.6 0h.55v.65h-.55Z"
       id="path4833" />
    <path
       d="M130.6 40.7h.55v.65h-.55Zm1.2 0h.55v.65h-.55Zm-1.2 1.4h.55v.65h-.55Zm.6 0h.55v.65h-.55Zm.6 0h.55v.65h-.55Zm.6.7h.55v.65h-.55Zm-1.8.7h.55v.65h-.55Zm.6 0h.55v.65h-.55Zm.6 0h.55v.65h-.55Zm.6 0h.55v.65h-.55Zm-2.4.7h.55v.65H130Zm2.4 0h.55v.65h-.55Zm-1.8.7h.55v.65h-.55Zm.6 0h.55v.65h-.55Zm.6 0h.55v.65h-.55Zm.6 0h.55v.65h-.55Z"
       id="path4837" />
    <path
       d="M131.2 48h.55v.65h-.55Zm-.6.7h.55v.65h-.55Zm1.2 0h.55v.65h-.55Zm-.6.7h.55v.65h-.55Zm-.6.7h.55v.65h-.55Zm.6 0h.55v.65h-.55Zm.6 0h.55v.65h-.55Zm.6.7h.55v.65h-.55Zm-1.8.7h.55v.65h-.55Zm.6 0h.55v.65h-.55Zm.6 0h.55v.65h-.55Zm.6 0h.55v.65h-.55Zm-2.4.7h.55v.65H130Zm2.4 0h.55v.65h-.55Zm-1.8.7h.55v.65h-.55Zm.6 0h.55v.65h-.55Zm.6 0h.55v.65h-.55Zm.6 0h.55v.65h-.55Z"
       id="path4841" />
    <path
       d="M130 57.4h.55v.65H130Zm.6 0h.55v.65h-.55Zm1.2 0h.55v.65h-.55Zm-.6.7h.55v.65h-.55Zm1.2 0h.55v.65h-.55Zm-1.8.7h.55v.65h-.55Zm.6 0h.55v.65h-.55Zm.6 0h.55v.65h-.55Zm.6 0h.55v.65h-.55Zm-2.4.7h.55v.65H130Zm1.2 0h.55v.65h-.55Zm-1.2.7h.55v.65H130Zm1.2 0h.55v.65h-.55Zm1.2 0h.55v.65h-.55Zm-1.8.7h.55v.65h-.55Zm1.2 0h.55v.65h-.55Z"
       id="path4845" />
    <path
       d="M130.6 65.4h.55v.65h-.55Zm.6 0h.55v.65h-.55Zm.6 0h.55v.65h-.55Zm-1.8.7h.55v.65H130Zm0 .7h.55v.65H130Zm2.4 0h.55v.65h-.55Zm-1.8.7h.55v.65h-.55Zm.6 0h.55v.65h-.55Zm.6 0h.55v.65h-.55Zm-.6.7h.55v.65h-.55Zm-.6.7h.55v.65h-.55Zm.6 0h.55v.65h-.55Z"
       id="path4849" />
    <path
       d="M130.6 72h.55v.65h-.55Zm.6.7h.55v.65h-.55Zm-.6 1.4h.55v.65h-.55Zm.6 0h.55v.65h-.55Zm.6 0h.55v.65h-.55Zm-1.8.7h.55v.65H130Zm2.4 0h.55v.65h-.55Zm-2.4.7h.55v.65H130Zm.6 0h.55v.65h-.55Zm.6 0h.55v.65h-.55Zm.6 0h.55v.65h-.55Zm.6 0h.55v.65h-.55Zm-2.4.7h.55v.65H130Zm.6.7h.55v.65h-.55Zm.6 0h.55v.65h-.55Zm.6 0h.55v.65h-.55Z"
       id="path4853" />
    <path
       d="M131.8 80h.55v.65h-.55Zm-.6.7h.55v.65h-.55Zm-.6 1.4h.55v.65h-.55Zm.6 0h.55v.65h-.55Zm.6 0h.55v.65h-.55Zm-1.8.7h.55v.65H130Zm2.4 0h.55v.65h-.55Zm-2.4.7h.55v.65H130Zm.6 0h.55v.65h-.55Zm.6 0h.55v.65h-.55Zm.6 0h.55v.65h-.55Zm.6 0h.55v.65h-.55Zm-2.4.7h.55v.65H130Zm.6.7h.55v.65h-.55Zm.6 0h.55v.65h-.55Zm.6 0h.55v.65h-.55Z"
       id="path4857" />
    <path
       d="M131.2 88h.55v.65h-.55Zm-.6.7h.55v.65h-.55Zm1.2 0h.55v.65h-.55Zm-1.2 1.4h.55v.65h-.55Zm.6 0h.55v.65h-.55Zm.6 0h.55v.65h-.55Zm-1.8.7h.55v.65H130Zm2.4 0h.55v.65h-.55Zm-2.4.7h.55v.65H130Zm.6 0h.55v.65h-.55Zm.6 0h.55v.65h-.55Zm.6 0h.55v.65h-.55Zm.6 0h.55v.65h-.55Zm-2.4.7h.55v.65H130Zm.6.7h.55v.65h-.55Zm.6 0h.55v.65h-.55Zm.6 0h.55v.65h-.55Z"
       id="path4861" />
    <path
       d="M130.6 96.7h.55v.65h-.55Zm1.2 0h.55v.65h-.55Zm-1.2 1.4h.55v.65h-.55Zm.6 0h.55v.65h-.55Zm.6 0h.55v.65h-.55Zm-1.8.7h.55v.65H130Zm2.4 0h.55v.65h-.55Zm-2.4.7h.55v.65H130Zm.6 0h.55v.65h-.55Zm.6 0h.55v.65h-.55Zm.6 0h.55v.65h-.55Zm.6 0h.55v.65h-.55Zm-2.4.7h.55v.65H130Zm.6.7h.55v.65h-.55Zm.6 0h.55v.65h-.55Zm.6 0h.55v.65h-.55Z"
       id="path4865" />
    <path
       d="M130.6 104h.55v.65h-.55Zm.6.7h.55v.65h-.55Zm0 1.4h.55v.65h-.55Zm-.6.7h.55v.65h-.55Zm.6 0h.55v.65h-.55Zm0 .7h.55v.65h-.55Zm0 .7h.55v.65h-.55Zm-.6.7h.55v.65h-.55Zm.6 0h.55v.65h-.55Zm.6 0h.55v.65h-.55Z"
       id="path4869" />
    <path
       d="M131.8 112h.55v.65h-.55Zm-.6.7h.55v.65h-.55Zm0 1.4h.55v.65h-.55Zm-.6.7h.55v.65h-.55Zm.6 0h.55v.65h-.55Zm0 .7h.55v.65h-.55Zm0 .7h.55v.65h-.55Zm-.6.7h.55v.65h-.55Zm.6 0h.55v.65h-.55Zm.6 0h.55v.65h-.55Z"
       id="path4873" />
    <path
       d="M131.2 120h.55v.65h-.55Zm-.6.7h.55v.65h-.55Zm1.2 0h.55v.65h-.55Zm-.6 1.4h.55v.65h-.55Zm-.6.7h.55v.65h-.55Zm.6 0h.55v.65h-.55Zm0 .7h.55v.65h-.55Zm0 .7h.55v.65h-.55Zm-.6.7h.55v.65h-.55Zm.6 0h.55v.65h-.55Zm.6 0h.55v.65h-.55Z"
       id="path4877" />
    <path
       d="M130.6 128.7h.55v.65h-.55Zm1.2 0h.55v.65h-.55Zm-.6 1.4h.55v.65h-.55Zm-.6.7h.55v.65h-.55Zm.6 0h.55v.65h-.55Zm0 .7h.55v.65h-.55Zm0 .7h.55v.65h-.55Zm-.6.7h.55v.65h-.55Zm.6 0h.55v.65h-.55Zm.6 0h.55v.65h-.55Z"
       id="path4881" />
    <path
       d="M130 136.7h.55v.65H130Zm1.2 0h.55v.65h-.55Zm-.6.7h.55v.65h-.55Zm-.6.7h.55v.65H130Zm1.2 0h.55v.65h-.55Zm.6.7h.55v.65h-.55Zm-1.2.7h.55v.65h-.55Zm.6 0h.55v.65h-.55Zm.6 0h.55v.65h-.55Zm.6 0h.55v.65h-.55Zm-2.4.7h.55v.65H130Zm2.4 0h.55v.65h-.55Zm-1.8.7h.55v.65h-.55Zm.6 0h.55v.65h-.55Zm.6 0h.55v.65h-.55Z"
       id="path4885" />
    <path
       d="M130.6 144h.55v.65h-.55Zm.6 0h.55v.65h-.55Zm1.2 0h.55v.65h-.55Zm-2.4.7h.55v.65H130Zm1.8 0h.55v.65h-.55Zm-1.8 1.4h.55v.65H130Zm1.2 0h.55v.65h-.55Zm.6 0h.55v.65h-.55Zm-1.8.7h.55v.65H130Zm.6 0h.55v.65h-.55Zm1.8 0h.55v.65h-.55Zm-2.4.7h.55v.65H130Zm2.4 0h.55v.65h-.55Zm-2.4.7h.55v.65H130Zm2.4 0h.55v.65h-.55Zm-2.4.7h.55v.65H130Zm2.4 0h.55v.65h-.55Z"
       id="path4889" />
    <path
       d="M154.6 0h.55v.65h-.55Zm.6.7h.55v.65h-.55Zm-.6 1.4h.55v.65h-.55Zm.6 0h.55v.65h-.55Zm.6 0h.55v.65h-.55Zm-1.8.7h.55v.65H154Zm2.4 0h.55v.65h-.55Zm-2.4.7h.55v.65H154Zm2.4 0h.55v.65h-.55Zm-2.4.7h.55v.65H154Zm2.4 0h.55v.65h-.55Zm-1.8.7h.55v.65h-.55Zm.6 0h.55v.65h-.55Zm.6 0h.55v.65h-.55Z"
       id="path4893" />
    <path
       d="M155.8 8h.55v.65h-.55Zm-.6.7h.55v.65h-.55Zm-.6 1.4h.55v.65h-.55Zm.6 0h.55v.65h-.55Zm.6 0h.55v.65h-.55Zm-1.8.7h.55v.65H154Zm2.4 0h.55v.65h-.55Zm-2.4.7h.55v.65H154Zm2.4 0h.55v.65h-.55Zm-2.4.7h.55v.65H154Zm2.4 0h.55v.65h-.55Zm-1.8.7h.55v.65h-.55Zm.6 0h.55v.65h-.55Zm.6 0h.55v.65h-.55Z"
       id="path4897" />
    <path
       d="M155.2 16.7h.55v.65h-.55Zm-.6.7h.55v.65h-.55Zm1.2 0h.55v.65h-.55Zm-1.2 1.4h.55v.65h-.55Zm.6 0h.55v.65h-.55Zm.6 0h.55v.65h-.55Zm-1.8.7h.55v.65H154Zm2.4 0h.55v.65h-.55Zm-2.4.7h.55v.65H154Zm2.4 0h.55v.65h-.55Zm-1.8.7h.55v.65h-.55Zm.6 0h.55v.65h-.55Zm.6 0h.55v.65h-.55Z"
       id="path4901" />
    <path
       d="M154.6 24.7h.55v.65h-.55Zm.6 0h.55v.65h-.55Zm1.2 0h.55v.65h-.55Zm-2.4.7h.55v.65H154Zm1.8 0h.55v.65h-.55Zm-1.2 1.4h.55v.65h-.55Zm.6 0h.55v.65h-.55Zm.6 0h.55v.65h-.55Zm-1.8.7h.55v.65H154Zm2.4 0h.55v.65h-.55Zm-2.4.7h.55v.65H154Zm2.4 0h.55v.65h-.55Zm-1.8.7h.55v.65h-.55Zm.6 0h.55v.65h-.55Zm.6 0h.55v.65h-.55Z"
       id="path4905" />
    <path
       d="M154.6 32.7h.55v.65h-.55Zm1.2 0h.55v.65h-.55Zm-1.2 1.4h.55v.65h-.55Zm.6 0h.55v.65h-.55Zm.6 0h.55v.65h-.55Zm-1.8.7h.55v.65H154Zm2.4 0h.55v.65h-.55Zm-2.4.7h.55v.65H154Zm2.4 0h.55v.65h-.55Zm-2.4.7h.55v.65H154Zm2.4 0h.55v.65h-.55Zm-1.8.7h.55v.65h-.55Zm.6 0h.55v.65h-.55Zm.6 0h.55v.65h-.55Z"
       id="path4909" />
    <path
       d="M155.2 41.4h.55v.65h-.55Zm-1.2 1.4h.55v.65H154Zm.6 0h.55v.65h-.55Zm.6 0h.55v.65h-.55Zm.6 0h.55v.65h-.55Zm.6 0h.55v.65h-.55Zm-1.2 1.4h.55v.65h-.55Z"
       id="path4913" />
    <path
       d="M155.8 48.7h.55v.65h-.55Zm-.6.7h.55v.65h-.55Zm-.6.7h.55v.65h-.55Zm.6 0h.55v.65h-.55Zm.6 0h.55v.65h-.55Zm-1.8.7h.55v.65H154Zm1.2 0h.55v.65h-.55Zm1.2 0h.55v.65h-.55Zm-1.8.7h.55v.65h-.55Zm.6 0h.55v.65h-.55Zm.6 0h.55v.65h-.55Zm-.6.7h.55v.65h-.55Zm-.6.7h.55v.65h-.55Z"
       id="path4917" />
    <path
       d="M154.6 56h.55v.65h-.55Zm.6.7h.55v.65h-.55Zm-1.2 1.4h.55v.65H154Zm2.4 0h.55v.65h-.55Zm-2.4.7h.55v.65H154Zm2.4 0h.55v.65h-.55Zm-2.4.7h.55v.65H154Zm2.4 0h.55v.65h-.55Zm-2.4.7h.55v.65H154Zm1.8 0h.55v.65h-.55Zm.6 0h.55v.65h-.55Zm-1.8.7h.55v.65h-.55Zm.6 0h.55v.65h-.55Zm1.2 0h.55v.65h-.55Z"
       id="path4921" />
    <path
       d="M155.8 64h.55v.65h-.55Zm-.6.7h.55v.65h-.55Zm-1.2 1.4h.55v.65H154Zm2.4 0h.55v.65h-.55Zm-2.4.7h.55v.65H154Zm2.4 0h.55v.65h-.55Zm-2.4.7h.55v.65H154Zm2.4 0h.55v.65h-.55Zm-2.4.7h.55v.65H154Zm1.8 0h.55v.65h-.55Zm.6 0h.55v.65h-.55Zm-1.8.7h.55v.65h-.55Zm.6 0h.55v.65h-.55Zm1.2 0h.55v.65h-.55Z"
       id="path4925" />
    <path
       d="M155.2 72h.55v.65h-.55Zm-.6.7h.55v.65h-.55Zm1.2 0h.55v.65h-.55Zm-1.8 1.4h.55v.65H154Zm2.4 0h.55v.65h-.55Zm-2.4.7h.55v.65H154Zm2.4 0h.55v.65h-.55Zm-2.4.7h.55v.65H154Zm2.4 0h.55v.65h-.55Zm-2.4.7h.55v.65H154Zm1.8 0h.55v.65h-.55Zm.6 0h.55v.65h-.55Zm-1.8.7h.55v.65h-.55Zm.6 0h.55v.65h-.55Zm1.2 0h.55v.65h-.55Z"
       id="path4929" />
    <path
       d="M154.6 80.7h.55v.65h-.55Zm1.2 0h.55v.65h-.55Zm-1.8 1.4h.55v.65H154Zm2.4 0h.55v.65h-.55Zm-2.4.7h.55v.65H154Zm2.4 0h.55v.65h-.55Zm-2.4.7h.55v.65H154Zm2.4 0h.55v.65h-.55Zm-2.4.7h.55v.65H154Zm1.8 0h.55v.65h-.55Zm.6 0h.55v.65h-.55Zm-1.8.7h.55v.65h-.55Zm.6 0h.55v.65h-.55Zm1.2 0h.55v.65h-.55Z"
       id="path4933" />
    <path
       d="M155.8 88.7h.55v.65h-.55Zm-.6.7h.55v.65h-.55Zm-1.2.7h.55v.65H154Zm2.4 0h.55v.65h-.55Zm-2.4.7h.55v.65H154Zm2.4 0h.55v.65h-.55Zm-1.8.7h.55v.65h-.55Zm.6 0h.55v.65h-.55Zm.6 0h.55v.65h-.55Zm.6 0h.55v.65h-.55Zm0 .7h.55v.65h-.55Zm-1.8.7h.55v.65h-.55Zm.6 0h.55v.65h-.55Zm.6 0h.55v.65h-.55Z"
       id="path4937" />
    <path
       d="M154.6 96.7h.55v.65h-.55Zm.6 0h.55v.65h-.55Zm0 .7h.55v.65h-.55Zm0 .7h.55v.65h-.55Zm.6 0h.55v.65h-.55Zm-.6.7h.55v.65h-.55Zm1.2 0h.55v.65h-.55Zm-1.2.7h.55v.65h-.55Zm.6 0h.55v.65h-.55Zm-.6.7h.55v.65h-.55Zm-.6.7h.55v.65h-.55Zm.6 0h.55v.65h-.55Zm.6 0h.55v.65h-.55Z"
       id="path4941" />
    <path
       d="M154.6 104.7h.55v.65h-.55Zm1.2 0h.55v.65h-.55Zm-1.8 1.4h.55v.65H154Zm2.4 0h.55v.65h-.55Zm-2.4.7h.55v.65H154Zm2.4 0h.55v.65h-.55Zm-1.8.7h.55v.65h-.55Zm.6 0h.55v.65h-.55Zm.6 0h.55v.65h-.55Zm.6 0h.55v.65h-.55Zm0 .7h.55v.65h-.55Zm-1.8.7h.55v.65h-.55Zm.6 0h.55v.65h-.55Zm.6 0h.55v.65h-.55Z"
       id="path4945" />
  </g>
</svg>
