<?xml version="1.0" encoding="UTF-8" standalone="no"?>
<svg
   width="160mm"
   height="110mm"
   viewBox="0 0 160 110"
   version="1.1"
   id="svg386"
   sodipodi:docname="wokwi-lcd1602-fonta00-1.svg"
   inkscape:version="1.2.2 (b0a8486541, 2022-12-01)"
   xmlns:inkscape="http://www.inkscape.org/namespaces/inkscape"
   xmlns:sodipodi="http://sodipodi.sourceforge.net/DTD/sodipodi-0.dtd"
   xmlns="http://www.w3.org/2000/svg"
   xmlns:svg="http://www.w3.org/2000/svg">
  <defs
     id="defs390" />
  <sodipodi:namedview
     id="namedview388"
     pagecolor="#505050"
     bordercolor="#eeeeee"
     borderopacity="1"
     inkscape:showpageshadow="0"
     inkscape:pageopacity="0"
     inkscape:pagecheckerboard="0"
     inkscape:deskcolor="#505050"
     inkscape:document-units="mm"
     showgrid="false"
     inkscape:lockguides="false"
     inkscape:zoom="1.4456852"
     inkscape:cx="264.23457"
     inkscape:cy="208.89749"
     inkscape:window-width="1920"
     inkscape:window-height="1020"
     inkscape:window-x="0"
     inkscape:window-y="0"
     inkscape:window-maximized="1"
     inkscape:current-layer="svg386" />
  <style
     id="style2">
path { 
}
text { font-size:5px;      text-anchor:end; }
</style>
  <g
     id="index"
     inkscape:label="index">
    <text
       x="7"
       y="4"
       id="text4">32</text>
    <text
       x="7"
       y="12"
       id="text6">33</text>
    <text
       x="7"
       y="20"
       id="text10">34</text>
    <text
       x="7"
       y="28"
       id="text14">35</text>
    <text
       x="7"
       y="36"
       id="text18">36</text>
    <text
       x="7"
       y="44"
       id="text22">37</text>
    <text
       x="7"
       y="52"
       id="text26">38</text>
    <text
       x="7"
       y="60"
       id="text30">39</text>
    <text
       x="7"
       y="68"
       id="text34">40</text>
    <text
       x="7"
       y="76"
       id="text38">41</text>
    <text
       x="7"
       y="84"
       id="text42">42</text>
    <text
       x="7"
       y="92"
       id="text46">43</text>
    <text
       x="7"
       y="100"
       id="text50">44</text>
    <text
       x="7"
       y="108"
       id="text54">45</text>
    <text
       x="31"
       y="4"
       id="text58">46</text>
    <text
       x="31"
       y="12"
       id="text62">47</text>
    <text
       x="31"
       y="20"
       id="text66">48</text>
    <text
       x="31"
       y="28"
       id="text70">49</text>
    <text
       x="31"
       y="36"
       id="text74">50</text>
    <text
       x="31"
       y="44"
       id="text78">51</text>
    <text
       x="31"
       y="52"
       id="text82">52</text>
    <text
       x="31"
       y="60"
       id="text86">53</text>
    <text
       x="31"
       y="68"
       id="text90">54</text>
    <text
       x="31"
       y="76"
       id="text94">55</text>
    <text
       x="31"
       y="84"
       id="text98">56</text>
    <text
       x="31"
       y="92"
       id="text102">57</text>
    <text
       x="31"
       y="100"
       id="text106">58</text>
    <text
       x="31"
       y="108"
       id="text110">59</text>
    <text
       x="55"
       y="4"
       id="text114">60</text>
    <text
       x="55"
       y="12"
       id="text118">61</text>
    <text
       x="55"
       y="20"
       id="text122">62</text>
    <text
       x="55"
       y="28"
       id="text126">63</text>
    <text
       x="55"
       y="36"
       id="text130">64</text>
    <text
       x="55"
       y="44"
       id="text134">65</text>
    <text
       x="55"
       y="52"
       id="text138">66</text>
    <text
       x="55"
       y="60"
       id="text142">67</text>
    <text
       x="55"
       y="68"
       id="text146">68</text>
    <text
       x="55"
       y="76"
       id="text150">69</text>
    <text
       x="55"
       y="84"
       id="text154">70</text>
    <text
       x="55"
       y="92"
       id="text158">71</text>
    <text
       x="55"
       y="100"
       id="text162">72</text>
    <text
       x="55"
       y="108"
       id="text166">73</text>
    <text
       x="79"
       y="4"
       id="text170">74</text>
    <text
       x="79"
       y="12"
       id="text174">75</text>
    <text
       x="79"
       y="20"
       id="text178">76</text>
    <text
       x="79"
       y="28"
       id="text182">77</text>
    <text
       x="79"
       y="36"
       id="text186">78</text>
    <text
       x="79"
       y="44"
       id="text190">79</text>
    <text
       x="79"
       y="52"
       id="text194">80</text>
    <text
       x="79"
       y="60"
       id="text198">81</text>
    <text
       x="79"
       y="68"
       id="text202">82</text>
    <text
       x="79"
       y="76"
       id="text206">83</text>
    <text
       x="79"
       y="84"
       id="text210">84</text>
    <text
       x="79"
       y="92"
       id="text214">85</text>
    <text
       x="79"
       y="100"
       id="text218">86</text>
    <text
       x="79"
       y="108"
       id="text222">87</text>
    <text
       x="103"
       y="4"
       id="text226">88</text>
    <text
       x="103"
       y="12"
       id="text230">89</text>
    <text
       x="103"
       y="20"
       id="text234">90</text>
    <text
       x="103"
       y="28"
       id="text238">91</text>
    <text
       x="103"
       y="36"
       id="text242">92</text>
    <text
       x="103"
       y="44"
       id="text246">93</text>
    <text
       x="103"
       y="52"
       id="text250">94</text>
    <text
       x="103"
       y="60"
       id="text254">95</text>
    <text
       x="103"
       y="68"
       id="text258">96</text>
    <text
       x="103"
       y="76"
       id="text262">97</text>
    <text
       x="103"
       y="84"
       id="text266">98</text>
    <text
       x="103"
       y="92"
       id="text270">99</text>
    <text
       x="103"
       y="100"
       id="text274">100</text>
    <text
       x="103"
       y="108"
       id="text278">101</text>
    <text
       x="127"
       y="4"
       id="text282">102</text>
    <text
       x="127"
       y="12"
       id="text286">103</text>
    <text
       x="127"
       y="20"
       id="text290">104</text>
    <text
       x="127"
       y="28"
       id="text294">105</text>
    <text
       x="127"
       y="36"
       id="text298">106</text>
    <text
       x="127"
       y="44"
       id="text302">107</text>
    <text
       x="127"
       y="52"
       id="text306">108</text>
    <text
       x="127"
       y="60"
       id="text310">109</text>
    <text
       x="127"
       y="68"
       id="text314">110</text>
    <text
       x="127"
       y="76"
       id="text318">111</text>
    <text
       x="127"
       y="84"
       id="text322">112</text>
    <text
       x="127"
       y="92"
       id="text326">113</text>
    <text
       x="127"
       y="100"
       id="text330">114</text>
    <text
       x="127"
       y="108"
       id="text334">115</text>
    <text
       x="151"
       y="4"
       id="text338">116</text>
    <text
       x="151"
       y="12"
       id="text342">117</text>
    <text
       x="151"
       y="20"
       id="text346">118</text>
    <text
       x="151"
       y="28"
       id="text350">119</text>
    <text
       x="151"
       y="36"
       id="text354">120</text>
    <text
       x="151"
       y="44"
       id="text358">121</text>
    <text
       x="151"
       y="52"
       id="text362">122</text>
    <text
       x="151"
       y="60"
       id="text366">123</text>
    <text
       x="151"
       y="68"
       id="text370">124</text>
    <text
       x="151"
       y="76"
       id="text374">125</text>
    <text
       x="151"
       y="84"
       id="text378">126</text>
    <text
       x="151"
       y="92"
       id="text382">127</text>
  </g>
  <g
     id="symbols"
     inkscape:label="symbols">
    <path
       d="M11.2 8h.55v.65h-.55zm0 .7h.55v.65h-.55zm0 .7h.55v.65h-.55zm0 .7h.55v.65h-.55zm0 2.1h.55v.65h-.55z"
       id="path8" />
    <path
       d="M10.6 16h.55v.65h-.55zm1.2 0h.55v.65h-.55zm-1.2.7h.55v.65h-.55zm1.2 0h.55v.65h-.55zm-1.2.7h.55v.65h-.55zm1.2 0h.55v.65h-.55z"
       id="path12" />
    <path
       d="M10.6 24h.55v.65h-.55zm1.2 0h.55v.65h-.55zm-1.2.7h.55v.65h-.55zm1.2 0h.55v.65h-.55zm-1.8.7h.55v.65H10zm.6 0h.55v.65h-.55zm.6 0h.55v.65h-.55zm.6 0h.55v.65h-.55zm.6 0h.55v.65h-.55zm-1.8.7h.55v.65h-.55zm1.2 0h.55v.65h-.55zm-1.8.7h.55v.65H10zm.6 0h.55v.65h-.55zm.6 0h.55v.65h-.55zm.6 0h.55v.65h-.55zm.6 0h.55v.65h-.55zm-1.8.7h.55v.65h-.55zm1.2 0h.55v.65h-.55zm-1.2.7h.55v.65h-.55zm1.2 0h.55v.65h-.55z"
       id="path16" />
    <path
       d="M11.2 32h.55v.65h-.55zm-.6.7h.55v.65h-.55zm.6 0h.55v.65h-.55zm.6 0h.55v.65h-.55zm.6 0h.55v.65h-.55zm-2.4.7h.55v.65H10zm1.2 0h.55v.65h-.55zm-.6.7h.55v.65h-.55zm.6 0h.55v.65h-.55zm.6 0h.55v.65h-.55zm-.6.7h.55v.65h-.55zm1.2 0h.55v.65h-.55zm-2.4.7h.55v.65H10zm.6 0h.55v.65h-.55zm.6 0h.55v.65h-.55zm.6 0h.55v.65h-.55zm-.6.7h.55v.65h-.55z"
       id="path20" />
    <path
       d="M10 40h.55v.65H10zm.6 0h.55v.65h-.55zm-.6.7h.55v.65H10zm.6 0h.55v.65h-.55zm1.8 0h.55v.65h-.55zm-.6.7h.55v.65h-.55zm-.6.7h.55v.65h-.55zm-.6.7h.55v.65h-.55zm-.6.7h.55v.65H10zm1.8 0h.55v.65h-.55zm.6 0h.55v.65h-.55zm-.6.7h.55v.65h-.55zm.6 0h.55v.65h-.55z"
       id="path24" />
    <path
       d="M10.6 48h.55v.65h-.55zm.6 0h.55v.65h-.55zm-1.2.7h.55v.65H10zm1.8 0h.55v.65h-.55zm-1.8.7h.55v.65H10zm1.2 0h.55v.65h-.55zm-.6.7h.55v.65h-.55zm-.6.7h.55v.65H10zm1.2 0h.55v.65h-.55zm1.2 0h.55v.65h-.55zm-2.4.7h.55v.65H10zm1.8 0h.55v.65h-.55zm-1.2.7h.55v.65h-.55zm.6 0h.55v.65h-.55zm1.2 0h.55v.65h-.55z"
       id="path28" />
    <path
       d="M10.6 56h.55v.65h-.55zm.6 0h.55v.65h-.55zm0 .7h.55v.65h-.55zm-.6.7h.55v.65h-.55z"
       id="path32" />
    <path
       d="M11.8 64h.55v.65h-.55zm-.6.7h.55v.65h-.55zm-.6.7h.55v.65h-.55zm0 .7h.55v.65h-.55zm0 .7h.55v.65h-.55zm.6.7h.55v.65h-.55zm.6.7h.55v.65h-.55z"
       id="path36" />
    <path
       d="M10.6 72h.55v.65h-.55zm.6.7h.55v.65h-.55zm.6.7h.55v.65h-.55zm0 .7h.55v.65h-.55zm0 .7h.55v.65h-.55zm-.6.7h.55v.65h-.55zm-.6.7h.55v.65h-.55z"
       id="path40" />
    <path
       d="M11.2 80.7h.55v.65h-.55zm-1.2.7h.55v.65H10zm1.2 0h.55v.65h-.55zm1.2 0h.55v.65h-.55zm-1.8.7h.55v.65h-.55zm.6 0h.55v.65h-.55zm.6 0h.55v.65h-.55zm-1.8.7h.55v.65H10zm1.2 0h.55v.65h-.55zm1.2 0h.55v.65h-.55zm-1.2.7h.55v.65h-.55z"
       id="path44" />
    <path
       d="M11.2 88.7h.55v.65h-.55zm0 .7h.55v.65h-.55zm-1.2.7h.55v.65H10zm.6 0h.55v.65h-.55zm.6 0h.55v.65h-.55zm.6 0h.55v.65h-.55zm.6 0h.55v.65h-.55zm-1.2.7h.55v.65h-.55zm0 .7h.55v.65h-.55z"
       id="path48" />
    <path
       d="M10.6 98.8h.55v.65h-.55zm.6 0h.55v.65h-.55zm0 .7h.55v.65h-.55zm-.6.7h.55v.65h-.55z"
       id="path52" />
    <path
       d="M10 106.1h.55v.65H10zm.6 0h.55v.65h-.55zm.6 0h.55v.65h-.55zm.6 0h.55v.65h-.55zm.6 0h.55v.65h-.55z"
       id="path56" />
    <path
       d="M34.6 3.5h.55v.65h-.55zm.6 0h.55v.65h-.55zm-.6.7h.55v.65h-.55zm.6 0h.55v.65h-.55z"
       id="path60" />
    <path
       d="M36.4 8.7h.55v.65h-.55zm-.6.7h.55v.65h-.55zm-.6.7h.55v.65h-.55zm-.6.7h.55v.65h-.55zm-.6.7h.55v.65H34z"
       id="path64" />
    <path
       d="M34.6 16h.55v.65h-.55zm.6 0h.55v.65h-.55zm.6 0h.55v.65h-.55zm-1.8.7h.55v.65H34zm2.4 0h.55v.65h-.55zm-2.4.7h.55v.65H34zm1.8 0h.55v.65h-.55zm.6 0h.55v.65h-.55zm-2.4.7h.55v.65H34zm1.2 0h.55v.65h-.55zm1.2 0h.55v.65h-.55zm-2.4.7h.55v.65H34zm.6 0h.55v.65h-.55zm1.8 0h.55v.65h-.55zm-2.4.7h.55v.65H34zm2.4 0h.55v.65h-.55zm-1.8.7h.55v.65h-.55zm.6 0h.55v.65h-.55zm.6 0h.55v.65h-.55z"
       id="path68" />
    <path
       d="M35.2 24h.55v.65h-.55zm-.6.7h.55v.65h-.55zm.6 0h.55v.65h-.55zm0 .7h.55v.65h-.55zm0 .7h.55v.65h-.55zm0 .7h.55v.65h-.55zm0 .7h.55v.65h-.55zm-.6.7h.55v.65h-.55zm.6 0h.55v.65h-.55zm.6 0h.55v.65h-.55z"
       id="path72" />
    <path
       d="M34.6 32h.55v.65h-.55zm.6 0h.55v.65h-.55zm.6 0h.55v.65h-.55zm-1.8.7h.55v.65H34zm2.4 0h.55v.65h-.55zm0 .7h.55v.65h-.55zm-.6.7h.55v.65h-.55zm-.6.7h.55v.65h-.55zm-.6.7h.55v.65h-.55zm-.6.7h.55v.65H34zm.6 0h.55v.65h-.55zm.6 0h.55v.65h-.55zm.6 0h.55v.65h-.55zm.6 0h.55v.65h-.55z"
       id="path76" />
    <path
       d="M34 40h.55v.65H34zm.6 0h.55v.65h-.55zm.6 0h.55v.65h-.55zm.6 0h.55v.65h-.55zm.6 0h.55v.65h-.55zm-.6.7h.55v.65h-.55zm-.6.7h.55v.65h-.55zm.6.7h.55v.65h-.55zm.6.7h.55v.65h-.55zm-2.4.7h.55v.65H34zm2.4 0h.55v.65h-.55zm-1.8.7h.55v.65h-.55zm.6 0h.55v.65h-.55zm.6 0h.55v.65h-.55z"
       id="path80" />
    <path
       d="M35.8 48h.55v.65h-.55zm-.6.7h.55v.65h-.55zm.6 0h.55v.65h-.55zm-1.2.7h.55v.65h-.55zm1.2 0h.55v.65h-.55zm-1.8.7h.55v.65H34zm1.8 0h.55v.65h-.55zm-1.8.7h.55v.65H34zm.6 0h.55v.65h-.55zm.6 0h.55v.65h-.55zm.6 0h.55v.65h-.55zm.6 0h.55v.65h-.55zm-.6.7h.55v.65h-.55zm0 .7h.55v.65h-.55z"
       id="path84" />
    <path
       d="M34 56h.55v.65H34zm.6 0h.55v.65h-.55zm.6 0h.55v.65h-.55zm.6 0h.55v.65h-.55zm.6 0h.55v.65h-.55zm-2.4.7h.55v.65H34zm0 .7h.55v.65H34zm.6 0h.55v.65h-.55zm.6 0h.55v.65h-.55zm.6 0h.55v.65h-.55zm.6.7h.55v.65h-.55zm0 .7h.55v.65h-.55zm-2.4.7h.55v.65H34zm2.4 0h.55v.65h-.55zm-1.8.7h.55v.65h-.55zm.6 0h.55v.65h-.55zm.6 0h.55v.65h-.55z"
       id="path88" />
    <path
       d="M35.2 64h.55v.65h-.55zm.6 0h.55v.65h-.55zm-1.2.7h.55v.65h-.55zm-.6.7h.55v.65H34zm0 .7h.55v.65H34zm.6 0h.55v.65h-.55zm.6 0h.55v.65h-.55zm.6 0h.55v.65h-.55zm-1.8.7h.55v.65H34zm2.4 0h.55v.65h-.55zm-2.4.7h.55v.65H34zm2.4 0h.55v.65h-.55zm-1.8.7h.55v.65h-.55zm.6 0h.55v.65h-.55zm.6 0h.55v.65h-.55z"
       id="path92" />
    <path
       d="M34 72h.55v.65H34zm.6 0h.55v.65h-.55zm.6 0h.55v.65h-.55zm.6 0h.55v.65h-.55zm.6 0h.55v.65h-.55zm-2.4.7h.55v.65H34zm2.4 0h.55v.65h-.55zm0 .7h.55v.65h-.55zm-.6.7h.55v.65h-.55zm-.6.7h.55v.65h-.55zm0 .7h.55v.65h-.55zm0 .7h.55v.65h-.55z"
       id="path96" />
    <path
       d="M34.6 80h.55v.65h-.55zm.6 0h.55v.65h-.55zm.6 0h.55v.65h-.55zm-1.8.7h.55v.65H34zm2.4 0h.55v.65h-.55zm-2.4.7h.55v.65H34zm2.4 0h.55v.65h-.55zm-1.8.7h.55v.65h-.55zm.6 0h.55v.65h-.55zm.6 0h.55v.65h-.55zm-1.8.7h.55v.65H34zm2.4 0h.55v.65h-.55zm-2.4.7h.55v.65H34zm2.4 0h.55v.65h-.55zm-1.8.7h.55v.65h-.55zm.6 0h.55v.65h-.55zm.6 0h.55v.65h-.55z"
       id="path100" />
    <path
       d="M34.6 88h.55v.65h-.55zm.6 0h.55v.65h-.55zm.6 0h.55v.65h-.55zm-1.8.7h.55v.65H34zm2.4 0h.55v.65h-.55zm-2.4.7h.55v.65H34zm2.4 0h.55v.65h-.55zm-1.8.7h.55v.65h-.55zm.6 0h.55v.65h-.55zm.6 0h.55v.65h-.55zm.6 0h.55v.65h-.55zm0 .7h.55v.65h-.55zm-.6.7h.55v.65h-.55zm-1.2.7h.55v.65h-.55zm.6 0h.55v.65h-.55z"
       id="path104" />
    <path
       d="M34.6 96.7h.55v.65h-.55zm.6 0h.55v.65h-.55zm-.6.7h.55v.65h-.55zm.6 0h.55v.65h-.55zm-.6 1.4h.55v.65h-.55zm.6 0h.55v.65h-.55zm-.6.7h.55v.65h-.55zm.6 0h.55v.65h-.55z"
       id="path108" />
    <path
       d="M34.6 104.7h.55v.65h-.55zm.6 0h.55v.65h-.55zm-.6.7h.55v.65h-.55zm.6 0h.55v.65h-.55zm-.6 1.4h.55v.65h-.55zm.6 0h.55v.65h-.55zm0 .7h.55v.65h-.55zm-.6.7h.55v.65h-.55z"
       id="path112" />
    <path
       d="M59.8 0h.55v.65h-.55zm-.6.7h.55v.65h-.55zm-.6.7h.55v.65h-.55zm-.6.7h.55v.65H58zm.6.7h.55v.65h-.55zm.6.7h.55v.65h-.55zm.6.7h.55v.65h-.55z"
       id="path116" />
    <path
       d="M58 9.4h.55v.65H58zm.6 0h.55v.65h-.55zm.6 0h.55v.65h-.55zm.6 0h.55v.65h-.55zm.6 0h.55v.65h-.55zM58 10.8h.55v.65H58zm.6 0h.55v.65h-.55zm.6 0h.55v.65h-.55zm.6 0h.55v.65h-.55zm.6 0h.55v.65h-.55z"
       id="path120" />
    <path
       d="M58.6 16h.55v.65h-.55zm.6.7h.55v.65h-.55zm.6.7h.55v.65h-.55zm.6.7h.55v.65h-.55zm-.6.7h.55v.65h-.55zm-.6.7h.55v.65h-.55zm-.6.7h.55v.65h-.55z"
       id="path124" />
    <path
       d="M58.6 24h.55v.65h-.55zm.6 0h.55v.65h-.55zm.6 0h.55v.65h-.55zm-1.8.7h.55v.65H58zm2.4 0h.55v.65h-.55zm0 .7h.55v.65h-.55zm-.6.7h.55v.65h-.55zm-.6.7h.55v.65h-.55zm0 1.4h.55v.65h-.55z"
       id="path128" />
    <path
       d="M58.6 32h.55v.65h-.55zm.6 0h.55v.65h-.55zm.6 0h.55v.65h-.55zm-1.8.7h.55v.65H58zm2.4 0h.55v.65h-.55zm0 .7h.55v.65h-.55zm-1.8.7h.55v.65h-.55zm.6 0h.55v.65h-.55zm1.2 0h.55v.65h-.55zm-2.4.7h.55v.65H58zm1.2 0h.55v.65h-.55zm1.2 0h.55v.65h-.55zm-2.4.7h.55v.65H58zm1.2 0h.55v.65h-.55zm1.2 0h.55v.65h-.55zm-1.8.7h.55v.65h-.55zm.6 0h.55v.65h-.55zm.6 0h.55v.65h-.55z"
       id="path132" />
    <path
       d="M58.6 40h.55v.65h-.55zm.6 0h.55v.65h-.55zm.6 0h.55v.65h-.55zm-1.8.7h.55v.65H58zm2.4 0h.55v.65h-.55zm-2.4.7h.55v.65H58zm2.4 0h.55v.65h-.55zm-2.4.7h.55v.65H58zm2.4 0h.55v.65h-.55zm-2.4.7h.55v.65H58zm.6 0h.55v.65h-.55zm.6 0h.55v.65h-.55zm.6 0h.55v.65h-.55zm.6 0h.55v.65h-.55zm-2.4.7h.55v.65H58zm2.4 0h.55v.65h-.55zm-2.4.7h.55v.65H58zm2.4 0h.55v.65h-.55z"
       id="path136" />
    <path
       d="M58 48h.55v.65H58zm.6 0h.55v.65h-.55zm.6 0h.55v.65h-.55zm.6 0h.55v.65h-.55zm-1.8.7h.55v.65H58zm2.4 0h.55v.65h-.55zm-2.4.7h.55v.65H58zm2.4 0h.55v.65h-.55zm-2.4.7h.55v.65H58zm.6 0h.55v.65h-.55zm.6 0h.55v.65h-.55zm.6 0h.55v.65h-.55zm-1.8.7h.55v.65H58zm2.4 0h.55v.65h-.55zm-2.4.7h.55v.65H58zm2.4 0h.55v.65h-.55zm-2.4.7h.55v.65H58zm.6 0h.55v.65h-.55zm.6 0h.55v.65h-.55zm.6 0h.55v.65h-.55z"
       id="path140" />
    <path
       d="M58.6 56h.55v.65h-.55zm.6 0h.55v.65h-.55zm.6 0h.55v.65h-.55zm-1.8.7h.55v.65H58zm2.4 0h.55v.65h-.55zm-2.4.7h.55v.65H58zm0 .7h.55v.65H58zm0 .7h.55v.65H58zm0 .7h.55v.65H58zm2.4 0h.55v.65h-.55zm-1.8.7h.55v.65h-.55zm.6 0h.55v.65h-.55zm.6 0h.55v.65h-.55z"
       id="path144" />
    <path
       d="M58 64h.55v.65H58zm.6 0h.55v.65h-.55zm.6 0h.55v.65h-.55zm-1.2.7h.55v.65H58zm1.8 0h.55v.65h-.55zm-1.8.7h.55v.65H58zm2.4 0h.55v.65h-.55zm-2.4.7h.55v.65H58zm2.4 0h.55v.65h-.55zm-2.4.7h.55v.65H58zm2.4 0h.55v.65h-.55zm-2.4.7h.55v.65H58zm1.8 0h.55v.65h-.55zm-1.8.7h.55v.65H58zm.6 0h.55v.65h-.55zm.6 0h.55v.65h-.55z"
       id="path148" />
    <path
       d="M58 72h.55v.65H58zm.6 0h.55v.65h-.55zm.6 0h.55v.65h-.55zm.6 0h.55v.65h-.55zm.6 0h.55v.65h-.55zm-2.4.7h.55v.65H58zm0 .7h.55v.65H58zm0 .7h.55v.65H58zm.6 0h.55v.65h-.55zm.6 0h.55v.65h-.55zm.6 0h.55v.65h-.55zm-1.8.7h.55v.65H58zm0 .7h.55v.65H58zm0 .7h.55v.65H58zm.6 0h.55v.65h-.55zm.6 0h.55v.65h-.55zm.6 0h.55v.65h-.55zm.6 0h.55v.65h-.55z"
       id="path152" />
    <path
       d="M58 80h.55v.65H58zm.6 0h.55v.65h-.55zm.6 0h.55v.65h-.55zm.6 0h.55v.65h-.55zm.6 0h.55v.65h-.55zm-2.4.7h.55v.65H58zm0 .7h.55v.65H58zm0 .7h.55v.65H58zm.6 0h.55v.65h-.55zm.6 0h.55v.65h-.55zm.6 0h.55v.65h-.55zm-1.8.7h.55v.65H58zm0 .7h.55v.65H58zm0 .7h.55v.65H58z"
       id="path156" />
    <path
       d="M58.6 88h.55v.65h-.55zm.6 0h.55v.65h-.55zm.6 0h.55v.65h-.55zm-1.8.7h.55v.65H58zm2.4 0h.55v.65h-.55zm-2.4.7h.55v.65H58zm0 .7h.55v.65H58zm1.2 0h.55v.65h-.55zm.6 0h.55v.65h-.55zm.6 0h.55v.65h-.55zm-2.4.7h.55v.65H58zm2.4 0h.55v.65h-.55zm-2.4.7h.55v.65H58zm2.4 0h.55v.65h-.55zm-1.8.7h.55v.65h-.55zm.6 0h.55v.65h-.55zm.6 0h.55v.65h-.55zm.6 0h.55v.65h-.55z"
       id="path160" />
    <path
       d="M58 96h.55v.65H58zm2.4 0h.55v.65h-.55zm-2.4.7h.55v.65H58zm2.4 0h.55v.65h-.55zm-2.4.7h.55v.65H58zm2.4 0h.55v.65h-.55zm-2.4.7h.55v.65H58zm.6 0h.55v.65h-.55zm.6 0h.55v.65h-.55zm.6 0h.55v.65h-.55zm.6 0h.55v.65h-.55zm-2.4.7h.55v.65H58zm2.4 0h.55v.65h-.55zm-2.4.7h.55v.65H58zm2.4 0h.55v.65h-.55zm-2.4.7h.55v.65H58zm2.4 0h.55v.65h-.55z"
       id="path164" />
    <path
       d="M58.6 104h.55v.65h-.55zm.6 0h.55v.65h-.55zm.6 0h.55v.65h-.55zm-.6.7h.55v.65h-.55zm0 .7h.55v.65h-.55zm0 .7h.55v.65h-.55zm0 .7h.55v.65h-.55zm0 .7h.55v.65h-.55zm-.6.7h.55v.65h-.55zm.6 0h.55v.65h-.55zm.6 0h.55v.65h-.55z"
       id="path168" />
    <path
       d="M83.2 0h.55v.65h-.55zm.6 0h.55v.65h-.55zm.6 0h.55v.65h-.55zm-.6.7h.55v.65h-.55zm0 .7h.55v.65h-.55zm0 .7h.55v.65h-.55zm0 .7h.55v.65h-.55zm-1.8.7h.55v.65H82zm1.8 0h.55v.65h-.55zm-1.2.7h.55v.65h-.55zm.6 0h.55v.65h-.55z"
       id="path172" />
    <path
       d="M82 8h.55v.65H82zm2.4 0h.55v.65h-.55zm-2.4.7h.55v.65H82zm1.8 0h.55v.65h-.55zm-1.8.7h.55v.65H82zm1.2 0h.55v.65h-.55zm-1.2.7h.55v.65H82zm.6 0h.55v.65h-.55zm-.6.7h.55v.65H82zm1.2 0h.55v.65h-.55zm-1.2.7h.55v.65H82zm1.8 0h.55v.65h-.55zm-1.8.7h.55v.65H82zm2.4 0h.55v.65h-.55z"
       id="path176" />
    <path
       d="M82 16h.55v.65H82zm0 .7h.55v.65H82zm0 .7h.55v.65H82zm0 .7h.55v.65H82zm0 .7h.55v.65H82zm0 .7h.55v.65H82zm0 .7h.55v.65H82zm.6 0h.55v.65h-.55zm.6 0h.55v.65h-.55zm.6 0h.55v.65h-.55zm.6 0h.55v.65h-.55z"
       id="path180" />
    <path
       d="M82 24h.55v.65H82zm2.4 0h.55v.65h-.55zm-2.4.7h.55v.65H82zm.6 0h.55v.65h-.55zm1.2 0h.55v.65h-.55zm.6 0h.55v.65h-.55zm-2.4.7h.55v.65H82zm1.2 0h.55v.65h-.55zm1.2 0h.55v.65h-.55zm-2.4.7h.55v.65H82zm1.2 0h.55v.65h-.55zm1.2 0h.55v.65h-.55zm-2.4.7h.55v.65H82zm2.4 0h.55v.65h-.55zm-2.4.7h.55v.65H82zm2.4 0h.55v.65h-.55zm-2.4.7h.55v.65H82zm2.4 0h.55v.65h-.55z"
       id="path184" />
    <path
       d="M82 32h.55v.65H82zm2.4 0h.55v.65h-.55zm-2.4.7h.55v.65H82zm2.4 0h.55v.65h-.55zm-2.4.7h.55v.65H82zm.6 0h.55v.65h-.55zm1.8 0h.55v.65h-.55zm-2.4.7h.55v.65H82zm1.2 0h.55v.65h-.55zm1.2 0h.55v.65h-.55zm-2.4.7h.55v.65H82zm1.8 0h.55v.65h-.55zm.6 0h.55v.65h-.55zm-2.4.7h.55v.65H82zm2.4 0h.55v.65h-.55zm-2.4.7h.55v.65H82zm2.4 0h.55v.65h-.55z"
       id="path188" />
    <path
       d="M82.6 40h.55v.65h-.55zm.6 0h.55v.65h-.55zm.6 0h.55v.65h-.55zm-1.8.7h.55v.65H82zm2.4 0h.55v.65h-.55zm-2.4.7h.55v.65H82zm2.4 0h.55v.65h-.55zm-2.4.7h.55v.65H82zm2.4 0h.55v.65h-.55zm-2.4.7h.55v.65H82zm2.4 0h.55v.65h-.55zm-2.4.7h.55v.65H82zm2.4 0h.55v.65h-.55zm-1.8.7h.55v.65h-.55zm.6 0h.55v.65h-.55zm.6 0h.55v.65h-.55z"
       id="path192" />
    <path
       d="M82 48h.55v.65H82zm.6 0h.55v.65h-.55zm.6 0h.55v.65h-.55zm.6 0h.55v.65h-.55zm-1.8.7h.55v.65H82zm2.4 0h.55v.65h-.55zm-2.4.7h.55v.65H82zm2.4 0h.55v.65h-.55zm-2.4.7h.55v.65H82zm.6 0h.55v.65h-.55zm.6 0h.55v.65h-.55zm.6 0h.55v.65h-.55zm-1.8.7h.55v.65H82zm0 .7h.55v.65H82zm0 .7h.55v.65H82z"
       id="path196" />
    <path
       d="M82.6 56h.55v.65h-.55zm.6 0h.55v.65h-.55zm.6 0h.55v.65h-.55zm-1.8.7h.55v.65H82zm2.4 0h.55v.65h-.55zm-2.4.7h.55v.65H82zm2.4 0h.55v.65h-.55zm-2.4.7h.55v.65H82zm2.4 0h.55v.65h-.55zm-2.4.7h.55v.65H82zm1.2 0h.55v.65h-.55zm1.2 0h.55v.65h-.55zm-2.4.7h.55v.65H82zm1.8 0h.55v.65h-.55zm-1.2.7h.55v.65h-.55zm.6 0h.55v.65h-.55zm1.2 0h.55v.65h-.55z"
       id="path200" />
    <path
       d="M82 64h.55v.65H82zm.6 0h.55v.65h-.55zm.6 0h.55v.65h-.55zm.6 0h.55v.65h-.55zm-1.8.7h.55v.65H82zm2.4 0h.55v.65h-.55zm-2.4.7h.55v.65H82zm2.4 0h.55v.65h-.55zm-2.4.7h.55v.65H82zm.6 0h.55v.65h-.55zm.6 0h.55v.65h-.55zm.6 0h.55v.65h-.55zm-1.8.7h.55v.65H82zm1.2 0h.55v.65h-.55zm-1.2.7h.55v.65H82zm1.8 0h.55v.65h-.55zm-1.8.7h.55v.65H82zm2.4 0h.55v.65h-.55z"
       id="path204" />
    <path
       d="M82.6 72h.55v.65h-.55zm.6 0h.55v.65h-.55zm.6 0h.55v.65h-.55zm.6 0h.55v.65h-.55zm-2.4.7h.55v.65H82zm0 .7h.55v.65H82zm.6.7h.55v.65h-.55zm.6 0h.55v.65h-.55zm.6 0h.55v.65h-.55zm.6.7h.55v.65h-.55zm0 .7h.55v.65h-.55zm-2.4.7h.55v.65H82zm.6 0h.55v.65h-.55zm.6 0h.55v.65h-.55zm.6 0h.55v.65h-.55z"
       id="path208" />
    <path
       d="M82 80h.55v.65H82zm.6 0h.55v.65h-.55zm.6 0h.55v.65h-.55zm.6 0h.55v.65h-.55zm.6 0h.55v.65h-.55zm-1.2.7h.55v.65h-.55zm0 .7h.55v.65h-.55zm0 .7h.55v.65h-.55zm0 .7h.55v.65h-.55zm0 .7h.55v.65h-.55zm0 .7h.55v.65h-.55z"
       id="path212" />
    <path
       d="M82 88h.55v.65H82zm2.4 0h.55v.65h-.55zm-2.4.7h.55v.65H82zm2.4 0h.55v.65h-.55zm-2.4.7h.55v.65H82zm2.4 0h.55v.65h-.55zm-2.4.7h.55v.65H82zm2.4 0h.55v.65h-.55zm-2.4.7h.55v.65H82zm2.4 0h.55v.65h-.55zm-2.4.7h.55v.65H82zm2.4 0h.55v.65h-.55zm-1.8.7h.55v.65h-.55zm.6 0h.55v.65h-.55zm.6 0h.55v.65h-.55z"
       id="path216" />
    <path
       d="M82 96h.55v.65H82zm2.4 0h.55v.65h-.55zm-2.4.7h.55v.65H82zm2.4 0h.55v.65h-.55zm-2.4.7h.55v.65H82zm2.4 0h.55v.65h-.55zm-2.4.7h.55v.65H82zm2.4 0h.55v.65h-.55zm-2.4.7h.55v.65H82zm2.4 0h.55v.65h-.55zm-1.8.7h.55v.65h-.55zm1.2 0h.55v.65h-.55zm-.6.7h.55v.65h-.55z"
       id="path220" />
    <path
       d="M82 104h.55v.65H82zm2.4 0h.55v.65h-.55zm-2.4.7h.55v.65H82zm2.4 0h.55v.65h-.55zm-2.4.7h.55v.65H82zm2.4 0h.55v.65h-.55zm-2.4.7h.55v.65H82zm1.2 0h.55v.65h-.55zm1.2 0h.55v.65h-.55zm-2.4.7h.55v.65H82zm1.2 0h.55v.65h-.55zm1.2 0h.55v.65h-.55zm-2.4.7h.55v.65H82zm1.2 0h.55v.65h-.55zm1.2 0h.55v.65h-.55zm-1.8.7h.55v.65h-.55zm1.2 0h.55v.65h-.55z"
       id="path224" />
    <path
       d="M106 0h.55v.65H106zm2.4 0h.55v.65h-.55zm-2.4.7h.55v.65H106zm2.4 0h.55v.65h-.55zm-1.8.7h.55v.65h-.55zm1.2 0h.55v.65h-.55zm-.6.7h.55v.65h-.55zm-.6.7h.55v.65h-.55zm1.2 0h.55v.65h-.55zm-1.8.7h.55v.65H106zm2.4 0h.55v.65h-.55zm-2.4.7h.55v.65H106zm2.4 0h.55v.65h-.55z"
       id="path228" />
    <path
       d="M106 8h.55v.65H106zm2.4 0h.55v.65h-.55zm-2.4.7h.55v.65H106zm2.4 0h.55v.65h-.55zm-2.4.7h.55v.65H106zm2.4 0h.55v.65h-.55zm-1.8.7h.55v.65h-.55zm1.2 0h.55v.65h-.55zm-.6.7h.55v.65h-.55zm0 .7h.55v.65h-.55zm0 .7h.55v.65h-.55z"
       id="path232" />
    <path
       d="M106 16h.55v.65H106zm.6 0h.55v.65h-.55zm.6 0h.55v.65h-.55zm.6 0h.55v.65h-.55zm.6 0h.55v.65h-.55zm0 .7h.55v.65h-.55zm-.6.7h.55v.65h-.55zm-.6.7h.55v.65h-.55zm-.6.7h.55v.65h-.55zm-.6.7h.55v.65H106zm0 .7h.55v.65H106zm.6 0h.55v.65h-.55zm.6 0h.55v.65h-.55zm.6 0h.55v.65h-.55zm.6 0h.55v.65h-.55z"
       id="path236" />
    <path
       d="M106 24h.55v.65H106zm.6 0h.55v.65h-.55zm.6 0h.55v.65h-.55zm-1.2.7h.55v.65H106zm0 .7h.55v.65H106zm0 .7h.55v.65H106zm0 .7h.55v.65H106zm0 .7h.55v.65H106zm0 .7h.55v.65H106zm.6 0h.55v.65h-.55zm.6 0h.55v.65h-.55z"
       id="path240" />
    <path
       d="M106 32h.55v.65H106zm2.4 0h.55v.65h-.55zm-1.8.7h.55v.65h-.55zm1.2 0h.55v.65h-.55zm-1.8.7h.55v.65H106zm.6 0h.55v.65h-.55zm.6 0h.55v.65h-.55zm.6 0h.55v.65h-.55zm.6 0h.55v.65h-.55zm-1.2.7h.55v.65h-.55zm-1.2.7h.55v.65H106zm.6 0h.55v.65h-.55zm.6 0h.55v.65h-.55zm.6 0h.55v.65h-.55zm.6 0h.55v.65h-.55zm-1.2.7h.55v.65h-.55zm0 .7h.55v.65h-.55z"
       id="path244" />
    <path
       d="M106.6 40h.55v.65h-.55zm.6 0h.55v.65h-.55zm.6 0h.55v.65h-.55zm0 .7h.55v.65h-.55zm0 .7h.55v.65h-.55zm0 .7h.55v.65h-.55zm0 .7h.55v.65h-.55zm0 .7h.55v.65h-.55zm-1.2.7h.55v.65h-.55zm.6 0h.55v.65h-.55zm.6 0h.55v.65h-.55z"
       id="path248" />
    <path
       d="M107.2 48h.55v.65h-.55zm-.6.7h.55v.65h-.55zm1.2 0h.55v.65h-.55zm-1.8.7h.55v.65H106zm2.4 0h.55v.65h-.55z"
       id="path252" />
    <path
       d="M106 60.2h.55v.65H106zm.6 0h.55v.65h-.55zm.6 0h.55v.65h-.55zm.6 0h.55v.65h-.55zm.6 0h.55v.65h-.55z"
       id="path256" />
    <path
       d="M106.6 64h.55v.65h-.55zm.6.7h.55v.65h-.55zm.6.7h.55v.65h-.55z"
       id="path260" />
    <path
       d="M106.6 73.4h.55v.65h-.55zm.6 0h.55v.65h-.55zm.6 0h.55v.65h-.55zm.6.7h.55v.65h-.55zm-1.8.7h.55v.65h-.55zm.6 0h.55v.65h-.55zm.6 0h.55v.65h-.55zm.6 0h.55v.65h-.55zm-2.4.7h.55v.65H106zm2.4 0h.55v.65h-.55zm-1.8.7h.55v.65h-.55zm.6 0h.55v.65h-.55zm.6 0h.55v.65h-.55zm.6 0h.55v.65h-.55z"
       id="path264" />
    <path
       d="M106 80h.55v.65H106zm0 .7h.55v.65H106zm0 .7h.55v.65H106zm1.2 0h.55v.65h-.55zm.6 0h.55v.65h-.55zm-1.8.7h.55v.65H106zm.6 0h.55v.65h-.55zm1.8 0h.55v.65h-.55zm-2.4.7h.55v.65H106zm2.4 0h.55v.65h-.55zm-2.4.7h.55v.65H106zm2.4 0h.55v.65h-.55zm-2.4.7h.55v.65H106zm.6 0h.55v.65h-.55zm.6 0h.55v.65h-.55zm.6 0h.55v.65h-.55z"
       id="path268" />
    <path
       d="M106.6 89.4h.55v.65h-.55zm.6 0h.55v.65h-.55zm.6 0h.55v.65h-.55zm-1.8.7h.55v.65H106zm0 .7h.55v.65H106zm0 .7h.55v.65H106zm2.4 0h.55v.65h-.55zm-1.8.7h.55v.65h-.55zm.6 0h.55v.65h-.55zm.6 0h.55v.65h-.55z"
       id="path272" />
    <path
       d="M108.4 96h.55v.65h-.55zm0 .7h.55v.65h-.55zm-1.8.7h.55v.65h-.55zm.6 0h.55v.65h-.55zm1.2 0h.55v.65h-.55zm-2.4.7h.55v.65H106zm1.8 0h.55v.65h-.55zm.6 0h.55v.65h-.55zm-2.4.7h.55v.65H106zm2.4 0h.55v.65h-.55zm-2.4.7h.55v.65H106zm2.4 0h.55v.65h-.55zm-1.8.7h.55v.65h-.55zm.6 0h.55v.65h-.55zm.6 0h.55v.65h-.55zm.6 0h.55v.65h-.55z"
       id="path276" />
    <path
       d="M106.6 105.4h.55v.65h-.55zm.6 0h.55v.65h-.55zm.6 0h.55v.65h-.55zm-1.8.7h.55v.65H106zm2.4 0h.55v.65h-.55zm-2.4.7h.55v.65H106zm.6 0h.55v.65h-.55zm.6 0h.55v.65h-.55zm.6 0h.55v.65h-.55zm.6 0h.55v.65h-.55zm-2.4.7h.55v.65H106zm.6.7h.55v.65h-.55zm.6 0h.55v.65h-.55zm.6 0h.55v.65h-.55z"
       id="path280" />
    <path
       d="M131.2 0h.55v.65h-.55zm.6 0h.55v.65h-.55zm-1.2.7h.55v.65h-.55zm1.8 0h.55v.65h-.55zm-1.8.7h.55v.65h-.55zm-.6.7h.55v.65H130zm.6 0h.55v.65h-.55zm.6 0h.55v.65h-.55zm-.6.7h.55v.65h-.55zm0 .7h.55v.65h-.55zm0 .7h.55v.65h-.55z"
       id="path284" />
    <path
       d="M130.6 8.7h.55v.65h-.55zm.6 0h.55v.65h-.55zm.6 0h.55v.65h-.55zm.6 0h.55v.65h-.55zm-2.4.7h.55v.65H130zm2.4 0h.55v.65h-.55zm-2.4.7h.55v.65H130zm2.4 0h.55v.65h-.55zm-1.8.7h.55v.65h-.55zm.6 0h.55v.65h-.55zm.6 0h.55v.65h-.55zm.6 0h.55v.65h-.55zm0 .7h.55v.65h-.55zm-1.8.7h.55v.65h-.55zm.6 0h.55v.65h-.55zm.6 0h.55v.65h-.55z"
       id="path288" />
    <path
       d="M130 16h.55v.65H130zm0 .7h.55v.65H130zm0 .7h.55v.65H130zm1.2 0h.55v.65h-.55zm.6 0h.55v.65h-.55zm-1.8.7h.55v.65H130zm.6 0h.55v.65h-.55zm1.8 0h.55v.65h-.55zm-2.4.7h.55v.65H130zm2.4 0h.55v.65h-.55zm-2.4.7h.55v.65H130zm2.4 0h.55v.65h-.55zm-2.4.7h.55v.65H130zm2.4 0h.55v.65h-.55z"
       id="path292" />
    <path
       d="M131.2 24h.55v.65h-.55zm-.6 1.4h.55v.65h-.55zm.6 0h.55v.65h-.55zm0 .7h.55v.65h-.55zm0 .7h.55v.65h-.55zm0 .7h.55v.65h-.55zm-.6.7h.55v.65h-.55zm.6 0h.55v.65h-.55zm.6 0h.55v.65h-.55z"
       id="path296" />
    <path
       d="M131.8 32h.55v.65h-.55zm-.6 1.4h.55v.65h-.55zm.6 0h.55v.65h-.55zm0 .7h.55v.65h-.55zm0 .7h.55v.65h-.55zm-1.8.7h.55v.65H130zm1.8 0h.55v.65h-.55zm-1.2.7h.55v.65h-.55zm.6 0h.55v.65h-.55z"
       id="path300" />
    <path
       d="M130 40h.55v.65H130zm0 .7h.55v.65H130zm0 .7h.55v.65H130zm1.8 0h.55v.65h-.55zm-1.8.7h.55v.65H130zm1.2 0h.55v.65h-.55zm-1.2.7h.55v.65H130zm.6 0h.55v.65h-.55zm-.6.7h.55v.65H130zm1.2 0h.55v.65h-.55zm-1.2.7h.55v.65H130zm1.8 0h.55v.65h-.55z"
       id="path304" />
    <path
       d="M130.6 48h.55v.65h-.55zm.6 0h.55v.65h-.55zm0 .7h.55v.65h-.55zm0 .7h.55v.65h-.55zm0 .7h.55v.65h-.55zm0 .7h.55v.65h-.55zm0 .7h.55v.65h-.55zm-.6.7h.55v.65h-.55zm.6 0h.55v.65h-.55zm.6 0h.55v.65h-.55z"
       id="path308" />
    <path
       d="M130 57.4h.55v.65H130zm.6 0h.55v.65h-.55zm1.2 0h.55v.65h-.55zm-1.8.7h.55v.65H130zm1.2 0h.55v.65h-.55zm1.2 0h.55v.65h-.55zm-2.4.7h.55v.65H130zm1.2 0h.55v.65h-.55zm1.2 0h.55v.65h-.55zm-2.4.7h.55v.65H130zm2.4 0h.55v.65h-.55zm-2.4.7h.55v.65H130zm2.4 0h.55v.65h-.55z"
       id="path312" />
    <path
       d="M130 65.4h.55v.65H130zm1.2 0h.55v.65h-.55zm.6 0h.55v.65h-.55zm-1.8.7h.55v.65H130zm.6 0h.55v.65h-.55zm1.8 0h.55v.65h-.55zm-2.4.7h.55v.65H130zm2.4 0h.55v.65h-.55zm-2.4.7h.55v.65H130zm2.4 0h.55v.65h-.55zm-2.4.7h.55v.65H130zm2.4 0h.55v.65h-.55z"
       id="path316" />
    <path
       d="M130.6 73.4h.55v.65h-.55zm.6 0h.55v.65h-.55zm.6 0h.55v.65h-.55zm-1.8.7h.55v.65H130zm2.4 0h.55v.65h-.55zm-2.4.7h.55v.65H130zm2.4 0h.55v.65h-.55zm-2.4.7h.55v.65H130zm2.4 0h.55v.65h-.55zm-1.8.7h.55v.65h-.55zm.6 0h.55v.65h-.55zm.6 0h.55v.65h-.55z"
       id="path320" />
    <path
       d="M130 81.4h.55v.65H130zm.6 0h.55v.65h-.55zm.6 0h.55v.65h-.55zm.6 0h.55v.65h-.55zm-1.8.7h.55v.65H130zm2.4 0h.55v.65h-.55zm-2.4.7h.55v.65H130zm.6 0h.55v.65h-.55zm.6 0h.55v.65h-.55zm.6 0h.55v.65h-.55zm-1.8.7h.55v.65H130zm0 .7h.55v.65H130z"
       id="path324" />
    <path
       d="M130.6 89.4h.55v.65h-.55zm.6 0h.55v.65h-.55zm1.2 0h.55v.65h-.55zm-2.4.7h.55v.65H130zm1.8 0h.55v.65h-.55zm.6 0h.55v.65h-.55zm-1.8.7h.55v.65h-.55zm.6 0h.55v.65h-.55zm.6 0h.55v.65h-.55zm.6 0h.55v.65h-.55zm0 .7h.55v.65h-.55zm0 .7h.55v.65h-.55z"
       id="path328" />
    <path
       d="M130 97.4h.55v.65H130zm1.2 0h.55v.65h-.55zm.6 0h.55v.65h-.55zm-1.8.7h.55v.65H130zm.6 0h.55v.65h-.55zm1.8 0h.55v.65h-.55zm-2.4.7h.55v.65H130zm0 .7h.55v.65H130zm0 .7h.55v.65H130z"
       id="path332" />
    <path
       d="M130.6 105.4h.55v.65h-.55zm.6 0h.55v.65h-.55zm.6 0h.55v.65h-.55zm-1.8.7h.55v.65H130zm.6.7h.55v.65h-.55zm.6 0h.55v.65h-.55zm.6 0h.55v.65h-.55zm.6.7h.55v.65h-.55zm-2.4.7h.55v.65H130zm.6 0h.55v.65h-.55zm.6 0h.55v.65h-.55zm.6 0h.55v.65h-.55z"
       id="path336" />
    <path
       d="M154.6 0h.55v.65h-.55zm0 .7h.55v.65h-.55zm-.6.7h.55v.65H154zm.6 0h.55v.65h-.55zm.6 0h.55v.65h-.55zm-.6.7h.55v.65h-.55zm0 .7h.55v.65h-.55zm0 .7h.55v.65h-.55zm1.8 0h.55v.65h-.55zm-1.2.7h.55v.65h-.55zm.6 0h.55v.65h-.55z"
       id="path340" />
    <path
       d="M154 9.4h.55v.65H154zm2.4 0h.55v.65h-.55zm-2.4.7h.55v.65H154zm2.4 0h.55v.65h-.55zm-2.4.7h.55v.65H154zm2.4 0h.55v.65h-.55zm-2.4.7h.55v.65H154zm1.8 0h.55v.65h-.55zm.6 0h.55v.65h-.55zm-1.8.7h.55v.65h-.55zm.6 0h.55v.65h-.55zm1.2 0h.55v.65h-.55z"
       id="path344" />
    <path
       d="M154 17.4h.55v.65H154zm2.4 0h.55v.65h-.55zm-2.4.7h.55v.65H154zm2.4 0h.55v.65h-.55zm-2.4.7h.55v.65H154zm2.4 0h.55v.65h-.55zm-1.8.7h.55v.65h-.55zm1.2 0h.55v.65h-.55zm-.6.7h.55v.65h-.55z"
       id="path348" />
    <path
       d="M154 25.4h.55v.65H154zm2.4 0h.55v.65h-.55zm-2.4.7h.55v.65H154zm1.2 0h.55v.65h-.55zm1.2 0h.55v.65h-.55zm-2.4.7h.55v.65H154zm1.2 0h.55v.65h-.55zm1.2 0h.55v.65h-.55zm-2.4.7h.55v.65H154zm1.2 0h.55v.65h-.55zm1.2 0h.55v.65h-.55zm-1.8.7h.55v.65h-.55zm1.2 0h.55v.65h-.55z"
       id="path352" />
    <path
       d="M154 33.4h.55v.65H154zm2.4 0h.55v.65h-.55zm-1.8.7h.55v.65h-.55zm1.2 0h.55v.65h-.55zm-.6.7h.55v.65h-.55zm-.6.7h.55v.65h-.55zm1.2 0h.55v.65h-.55zm-1.8.7h.55v.65H154zm2.4 0h.55v.65h-.55z"
       id="path356" />
    <path
       d="M154 41.4h.55v.65H154zm2.4 0h.55v.65h-.55zm-2.4.7h.55v.65H154zm2.4 0h.55v.65h-.55zm-1.8.7h.55v.65h-.55zm.6 0h.55v.65h-.55zm.6 0h.55v.65h-.55zm.6 0h.55v.65h-.55zm0 .7h.55v.65h-.55zm-1.8.7h.55v.65h-.55zm.6 0h.55v.65h-.55zm.6 0h.55v.65h-.55z"
       id="path360" />
    <path
       d="M154 49.4h.55v.65H154zm.6 0h.55v.65h-.55zm.6 0h.55v.65h-.55zm.6 0h.55v.65h-.55zm.6 0h.55v.65h-.55zm-.6.7h.55v.65h-.55zm-.6.7h.55v.65h-.55zm-.6.7h.55v.65h-.55zm-.6.7h.55v.65H154zm.6 0h.55v.65h-.55zm.6 0h.55v.65h-.55zm.6 0h.55v.65h-.55zm.6 0h.55v.65h-.55z"
       id="path364" />
    <path
       d="M155.8 56h.55v.65h-.55zm-.6.7h.55v.65h-.55zm0 .7h.55v.65h-.55zm-.6.7h.55v.65h-.55zm.6.7h.55v.65h-.55zm0 .7h.55v.65h-.55zm.6.7h.55v.65h-.55z"
       id="path368" />
    <path
       d="M155.2 64h.55v.65h-.55zm0 .7h.55v.65h-.55zm0 .7h.55v.65h-.55zm0 .7h.55v.65h-.55zm0 .7h.55v.65h-.55zm0 .7h.55v.65h-.55zm0 .7h.55v.65h-.55z"
       id="path372" />
    <path
       d="M154.6 72h.55v.65h-.55zm.6.7h.55v.65h-.55zm0 .7h.55v.65h-.55zm.6.7h.55v.65h-.55zm-.6.7h.55v.65h-.55zm0 .7h.55v.65h-.55zm-.6.7h.55v.65h-.55z"
       id="path376" />
    <path
       d="M155.2 80.7h.55v.65h-.55zm.6.7h.55v.65h-.55zm-1.8.7h.55v.65H154zm.6 0h.55v.65h-.55zm.6 0h.55v.65h-.55zm.6 0h.55v.65h-.55zm.6 0h.55v.65h-.55zm-.6.7h.55v.65h-.55zm-.6.7h.55v.65h-.55z"
       id="path380" />
    <path
       d="M155.2 88.7h.55v.65h-.55zm-.6.7h.55v.65h-.55zm-.6.7h.55v.65H154zm.6 0h.55v.65h-.55zm.6 0h.55v.65h-.55zm.6 0h.55v.65h-.55zm.6 0h.55v.65h-.55zm-1.8.7h.55v.65h-.55zm.6.7h.55v.65h-.55z"
       id="path384" />
  </g>
</svg>
