<svg xmlns="http://www.w3.org/2000/svg" width="160mm" height="110mm" viewBox="0 0 160 110">
  <style>
    path {
      fill:#00f;
    }
    text {
      font-size:5px;
      text-anchor:end;
    }
  </style>
  <text x="7" y="4">160</text>
  <text x="7" y="12">161</text>
  <path d="M10 10.8h.55v.65H10zm.6 0h.55v.65h-.55zm.6 0h.55v.65h-.55zm-1.2.7h.55v.65H10zm1.2 0h.55v.65h-.55zm-1.2.7h.55v.65H10zm.6 0h.55v.65h-.55zm.6 0h.55v.65h-.55z"/>
  <text x="7" y="20">162</text>
  <path d="M11.2 16h.55v.65h-.55zm.6 0h.55v.65h-.55zm.6 0h.55v.65h-.55zm-1.2.7h.55v.65h-.55zm0 .7h.55v.65h-.55zm0 .7h.55v.65h-.55z"/>
  <text x="7" y="28">163</text>
  <path d="M11.2 26.1h.55v.65h-.55zm0 .7h.55v.65h-.55zm0 .7h.55v.65h-.55zm-1.2.7h.55v.65H10zm.6 0h.55v.65h-.55zm.6 0h.55v.65h-.55z"/>
  <text x="7" y="36">164</text>
  <path d="M10 34.8h.55v.65H10zm.6.7h.55v.65h-.55zm.6.7h.55v.65h-.55z"/>
  <text x="7" y="44">165</text>
  <path d="M10.6 42.1h.55v.65h-.55zm.6 0h.55v.65h-.55zm-.6.7h.55v.65h-.55zm.6 0h.55v.65h-.55z"/>
  <text x="7" y="52">166</text>
  <path d="M10 48.7h.55v.65H10zm.6 0h.55v.65h-.55zm.6 0h.55v.65h-.55zm.6 0h.55v.65h-.55zm.6 0h.55v.65h-.55zm0 .7h.55v.65h-.55zm-2.4.7h.55v.65H10zm.6 0h.55v.65h-.55zm.6 0h.55v.65h-.55zm.6 0h.55v.65h-.55zm.6 0h.55v.65h-.55zm0 .7h.55v.65h-.55zm-.6.7h.55v.65h-.55zm-.6.7h.55v.65h-.55z"/>
  <text x="7" y="60">167</text>
  <path d="M10 57.4h.55v.65H10zm.6 0h.55v.65h-.55zm.6 0h.55v.65h-.55zm.6 0h.55v.65h-.55zm.6 0h.55v.65h-.55zm0 .7h.55v.65h-.55zm-1.2.7h.55v.65h-.55zm.6 0h.55v.65h-.55zm-.6.7h.55v.65h-.55zm-.6.7h.55v.65h-.55z"/>
  <text x="7" y="68">168</text>
  <path d="M11.8 65.4h.55v.65h-.55zm-.6.7h.55v.65h-.55zm-.6.7h.55v.65h-.55zm.6 0h.55v.65h-.55zm-1.2.7h.55v.65H10zm1.2 0h.55v.65h-.55zm0 .7h.55v.65h-.55z"/>
  <text x="7" y="76">169</text>
  <path d="M11.2 73.4h.55v.65h-.55zm-1.2.7h.55v.65H10zm.6 0h.55v.65h-.55zm.6 0h.55v.65h-.55zm.6 0h.55v.65h-.55zm.6 0h.55v.65h-.55zm-2.4.7h.55v.65H10zm2.4 0h.55v.65h-.55zm0 .7h.55v.65h-.55zm-1.2.7h.55v.65h-.55zm.6 0h.55v.65h-.55z"/>
  <text x="7" y="84">170</text>
  <path d="M10 81.4h.55v.65H10zm.6 0h.55v.65h-.55zm.6 0h.55v.65h-.55zm.6 0h.55v.65h-.55zm.6 0h.55v.65h-.55zm-1.2.7h.55v.65h-.55zm0 .7h.55v.65h-.55zm0 .7h.55v.65h-.55zm-1.2.7h.55v.65H10zm.6 0h.55v.65h-.55zm.6 0h.55v.65h-.55zm.6 0h.55v.65h-.55zm.6 0h.55v.65h-.55z"/>
  <text x="7" y="92">171</text>
  <path d="M11.8 89.4h.55v.65h-.55zm-1.8.7h.55v.65H10zm.6 0h.55v.65h-.55zm.6 0h.55v.65h-.55zm.6 0h.55v.65h-.55zm.6 0h.55v.65h-.55zm-1.2.7h.55v.65h-.55zm.6 0h.55v.65h-.55zm-1.2.7h.55v.65h-.55zm1.2 0h.55v.65h-.55zm-1.8.7h.55v.65H10zm1.8 0h.55v.65h-.55z"/>
  <text x="7" y="100">172</text>
  <path d="M10.6 97.4h.55v.65h-.55zm-.6.7h.55v.65H10zm.6 0h.55v.65h-.55zm.6 0h.55v.65h-.55zm.6 0h.55v.65h-.55zm.6 0h.55v.65h-.55zm-1.8.7h.55v.65h-.55zm1.8 0h.55v.65h-.55zm-1.8.7h.55v.65h-.55zm1.2 0h.55v.65h-.55zm-1.2.7h.55v.65h-.55z"/>
  <text x="7" y="108">173</text>
  <path d="M10.6 106.1h.55v.65h-.55zm.6 0h.55v.65h-.55zm.6 0h.55v.65h-.55zm0 .7h.55v.65h-.55zm0 .7h.55v.65h-.55zm-1.8.7h.55v.65H10zm.6 0h.55v.65h-.55zm.6 0h.55v.65h-.55zm.6 0h.55v.65h-.55zm.6 0h.55v.65h-.55z"/>
  <text x="31" y="4">174</text>
  <path d="M34 1.4h.55v.65H34zm.6 0h.55v.65h-.55zm.6 0h.55v.65h-.55zm.6 0h.55v.65h-.55zm0 .7h.55v.65h-.55zm-1.8.7h.55v.65H34zm.6 0h.55v.65h-.55zm.6 0h.55v.65h-.55zm.6 0h.55v.65h-.55zm0 .7h.55v.65h-.55zm-1.8.7h.55v.65H34zm.6 0h.55v.65h-.55zm.6 0h.55v.65h-.55zm.6 0h.55v.65h-.55z"/>
  <text x="31" y="12">175</text>
  <path d="M34 10.1h.55v.65H34zm1.2 0h.55v.65h-.55zm1.2 0h.55v.65h-.55zm-2.4.7h.55v.65H34zm1.2 0h.55v.65h-.55zm1.2 0h.55v.65h-.55zm0 .7h.55v.65h-.55zm-1.2.7h.55v.65h-.55zm.6 0h.55v.65h-.55z"/>
  <text x="31" y="20">176</text>
  <path d="M34 18.1h.55v.65H34zm.6 0h.55v.65h-.55zm.6 0h.55v.65h-.55zm.6 0h.55v.65h-.55zm.6 0h.55v.65h-.55z"/>
  <text x="31" y="28">177</text>
  <path d="M34 24h.55v.65H34zm.6 0h.55v.65h-.55zm.6 0h.55v.65h-.55zm.6 0h.55v.65h-.55zm.6 0h.55v.65h-.55zm0 .7h.55v.65h-.55zm-1.2.7h.55v.65h-.55zm1.2 0h.55v.65h-.55zm-1.2.7h.55v.65h-.55zm.6 0h.55v.65h-.55zm-.6.7h.55v.65h-.55zm0 .7h.55v.65h-.55zm-.6.7h.55v.65h-.55z"/>
  <text x="31" y="36">178</text>
  <path d="M36.4 32h.55v.65h-.55zm-.6.7h.55v.65h-.55zm-.6.7h.55v.65h-.55zm-.6.7h.55v.65h-.55zm.6 0h.55v.65h-.55zm-1.2.7h.55v.65H34zm1.2 0h.55v.65h-.55zm0 .7h.55v.65h-.55zm0 .7h.55v.65h-.55z"/>
  <text x="31" y="44">179</text>
  <path d="M35.2 40h.55v.65h-.55zm-1.2.7h.55v.65H34zm.6 0h.55v.65h-.55zm.6 0h.55v.65h-.55zm.6 0h.55v.65h-.55zm.6 0h.55v.65h-.55zm-2.4.7h.55v.65H34zm2.4 0h.55v.65h-.55zm-2.4.7h.55v.65H34zm2.4 0h.55v.65h-.55zm0 .7h.55v.65h-.55zm-.6.7h.55v.65h-.55zm-.6.7h.55v.65h-.55z"/>
  <text x="31" y="52">180</text>
  <path d="M34 48.7h.55v.65H34zm.6 0h.55v.65h-.55zm.6 0h.55v.65h-.55zm.6 0h.55v.65h-.55zm.6 0h.55v.65h-.55zm-1.2.7h.55v.65h-.55zm0 .7h.55v.65h-.55zm0 .7h.55v.65h-.55zm0 .7h.55v.65h-.55zm-1.2.7h.55v.65H34zm.6 0h.55v.65h-.55zm.6 0h.55v.65h-.55zm.6 0h.55v.65h-.55zm.6 0h.55v.65h-.55z"/>
  <text x="31" y="60">181</text>
  <path d="M35.8 56h.55v.65h-.55zm-1.8.7h.55v.65H34zm.6 0h.55v.65h-.55zm.6 0h.55v.65h-.55zm.6 0h.55v.65h-.55zm.6 0h.55v.65h-.55zm-.6.7h.55v.65h-.55zm-.6.7h.55v.65h-.55zm.6 0h.55v.65h-.55zm-1.2.7h.55v.65h-.55zm1.2 0h.55v.65h-.55zm-1.8.7h.55v.65H34zm1.8 0h.55v.65h-.55zm0 .7h.55v.65h-.55z"/>
  <text x="31" y="68">182</text>
  <path d="M34.6 64h.55v.65h-.55zm-.6.7h.55v.65H34zm.6 0h.55v.65h-.55zm.6 0h.55v.65h-.55zm.6 0h.55v.65h-.55zm.6 0h.55v.65h-.55zm-1.8.7h.55v.65h-.55zm1.8 0h.55v.65h-.55zm-1.8.7h.55v.65h-.55zm1.8 0h.55v.65h-.55zm-1.8.7h.55v.65h-.55zm1.8 0h.55v.65h-.55zm-1.8.7h.55v.65h-.55zm1.8 0h.55v.65h-.55zm-2.4.7h.55v.65H34zm1.8 0h.55v.65h-.55z"/>
  <text x="31" y="76">183</text>
  <path d="M35.2 72h.55v.65h-.55zm-1.2.7h.55v.65H34zm.6 0h.55v.65h-.55zm.6 0h.55v.65h-.55zm.6 0h.55v.65h-.55zm.6 0h.55v.65h-.55zm-1.2.7h.55v.65h-.55zm-1.2.7h.55v.65H34zm.6 0h.55v.65h-.55zm.6 0h.55v.65h-.55zm.6 0h.55v.65h-.55zm.6 0h.55v.65h-.55zm-1.2.7h.55v.65h-.55zm0 .7h.55v.65h-.55zm0 .7h.55v.65h-.55z"/>
  <text x="31" y="84">184</text>
  <path d="M34.6 80.7h.55v.65h-.55zm.6 0h.55v.65h-.55zm.6 0h.55v.65h-.55zm.6 0h.55v.65h-.55zm-1.8.7h.55v.65h-.55zm1.8 0h.55v.65h-.55zm-2.4.7h.55v.65H34zm2.4 0h.55v.65h-.55zm0 .7h.55v.65h-.55zm-.6.7h.55v.65h-.55zm-1.2.7h.55v.65h-.55zm.6 0h.55v.65h-.55z"/>
  <text x="31" y="92">185</text>
  <path d="M34.6 88h.55v.65h-.55zm0 .7h.55v.65h-.55zm.6 0h.55v.65h-.55zm.6 0h.55v.65h-.55zm.6 0h.55v.65h-.55zm-2.4.7h.55v.65H34zm1.8 0h.55v.65h-.55zm0 .7h.55v.65h-.55zm0 .7h.55v.65h-.55zm0 .7h.55v.65h-.55zm-.6.7h.55v.65h-.55z"/>
  <text x="31" y="100">186</text>
  <path d="M34 96.7h.55v.65H34zm.6 0h.55v.65h-.55zm.6 0h.55v.65h-.55zm.6 0h.55v.65h-.55zm.6 0h.55v.65h-.55zm0 .7h.55v.65h-.55zm0 .7h.55v.65h-.55zm0 .7h.55v.65h-.55zm0 .7h.55v.65h-.55zm-2.4.7h.55v.65H34zm.6 0h.55v.65h-.55zm.6 0h.55v.65h-.55zm.6 0h.55v.65h-.55zm.6 0h.55v.65h-.55z"/>
  <text x="31" y="108">187</text>
  <path d="M34.6 104h.55v.65h-.55zm1.2 0h.55v.65h-.55zm-1.8.7h.55v.65H34zm.6 0h.55v.65h-.55zm.6 0h.55v.65h-.55zm.6 0h.55v.65h-.55zm.6 0h.55v.65h-.55zm-1.8.7h.55v.65h-.55zm1.2 0h.55v.65h-.55zm-1.2.7h.55v.65h-.55zm1.2 0h.55v.65h-.55zm0 .7h.55v.65h-.55zm-.6.7h.55v.65h-.55zm-.6.7h.55v.65h-.55z"/>
  <text x="55" y="4">188</text>
  <path d="M58 .7h.55v.65H58zm.6 0h.55v.65h-.55zm1.8.7h.55v.65h-.55zm-2.4.7h.55v.65H58zm.6 0h.55v.65h-.55zm1.8 0h.55v.65h-.55zm0 .7h.55v.65h-.55zm-.6.7h.55v.65h-.55zm-1.8.7h.55v.65H58zm.6 0h.55v.65h-.55zm.6 0h.55v.65h-.55z"/>
  <text x="55" y="12">189</text>
  <path d="M58 8.7h.55v.65H58zm.6 0h.55v.65h-.55zm.6 0h.55v.65h-.55zm.6 0h.55v.65h-.55zm.6 0h.55v.65h-.55zm0 .7h.55v.65h-.55zm-.6.7h.55v.65h-.55zm-.6.7h.55v.65h-.55zm-.6.7h.55v.65h-.55zm1.2 0h.55v.65h-.55zm-1.8.7h.55v.65H58zm2.4 0h.55v.65h-.55z"/>
  <text x="55" y="20">190</text>
  <path d="M58.6 16h.55v.65h-.55zm-.6.7h.55v.65H58zm.6 0h.55v.65h-.55zm.6 0h.55v.65h-.55zm.6 0h.55v.65h-.55zm.6 0h.55v.65h-.55zm-1.8.7h.55v.65h-.55zm1.8 0h.55v.65h-.55zm-1.8.7h.55v.65h-.55zm1.2 0h.55v.65h-.55zm-1.2.7h.55v.65h-.55zm0 .7h.55v.65h-.55zm.6.7h.55v.65h-.55zm.6 0h.55v.65h-.55zm.6 0h.55v.65h-.55z"/>
  <text x="55" y="28">191</text>
  <path d="M58 24.7h.55v.65H58zm2.4 0h.55v.65h-.55zm-2.4.7h.55v.65H58zm2.4 0h.55v.65h-.55zm-1.8.7h.55v.65h-.55zm1.8 0h.55v.65h-.55zm0 .7h.55v.65h-.55zm-.6.7h.55v.65h-.55zm-1.2.7h.55v.65h-.55zm.6 0h.55v.65h-.55z"/>
  <text x="55" y="36">192</text>
  <path d="M58.6 32.7h.55v.65h-.55zm.6 0h.55v.65h-.55zm.6 0h.55v.65h-.55zm.6 0h.55v.65h-.55zm-1.8.7h.55v.65h-.55zm1.8 0h.55v.65h-.55zm-2.4.7h.55v.65H58zm1.2 0h.55v.65h-.55zm1.2 0h.55v.65h-.55zm-.6.7h.55v.65h-.55zm.6 0h.55v.65h-.55zm-.6.7h.55v.65h-.55zm-1.2.7h.55v.65h-.55zm.6 0h.55v.65h-.55z"/>
  <text x="55" y="44">193</text>
  <path d="M59.8 40h.55v.65h-.55zm-1.8.7h.55v.65H58zm.6 0h.55v.65h-.55zm.6 0h.55v.65h-.55zm0 .7h.55v.65h-.55zm-1.2.7h.55v.65H58zm.6 0h.55v.65h-.55zm.6 0h.55v.65h-.55zm.6 0h.55v.65h-.55zm.6 0h.55v.65h-.55zm-1.2.7h.55v.65h-.55zm0 .7h.55v.65h-.55zm-.6.7h.55v.65h-.55z"/>
  <text x="55" y="52">194</text>
  <path d="M58 48.7h.55v.65H58zm1.2 0h.55v.65h-.55zm1.2 0h.55v.65h-.55zm-2.4.7h.55v.65H58zm1.2 0h.55v.65h-.55zm1.2 0h.55v.65h-.55zm-2.4.7h.55v.65H58zm1.2 0h.55v.65h-.55zm1.2 0h.55v.65h-.55zm0 .7h.55v.65h-.55zm-.6.7h.55v.65h-.55zm-.6.7h.55v.65h-.55z"/>
  <text x="55" y="60">195</text>
  <path d="M58.6 56h.55v.65h-.55zm.6 0h.55v.65h-.55zm.6 0h.55v.65h-.55zM58 57.4h.55v.65H58zm.6 0h.55v.65h-.55zm.6 0h.55v.65h-.55zm.6 0h.55v.65h-.55zm.6 0h.55v.65h-.55zm-1.2.7h.55v.65h-.55zm0 .7h.55v.65h-.55zm0 .7h.55v.65h-.55zm-.6.7h.55v.65h-.55z"/>
  <text x="55" y="68">196</text>
  <path d="M58.6 64h.55v.65h-.55zm0 .7h.55v.65h-.55zm0 .7h.55v.65h-.55zm0 .7h.55v.65h-.55zm.6 0h.55v.65h-.55zm-.6.7h.55v.65h-.55zm1.2 0h.55v.65h-.55zm-1.2.7h.55v.65h-.55zm0 .7h.55v.65h-.55z"/>
  <text x="55" y="76">197</text>
  <path d="M59.2 72h.55v.65h-.55zm0 .7h.55v.65h-.55zm-1.2.7h.55v.65H58zm.6 0h.55v.65h-.55zm.6 0h.55v.65h-.55zm.6 0h.55v.65h-.55zm.6 0h.55v.65h-.55zm-1.2.7h.55v.65h-.55zm0 .7h.55v.65h-.55zm-.6.7h.55v.65h-.55zm-.6.7h.55v.65H58z"/>
  <text x="55" y="84">198</text>
  <path d="M58.6 80.7h.55v.65h-.55zm.6 0h.55v.65h-.55zm.6 0h.55v.65h-.55zM58 84.2h.55v.65H58zm.6 0h.55v.65h-.55zm.6 0h.55v.65h-.55zm.6 0h.55v.65h-.55zm.6 0h.55v.65h-.55z"/>
  <text x="55" y="92">199</text>
  <path d="M58 88.7h.55v.65H58zm.6 0h.55v.65h-.55zm.6 0h.55v.65h-.55zm.6 0h.55v.65h-.55zm.6 0h.55v.65h-.55zm0 .7h.55v.65h-.55zm-1.8.7h.55v.65h-.55zm1.2 0h.55v.65h-.55zm-.6.7h.55v.65h-.55zm-.6.7h.55v.65h-.55zm1.2 0h.55v.65h-.55zm-1.8.7h.55v.65H58z"/>
  <text x="55" y="100">200</text>
  <path d="M59.2 96h.55v.65h-.55zm-1.2.7h.55v.65H58zm.6 0h.55v.65h-.55zm.6 0h.55v.65h-.55zm.6 0h.55v.65h-.55zm.6 0h.55v.65h-.55zm-.6.7h.55v.65h-.55zm-.6.7h.55v.65h-.55zm-.6.7h.55v.65h-.55zm.6 0h.55v.65h-.55zm.6 0h.55v.65h-.55zm-1.8.7h.55v.65H58zm1.2 0h.55v.65h-.55zm1.2 0h.55v.65h-.55zm-1.2.7h.55v.65h-.55z"/>
  <text x="55" y="108">201</text>
  <path d="M59.8 104h.55v.65h-.55zm0 .7h.55v.65h-.55zm0 .7h.55v.65h-.55zm0 .7h.55v.65h-.55zm0 .7h.55v.65h-.55zm-.6.7h.55v.65h-.55zm-.6.7h.55v.65h-.55z"/>
  <text x="79" y="4">202</text>
  <path d="M83.2.7h.55v.65h-.55zm.6.7h.55v.65h-.55zm-1.8.7h.55v.65H82zm2.4 0h.55v.65h-.55zm-2.4.7h.55v.65H82zm2.4 0h.55v.65h-.55zm-2.4.7h.55v.65H82zm2.4 0h.55v.65h-.55zm-2.4.7h.55v.65H82zm2.4 0h.55v.65h-.55z"/>
  <text x="79" y="12">203</text>
  <path d="M82 8h.55v.65H82zm0 .7h.55v.65H82zm0 .7h.55v.65H82zm.6 0h.55v.65h-.55zm.6 0h.55v.65h-.55zm.6 0h.55v.65h-.55zm.6 0h.55v.65h-.55zm-2.4.7h.55v.65H82zm0 .7h.55v.65H82zm0 .7h.55v.65H82zm.6.7h.55v.65h-.55zm.6 0h.55v.65h-.55zm.6 0h.55v.65h-.55zm.6 0h.55v.65h-.55z"/>
  <text x="79" y="20">204</text>
  <path d="M82 16.7h.55v.65H82zm.6 0h.55v.65h-.55zm.6 0h.55v.65h-.55zm.6 0h.55v.65h-.55zm.6 0h.55v.65h-.55zm0 .7h.55v.65h-.55zm0 .7h.55v.65h-.55zm0 .7h.55v.65h-.55zm-.6.7h.55v.65h-.55zm-1.2.7h.55v.65h-.55zm.6 0h.55v.65h-.55z"/>
  <text x="79" y="28">205</text>
  <path d="M82.6 24.7h.55v.65h-.55zm-.6.7h.55v.65H82zm1.2 0h.55v.65h-.55zm.6.7h.55v.65h-.55zm.6.7h.55v.65h-.55zm0 .7h.55v.65h-.55z"/>
  <text x="79" y="36">206</text>
  <path d="M83.2 32h.55v.65h-.55zm-1.2.7h.55v.65H82zm.6 0h.55v.65h-.55zm.6 0h.55v.65h-.55zm.6 0h.55v.65h-.55zm.6 0h.55v.65h-.55zm-1.2.7h.55v.65h-.55zm0 .7h.55v.65h-.55zm-1.2.7h.55v.65H82zm1.2 0h.55v.65h-.55zm1.2 0h.55v.65h-.55zm-2.4.7h.55v.65H82zm1.2 0h.55v.65h-.55zm1.2 0h.55v.65h-.55zm-1.2.7h.55v.65h-.55z"/>
  <text x="79" y="44">207</text>
  <path d="M82 40.7h.55v.65H82zm.6 0h.55v.65h-.55zm.6 0h.55v.65h-.55zm.6 0h.55v.65h-.55zm.6 0h.55v.65h-.55zm0 .7h.55v.65h-.55zm0 .7h.55v.65h-.55zm-1.8.7h.55v.65h-.55zm1.2 0h.55v.65h-.55zm-.6.7h.55v.65h-.55zm.6.7h.55v.65h-.55z"/>
  <text x="79" y="52">208</text>
  <path d="M82.6 48.7h.55v.65h-.55zm.6 0h.55v.65h-.55zm.6 0h.55v.65h-.55zm-1.2 1.4h.55v.65h-.55zm.6 0h.55v.65h-.55zm.6 0h.55v.65h-.55zm-1.2 1.4h.55v.65h-.55zm.6 0h.55v.65h-.55zm.6 0h.55v.65h-.55zm.6.7h.55v.65h-.55z"/>
  <text x="79" y="60">209</text>
  <path d="M83.2 56.7h.55v.65h-.55zm-.6.7h.55v.65h-.55zm-.6.7h.55v.65H82zm0 .7h.55v.65H82zm2.4 0h.55v.65h-.55zm-2.4.7h.55v.65H82zm.6 0h.55v.65h-.55zm.6 0h.55v.65h-.55zm.6 0h.55v.65h-.55zm.6 0h.55v.65h-.55zm0 .7h.55v.65h-.55z"/>
  <text x="79" y="68">210</text>
  <path d="M84.4 64.7h.55v.65h-.55zm0 .7h.55v.65h-.55zm-1.8.7h.55v.65h-.55zm1.2 0h.55v.65h-.55zm-.6.7h.55v.65h-.55zm-.6.7h.55v.65h-.55zm1.2 0h.55v.65h-.55zm-1.8.7h.55v.65H82z"/>
  <text x="79" y="76">211</text>
  <path d="M82 72.7h.55v.65H82zm.6 0h.55v.65h-.55zm.6 0h.55v.65h-.55zm.6 0h.55v.65h-.55zm.6 0h.55v.65h-.55zm-1.8.7h.55v.65h-.55zm-.6.7h.55v.65H82zm.6 0h.55v.65h-.55zm.6 0h.55v.65h-.55zm.6 0h.55v.65h-.55zm.6 0h.55v.65h-.55zm-1.8.7h.55v.65h-.55zm0 .7h.55v.65h-.55zm.6.7h.55v.65h-.55zm.6 0h.55v.65h-.55zm.6 0h.55v.65h-.55z"/>
  <text x="79" y="84">212</text>
  <path d="M82.6 80h.55v.65h-.55zm0 .7h.55v.65h-.55zm-.6.7h.55v.65H82zm.6 0h.55v.65h-.55zm.6 0h.55v.65h-.55zm.6 0h.55v.65h-.55zm.6 0h.55v.65h-.55zm-1.8.7h.55v.65h-.55zm1.8 0h.55v.65h-.55zm-1.8.7h.55v.65h-.55zm1.2 0h.55v.65h-.55zm-1.2.7h.55v.65h-.55zm0 .7h.55v.65h-.55z"/>
  <text x="79" y="92">213</text>
  <path d="M82.6 88.7h.55v.65h-.55zm.6 0h.55v.65h-.55zm.6 0h.55v.65h-.55zm0 .7h.55v.65h-.55zm0 .7h.55v.65h-.55zm0 .7h.55v.65h-.55zm0 .7h.55v.65h-.55zm-1.8.7h.55v.65H82zm.6 0h.55v.65h-.55zm.6 0h.55v.65h-.55zm.6 0h.55v.65h-.55zm.6 0h.55v.65h-.55z"/>
  <text x="79" y="100">214</text>
  <path d="M82 96.7h.55v.65H82zm.6 0h.55v.65h-.55zm.6 0h.55v.65h-.55zm.6 0h.55v.65h-.55zm.6 0h.55v.65h-.55zm0 .7h.55v.65h-.55zm-2.4.7h.55v.65H82zm.6 0h.55v.65h-.55zm.6 0h.55v.65h-.55zm.6 0h.55v.65h-.55zm.6 0h.55v.65h-.55zm0 .7h.55v.65h-.55zm0 .7h.55v.65h-.55zm-2.4.7h.55v.65H82zm.6 0h.55v.65h-.55zm.6 0h.55v.65h-.55zm.6 0h.55v.65h-.55zm.6 0h.55v.65h-.55z"/>
  <text x="79" y="108">215</text>
  <path d="M82.6 104h.55v.65h-.55zm.6 0h.55v.65h-.55zm.6 0h.55v.65h-.55zm-1.8 1.4h.55v.65H82zm.6 0h.55v.65h-.55zm.6 0h.55v.65h-.55zm.6 0h.55v.65h-.55zm.6 0h.55v.65h-.55zm0 .7h.55v.65h-.55zm0 .7h.55v.65h-.55zm-.6.7h.55v.65h-.55zm-.6.7h.55v.65h-.55z"/>
  <text x="103" y="4">216</text>
  <path d="M106 0h.55v.65H106zm1.8 0h.55v.65h-.55zm-1.8.7h.55v.65H106zm1.8 0h.55v.65h-.55zm-1.8.7h.55v.65H106zm1.8 0h.55v.65h-.55zm-1.8.7h.55v.65H106zm1.8 0h.55v.65h-.55zm0 .7h.55v.65h-.55zm-.6.7h.55v.65h-.55zm-.6.7h.55v.65h-.55z"/>
  <text x="103" y="12">217</text>
  <path d="M107.2 8.7h.55v.65h-.55zm-1.2.7h.55v.65H106zm1.2 0h.55v.65h-.55zm-1.2.7h.55v.65H106zm1.2 0h.55v.65h-.55zm-1.2.7h.55v.65H106zm1.2 0h.55v.65h-.55zm1.2 0h.55v.65h-.55zm-2.4.7h.55v.65H106zm1.2 0h.55v.65h-.55zm1.2 0h.55v.65h-.55zm-2.4.7h.55v.65H106zm1.2 0h.55v.65h-.55zm.6 0h.55v.65h-.55z"/>
  <text x="103" y="20">218</text>
  <path d="M106 16.7h.55v.65H106zm0 .7h.55v.65H106zm0 .7h.55v.65H106zm2.4 0h.55v.65h-.55zm-2.4.7h.55v.65H106zm1.8 0h.55v.65h-.55zm-1.8.7h.55v.65H106zm1.2 0h.55v.65h-.55zm-1.2.7h.55v.65H106zm.6 0h.55v.65h-.55z"/>
  <text x="103" y="28">219</text>
  <path d="M106 24.7h.55v.65H106zm.6 0h.55v.65h-.55zm.6 0h.55v.65h-.55zm.6 0h.55v.65h-.55zm.6 0h.55v.65h-.55zm-2.4.7h.55v.65H106zm2.4 0h.55v.65h-.55zm-2.4.7h.55v.65H106zm2.4 0h.55v.65h-.55zm-2.4.7h.55v.65H106zm2.4 0h.55v.65h-.55zm-2.4.7h.55v.65H106zm2.4 0h.55v.65h-.55zm-2.4.7h.55v.65H106zm.6 0h.55v.65h-.55zm.6 0h.55v.65h-.55zm.6 0h.55v.65h-.55zm.6 0h.55v.65h-.55z"/>
  <text x="103" y="36">220</text>
  <path d="M106 32.7h.55v.65H106zm.6 0h.55v.65h-.55zm.6 0h.55v.65h-.55zm.6 0h.55v.65h-.55zm.6 0h.55v.65h-.55zm-2.4.7h.55v.65H106zm2.4 0h.55v.65h-.55zm-2.4.7h.55v.65H106zm2.4 0h.55v.65h-.55zm0 .7h.55v.65h-.55zm-.6.7h.55v.65h-.55zm-.6.7h.55v.65h-.55z"/>
  <text x="103" y="44">221</text>
  <path d="M106 40.7h.55v.65H106zm.6 0h.55v.65h-.55zm1.8 1.4h.55v.65h-.55zm0 .7h.55v.65h-.55zm-.6.7h.55v.65h-.55zm-1.8.7h.55v.65H106zm.6 0h.55v.65h-.55zm.6 0h.55v.65h-.55z"/>
  <text x="103" y="52">222</text>
  <path d="M107.2 48h.55v.65h-.55zm-1.2.7h.55v.65H106zm1.8 0h.55v.65h-.55zm-1.2.7h.55v.65h-.55z"/>
  <text x="103" y="60">223</text>
  <path d="M106 56h.55v.65H106zm.6 0h.55v.65h-.55zm.6 0h.55v.65h-.55zm-1.2.7h.55v.65H106zm1.2 0h.55v.65h-.55zm-1.2.7h.55v.65H106zm.6 0h.55v.65h-.55zm.6 0h.55v.65h-.55z"/>
  <text x="103" y="68">224</text>
  <path d="M106.6 65.4h.55v.65h-.55zm1.8 0h.55v.65h-.55zm-2.4.7h.55v.65H106zm1.2 0h.55v.65h-.55zm1.2 0h.55v.65h-.55zm-2.4.7h.55v.65H106zm1.8 0h.55v.65h-.55zm-1.8.7h.55v.65H106zm1.8 0h.55v.65h-.55zm-1.2.7h.55v.65h-.55zm.6 0h.55v.65h-.55zm1.2 0h.55v.65h-.55z"/>
  <text x="103" y="76">225</text>
  <path d="M106.6 72h.55v.65h-.55zm1.2 0h.55v.65h-.55zm-1.2 1.4h.55v.65h-.55zm.6 0h.55v.65h-.55zm.6 0h.55v.65h-.55zm.6.7h.55v.65h-.55zm-1.8.7h.55v.65h-.55zm.6 0h.55v.65h-.55zm.6 0h.55v.65h-.55zm.6 0h.55v.65h-.55zm-2.4.7h.55v.65H106zm2.4 0h.55v.65h-.55zm-1.8.7h.55v.65h-.55zm.6 0h.55v.65h-.55zm.6 0h.55v.65h-.55zm.6 0h.55v.65h-.55z"/>
  <text x="103" y="84">226</text>
  <path d="M106.6 81.4h.55v.65h-.55zm.6 0h.55v.65h-.55zm.6 0h.55v.65h-.55zm-1.8.7h.55v.65H106zm2.4 0h.55v.65h-.55zm-2.4.7h.55v.65H106zm.6 0h.55v.65h-.55zm.6 0h.55v.65h-.55zm.6 0h.55v.65h-.55zm-1.8.7h.55v.65H106zm2.4 0h.55v.65h-.55zm-2.4.7h.55v.65H106zm.6 0h.55v.65h-.55zm.6 0h.55v.65h-.55zm.6 0h.55v.65h-.55zm-1.8.7h.55v.65H106z"/>
  <text x="103" y="92">227</text>
  <path d="M106.6 89.4h.55v.65h-.55zm.6 0h.55v.65h-.55zm.6 0h.55v.65h-.55zm-1.8.7h.55v.65H106zm.6.7h.55v.65h-.55zm.6 0h.55v.65h-.55zm-1.2.7h.55v.65H106zm2.4 0h.55v.65h-.55zm-1.8.7h.55v.65h-.55zm.6 0h.55v.65h-.55zm.6 0h.55v.65h-.55z"/>
  <text x="103" y="100">228</text>
  <path d="M106 97.4h.55v.65H106zm2.4 0h.55v.65h-.55zm-2.4.7h.55v.65H106zm2.4 0h.55v.65h-.55zm-2.4.7h.55v.65H106zm2.4 0h.55v.65h-.55zm-2.4.7h.55v.65H106zm1.8 0h.55v.65h-.55zm.6 0h.55v.65h-.55zm-2.4.7h.55v.65H106zm.6 0h.55v.65h-.55zm.6 0h.55v.65h-.55zm1.2 0h.55v.65h-.55zm-2.4.7h.55v.65H106z"/>
  <text x="103" y="108">229</text>
  <path d="M106.6 105.4h.55v.65h-.55zm.6 0h.55v.65h-.55zm.6 0h.55v.65h-.55zm.6 0h.55v.65h-.55zm-2.4.7h.55v.65H106zm1.2 0h.55v.65h-.55zm-1.2.7h.55v.65H106zm1.8 0h.55v.65h-.55zm-1.8.7h.55v.65H106zm2.4 0h.55v.65h-.55zm-1.8.7h.55v.65h-.55zm.6 0h.55v.65h-.55zm.6 0h.55v.65h-.55z"/>
  <text x="127" y="4">230</text>
  <path d="M131.2 1.4h.55v.65h-.55zm.6 0h.55v.65h-.55zm-1.2.7h.55v.65h-.55zm1.8 0h.55v.65h-.55zm-2.4.7h.55v.65H130zm2.4 0h.55v.65h-.55zm-2.4.7h.55v.65H130zm2.4 0h.55v.65h-.55zm-2.4.7h.55v.65H130zm.6 0h.55v.65h-.55zm.6 0h.55v.65h-.55zm.6 0h.55v.65h-.55zm-1.8.7h.55v.65H130z"/>
  <text x="127" y="12">231</text>
  <path d="M130.6 9.4h.55v.65h-.55zm.6 0h.55v.65h-.55zm.6 0h.55v.65h-.55zm.6 0h.55v.65h-.55zm-2.4.7h.55v.65H130zm2.4 0h.55v.65h-.55zm-2.4.7h.55v.65H130zm2.4 0h.55v.65h-.55zm-2.4.7h.55v.65H130zm2.4 0h.55v.65h-.55zm-1.8.7h.55v.65h-.55zm.6 0h.55v.65h-.55zm.6 0h.55v.65h-.55zm.6 0h.55v.65h-.55zm0 .7h.55v.65h-.55z"/>
  <text x="127" y="20">232</text>
  <path d="M131.2 17.4h.55v.65h-.55zm.6 0h.55v.65h-.55zm.6 0h.55v.65h-.55zm-1.2.7h.55v.65h-.55zm0 .7h.55v.65h-.55zm-1.2.7h.55v.65H130zm1.2 0h.55v.65h-.55zm-.6.7h.55v.65h-.55z"/>
  <text x="127" y="28">233</text>
  <path d="M131.8 24.7h.55v.65h-.55zm-1.8.7h.55v.65H130zm.6 0h.55v.65h-.55zm1.2 0h.55v.65h-.55zm0 .7h.55v.65h-.55z"/>
  <text x="127" y="36">234</text>
  <path d="M131.8 32h.55v.65h-.55zm-.6 1.4h.55v.65h-.55zm.6 0h.55v.65h-.55zm0 .7h.55v.65h-.55zm0 .7h.55v.65h-.55zm0 .7h.55v.65h-.55zm0 .7h.55v.65h-.55zm0 .7h.55v.65h-.55z"/>
  <text x="127" y="44">235</text>
  <path d="M130 40.7h.55v.65H130zm1.2 0h.55v.65h-.55zm-.6.7h.55v.65h-.55zm-.6.7h.55v.65H130zm1.2 0h.55v.65h-.55z"/>
  <text x="127" y="52">236</text>
  <path d="M131.2 48.7h.55v.65h-.55zm-.6.7h.55v.65h-.55zm.6 0h.55v.65h-.55zm.6 0h.55v.65h-.55zm-1.8.7h.55v.65H130zm1.2 0h.55v.65h-.55zm-1.2.7h.55v.65H130zm1.2 0h.55v.65h-.55zm1.2 0h.55v.65h-.55zm-1.8.7h.55v.65h-.55zm.6 0h.55v.65h-.55zm.6 0h.55v.65h-.55zm-.6.7h.55v.65h-.55z"/>
  <text x="127" y="60">237</text>
  <path d="M130.6 56h.55v.65h-.55zm0 .7h.55v.65h-.55zm-.6.7h.55v.65H130zm.6 0h.55v.65h-.55zm.6 0h.55v.65h-.55zm-.6.7h.55v.65h-.55zm-.6.7h.55v.65H130zm.6 0h.55v.65h-.55zm.6 0h.55v.65h-.55zm-.6.7h.55v.65h-.55zm0 .7h.55v.65h-.55zm.6 0h.55v.65h-.55zm.6 0h.55v.65h-.55zm.6 0h.55v.65h-.55z"/>
  <text x="127" y="68">238</text>
  <path d="M130.6 64h.55v.65h-.55zm.6 0h.55v.65h-.55zm.6 0h.55v.65h-.55zm-1.8 1.4h.55v.65H130zm1.2 0h.55v.65h-.55zm.6 0h.55v.65h-.55zm-1.8.7h.55v.65H130zm.6 0h.55v.65h-.55zm1.8 0h.55v.65h-.55zm-2.4.7h.55v.65H130zm2.4 0h.55v.65h-.55zm-2.4.7h.55v.65H130zm2.4 0h.55v.65h-.55zm-2.4.7h.55v.65H130zm2.4 0h.55v.65h-.55z"/>
  <text x="127" y="76">239</text>
  <path d="M130.6 72h.55v.65h-.55zm1.2 0h.55v.65h-.55zm-1.2 1.4h.55v.65h-.55zm.6 0h.55v.65h-.55zm.6 0h.55v.65h-.55zm-1.8.7h.55v.65H130zm2.4 0h.55v.65h-.55zm-2.4.7h.55v.65H130zm2.4 0h.55v.65h-.55zm-2.4.7h.55v.65H130zm2.4 0h.55v.65h-.55zm-1.8.7h.55v.65h-.55zm.6 0h.55v.65h-.55zm.6 0h.55v.65h-.55z"/>
  <text x="127" y="84">240</text>
  <path d="M130 81.4h.55v.65H130zm1.2 0h.55v.65h-.55zm.6 0h.55v.65h-.55zm-1.8.7h.55v.65H130zm.6 0h.55v.65h-.55zm1.8 0h.55v.65h-.55zm-2.4.7h.55v.65H130zm2.4 0h.55v.65h-.55zm-2.4.7h.55v.65H130zm2.4 0h.55v.65h-.55zm-2.4.7h.55v.65H130zm.6 0h.55v.65h-.55zm.6 0h.55v.65h-.55zm.6 0h.55v.65h-.55zm-1.8.7h.55v.65H130z"/>
  <text x="127" y="92">241</text>
  <path d="M130.6 89.4h.55v.65h-.55zm.6 0h.55v.65h-.55zm1.2 0h.55v.65h-.55zm-2.4.7h.55v.65H130zm1.8 0h.55v.65h-.55zm.6 0h.55v.65h-.55zm-2.4.7h.55v.65H130zm2.4 0h.55v.65h-.55zm-2.4.7h.55v.65H130zm2.4 0h.55v.65h-.55zm-1.8.7h.55v.65h-.55zm.6 0h.55v.65h-.55zm.6 0h.55v.65h-.55zm.6 0h.55v.65h-.55zm0 .7h.55v.65h-.55z"/>
  <text x="127" y="100">242</text>
  <path d="M130.6 96.7h.55v.65h-.55zm.6 0h.55v.65h-.55zm.6 0h.55v.65h-.55zm-1.8.7h.55v.65H130zm2.4 0h.55v.65h-.55zm-2.4.7h.55v.65H130zm.6 0h.55v.65h-.55zm.6 0h.55v.65h-.55zm.6 0h.55v.65h-.55zm.6 0h.55v.65h-.55zm-2.4.7h.55v.65H130zm2.4 0h.55v.65h-.55zm-2.4.7h.55v.65H130zm2.4 0h.55v.65h-.55zm-1.8.7h.55v.65h-.55zm.6 0h.55v.65h-.55zm.6 0h.55v.65h-.55z"/>
  <text x="127" y="108">243</text>
  <path d="M130.6 106.1h.55v.65h-.55zm1.2 0h.55v.65h-.55zm.6 0h.55v.65h-.55zm-2.4.7h.55v.65H130zm1.2 0h.55v.65h-.55zm1.2 0h.55v.65h-.55zm-2.4.7h.55v.65H130zm.6 0h.55v.65h-.55zm1.2 0h.55v.65h-.55z"/>
  <text x="151" y="4">244</text>
  <path d="M154.6 1.4h.55v.65h-.55zm.6 0h.55v.65h-.55zm.6 0h.55v.65h-.55zm-1.8.7h.55v.65H154zm2.4 0h.55v.65h-.55zm-2.4.7h.55v.65H154zm2.4 0h.55v.65h-.55zm-1.8.7h.55v.65h-.55zm1.2 0h.55v.65h-.55zm-1.8.7h.55v.65H154zm.6 0h.55v.65h-.55zm1.2 0h.55v.65h-.55zm.6 0h.55v.65h-.55z"/>
  <text x="151" y="12">245</text>
  <path d="M154.6 8h.55v.65h-.55zm1.2 0h.55v.65h-.55zM154 9.4h.55v.65H154zm2.4 0h.55v.65h-.55zm-2.4.7h.55v.65H154zm2.4 0h.55v.65h-.55zm-2.4.7h.55v.65H154zm2.4 0h.55v.65h-.55zm-2.4.7h.55v.65H154zm2.4 0h.55v.65h-.55zm-2.4.7h.55v.65H154zm1.8 0h.55v.65h-.55zm.6 0h.55v.65h-.55zm-1.8.7h.55v.65h-.55zm.6 0h.55v.65h-.55zm1.2 0h.55v.65h-.55z"/>
  <text x="151" y="20">246</text>
  <path d="M154 16h.55v.65H154zm.6 0h.55v.65h-.55zm.6 0h.55v.65h-.55zm.6 0h.55v.65h-.55zm.6 0h.55v.65h-.55zm-2.4.7h.55v.65H154zm.6.7h.55v.65h-.55zm.6.7h.55v.65h-.55zm-.6.7h.55v.65h-.55zm-.6.7h.55v.65H154zm0 .7h.55v.65H154zm.6 0h.55v.65h-.55zm.6 0h.55v.65h-.55zm.6 0h.55v.65h-.55zm.6 0h.55v.65h-.55z"/>
  <text x="151" y="28">247</text>
  <path d="M154 25.4h.55v.65H154zm.6 0h.55v.65h-.55zm.6 0h.55v.65h-.55zm.6 0h.55v.65h-.55zm.6 0h.55v.65h-.55zm-1.8.7h.55v.65h-.55zm1.2 0h.55v.65h-.55zm-1.2.7h.55v.65h-.55zm1.2 0h.55v.65h-.55zm-1.2.7h.55v.65h-.55zm1.2 0h.55v.65h-.55zm-1.8.7h.55v.65H154zm1.8 0h.55v.65h-.55zm.6 0h.55v.65h-.55z"/>
  <text x="151" y="36">248</text>
  <path d="M154 32h.55v.65H154zm.6 0h.55v.65h-.55zm.6 0h.55v.65h-.55zm.6 0h.55v.65h-.55zm.6 0h.55v.65h-.55zm-2.4 1.4h.55v.65H154zm2.4 0h.55v.65h-.55zm-1.8.7h.55v.65h-.55zm1.2 0h.55v.65h-.55zm-.6.7h.55v.65h-.55zm-.6.7h.55v.65h-.55zm1.2 0h.55v.65h-.55zm-1.8.7h.55v.65H154zm2.4 0h.55v.65h-.55z"/>
  <text x="151" y="44">249</text>
  <path d="M154 41.4h.55v.65H154zm2.4 0h.55v.65h-.55zm-2.4.7h.55v.65H154zm2.4 0h.55v.65h-.55zm-2.4.7h.55v.65H154zm2.4 0h.55v.65h-.55zm-2.4.7h.55v.65H154zm2.4 0h.55v.65h-.55zm-1.8.7h.55v.65h-.55zm.6 0h.55v.65h-.55zm.6 0h.55v.65h-.55zm.6 0h.55v.65h-.55zm0 .7h.55v.65h-.55z"/>
  <text x="151" y="52">250</text>
  <path d="M156.4 48.7h.55v.65h-.55zm-2.4.7h.55v.65H154zm.6 0h.55v.65h-.55zm.6 0h.55v.65h-.55zm.6 0h.55v.65h-.55zm-.6.7h.55v.65h-.55zm-1.2.7h.55v.65H154zm.6 0h.55v.65h-.55zm.6 0h.55v.65h-.55zm.6 0h.55v.65h-.55zm.6 0h.55v.65h-.55zm-1.2.7h.55v.65h-.55zm0 .7h.55v.65h-.55z"/>
  <text x="151" y="60">251</text>
  <path d="M154 57.4h.55v.65H154zm.6 0h.55v.65h-.55zm.6 0h.55v.65h-.55zm.6 0h.55v.65h-.55zm.6 0h.55v.65h-.55zm-1.8.7h.55v.65h-.55zm0 .7h.55v.65h-.55zm.6 0h.55v.65h-.55zm.6 0h.55v.65h-.55zm.6 0h.55v.65h-.55zm-1.8.7h.55v.65h-.55zm1.8 0h.55v.65h-.55zm-2.4.7h.55v.65H154zm2.4 0h.55v.65h-.55z"/>
  <text x="151" y="68">252</text>
  <path d="M154 65.4h.55v.65H154zm.6 0h.55v.65h-.55zm.6 0h.55v.65h-.55zm.6 0h.55v.65h-.55zm.6 0h.55v.65h-.55zm-2.4.7h.55v.65H154zm1.2 0h.55v.65h-.55zm1.2 0h.55v.65h-.55zm-2.4.7h.55v.65H154zm.6 0h.55v.65h-.55zm.6 0h.55v.65h-.55zm.6 0h.55v.65h-.55zm.6 0h.55v.65h-.55zm-2.4.7h.55v.65H154zm2.4 0h.55v.65h-.55zm-2.4.7h.55v.65H154zm2.4 0h.55v.65h-.55z"/>
  <text x="151" y="76">253</text>
  <path d="M155.2 72.7h.55v.65h-.55zm-1.2 1.4h.55v.65H154zm.6 0h.55v.65h-.55zm.6 0h.55v.65h-.55zm.6 0h.55v.65h-.55zm.6 0h.55v.65h-.55zm-1.2 1.4h.55v.65h-.55z"/>
  <text x="151" y="84">254</text>
  <text x="151" y="92">255</text>
  <path d="M154 88h.55v.65H154zm.6 0h.55v.65h-.55zm.6 0h.55v.65h-.55zm.6 0h.55v.65h-.55zm.6 0h.55v.65h-.55zm-2.4.7h.55v.65H154zm.6 0h.55v.65h-.55zm.6 0h.55v.65h-.55zm.6 0h.55v.65h-.55zm.6 0h.55v.65h-.55zm-2.4.7h.55v.65H154zm.6 0h.55v.65h-.55zm.6 0h.55v.65h-.55zm.6 0h.55v.65h-.55zm.6 0h.55v.65h-.55zm-2.4.7h.55v.65H154zm.6 0h.55v.65h-.55zm.6 0h.55v.65h-.55zm.6 0h.55v.65h-.55zm.6 0h.55v.65h-.55zm-2.4.7h.55v.65H154zm.6 0h.55v.65h-.55zm.6 0h.55v.65h-.55zm.6 0h.55v.65h-.55zm.6 0h.55v.65h-.55zm-2.4.7h.55v.65H154zm.6 0h.55v.65h-.55zm.6 0h.55v.65h-.55zm.6 0h.55v.65h-.55zm.6 0h.55v.65h-.55zm-2.4.7h.55v.65H154zm.6 0h.55v.65h-.55zm.6 0h.55v.65h-.55zm.6 0h.55v.65h-.55zm.6 0h.55v.65h-.55zm-2.4.7h.55v.65H154zm.6 0h.55v.65h-.55zm.6 0h.55v.65h-.55zm.6 0h.55v.65h-.55zm.6 0h.55v.65h-.55z"/>
</svg>
