<svg width="46.4mm" height="23.1mm" viewBox="0 0 46.4 23.1" xmlns="http://www.w3.org/2000/svg">
  <defs>
    <pattern id="pin-pattern" height="2" width="2.54" patternUnits="userSpaceOnUse">
      <circle cx="1.27" cy="1" r="0.5" fill="#aaa"></circle>
    </pattern>
  </defs>
  <path d="M1.286 0a1 1 0 0 0-1.001 1.002v21.147a1 1 0 0 0 1.001 1.001h39.22a1 1 0 0 0 1.002-1.001v-21.147a1 1 0 0 0-1.002-1.002zm.957.5a1.256 1.256 0 0 1 1.256 1.257 1.256 1.256 0 0 1-1.256 1.256 1.256 1.256 0 0 1-1.256-1.256 1.256 1.256 0 0 1 1.256-1.256zm37.365 0a1.256 1.256 0 0 1 1.254 1.257 1.256 1.256 0 0 1-1.254 1.256 1.256 1.256 0 0 1-1.256-1.256 1.256 1.256 0 0 1 1.256-1.256zm-37.365 19.637a1.256 1.256 0 0 1 1.256 1.256 1.256 1.256 0 0 1-1.256 1.254 1.256 1.256 0 0 1-1.256-1.254 1.256 1.256 0 0 1 1.256-1.256zm37.365 0a1.256 1.256 0 0 1 1.256 1.256 1.256 1.256 0 0 1-1.256 1.257 1.256 1.256 0 0 1-1.256-1.257 1.256 1.256 0 0 1 1.256-1.256z" fill="#1f4a84"></path>
  <rect x="36.9" y="6.15" width="3" height="10.6" fill="none" opacity="0.6" stroke="#fff" stroke-linecap="round" stroke-width="0.3"></rect>
  <rect x="37.1" y="6.3" width="2.6" height="2.6" ry="0.6"></rect>
  <rect x="37.1" y="8.84" width="2.6" height="2.6" ry="0.6"></rect>
  <rect x="37.1" y="11.38" width="2.6" height="2.6" ry="0.6"></rect>
  <rect x="37.1" y="13.92" width="2.6" height="2.6" ry="0.6"></rect>
  <g fill="#ccc">
    <rect x="38.4" y="7.255" width="7.6" height="0.75" ry="0.2"></rect>
    <rect x="38.4" y="9.795" width="7.86" height="0.75" ry="0.2"></rect>
    <rect x="38.4" y="12.335" width="7.86" height="0.75" ry="0.2"></rect>
    <rect x="38.4" y="14.875" width="7.86" height="0.75" ry="0.2"></rect>
  </g>
  <text fill="#fff" x="21" y="21" font-size="2.4" text-anchor="middle">4-Digit Display</text>
  <g transform="scale(0.6) translate(9.5, 9.5)">
    <rect x="0" height="19" y="0" width="50.2"></rect>
    <g transform="skewX(-8) translate(3.5, 2.4) scale(0.81)">
      <polygon points="2 0 8 0 9 1 8 2 2 2 1 1" fill="#444"></polygon>
      <polygon points="10 2 10 8 9 9 8 8 8 2 9 1" fill="red"></polygon>
      <polygon points="10 10 10 16 9 17 8 16 8 10 9 9" fill="red"></polygon>
      <polygon points="8 18 2 18 1 17 2 16 8 16 9 17" fill="#444"></polygon>
      <polygon points="0 16 0 10 1 9 2 10 2 16 1 17" fill="#444"></polygon>
      <polygon points="0 8 0 2 1 1 2 2 2 8 1 9" fill="#444"></polygon>
      <polygon points="2 8 8 8 9 9 8 10 2 10 1 9" fill="#444"></polygon>
    </g>
    <g transform="skewX(-8) translate(16.2, 2.4) scale(0.81)">
      <polygon points="2 0 8 0 9 1 8 2 2 2 1 1" fill="red"></polygon>
      <polygon points="10 2 10 8 9 9 8 8 8 2 9 1" fill="red"></polygon>
      <polygon points="10 10 10 16 9 17 8 16 8 10 9 9" fill="red"></polygon>
      <polygon points="8 18 2 18 1 17 2 16 8 16 9 17" fill="red"></polygon>
      <polygon points="0 16 0 10 1 9 2 10 2 16 1 17" fill="#444"></polygon>
      <polygon points="0 8 0 2 1 1 2 2 2 8 1 9" fill="#444"></polygon>
      <polygon points="2 8 8 8 9 9 8 10 2 10 1 9" fill="red"></polygon>
    </g>
    <g transform="skewX(-8) translate(28.9, 2.4) scale(0.81)">
      <polygon points="2 0 8 0 9 1 8 2 2 2 1 1" fill="red"></polygon>
      <polygon points="10 2 10 8 9 9 8 8 8 2 9 1" fill="red"></polygon>
      <polygon points="10 10 10 16 9 17 8 16 8 10 9 9" fill="red"></polygon>
      <polygon points="8 18 2 18 1 17 2 16 8 16 9 17" fill="red"></polygon>
      <polygon points="0 16 0 10 1 9 2 10 2 16 1 17" fill="#444"></polygon>
      <polygon points="0 8 0 2 1 1 2 2 2 8 1 9" fill="#444"></polygon>
      <polygon points="2 8 8 8 9 9 8 10 2 10 1 9" fill="red"></polygon>
    </g>
    <g transform="skewX(-8) translate(41.599999999999994, 2.4) scale(0.81)">
      <polygon points="2 0 8 0 9 1 8 2 2 2 1 1" fill="red"></polygon>
      <polygon points="10 2 10 8 9 9 8 8 8 2 9 1" fill="red"></polygon>
      <polygon points="10 10 10 16 9 17 8 16 8 10 9 9" fill="red"></polygon>
      <polygon points="8 18 2 18 1 17 2 16 8 16 9 17" fill="#444"></polygon>
      <polygon points="0 16 0 10 1 9 2 10 2 16 1 17" fill="#444"></polygon>
      <polygon points="0 8 0 2 1 1 2 2 2 8 1 9" fill="#444"></polygon>
      <polygon points="2 8 8 8 9 9 8 10 2 10 1 9" fill="#444"></polygon>
    </g>
    <g transform="skewX(-8)" fill="red">
      <circle r="0.89" cx="26.9" cy="5.75"></circle>
      <circle r="0.89" cx="26.9" cy="13.25"></circle>
    </g>
  </g>
</svg>