<svg xmlns="http://www.w3.org/2000/svg" width="160mm" height="110mm" viewBox="0 0 160 110">
  <style>
    path {
      fill:#00f;
    }
    text {
      font-size:5px;
      text-anchor:end;
    }
  </style>
  <text x="7" y="4">32</text>
  <text x="7" y="12">33</text>
  <path d="M11.2 8h.55v.65h-.55zm0 .7h.55v.65h-.55zm0 .7h.55v.65h-.55zm0 .7h.55v.65h-.55zm0 2.1h.55v.65h-.55z"/>
  <text x="7" y="20">34</text>
  <path d="M10.6 16h.55v.65h-.55zm1.2 0h.55v.65h-.55zm-1.2.7h.55v.65h-.55zm1.2 0h.55v.65h-.55zm-1.2.7h.55v.65h-.55zm1.2 0h.55v.65h-.55z"/>
  <text x="7" y="28">35</text>
  <path d="M10.6 24h.55v.65h-.55zm1.2 0h.55v.65h-.55zm-1.2.7h.55v.65h-.55zm1.2 0h.55v.65h-.55zm-1.8.7h.55v.65H10zm.6 0h.55v.65h-.55zm.6 0h.55v.65h-.55zm.6 0h.55v.65h-.55zm.6 0h.55v.65h-.55zm-1.8.7h.55v.65h-.55zm1.2 0h.55v.65h-.55zm-1.8.7h.55v.65H10zm.6 0h.55v.65h-.55zm.6 0h.55v.65h-.55zm.6 0h.55v.65h-.55zm.6 0h.55v.65h-.55zm-1.8.7h.55v.65h-.55zm1.2 0h.55v.65h-.55zm-1.2.7h.55v.65h-.55zm1.2 0h.55v.65h-.55z"/>
  <text x="7" y="36">36</text>
  <path d="M11.2 32h.55v.65h-.55zm-.6.7h.55v.65h-.55zm.6 0h.55v.65h-.55zm.6 0h.55v.65h-.55zm.6 0h.55v.65h-.55zm-2.4.7h.55v.65H10zm1.2 0h.55v.65h-.55zm-.6.7h.55v.65h-.55zm.6 0h.55v.65h-.55zm.6 0h.55v.65h-.55zm-.6.7h.55v.65h-.55zm1.2 0h.55v.65h-.55zm-2.4.7h.55v.65H10zm.6 0h.55v.65h-.55zm.6 0h.55v.65h-.55zm.6 0h.55v.65h-.55zm-.6.7h.55v.65h-.55z"/>
  <text x="7" y="44">37</text>
  <path d="M10 40h.55v.65H10zm.6 0h.55v.65h-.55zm-.6.7h.55v.65H10zm.6 0h.55v.65h-.55zm1.8 0h.55v.65h-.55zm-.6.7h.55v.65h-.55zm-.6.7h.55v.65h-.55zm-.6.7h.55v.65h-.55zm-.6.7h.55v.65H10zm1.8 0h.55v.65h-.55zm.6 0h.55v.65h-.55zm-.6.7h.55v.65h-.55zm.6 0h.55v.65h-.55z"/>
  <text x="7" y="52">38</text>
  <path d="M10.6 48h.55v.65h-.55zm.6 0h.55v.65h-.55zm-1.2.7h.55v.65H10zm1.8 0h.55v.65h-.55zm-1.8.7h.55v.65H10zm1.2 0h.55v.65h-.55zm-.6.7h.55v.65h-.55zm-.6.7h.55v.65H10zm1.2 0h.55v.65h-.55zm1.2 0h.55v.65h-.55zm-2.4.7h.55v.65H10zm1.8 0h.55v.65h-.55zm-1.2.7h.55v.65h-.55zm.6 0h.55v.65h-.55zm1.2 0h.55v.65h-.55z"/>
  <text x="7" y="60">39</text>
  <path d="M10.6 56h.55v.65h-.55zm.6 0h.55v.65h-.55zm0 .7h.55v.65h-.55zm-.6.7h.55v.65h-.55z"/>
  <text x="7" y="68">40</text>
  <path d="M11.8 64h.55v.65h-.55zm-.6.7h.55v.65h-.55zm-.6.7h.55v.65h-.55zm0 .7h.55v.65h-.55zm0 .7h.55v.65h-.55zm.6.7h.55v.65h-.55zm.6.7h.55v.65h-.55z"/>
  <text x="7" y="76">41</text>
  <path d="M10.6 72h.55v.65h-.55zm.6.7h.55v.65h-.55zm.6.7h.55v.65h-.55zm0 .7h.55v.65h-.55zm0 .7h.55v.65h-.55zm-.6.7h.55v.65h-.55zm-.6.7h.55v.65h-.55z"/>
  <text x="7" y="84">42</text>
  <path d="M11.2 80.7h.55v.65h-.55zm-1.2.7h.55v.65H10zm1.2 0h.55v.65h-.55zm1.2 0h.55v.65h-.55zm-1.8.7h.55v.65h-.55zm.6 0h.55v.65h-.55zm.6 0h.55v.65h-.55zm-1.8.7h.55v.65H10zm1.2 0h.55v.65h-.55zm1.2 0h.55v.65h-.55zm-1.2.7h.55v.65h-.55z"/>
  <text x="7" y="92">43</text>
  <path d="M11.2 88.7h.55v.65h-.55zm0 .7h.55v.65h-.55zm-1.2.7h.55v.65H10zm.6 0h.55v.65h-.55zm.6 0h.55v.65h-.55zm.6 0h.55v.65h-.55zm.6 0h.55v.65h-.55zm-1.2.7h.55v.65h-.55zm0 .7h.55v.65h-.55z"/>
  <text x="7" y="100">44</text>
  <path d="M10.6 98.8h.55v.65h-.55zm.6 0h.55v.65h-.55zm0 .7h.55v.65h-.55zm-.6.7h.55v.65h-.55z"/>
  <text x="7" y="108">45</text>
  <path d="M10 106.1h.55v.65H10zm.6 0h.55v.65h-.55zm.6 0h.55v.65h-.55zm.6 0h.55v.65h-.55zm.6 0h.55v.65h-.55z"/>
  <text x="31" y="4">46</text>
  <path d="M34.6 3.5h.55v.65h-.55zm.6 0h.55v.65h-.55zm-.6.7h.55v.65h-.55zm.6 0h.55v.65h-.55z"/>
  <text x="31" y="12">47</text>
  <path d="M36.4 8.7h.55v.65h-.55zm-.6.7h.55v.65h-.55zm-.6.7h.55v.65h-.55zm-.6.7h.55v.65h-.55zm-.6.7h.55v.65H34z"/>
  <text x="31" y="20">48</text>
  <path d="M34.6 16h.55v.65h-.55zm.6 0h.55v.65h-.55zm.6 0h.55v.65h-.55zm-1.8.7h.55v.65H34zm2.4 0h.55v.65h-.55zm-2.4.7h.55v.65H34zm1.8 0h.55v.65h-.55zm.6 0h.55v.65h-.55zm-2.4.7h.55v.65H34zm1.2 0h.55v.65h-.55zm1.2 0h.55v.65h-.55zm-2.4.7h.55v.65H34zm.6 0h.55v.65h-.55zm1.8 0h.55v.65h-.55zm-2.4.7h.55v.65H34zm2.4 0h.55v.65h-.55zm-1.8.7h.55v.65h-.55zm.6 0h.55v.65h-.55zm.6 0h.55v.65h-.55z"/>
  <text x="31" y="28">49</text>
  <path d="M35.2 24h.55v.65h-.55zm-.6.7h.55v.65h-.55zm.6 0h.55v.65h-.55zm0 .7h.55v.65h-.55zm0 .7h.55v.65h-.55zm0 .7h.55v.65h-.55zm0 .7h.55v.65h-.55zm-.6.7h.55v.65h-.55zm.6 0h.55v.65h-.55zm.6 0h.55v.65h-.55z"/>
  <text x="31" y="36">50</text>
  <path d="M34.6 32h.55v.65h-.55zm.6 0h.55v.65h-.55zm.6 0h.55v.65h-.55zm-1.8.7h.55v.65H34zm2.4 0h.55v.65h-.55zm0 .7h.55v.65h-.55zm-.6.7h.55v.65h-.55zm-.6.7h.55v.65h-.55zm-.6.7h.55v.65h-.55zm-.6.7h.55v.65H34zm.6 0h.55v.65h-.55zm.6 0h.55v.65h-.55zm.6 0h.55v.65h-.55zm.6 0h.55v.65h-.55z"/>
  <text x="31" y="44">51</text>
  <path d="M34 40h.55v.65H34zm.6 0h.55v.65h-.55zm.6 0h.55v.65h-.55zm.6 0h.55v.65h-.55zm.6 0h.55v.65h-.55zm-.6.7h.55v.65h-.55zm-.6.7h.55v.65h-.55zm.6.7h.55v.65h-.55zm.6.7h.55v.65h-.55zm-2.4.7h.55v.65H34zm2.4 0h.55v.65h-.55zm-1.8.7h.55v.65h-.55zm.6 0h.55v.65h-.55zm.6 0h.55v.65h-.55z"/>
  <text x="31" y="52">52</text>
  <path d="M35.8 48h.55v.65h-.55zm-.6.7h.55v.65h-.55zm.6 0h.55v.65h-.55zm-1.2.7h.55v.65h-.55zm1.2 0h.55v.65h-.55zm-1.8.7h.55v.65H34zm1.8 0h.55v.65h-.55zm-1.8.7h.55v.65H34zm.6 0h.55v.65h-.55zm.6 0h.55v.65h-.55zm.6 0h.55v.65h-.55zm.6 0h.55v.65h-.55zm-.6.7h.55v.65h-.55zm0 .7h.55v.65h-.55z"/>
  <text x="31" y="60">53</text>
  <path d="M34 56h.55v.65H34zm.6 0h.55v.65h-.55zm.6 0h.55v.65h-.55zm.6 0h.55v.65h-.55zm.6 0h.55v.65h-.55zm-2.4.7h.55v.65H34zm0 .7h.55v.65H34zm.6 0h.55v.65h-.55zm.6 0h.55v.65h-.55zm.6 0h.55v.65h-.55zm.6.7h.55v.65h-.55zm0 .7h.55v.65h-.55zm-2.4.7h.55v.65H34zm2.4 0h.55v.65h-.55zm-1.8.7h.55v.65h-.55zm.6 0h.55v.65h-.55zm.6 0h.55v.65h-.55z"/>
  <text x="31" y="68">54</text>
  <path d="M35.2 64h.55v.65h-.55zm.6 0h.55v.65h-.55zm-1.2.7h.55v.65h-.55zm-.6.7h.55v.65H34zm0 .7h.55v.65H34zm.6 0h.55v.65h-.55zm.6 0h.55v.65h-.55zm.6 0h.55v.65h-.55zm-1.8.7h.55v.65H34zm2.4 0h.55v.65h-.55zm-2.4.7h.55v.65H34zm2.4 0h.55v.65h-.55zm-1.8.7h.55v.65h-.55zm.6 0h.55v.65h-.55zm.6 0h.55v.65h-.55z"/>
  <text x="31" y="76">55</text>
  <path d="M34 72h.55v.65H34zm.6 0h.55v.65h-.55zm.6 0h.55v.65h-.55zm.6 0h.55v.65h-.55zm.6 0h.55v.65h-.55zm-2.4.7h.55v.65H34zm2.4 0h.55v.65h-.55zm0 .7h.55v.65h-.55zm-.6.7h.55v.65h-.55zm-.6.7h.55v.65h-.55zm0 .7h.55v.65h-.55zm0 .7h.55v.65h-.55z"/>
  <text x="31" y="84">56</text>
  <path d="M34.6 80h.55v.65h-.55zm.6 0h.55v.65h-.55zm.6 0h.55v.65h-.55zm-1.8.7h.55v.65H34zm2.4 0h.55v.65h-.55zm-2.4.7h.55v.65H34zm2.4 0h.55v.65h-.55zm-1.8.7h.55v.65h-.55zm.6 0h.55v.65h-.55zm.6 0h.55v.65h-.55zm-1.8.7h.55v.65H34zm2.4 0h.55v.65h-.55zm-2.4.7h.55v.65H34zm2.4 0h.55v.65h-.55zm-1.8.7h.55v.65h-.55zm.6 0h.55v.65h-.55zm.6 0h.55v.65h-.55z"/>
  <text x="31" y="92">57</text>
  <path d="M34.6 88h.55v.65h-.55zm.6 0h.55v.65h-.55zm.6 0h.55v.65h-.55zm-1.8.7h.55v.65H34zm2.4 0h.55v.65h-.55zm-2.4.7h.55v.65H34zm2.4 0h.55v.65h-.55zm-1.8.7h.55v.65h-.55zm.6 0h.55v.65h-.55zm.6 0h.55v.65h-.55zm.6 0h.55v.65h-.55zm0 .7h.55v.65h-.55zm-.6.7h.55v.65h-.55zm-1.2.7h.55v.65h-.55zm.6 0h.55v.65h-.55z"/>
  <text x="31" y="100">58</text>
  <path d="M34.6 96.7h.55v.65h-.55zm.6 0h.55v.65h-.55zm-.6.7h.55v.65h-.55zm.6 0h.55v.65h-.55zm-.6 1.4h.55v.65h-.55zm.6 0h.55v.65h-.55zm-.6.7h.55v.65h-.55zm.6 0h.55v.65h-.55z"/>
  <text x="31" y="108">59</text>
  <path d="M34.6 104.7h.55v.65h-.55zm.6 0h.55v.65h-.55zm-.6.7h.55v.65h-.55zm.6 0h.55v.65h-.55zm-.6 1.4h.55v.65h-.55zm.6 0h.55v.65h-.55zm0 .7h.55v.65h-.55zm-.6.7h.55v.65h-.55z"/>
  <text x="55" y="4">60</text>
  <path d="M59.8 0h.55v.65h-.55zm-.6.7h.55v.65h-.55zm-.6.7h.55v.65h-.55zm-.6.7h.55v.65H58zm.6.7h.55v.65h-.55zm.6.7h.55v.65h-.55zm.6.7h.55v.65h-.55z"/>
  <text x="55" y="12">61</text>
  <path d="M58 9.4h.55v.65H58zm.6 0h.55v.65h-.55zm.6 0h.55v.65h-.55zm.6 0h.55v.65h-.55zm.6 0h.55v.65h-.55zM58 10.8h.55v.65H58zm.6 0h.55v.65h-.55zm.6 0h.55v.65h-.55zm.6 0h.55v.65h-.55zm.6 0h.55v.65h-.55z"/>
  <text x="55" y="20">62</text>
  <path d="M58.6 16h.55v.65h-.55zm.6.7h.55v.65h-.55zm.6.7h.55v.65h-.55zm.6.7h.55v.65h-.55zm-.6.7h.55v.65h-.55zm-.6.7h.55v.65h-.55zm-.6.7h.55v.65h-.55z"/>
  <text x="55" y="28">63</text>
  <path d="M58.6 24h.55v.65h-.55zm.6 0h.55v.65h-.55zm.6 0h.55v.65h-.55zm-1.8.7h.55v.65H58zm2.4 0h.55v.65h-.55zm0 .7h.55v.65h-.55zm-.6.7h.55v.65h-.55zm-.6.7h.55v.65h-.55zm0 1.4h.55v.65h-.55z"/>
  <text x="55" y="36">64</text>
  <path d="M58.6 32h.55v.65h-.55zm.6 0h.55v.65h-.55zm.6 0h.55v.65h-.55zm-1.8.7h.55v.65H58zm2.4 0h.55v.65h-.55zm0 .7h.55v.65h-.55zm-1.8.7h.55v.65h-.55zm.6 0h.55v.65h-.55zm1.2 0h.55v.65h-.55zm-2.4.7h.55v.65H58zm1.2 0h.55v.65h-.55zm1.2 0h.55v.65h-.55zm-2.4.7h.55v.65H58zm1.2 0h.55v.65h-.55zm1.2 0h.55v.65h-.55zm-1.8.7h.55v.65h-.55zm.6 0h.55v.65h-.55zm.6 0h.55v.65h-.55z"/>
  <text x="55" y="44">65</text>
  <path d="M58.6 40h.55v.65h-.55zm.6 0h.55v.65h-.55zm.6 0h.55v.65h-.55zm-1.8.7h.55v.65H58zm2.4 0h.55v.65h-.55zm-2.4.7h.55v.65H58zm2.4 0h.55v.65h-.55zm-2.4.7h.55v.65H58zm2.4 0h.55v.65h-.55zm-2.4.7h.55v.65H58zm.6 0h.55v.65h-.55zm.6 0h.55v.65h-.55zm.6 0h.55v.65h-.55zm.6 0h.55v.65h-.55zm-2.4.7h.55v.65H58zm2.4 0h.55v.65h-.55zm-2.4.7h.55v.65H58zm2.4 0h.55v.65h-.55z"/>
  <text x="55" y="52">66</text>
  <path d="M58 48h.55v.65H58zm.6 0h.55v.65h-.55zm.6 0h.55v.65h-.55zm.6 0h.55v.65h-.55zm-1.8.7h.55v.65H58zm2.4 0h.55v.65h-.55zm-2.4.7h.55v.65H58zm2.4 0h.55v.65h-.55zm-2.4.7h.55v.65H58zm.6 0h.55v.65h-.55zm.6 0h.55v.65h-.55zm.6 0h.55v.65h-.55zm-1.8.7h.55v.65H58zm2.4 0h.55v.65h-.55zm-2.4.7h.55v.65H58zm2.4 0h.55v.65h-.55zm-2.4.7h.55v.65H58zm.6 0h.55v.65h-.55zm.6 0h.55v.65h-.55zm.6 0h.55v.65h-.55z"/>
  <text x="55" y="60">67</text>
  <path d="M58.6 56h.55v.65h-.55zm.6 0h.55v.65h-.55zm.6 0h.55v.65h-.55zm-1.8.7h.55v.65H58zm2.4 0h.55v.65h-.55zm-2.4.7h.55v.65H58zm0 .7h.55v.65H58zm0 .7h.55v.65H58zm0 .7h.55v.65H58zm2.4 0h.55v.65h-.55zm-1.8.7h.55v.65h-.55zm.6 0h.55v.65h-.55zm.6 0h.55v.65h-.55z"/>
  <text x="55" y="68">68</text>
  <path d="M58 64h.55v.65H58zm.6 0h.55v.65h-.55zm.6 0h.55v.65h-.55zm-1.2.7h.55v.65H58zm1.8 0h.55v.65h-.55zm-1.8.7h.55v.65H58zm2.4 0h.55v.65h-.55zm-2.4.7h.55v.65H58zm2.4 0h.55v.65h-.55zm-2.4.7h.55v.65H58zm2.4 0h.55v.65h-.55zm-2.4.7h.55v.65H58zm1.8 0h.55v.65h-.55zm-1.8.7h.55v.65H58zm.6 0h.55v.65h-.55zm.6 0h.55v.65h-.55z"/>
  <text x="55" y="76">69</text>
  <path d="M58 72h.55v.65H58zm.6 0h.55v.65h-.55zm.6 0h.55v.65h-.55zm.6 0h.55v.65h-.55zm.6 0h.55v.65h-.55zm-2.4.7h.55v.65H58zm0 .7h.55v.65H58zm0 .7h.55v.65H58zm.6 0h.55v.65h-.55zm.6 0h.55v.65h-.55zm.6 0h.55v.65h-.55zm-1.8.7h.55v.65H58zm0 .7h.55v.65H58zm0 .7h.55v.65H58zm.6 0h.55v.65h-.55zm.6 0h.55v.65h-.55zm.6 0h.55v.65h-.55zm.6 0h.55v.65h-.55z"/>
  <text x="55" y="84">70</text>
  <path d="M58 80h.55v.65H58zm.6 0h.55v.65h-.55zm.6 0h.55v.65h-.55zm.6 0h.55v.65h-.55zm.6 0h.55v.65h-.55zm-2.4.7h.55v.65H58zm0 .7h.55v.65H58zm0 .7h.55v.65H58zm.6 0h.55v.65h-.55zm.6 0h.55v.65h-.55zm.6 0h.55v.65h-.55zm-1.8.7h.55v.65H58zm0 .7h.55v.65H58zm0 .7h.55v.65H58z"/>
  <text x="55" y="92">71</text>
  <path d="M58.6 88h.55v.65h-.55zm.6 0h.55v.65h-.55zm.6 0h.55v.65h-.55zm-1.8.7h.55v.65H58zm2.4 0h.55v.65h-.55zm-2.4.7h.55v.65H58zm0 .7h.55v.65H58zm1.2 0h.55v.65h-.55zm.6 0h.55v.65h-.55zm.6 0h.55v.65h-.55zm-2.4.7h.55v.65H58zm2.4 0h.55v.65h-.55zm-2.4.7h.55v.65H58zm2.4 0h.55v.65h-.55zm-1.8.7h.55v.65h-.55zm.6 0h.55v.65h-.55zm.6 0h.55v.65h-.55zm.6 0h.55v.65h-.55z"/>
  <text x="55" y="100">72</text>
  <path d="M58 96h.55v.65H58zm2.4 0h.55v.65h-.55zm-2.4.7h.55v.65H58zm2.4 0h.55v.65h-.55zm-2.4.7h.55v.65H58zm2.4 0h.55v.65h-.55zm-2.4.7h.55v.65H58zm.6 0h.55v.65h-.55zm.6 0h.55v.65h-.55zm.6 0h.55v.65h-.55zm.6 0h.55v.65h-.55zm-2.4.7h.55v.65H58zm2.4 0h.55v.65h-.55zm-2.4.7h.55v.65H58zm2.4 0h.55v.65h-.55zm-2.4.7h.55v.65H58zm2.4 0h.55v.65h-.55z"/>
  <text x="55" y="108">73</text>
  <path d="M58.6 104h.55v.65h-.55zm.6 0h.55v.65h-.55zm.6 0h.55v.65h-.55zm-.6.7h.55v.65h-.55zm0 .7h.55v.65h-.55zm0 .7h.55v.65h-.55zm0 .7h.55v.65h-.55zm0 .7h.55v.65h-.55zm-.6.7h.55v.65h-.55zm.6 0h.55v.65h-.55zm.6 0h.55v.65h-.55z"/>
  <text x="79" y="4">74</text>
  <path d="M83.2 0h.55v.65h-.55zm.6 0h.55v.65h-.55zm.6 0h.55v.65h-.55zm-.6.7h.55v.65h-.55zm0 .7h.55v.65h-.55zm0 .7h.55v.65h-.55zm0 .7h.55v.65h-.55zm-1.8.7h.55v.65H82zm1.8 0h.55v.65h-.55zm-1.2.7h.55v.65h-.55zm.6 0h.55v.65h-.55z"/>
  <text x="79" y="12">75</text>
  <path d="M82 8h.55v.65H82zm2.4 0h.55v.65h-.55zm-2.4.7h.55v.65H82zm1.8 0h.55v.65h-.55zm-1.8.7h.55v.65H82zm1.2 0h.55v.65h-.55zm-1.2.7h.55v.65H82zm.6 0h.55v.65h-.55zm-.6.7h.55v.65H82zm1.2 0h.55v.65h-.55zm-1.2.7h.55v.65H82zm1.8 0h.55v.65h-.55zm-1.8.7h.55v.65H82zm2.4 0h.55v.65h-.55z"/>
  <text x="79" y="20">76</text>
  <path d="M82 16h.55v.65H82zm0 .7h.55v.65H82zm0 .7h.55v.65H82zm0 .7h.55v.65H82zm0 .7h.55v.65H82zm0 .7h.55v.65H82zm0 .7h.55v.65H82zm.6 0h.55v.65h-.55zm.6 0h.55v.65h-.55zm.6 0h.55v.65h-.55zm.6 0h.55v.65h-.55z"/>
  <text x="79" y="28">77</text>
  <path d="M82 24h.55v.65H82zm2.4 0h.55v.65h-.55zm-2.4.7h.55v.65H82zm.6 0h.55v.65h-.55zm1.2 0h.55v.65h-.55zm.6 0h.55v.65h-.55zm-2.4.7h.55v.65H82zm1.2 0h.55v.65h-.55zm1.2 0h.55v.65h-.55zm-2.4.7h.55v.65H82zm1.2 0h.55v.65h-.55zm1.2 0h.55v.65h-.55zm-2.4.7h.55v.65H82zm2.4 0h.55v.65h-.55zm-2.4.7h.55v.65H82zm2.4 0h.55v.65h-.55zm-2.4.7h.55v.65H82zm2.4 0h.55v.65h-.55z"/>
  <text x="79" y="36">78</text>
  <path d="M82 32h.55v.65H82zm2.4 0h.55v.65h-.55zm-2.4.7h.55v.65H82zm2.4 0h.55v.65h-.55zm-2.4.7h.55v.65H82zm.6 0h.55v.65h-.55zm1.8 0h.55v.65h-.55zm-2.4.7h.55v.65H82zm1.2 0h.55v.65h-.55zm1.2 0h.55v.65h-.55zm-2.4.7h.55v.65H82zm1.8 0h.55v.65h-.55zm.6 0h.55v.65h-.55zm-2.4.7h.55v.65H82zm2.4 0h.55v.65h-.55zm-2.4.7h.55v.65H82zm2.4 0h.55v.65h-.55z"/>
  <text x="79" y="44">79</text>
  <path d="M82.6 40h.55v.65h-.55zm.6 0h.55v.65h-.55zm.6 0h.55v.65h-.55zm-1.8.7h.55v.65H82zm2.4 0h.55v.65h-.55zm-2.4.7h.55v.65H82zm2.4 0h.55v.65h-.55zm-2.4.7h.55v.65H82zm2.4 0h.55v.65h-.55zm-2.4.7h.55v.65H82zm2.4 0h.55v.65h-.55zm-2.4.7h.55v.65H82zm2.4 0h.55v.65h-.55zm-1.8.7h.55v.65h-.55zm.6 0h.55v.65h-.55zm.6 0h.55v.65h-.55z"/>
  <text x="79" y="52">80</text>
  <path d="M82 48h.55v.65H82zm.6 0h.55v.65h-.55zm.6 0h.55v.65h-.55zm.6 0h.55v.65h-.55zm-1.8.7h.55v.65H82zm2.4 0h.55v.65h-.55zm-2.4.7h.55v.65H82zm2.4 0h.55v.65h-.55zm-2.4.7h.55v.65H82zm.6 0h.55v.65h-.55zm.6 0h.55v.65h-.55zm.6 0h.55v.65h-.55zm-1.8.7h.55v.65H82zm0 .7h.55v.65H82zm0 .7h.55v.65H82z"/>
  <text x="79" y="60">81</text>
  <path d="M82.6 56h.55v.65h-.55zm.6 0h.55v.65h-.55zm.6 0h.55v.65h-.55zm-1.8.7h.55v.65H82zm2.4 0h.55v.65h-.55zm-2.4.7h.55v.65H82zm2.4 0h.55v.65h-.55zm-2.4.7h.55v.65H82zm2.4 0h.55v.65h-.55zm-2.4.7h.55v.65H82zm1.2 0h.55v.65h-.55zm1.2 0h.55v.65h-.55zm-2.4.7h.55v.65H82zm1.8 0h.55v.65h-.55zm-1.2.7h.55v.65h-.55zm.6 0h.55v.65h-.55zm1.2 0h.55v.65h-.55z"/>
  <text x="79" y="68">82</text>
  <path d="M82 64h.55v.65H82zm.6 0h.55v.65h-.55zm.6 0h.55v.65h-.55zm.6 0h.55v.65h-.55zm-1.8.7h.55v.65H82zm2.4 0h.55v.65h-.55zm-2.4.7h.55v.65H82zm2.4 0h.55v.65h-.55zm-2.4.7h.55v.65H82zm.6 0h.55v.65h-.55zm.6 0h.55v.65h-.55zm.6 0h.55v.65h-.55zm-1.8.7h.55v.65H82zm1.2 0h.55v.65h-.55zm-1.2.7h.55v.65H82zm1.8 0h.55v.65h-.55zm-1.8.7h.55v.65H82zm2.4 0h.55v.65h-.55z"/>
  <text x="79" y="76">83</text>
  <path d="M82.6 72h.55v.65h-.55zm.6 0h.55v.65h-.55zm.6 0h.55v.65h-.55zm.6 0h.55v.65h-.55zm-2.4.7h.55v.65H82zm0 .7h.55v.65H82zm.6.7h.55v.65h-.55zm.6 0h.55v.65h-.55zm.6 0h.55v.65h-.55zm.6.7h.55v.65h-.55zm0 .7h.55v.65h-.55zm-2.4.7h.55v.65H82zm.6 0h.55v.65h-.55zm.6 0h.55v.65h-.55zm.6 0h.55v.65h-.55z"/>
  <text x="79" y="84">84</text>
  <path d="M82 80h.55v.65H82zm.6 0h.55v.65h-.55zm.6 0h.55v.65h-.55zm.6 0h.55v.65h-.55zm.6 0h.55v.65h-.55zm-1.2.7h.55v.65h-.55zm0 .7h.55v.65h-.55zm0 .7h.55v.65h-.55zm0 .7h.55v.65h-.55zm0 .7h.55v.65h-.55zm0 .7h.55v.65h-.55z"/>
  <text x="79" y="92">85</text>
  <path d="M82 88h.55v.65H82zm2.4 0h.55v.65h-.55zm-2.4.7h.55v.65H82zm2.4 0h.55v.65h-.55zm-2.4.7h.55v.65H82zm2.4 0h.55v.65h-.55zm-2.4.7h.55v.65H82zm2.4 0h.55v.65h-.55zm-2.4.7h.55v.65H82zm2.4 0h.55v.65h-.55zm-2.4.7h.55v.65H82zm2.4 0h.55v.65h-.55zm-1.8.7h.55v.65h-.55zm.6 0h.55v.65h-.55zm.6 0h.55v.65h-.55z"/>
  <text x="79" y="100">86</text>
  <path d="M82 96h.55v.65H82zm2.4 0h.55v.65h-.55zm-2.4.7h.55v.65H82zm2.4 0h.55v.65h-.55zm-2.4.7h.55v.65H82zm2.4 0h.55v.65h-.55zm-2.4.7h.55v.65H82zm2.4 0h.55v.65h-.55zm-2.4.7h.55v.65H82zm2.4 0h.55v.65h-.55zm-1.8.7h.55v.65h-.55zm1.2 0h.55v.65h-.55zm-.6.7h.55v.65h-.55z"/>
  <text x="79" y="108">87</text>
  <path d="M82 104h.55v.65H82zm2.4 0h.55v.65h-.55zm-2.4.7h.55v.65H82zm2.4 0h.55v.65h-.55zm-2.4.7h.55v.65H82zm2.4 0h.55v.65h-.55zm-2.4.7h.55v.65H82zm1.2 0h.55v.65h-.55zm1.2 0h.55v.65h-.55zm-2.4.7h.55v.65H82zm1.2 0h.55v.65h-.55zm1.2 0h.55v.65h-.55zm-2.4.7h.55v.65H82zm1.2 0h.55v.65h-.55zm1.2 0h.55v.65h-.55zm-1.8.7h.55v.65h-.55zm1.2 0h.55v.65h-.55z"/>
  <text x="103" y="4">88</text>
  <path d="M106 0h.55v.65H106zm2.4 0h.55v.65h-.55zm-2.4.7h.55v.65H106zm2.4 0h.55v.65h-.55zm-1.8.7h.55v.65h-.55zm1.2 0h.55v.65h-.55zm-.6.7h.55v.65h-.55zm-.6.7h.55v.65h-.55zm1.2 0h.55v.65h-.55zm-1.8.7h.55v.65H106zm2.4 0h.55v.65h-.55zm-2.4.7h.55v.65H106zm2.4 0h.55v.65h-.55z"/>
  <text x="103" y="12">89</text>
  <path d="M106 8h.55v.65H106zm2.4 0h.55v.65h-.55zm-2.4.7h.55v.65H106zm2.4 0h.55v.65h-.55zm-2.4.7h.55v.65H106zm2.4 0h.55v.65h-.55zm-1.8.7h.55v.65h-.55zm1.2 0h.55v.65h-.55zm-.6.7h.55v.65h-.55zm0 .7h.55v.65h-.55zm0 .7h.55v.65h-.55z"/>
  <text x="103" y="20">90</text>
  <path d="M106 16h.55v.65H106zm.6 0h.55v.65h-.55zm.6 0h.55v.65h-.55zm.6 0h.55v.65h-.55zm.6 0h.55v.65h-.55zm0 .7h.55v.65h-.55zm-.6.7h.55v.65h-.55zm-.6.7h.55v.65h-.55zm-.6.7h.55v.65h-.55zm-.6.7h.55v.65H106zm0 .7h.55v.65H106zm.6 0h.55v.65h-.55zm.6 0h.55v.65h-.55zm.6 0h.55v.65h-.55zm.6 0h.55v.65h-.55z"/>
  <text x="103" y="28">91</text>
  <path d="M106 24h.55v.65H106zm.6 0h.55v.65h-.55zm.6 0h.55v.65h-.55zm-1.2.7h.55v.65H106zm0 .7h.55v.65H106zm0 .7h.55v.65H106zm0 .7h.55v.65H106zm0 .7h.55v.65H106zm0 .7h.55v.65H106zm.6 0h.55v.65h-.55zm.6 0h.55v.65h-.55z"/>
  <text x="103" y="36">92</text>
  <path d="M106 32h.55v.65H106zm2.4 0h.55v.65h-.55zm-1.8.7h.55v.65h-.55zm1.2 0h.55v.65h-.55zm-1.8.7h.55v.65H106zm.6 0h.55v.65h-.55zm.6 0h.55v.65h-.55zm.6 0h.55v.65h-.55zm.6 0h.55v.65h-.55zm-1.2.7h.55v.65h-.55zm-1.2.7h.55v.65H106zm.6 0h.55v.65h-.55zm.6 0h.55v.65h-.55zm.6 0h.55v.65h-.55zm.6 0h.55v.65h-.55zm-1.2.7h.55v.65h-.55zm0 .7h.55v.65h-.55z"/>
  <text x="103" y="44">93</text>
  <path d="M106.6 40h.55v.65h-.55zm.6 0h.55v.65h-.55zm.6 0h.55v.65h-.55zm0 .7h.55v.65h-.55zm0 .7h.55v.65h-.55zm0 .7h.55v.65h-.55zm0 .7h.55v.65h-.55zm0 .7h.55v.65h-.55zm-1.2.7h.55v.65h-.55zm.6 0h.55v.65h-.55zm.6 0h.55v.65h-.55z"/>
  <text x="103" y="52">94</text>
  <path d="M107.2 48h.55v.65h-.55zm-.6.7h.55v.65h-.55zm1.2 0h.55v.65h-.55zm-1.8.7h.55v.65H106zm2.4 0h.55v.65h-.55z"/>
  <text x="103" y="60">95</text>
  <path d="M106 60.2h.55v.65H106zm.6 0h.55v.65h-.55zm.6 0h.55v.65h-.55zm.6 0h.55v.65h-.55zm.6 0h.55v.65h-.55z"/>
  <text x="103" y="68">96</text>
  <path d="M106.6 64h.55v.65h-.55zm.6.7h.55v.65h-.55zm.6.7h.55v.65h-.55z"/>
  <text x="103" y="76">97</text>
  <path d="M106.6 73.4h.55v.65h-.55zm.6 0h.55v.65h-.55zm.6 0h.55v.65h-.55zm.6.7h.55v.65h-.55zm-1.8.7h.55v.65h-.55zm.6 0h.55v.65h-.55zm.6 0h.55v.65h-.55zm.6 0h.55v.65h-.55zm-2.4.7h.55v.65H106zm2.4 0h.55v.65h-.55zm-1.8.7h.55v.65h-.55zm.6 0h.55v.65h-.55zm.6 0h.55v.65h-.55zm.6 0h.55v.65h-.55z"/>
  <text x="103" y="84">98</text>
  <path d="M106 80h.55v.65H106zm0 .7h.55v.65H106zm0 .7h.55v.65H106zm1.2 0h.55v.65h-.55zm.6 0h.55v.65h-.55zm-1.8.7h.55v.65H106zm.6 0h.55v.65h-.55zm1.8 0h.55v.65h-.55zm-2.4.7h.55v.65H106zm2.4 0h.55v.65h-.55zm-2.4.7h.55v.65H106zm2.4 0h.55v.65h-.55zm-2.4.7h.55v.65H106zm.6 0h.55v.65h-.55zm.6 0h.55v.65h-.55zm.6 0h.55v.65h-.55z"/>
  <text x="103" y="92">99</text>
  <path d="M106.6 89.4h.55v.65h-.55zm.6 0h.55v.65h-.55zm.6 0h.55v.65h-.55zm-1.8.7h.55v.65H106zm0 .7h.55v.65H106zm0 .7h.55v.65H106zm2.4 0h.55v.65h-.55zm-1.8.7h.55v.65h-.55zm.6 0h.55v.65h-.55zm.6 0h.55v.65h-.55z"/>
  <text x="103" y="100">100</text>
  <path d="M108.4 96h.55v.65h-.55zm0 .7h.55v.65h-.55zm-1.8.7h.55v.65h-.55zm.6 0h.55v.65h-.55zm1.2 0h.55v.65h-.55zm-2.4.7h.55v.65H106zm1.8 0h.55v.65h-.55zm.6 0h.55v.65h-.55zm-2.4.7h.55v.65H106zm2.4 0h.55v.65h-.55zm-2.4.7h.55v.65H106zm2.4 0h.55v.65h-.55zm-1.8.7h.55v.65h-.55zm.6 0h.55v.65h-.55zm.6 0h.55v.65h-.55zm.6 0h.55v.65h-.55z"/>
  <text x="103" y="108">101</text>
  <path d="M106.6 105.4h.55v.65h-.55zm.6 0h.55v.65h-.55zm.6 0h.55v.65h-.55zm-1.8.7h.55v.65H106zm2.4 0h.55v.65h-.55zm-2.4.7h.55v.65H106zm.6 0h.55v.65h-.55zm.6 0h.55v.65h-.55zm.6 0h.55v.65h-.55zm.6 0h.55v.65h-.55zm-2.4.7h.55v.65H106zm.6.7h.55v.65h-.55zm.6 0h.55v.65h-.55zm.6 0h.55v.65h-.55z"/>
  <text x="127" y="4">102</text>
  <path d="M131.2 0h.55v.65h-.55zm.6 0h.55v.65h-.55zm-1.2.7h.55v.65h-.55zm1.8 0h.55v.65h-.55zm-1.8.7h.55v.65h-.55zm-.6.7h.55v.65H130zm.6 0h.55v.65h-.55zm.6 0h.55v.65h-.55zm-.6.7h.55v.65h-.55zm0 .7h.55v.65h-.55zm0 .7h.55v.65h-.55z"/>
  <text x="127" y="12">103</text>
  <path d="M130.6 8.7h.55v.65h-.55zm.6 0h.55v.65h-.55zm.6 0h.55v.65h-.55zm.6 0h.55v.65h-.55zm-2.4.7h.55v.65H130zm2.4 0h.55v.65h-.55zm-2.4.7h.55v.65H130zm2.4 0h.55v.65h-.55zm-1.8.7h.55v.65h-.55zm.6 0h.55v.65h-.55zm.6 0h.55v.65h-.55zm.6 0h.55v.65h-.55zm0 .7h.55v.65h-.55zm-1.8.7h.55v.65h-.55zm.6 0h.55v.65h-.55zm.6 0h.55v.65h-.55z"/>
  <text x="127" y="20">104</text>
  <path d="M130 16h.55v.65H130zm0 .7h.55v.65H130zm0 .7h.55v.65H130zm1.2 0h.55v.65h-.55zm.6 0h.55v.65h-.55zm-1.8.7h.55v.65H130zm.6 0h.55v.65h-.55zm1.8 0h.55v.65h-.55zm-2.4.7h.55v.65H130zm2.4 0h.55v.65h-.55zm-2.4.7h.55v.65H130zm2.4 0h.55v.65h-.55zm-2.4.7h.55v.65H130zm2.4 0h.55v.65h-.55z"/>
  <text x="127" y="28">105</text>
  <path d="M131.2 24h.55v.65h-.55zm-.6 1.4h.55v.65h-.55zm.6 0h.55v.65h-.55zm0 .7h.55v.65h-.55zm0 .7h.55v.65h-.55zm0 .7h.55v.65h-.55zm-.6.7h.55v.65h-.55zm.6 0h.55v.65h-.55zm.6 0h.55v.65h-.55z"/>
  <text x="127" y="36">106</text>
  <path d="M131.8 32h.55v.65h-.55zm-.6 1.4h.55v.65h-.55zm.6 0h.55v.65h-.55zm0 .7h.55v.65h-.55zm0 .7h.55v.65h-.55zm-1.8.7h.55v.65H130zm1.8 0h.55v.65h-.55zm-1.2.7h.55v.65h-.55zm.6 0h.55v.65h-.55z"/>
  <text x="127" y="44">107</text>
  <path d="M130 40h.55v.65H130zm0 .7h.55v.65H130zm0 .7h.55v.65H130zm1.8 0h.55v.65h-.55zm-1.8.7h.55v.65H130zm1.2 0h.55v.65h-.55zm-1.2.7h.55v.65H130zm.6 0h.55v.65h-.55zm-.6.7h.55v.65H130zm1.2 0h.55v.65h-.55zm-1.2.7h.55v.65H130zm1.8 0h.55v.65h-.55z"/>
  <text x="127" y="52">108</text>
  <path d="M130.6 48h.55v.65h-.55zm.6 0h.55v.65h-.55zm0 .7h.55v.65h-.55zm0 .7h.55v.65h-.55zm0 .7h.55v.65h-.55zm0 .7h.55v.65h-.55zm0 .7h.55v.65h-.55zm-.6.7h.55v.65h-.55zm.6 0h.55v.65h-.55zm.6 0h.55v.65h-.55z"/>
  <text x="127" y="60">109</text>
  <path d="M130 57.4h.55v.65H130zm.6 0h.55v.65h-.55zm1.2 0h.55v.65h-.55zm-1.8.7h.55v.65H130zm1.2 0h.55v.65h-.55zm1.2 0h.55v.65h-.55zm-2.4.7h.55v.65H130zm1.2 0h.55v.65h-.55zm1.2 0h.55v.65h-.55zm-2.4.7h.55v.65H130zm2.4 0h.55v.65h-.55zm-2.4.7h.55v.65H130zm2.4 0h.55v.65h-.55z"/>
  <text x="127" y="68">110</text>
  <path d="M130 65.4h.55v.65H130zm1.2 0h.55v.65h-.55zm.6 0h.55v.65h-.55zm-1.8.7h.55v.65H130zm.6 0h.55v.65h-.55zm1.8 0h.55v.65h-.55zm-2.4.7h.55v.65H130zm2.4 0h.55v.65h-.55zm-2.4.7h.55v.65H130zm2.4 0h.55v.65h-.55zm-2.4.7h.55v.65H130zm2.4 0h.55v.65h-.55z"/>
  <text x="127" y="76">111</text>
  <path d="M130.6 73.4h.55v.65h-.55zm.6 0h.55v.65h-.55zm.6 0h.55v.65h-.55zm-1.8.7h.55v.65H130zm2.4 0h.55v.65h-.55zm-2.4.7h.55v.65H130zm2.4 0h.55v.65h-.55zm-2.4.7h.55v.65H130zm2.4 0h.55v.65h-.55zm-1.8.7h.55v.65h-.55zm.6 0h.55v.65h-.55zm.6 0h.55v.65h-.55z"/>
  <text x="127" y="84">112</text>
  <path d="M130 81.4h.55v.65H130zm.6 0h.55v.65h-.55zm.6 0h.55v.65h-.55zm.6 0h.55v.65h-.55zm-1.8.7h.55v.65H130zm2.4 0h.55v.65h-.55zm-2.4.7h.55v.65H130zm.6 0h.55v.65h-.55zm.6 0h.55v.65h-.55zm.6 0h.55v.65h-.55zm-1.8.7h.55v.65H130zm0 .7h.55v.65H130z"/>
  <text x="127" y="92">113</text>
  <path d="M130.6 89.4h.55v.65h-.55zm.6 0h.55v.65h-.55zm1.2 0h.55v.65h-.55zm-2.4.7h.55v.65H130zm1.8 0h.55v.65h-.55zm.6 0h.55v.65h-.55zm-1.8.7h.55v.65h-.55zm.6 0h.55v.65h-.55zm.6 0h.55v.65h-.55zm.6 0h.55v.65h-.55zm0 .7h.55v.65h-.55zm0 .7h.55v.65h-.55z"/>
  <text x="127" y="100">114</text>
  <path d="M130 97.4h.55v.65H130zm1.2 0h.55v.65h-.55zm.6 0h.55v.65h-.55zm-1.8.7h.55v.65H130zm.6 0h.55v.65h-.55zm1.8 0h.55v.65h-.55zm-2.4.7h.55v.65H130zm0 .7h.55v.65H130zm0 .7h.55v.65H130z"/>
  <text x="127" y="108">115</text>
  <path d="M130.6 105.4h.55v.65h-.55zm.6 0h.55v.65h-.55zm.6 0h.55v.65h-.55zm-1.8.7h.55v.65H130zm.6.7h.55v.65h-.55zm.6 0h.55v.65h-.55zm.6 0h.55v.65h-.55zm.6.7h.55v.65h-.55zm-2.4.7h.55v.65H130zm.6 0h.55v.65h-.55zm.6 0h.55v.65h-.55zm.6 0h.55v.65h-.55z"/>
  <text x="151" y="4">116</text>
  <path d="M154.6 0h.55v.65h-.55zm0 .7h.55v.65h-.55zm-.6.7h.55v.65H154zm.6 0h.55v.65h-.55zm.6 0h.55v.65h-.55zm-.6.7h.55v.65h-.55zm0 .7h.55v.65h-.55zm0 .7h.55v.65h-.55zm1.8 0h.55v.65h-.55zm-1.2.7h.55v.65h-.55zm.6 0h.55v.65h-.55z"/>
  <text x="151" y="12">117</text>
  <path d="M154 9.4h.55v.65H154zm2.4 0h.55v.65h-.55zm-2.4.7h.55v.65H154zm2.4 0h.55v.65h-.55zm-2.4.7h.55v.65H154zm2.4 0h.55v.65h-.55zm-2.4.7h.55v.65H154zm1.8 0h.55v.65h-.55zm.6 0h.55v.65h-.55zm-1.8.7h.55v.65h-.55zm.6 0h.55v.65h-.55zm1.2 0h.55v.65h-.55z"/>
  <text x="151" y="20">118</text>
  <path d="M154 17.4h.55v.65H154zm2.4 0h.55v.65h-.55zm-2.4.7h.55v.65H154zm2.4 0h.55v.65h-.55zm-2.4.7h.55v.65H154zm2.4 0h.55v.65h-.55zm-1.8.7h.55v.65h-.55zm1.2 0h.55v.65h-.55zm-.6.7h.55v.65h-.55z"/>
  <text x="151" y="28">119</text>
  <path d="M154 25.4h.55v.65H154zm2.4 0h.55v.65h-.55zm-2.4.7h.55v.65H154zm1.2 0h.55v.65h-.55zm1.2 0h.55v.65h-.55zm-2.4.7h.55v.65H154zm1.2 0h.55v.65h-.55zm1.2 0h.55v.65h-.55zm-2.4.7h.55v.65H154zm1.2 0h.55v.65h-.55zm1.2 0h.55v.65h-.55zm-1.8.7h.55v.65h-.55zm1.2 0h.55v.65h-.55z"/>
  <text x="151" y="36">120</text>
  <path d="M154 33.4h.55v.65H154zm2.4 0h.55v.65h-.55zm-1.8.7h.55v.65h-.55zm1.2 0h.55v.65h-.55zm-.6.7h.55v.65h-.55zm-.6.7h.55v.65h-.55zm1.2 0h.55v.65h-.55zm-1.8.7h.55v.65H154zm2.4 0h.55v.65h-.55z"/>
  <text x="151" y="44">121</text>
  <path d="M154 41.4h.55v.65H154zm2.4 0h.55v.65h-.55zm-2.4.7h.55v.65H154zm2.4 0h.55v.65h-.55zm-1.8.7h.55v.65h-.55zm.6 0h.55v.65h-.55zm.6 0h.55v.65h-.55zm.6 0h.55v.65h-.55zm0 .7h.55v.65h-.55zm-1.8.7h.55v.65h-.55zm.6 0h.55v.65h-.55zm.6 0h.55v.65h-.55z"/>
  <text x="151" y="52">122</text>
  <path d="M154 49.4h.55v.65H154zm.6 0h.55v.65h-.55zm.6 0h.55v.65h-.55zm.6 0h.55v.65h-.55zm.6 0h.55v.65h-.55zm-.6.7h.55v.65h-.55zm-.6.7h.55v.65h-.55zm-.6.7h.55v.65h-.55zm-.6.7h.55v.65H154zm.6 0h.55v.65h-.55zm.6 0h.55v.65h-.55zm.6 0h.55v.65h-.55zm.6 0h.55v.65h-.55z"/>
  <text x="151" y="60">123</text>
  <path d="M155.8 56h.55v.65h-.55zm-.6.7h.55v.65h-.55zm0 .7h.55v.65h-.55zm-.6.7h.55v.65h-.55zm.6.7h.55v.65h-.55zm0 .7h.55v.65h-.55zm.6.7h.55v.65h-.55z"/>
  <text x="151" y="68">124</text>
  <path d="M155.2 64h.55v.65h-.55zm0 .7h.55v.65h-.55zm0 .7h.55v.65h-.55zm0 .7h.55v.65h-.55zm0 .7h.55v.65h-.55zm0 .7h.55v.65h-.55zm0 .7h.55v.65h-.55z"/>
  <text x="151" y="76">125</text>
  <path d="M154.6 72h.55v.65h-.55zm.6.7h.55v.65h-.55zm0 .7h.55v.65h-.55zm.6.7h.55v.65h-.55zm-.6.7h.55v.65h-.55zm0 .7h.55v.65h-.55zm-.6.7h.55v.65h-.55z"/>
  <text x="151" y="84">126</text>
  <path d="M155.2 80.7h.55v.65h-.55zm.6.7h.55v.65h-.55zm-1.8.7h.55v.65H154zm.6 0h.55v.65h-.55zm.6 0h.55v.65h-.55zm.6 0h.55v.65h-.55zm.6 0h.55v.65h-.55zm-.6.7h.55v.65h-.55zm-.6.7h.55v.65h-.55z"/>
  <text x="151" y="92">127</text>
  <path d="M155.2 88.7h.55v.65h-.55zm-.6.7h.55v.65h-.55zm-.6.7h.55v.65H154zm.6 0h.55v.65h-.55zm.6 0h.55v.65h-.55zm.6 0h.55v.65h-.55zm.6 0h.55v.65h-.55zm-1.8.7h.55v.65h-.55zm.6.7h.55v.65h-.55z"/>
</svg>
