<svg xmlns="http://www.w3.org/2000/svg" height="576" width="768">
 <rect width="768" height="576" stroke="#353" fill="black" stroke-width="8" />
 <path d="M123.9 224.1l-.7-1.2 1.5-2.4 1.5-2.4-1.5-2.5-1.5-2.5 1.4-1.7 1.4-1.7-1.5-2.8-1.5-2.8 1.5-2.5 1.5-2.5-1.5-1.8-1.5-1.8 1.5-2.5 1.5-2.5-1.5-2.4-1.5-2.4 1.4-2.3 1.4-2.3-1.5-1.8-1.5-1.8 1.5-2.5 1.5-2.5-1.4-2.3-1.4-2.3 1.8-3.7 1.8-3.7h27.1v4.3l-1.3 1.3-1.3 1.3 1.6 2.5 1.6 2.5-1.5 2.4-1.5 2.4 1.4 2.3 1.4 2.3-1.5 1.8-1.5 1.8 1.5 2.5 1.5 2.5-1.5 2.4-1.5 2.4.7 1.1.7 1.1h11.7l1.9-4.8 1.9-4.8h13.8v4.6l-1.4.4-1.4.4.7 2 .7 2H192l1.6-3.8 1.6-3.8-1.4-2.3-1.4-2.3 1.5-1.8 1.5-1.8-1.4-2.3-1.4-2.3 1.5-2.4 1.5-2.4-1.4-2.3-1.4-2.3 1.8-3.7 1.8-3.7H223v4.3l-1.3 1.3-1.3 1.3 1.6 2.5 1.6 2.5-1.5 2.4-1.5 2.4 1.4 2.3 1.4 2.3-1.5 1.8-1.5 1.8 1.5 2.5 1.5 2.5-1.5 2.4-1.5 2.4 1.4 2.2 1.4 2.2-1.2 2.2-1.2 2.2 1.3 2.2 1.3 2.2-1.5 2.4-1.5 2.4 1.5 2.4 1.5 2.4-2 3.3-2 3.3-12.4.3-12.4.3-1.2-1.2-1.2-1.2 1.4-1.4 1.4-1.4v-4h-15.8v-4.6l1.4-.4 1.4-.4-.8-2.1-.8-2.1-5.6.3-5.6.3-2.3 4.5-2.3 4.5h-9.2l-2.3 4.5-2.3 4.5-12.8.3-12.8.3zm125.2-.7l-.7-1.9 1.3-1.3 1.3-1.3v-3.1h-15.4l.2-11.8.2-11.8.9-2.1.9-2.1h10.1l2.1-4.8 2.1-4.8h54.5l1.2 1.5 1.2 1.5-1.1 1.7-1.1 1.7v3h15.8v4.6l-1.5.5-1.5.5 1.7 3.2 1.7 3.2-1.6 1.9-1.6 1.9 1.5 2.4 1.5 2.4-1.5 3.5-1.5 3.5H310l-2.1 4.8-2.1 4.8h-55.9zm44.4-11.4l1.5-3.5-1.5-2.4-1.5-2.4 1.6-1.9 1.6-1.9-1.6-3-1.6-3 1.6-1 1.6-1-.7-1.9-.7-1.9H266l-.9 2.1-.9 2.1-.2 11.8-.2 11.8H292zm55.5 11.4l-.7-1.8 1.4-1.7 1.4-1.7-1.5-2.5-1.5-2.5 1.5-2.5 1.5-2.5-1.5-1.8-1.5-1.8 1.4-2.3 1.4-2.3-1.5-2.4-1.5-2.4 1.5-2.4 1.5-2.4-1.5-2.4-1.5-2.4 1.5-2.4 1.5-2.4-1.4-2.3-1.4-2.3 1.5-1.8 1.5-1.8-1.4-2.3-1.4-2.3 1.6-3.8 1.6-3.8h26l.7 1.1.7 1.1-1.5 2.4-1.5 2.4 1.5 2.4 1.5 2.4-1.4 2.3-1.4 2.3 1.4 1.7 1.4 1.7-1.4 3.1-1.4 3.1 1.5 1.8 1.5 1.8-1.5 1.8-1.5 1.8.7 1.8.7 1.8h11.2l.6-2.4.6-2.4h2.1v-4.9h10.3l1.7-3.9 1.7-3.9 1.3-.8 1.3-.8h23.6l.7 1.2.7 1.2-1.6 3.6-1.6 3.6h-10.3v4.8h-2.1l-.6 2.4-.6 2.4h-10l-1.1 3.1-1.1 3.1v2.2H419l.7 1.9.7 1.9-1.3 1.3-1.3 1.3v3.1h15.8v3.7l-1.9 3-1.9 3h-25.1l-.8-1.3-.8-1.3 1.3-1.3 1.3-1.3v-4.2h-15.5v-4.6l1.4-.4 1.4-.4-.8-2.1-.8-2.1-5.5.3-5.5.3-2 3.3-2 3.3 1.4 2.3 1.4 2.3-1.8 3.7-1.8 3.7h-25.7zm124.6 0l-.6-1.7 1.1-.7 1.1-.7v-4.7h-15.6V211l1.5-.5 1.5-.5-1.7-3.2-1.7-3.2 1.5-1.9 1.5-1.9-1.6-3-1.6-3 1.7-1.1 1.7-1.1-1.6-2.5-1.6-2.5 1.9-4.1 1.9-4.1h25.3l.8 1.3.8 1.3-1.6 3.1-1.6 3.1 1.5.5 1.5.5v3.9l-1.5.5-1.5.5 1.7 3.2 1.7 3.2-1.5 1.9-1.5 1.9 1.6 3 1.6 3-1.4 1.4-1.4 1.4v3.1h12.8l1.6-3.6 1.6-3.6-1.5-1.8-1.5-1.8 1.5-2.8 1.5-2.8-1.6-2.6-1.6-2.6 1.3-.8 1.3-.8.7-2.1.7-2.1h12.1l.8 1.3.8 1.3-1.3 1.3-1.3 1.3v4.1l1.5.5 1.5.5-1.7 3.2-1.7 3.2 1.5 1.9 1.5 1.9-1.4 1.4-1.4 1.4v4.3h13.4v-4.6l1.5-.5 1.5-.5-1.7-3.2-1.7-3.2 1.5-1.9 1.5-1.9-1.6-3-1.6-3 1.7-1.1 1.7-1.1-1.6-2.5-1.6-2.5 1.9-4.1 1.9-4.1h27.9l.7 1.8.7 1.8-1.5 1.8-1.5 1.8 1.6 3 1.6 3-1.7 1-1.7 1 1.6 3 1.6 3-1.5 1.9-1.5 1.9 1.7 3.2 1.7 3.2-1.5.5-1.5.5v4.6h-11.1l-.6 2.4-.6 2.4H544l-.6 2.4-.6 2.4h-68.2l-.6-1.7zm116.2.1l-.6-1.6 1.2-3.2 1.2-3.2h-1v-4.6l1.5-.5 1.5-.5-1.6-3-1.6-3 1.6-2.7 1.6-2.7-1.5-.5-1.5-.5v-4.6h2.8v-5.4h26.8l.7 1.9.7 1.9-1.6 1-1.6 1 1.6 3 1.6 3-1.5 1.9-1.5 1.9 1.6 3 1.6 3-1.4 1.4-1.4 1.4v3.1h1.8v3.7l-1.9 3-1.9 3h-26.2l-.6-1.6zm1.4-45.9l-.7-1.2 1.6-3.6 1.6-3.6h27.8v2l-1.9 3.8-1.9 3.8h-25.3zM314.7 357.4l-.5-1.5 1.3-2.1 1.3-2.1-1.5-2.4-1.5-2.4 1.4-2.2 1.4-2.2-1.2-2.2-1.2-2.2 1.2-2.7 1.2-2.7-1.4-1.7-1.4-1.7 1.5-2.5 1.5-2.5-1.5-2.5-1.5-2.5 1.4-1.7 1.4-1.7-1.3-2.9-1.3-2.9 1.1-.7 1.1-.7V304h-13.4v4.8h-2.1l-.6 2.4-.6 2.4h-13.7l-.7-1.8-.7-1.8 1.4-1.7 1.4-1.7-1.4-2.3-1.4-2.3 1.6-3.8 1.6-3.8h83.5l.7 1.8.7 1.8-1.5 1.8-1.5 1.8 1.4 1.4 1.4 1.4v4.3h-2.1l-.6 2.5-.6 2.5-5.8-.3-5.8-.3.1-2.4.1-2.4.4-1.8.4-1.8-6.2-.3-6.2-.3-1.7 3.5-1.7 3.5 1.2 2.1 1.2 2.1-1.4 2.2-1.4 2.2 1.5 2.4 1.5 2.4-1.5 2.4-1.5 2.4 1.5 2.4 1.5 2.4-1.3 2.1-1.3 2.1 1.3 2.1 1.3 2.1-1.5 2.4-1.5 2.4 1.5 2.4 1.5 2.4-2 3.3-2 3.3-12.7.3-12.7.3-.5-1.5zm111.6-.3l-.7-1.8 1.4-1.7 1.4-1.7-.7-1.2-.7-1.2h-14.4l-.7-1.2-.7-1.2 1.4-1.7 1.4-1.7-.7-1.8-.7-1.8h-14.7V337l1.5-2.5 1.5-2.5-1.5-.5-1.5-.5v-4.1l1.4-1.4 1.4-1.4-1.4-1.4-1.4-1.4v-4.8l1.5-.5 1.5-.5-1.7-3.2-1.7-3.2 1.4-1.7 1.4-1.7-1.4-2.3-1.4-2.3 1.6-3.8 1.6-3.8h26.2l.7 2 .7 2-1.4.4-1.4.4v4.1l1.4 1.4 1.4 1.4-1.5 1.9-1.5 1.9 1.5 2.8 1.5 2.8-1.5 2.5-1.5 2.5 1.6 1.9 1.5 1.9-1.5 1.8-1.5 1.8 1.6 3 1.6 3-1.4 1.4-1.4 1.4v3.1h26.5l1.4-3.5 1.4-3.5-1.2-2.1-1.1-2.1 1.3-2.2 1.3-2.2-1.3-2.2-1.3-2.2 1.2-2.1 1.2-2.1-1.1-2.6-1.1-2.6 1.3-2.1 1.3-2.1-1.3-2.1-1.3-2.1 1.6-3.9 1.6-3.9H483v4.2l-1 1.7-1 1.7 1.4 2.2 1.4 2.2-1.3 2.1-1.3 2.1 1.1 2.6 1.1 2.6-1.2 2.1-1.2 2.1 1.3 2.2 1.3 2.2-1.3 2.1-1.3 2.1 1.2 2.7 1.2 2.7-1.6 3-1.6 3h-9.3l-2.1 4.8-2.1 4.8h-9.8l-2.1 4.8-2.1 4.8h-25.6l-.7-1.8z" fill="#fff"/>
</svg>
 