<svg width="181mm" height="65.5mm" version="1.1" viewBox="-3 0 181 65.5" xmlns="http://www.w3.org/2000/svg">
 <text x="5.6548595" y="63.351254" fill="#008000" font-family="sans-serif" font-size="7.06px"><tspan x="5.6548595" y="63.351254" fill="#008000" font-size="7.06px" font-weight="bold">Coil Unpowered</tspan></text>
 <g transform="matrix(.643 0 0 .643 -2.47 -4.22)">
  <g stroke-linecap="round">
   <g transform="matrix(6.22 0 0 6.22 -12.3 0)">
    <rect x="5.94" y="7.01" width=".331" height="1.77" fill="#4d4d4d" stroke-width=".0569"/>
    <rect transform="rotate(-38.4)" x=".315" y="7.34" width=".331" height="1.77" fill="#00f" stroke-width=".0569"/>
    <circle cx="6.11" cy="6.94" r=".318" fill="#4d4d4d" stroke-width=".14"/>
   </g>
   <g transform="matrix(6.22 0 0 6.22 -19.8 .529)" fill="#666">
    <rect x="5.94" y="3.31" width=".331" height="1.77" stroke-width=".0569"/>
    <circle cx="6.08" cy="5.25" r=".318" stroke-width=".14"/>
   </g>
   <g transform="matrix(6.22 0 0 6.22 -3.35 .529)" fill="#666">
    <rect x="5.94" y="3.31" width=".331" height="1.77" stroke-width=".0569"/>
    <circle cx="6.08" cy="5.25" r=".318" stroke-width=".14"/>
   </g>
  </g>
  <g fill="#747474" font-family="sans-serif" font-size="10.6px">
   <text x="19.242981" y="65">P1</text>
   <text x="-1.8621972" y="18.608742">NC1</text>
   <text x="32.884407" y="18.588072">NO1</text>
  </g>
 </g>
 <g transform="translate(65.6 -27.3)">
  <g stroke-linecap="round">
   <g transform="matrix(4 0 0 4 -32.5 23.2)">
    <rect x="5.94" y="7.01" width=".331" height="1.77" fill="#4d4d4d" stroke-width=".0569"/>
    <rect transform="rotate(-38.4)" x=".315" y="7.34" width=".331" height="1.77" fill="#00f" stroke-width=".0569"/>
    <circle cx="6.11" cy="6.94" r=".318" fill="#4d4d4d" stroke-width=".14"/>
   </g>
   <g transform="matrix(4 0 0 4 -37.2 23.6)" fill="#666">
    <rect x="5.94" y="3.31" width=".331" height="1.77" stroke-width=".0569"/>
    <circle cx="6.08" cy="5.25" r=".318" stroke-width=".14"/>
   </g>
   <g transform="matrix(4 0 0 4 -26.7 23.6)" fill="#666">
    <rect x="5.94" y="3.31" width=".331" height="1.77" stroke-width=".0569"/>
    <circle cx="6.08" cy="5.25" r=".318" stroke-width=".14"/>
   </g>
  </g>
  <g fill="#747474" font-family="sans-serif" font-size="6.8px" stroke-width=".643">
   <text x="-12.154872" y="65">P2</text>
   <text x="-25.718412" y="35.186005">NC2</text>
   <text x="-3.3880174" y="35.172718">NO2</text>
  </g>
 </g>
 <path d="m87.4 0v65.5" fill="none" stroke="#000" stroke-dasharray="0.495495, 0.495495" stroke-width=".495"/>
 <text x="137.96585" y="64.138718" fill="#008000" font-family="sans-serif" font-size="7.06px"><tspan x="137.96585" y="64.138718" fill="#008000" font-size="7.06px" font-weight="bold" text-align="center" text-anchor="middle">Coil Powered</tspan></text>
 <g transform="translate(3.78 -8.17e-5)">
  <g transform="matrix(.643 0 0 .643 94.8 -4.8)">
   <g stroke-linecap="round">
    <g transform="matrix(-6.22 0 0 6.22 64.9 0)">
     <rect x="5.94" y="7.01" width=".331" height="1.77" fill="#4d4d4d" stroke-width=".0569"/>
     <rect transform="rotate(-38.4)" x=".315" y="7.34" width=".331" height="1.77" fill="#00f" stroke-width=".0569"/>
     <circle cx="6.11" cy="6.94" r=".318" fill="#4d4d4d" stroke-width=".14"/>
    </g>
    <g transform="matrix(6.22 0 0 6.22 -19.8 .529)" fill="#666">
     <rect x="5.94" y="3.31" width=".331" height="1.77" stroke-width=".0569"/>
     <circle cx="6.08" cy="5.25" r=".318" stroke-width=".14"/>
    </g>
    <g transform="matrix(6.22 0 0 6.22 -3.35 .529)" fill="#666">
     <rect x="5.94" y="3.31" width=".331" height="1.77" stroke-width=".0569"/>
     <circle cx="6.08" cy="5.25" r=".318" stroke-width=".14"/>
    </g>
   </g>
   <g font-family="sans-serif" font-size="10.6px">
    <g fill="#747474">
     <text x="19.242981" y="65">P1</text>
     <text x="-1.8621972" y="18.608742">NC1</text>
     <text x="32.884407" y="18.588072">NO1</text>
    </g>
    <text x="14.921749" y="86.591202"><tspan fill="#747474">5V</tspan></text>
    <text x="91.764664" y="86.66613" fill="#747474">GND</text>
   </g>
  </g>
  <g transform="translate(163 -27.9)">
   <g stroke-linecap="round">
    <g transform="matrix(-4 0 0 4 17.2 23.2)">
     <rect x="5.94" y="7.01" width=".331" height="1.77" fill="#4d4d4d" stroke-width=".0569"/>
     <rect transform="rotate(-38.4)" x=".315" y="7.34" width=".331" height="1.77" fill="#00f" stroke-width=".0569"/>
     <circle cx="6.11" cy="6.94" r=".318" fill="#4d4d4d" stroke-width=".14"/>
    </g>
    <g transform="matrix(4 0 0 4 -37.2 23.6)" fill="#666">
     <rect x="5.94" y="3.31" width=".331" height="1.77" stroke-width=".0569"/>
     <circle cx="6.08" cy="5.25" r=".318" stroke-width=".14"/>
    </g>
    <g transform="matrix(4 0 0 4 -26.7 23.6)" fill="#666">
     <rect x="5.94" y="3.31" width=".331" height="1.77" stroke-width=".0569"/>
     <circle cx="6.08" cy="5.25" r=".318" stroke-width=".14"/>
    </g>
   </g>
   <g fill="#747474" font-family="sans-serif" font-size="6.8px" stroke-width=".643">
    <text x="-12.154872" y="65">P2</text>
    <text x="-25.718412" y="35.186005">NC2</text>
    <text x="-3.3880174" y="35.172718">NO2</text>
   </g>
  </g>
 </g>
 <path d="m151 47.9 4.62-0.0075m-4.25 0.0186c0.0809-2.01-1.71-4.08-3.82-3.69-1.74 0.256-2.93 1.99-2.86 3.69 0.0664-2.02-1.74-4.07-3.85-3.69-1.74 0.256-2.93 1.99-2.86 3.69 0.0877-1.93-1.51-3.95-3.56-3.72-1.84 0.136-3.16 1.94-3.08 3.72 0.0664-2.02-1.74-4.07-3.85-3.69-1.74 0.256-2.93 1.99-2.86 3.69m-4.26-0.0164h4.64" fill="none" stroke="#d4794f" stroke-opacity=".957" stroke-width=".754"/>
 <path d="m49.3 47.9 4.62-0.0075m-4.25 0.0186c0.0809-2.01-1.71-4.08-3.82-3.69-1.74 0.256-2.93 1.99-2.86 3.69 0.0664-2.02-1.74-4.07-3.85-3.69-1.74 0.256-2.93 1.99-2.86 3.69 0.0877-1.93-1.51-3.95-3.56-3.72-1.84 0.136-3.16 1.94-3.08 3.72 0.0664-2.02-1.74-4.07-3.85-3.69-1.74 0.256-2.93 1.99-2.86 3.69m-4.26-0.0164h4.64" fill="none" stroke="#919191" stroke-width=".754"/>
 <path d="m140 48.8c0.011-0.053 0.741-2.99 0.754-3.03 0.0473-0.158 0.698-2.8 0.691-2.8-5e-3 -0.0047-0.0794-0.0021-0.166 0.0056-0.338 0.0307-0.605 0.0568-0.777 0.0759-0.449 0.0498-0.859 0.0854-0.869 0.0755-5e-3 -0.0047 2e-3 -0.0416 0.0144-0.082 0.013-0.0404 0.0373-0.118 0.054-0.173s0.0438-0.142 0.0602-0.193c0.0164-0.0513 0.0396-0.126 0.0516-0.167 0.0119-0.0404 0.0454-0.148 0.0744-0.24 0.0289-0.0917 0.0776-0.248 0.108-0.347 0.0305-0.099 0.061-0.195 0.0676-0.213 7e-3 -0.0184 0.0358-0.111 0.0648-0.207 0.029-0.0954 0.0744-0.242 0.101-0.327 0.0266-0.0844 0.0562-0.18 0.0659-0.213 0.01-0.033 0.0517-0.168 0.0934-0.3 0.0416-0.132 0.103-0.327 0.136-0.433 0.128-0.413 0.211-0.677 0.246-0.787 0.0131-0.0406 0.0639-0.203 0.113-0.36s0.11-0.352 0.135-0.433c0.0253-0.0807 0.0513-0.165 0.0579-0.187 7e-3 -0.022 0.0207-0.07 0.0315-0.107 0.0108-0.0367 0.0259-0.0847 0.0335-0.107 8e-3 -0.022 0.0315-0.097 0.053-0.167s0.0614-0.199 0.0886-0.287c0.0788-0.255 0.14-0.447 0.169-0.534 0.0149-0.044 0.0318-0.101 0.0376-0.127 6e-3 -0.0257 0.0283-0.0966 0.05-0.158 0.0444-0.125 0.0356-0.117 0.33-0.279 0.137-0.0753 0.441-0.247 0.654-0.37s0.732-0.416 0.794-0.448c0.033-0.0174 0.069-0.0385 0.08-0.0469 0.011-0.0085 0.056-0.035 0.1-0.059 0.128-0.0699 0.0913-0.049 0.985-0.555 0.111-0.063 0.223-0.127 0.249-0.141 0.0257-0.0148 0.0737-0.0418 0.107-0.06 0.033-0.0182 0.0791-0.0446 0.102-0.0586 0.0233-0.014 0.0457-0.0199 0.0499-0.0131 4e-3 0.0068-0.0139 0.0595-0.0402 0.117-0.0263 0.0576-0.0599 0.132-0.0748 0.165s-0.048 0.105-0.0737 0.16c-0.0256 0.055-0.0885 0.193-0.14 0.307-0.0511 0.114-0.126 0.279-0.167 0.367-0.0407 0.088-0.0876 0.19-0.104 0.227-0.0167 0.0367-0.0549 0.12-0.085 0.184-0.03 0.0646-0.0546 0.119-0.0546 0.122 0 0.0021-0.0322 0.0725-0.0716 0.156-0.0394 0.0834-0.0912 0.197-0.115 0.252-0.024 0.055-0.0675 0.151-0.0968 0.213-0.0293 0.0624-0.109 0.236-0.177 0.387-0.0678 0.15-0.197 0.432-0.287 0.627-0.0898 0.194-0.187 0.407-0.216 0.472-0.0289 0.0654-0.0995 0.221-0.157 0.347-0.163 0.356-0.54 1.18-0.631 1.38-0.0184 0.0404-0.0528 0.115-0.0764 0.167-0.0868 0.188-0.105 0.233-0.0959 0.238 5e-3 0.0031 0.0632-0.0031 0.129-0.0138 0.066-0.0105 0.174-0.0276 0.24-0.0382 0.066-0.0105 0.18-0.0281 0.253-0.039 0.0734-0.0109 0.268-0.0409 0.433-0.0666s0.438-0.068 0.607-0.0938 0.347-0.0539 0.397-0.0624c0.0496-0.0084 0.0939-0.0116 0.0986-0.0069 9e-3 0.0085-0.0454 0.118-0.149 0.303-0.0309 0.055-0.109 0.199-0.173 0.32-0.0645 0.121-0.127 0.238-0.14 0.26-0.0241 0.0431-0.181 0.336-0.373 0.694-0.0392 0.0734-0.0974 0.181-0.129 0.238-0.0319 0.0577-0.058 0.107-0.058 0.109 0 0.0021-0.0486 0.0931-0.108 0.202-0.0595 0.109-0.129 0.237-0.156 0.284-0.0468 0.0856-0.0711 0.131-0.196 0.367-0.0349 0.066-0.0801 0.15-0.1 0.187-0.0614 0.111-0.134 0.245-0.227 0.42-0.186 0.348-0.358 0.668-0.426 0.794-0.0201 0.0367-0.0682 0.127-0.107 0.2-0.0388 0.0734-0.0747 0.139-0.0799 0.147-5e-3 0.0073-0.0411 0.0734-0.0799 0.147-0.0388 0.0734-0.105 0.196-0.147 0.273-0.0419 0.077-0.105 0.194-0.14 0.26-0.0352 0.066-0.161 0.3-0.28 0.52s-0.247 0.459-0.286 0.532c-0.0385 0.0723-0.0804 0.15-0.0933 0.173-0.0129 0.0231-0.0492 0.09-0.0808 0.149-0.0315 0.0587-0.0678 0.125-0.0805 0.147-0.0128 0.022-0.0549 0.1-0.0937 0.173-0.116 0.22-0.161 0.303-0.2 0.373-0.0203 0.0367-0.0608 0.112-0.09 0.167s-0.0905 0.169-0.136 0.253c-0.0457 0.0844-0.102 0.189-0.126 0.233-0.163 0.304-0.214 0.393-0.224 0.393-6e-3 0-9e-3 -0.0135-5e-3 -0.03z" fill="#f8ca18" stroke-width=".0133"/>
</svg>
