<svg width="122mm" height="52.9mm" viewBox="0 0 122 52.9" xmlns="http://www.w3.org/2000/svg" xmlns:xlink="http://www.w3.org/1999/xlink">
 <rect width="122" height="52.9"/>
  <g id="digit" fill="#444" transform="scale(0.5) translate(2 24)">
    <circle cx="48.4" cy="71.6" r="4.49"/>
    <path d="M12.916 4.08 17.57 0h24.48l3.506 4.08-4.654 4.08h-24.48zM45.686 4.842l3.506 4.08-3.444 24.48-4.654 4.08-3.506-4.08 3.444-24.48zM41.154 39.18l3.506 4.08-3.444 24.48-4.654 4.08-3.506-4.08L36.5 43.26zM36.372 72.45l-4.654 4.08H7.238l-3.506-4.08 4.654-4.08h24.48zM3.502 71.82l-3.506-4.08L3.44 43.26l4.654-4.08 3.506 4.08-3.444 24.48zM8.174 37.482l-3.506-4.08 3.444-24.48 4.654-4.08 3.506 4.08-3.444 24.48zM40.964 38.33l-4.654 4.08H11.83l-3.506-4.08 4.654-4.08h24.48z"/>
  </g>
  <use xlink:href="#digit" x="30.74" />
  <use xlink:href="#digit" x="61.54" />
  <use xlink:href="#digit" x="92.34" />
  <text fill="#e6e6e6" font-family="sans-serif" font-size="8.55">
    <tspan x="4.815" y="9.423">DIG1</tspan> <tspan x="35.415" y="9.314">DIG2</tspan> <tspan x="66.235" y="9.314">DIG3</tspan> <tspan x="96.897" y="9.095">DIG4</tspan>
  </text>
</svg>
