<svg xmlns="http://www.w3.org/2000/svg" height="200" viewBox="0 0 826.782 2086.626" width="79" font-family="'Droid Sans'">
  <path d="M189.181 194.417c19.292 0 34.987-15.695 34.987-35 0-19.306-15.695-34.986-34.987-34.986-19.291 0-34.986 15.694-34.986 34.986 0 19.291 15.695 35 34.986 35zM637.6 2040.945c19.292 0 34.986-15.694 34.986-35 0-19.305-15.694-35-34.986-35-19.306 0-35 15.694-35 35 0 19.306 15.694 35 35 35zm0-1846.528c19.292 0 34.986-15.695 34.986-35 0-19.306-15.694-34.986-34.986-34.986-19.306 0-35 15.694-35 34.986 0 19.291 15.694 35 35 35z" fill="none"/>
  <circle r="34.986" cx="189.181" cy="2005.944" fill="none"/>
  <path d="M826.768 215.778V149.36c-2.737 0-5.223-.82-7.514-1.986v70.375c2.291-1.167 4.777-1.972 7.514-1.972zm0 100V249.36c-2.737 0-5.223-.82-7.514-1.986v70.375c2.291-1.153 4.777-1.972 7.514-1.972zm0 100v-66.403c-2.737 0-5.223-.82-7.514-1.986v70.361c2.291-1.167 4.777-1.972 7.514-1.972zm0 99.986v-66.389c-2.737 0-5.223-.82-7.514-1.986v70.347c2.291-1.166 4.777-1.972 7.514-1.972zm0 100v-66.403c-2.737 0-5.223-.82-7.514-1.986v70.361c2.291-1.166 4.777-1.972 7.514-1.972zm0 100v-66.403c-2.737 0-5.223-.82-7.514-1.986v70.361c2.291-1.166 4.777-1.972 7.514-1.972zm0 100v-66.403c-2.737 0-5.223-.82-7.514-1.986v70.361c2.291-1.166 4.777-1.972 7.514-1.972zm0 100v-66.403c-2.737 0-5.223-.82-7.514-1.986v70.361c2.291-1.166 4.777-1.972 7.514-1.972zm0 100v-66.403c-2.737 0-5.223-.819-7.514-1.986v70.361c2.291-1.166 4.777-1.972 7.514-1.972zm0 100v-66.403c-2.737 0-5.223-.819-7.514-1.986v70.361c2.291-1.166 4.777-1.972 7.514-1.972zm0 100v-66.402c-2.737 0-5.223-.82-7.514-1.987v70.361c2.291-1.166 4.777-1.972 7.514-1.972zm0 100v-66.403c-2.737 0-5.223-.819-7.514-1.986v70.361c2.291-1.166 4.777-1.972 7.514-1.972zm0 100v-66.402c-2.737 0-5.223-.82-7.514-1.987v70.361c2.291-1.166 4.777-1.972 7.514-1.972zm0 100v-66.402c-2.737 0-5.223-.82-7.514-1.987v70.362c2.291-1.167 4.777-1.973 7.514-1.973zm0 100v-66.402c-2.737 0-5.223-.82-7.514-1.987v70.362c2.291-1.167 4.777-1.973 7.514-1.973zm0 100v-66.402c-2.737 0-5.223-.82-7.514-1.987v70.362c2.291-1.167 4.777-1.973 7.514-1.973zm0 100v-66.402c-2.737 0-5.223-.82-7.514-1.987v70.362c2.291-1.167 4.777-1.973 7.514-1.973zm0 100v-66.402c-2.737 0-5.223-.82-7.514-1.986v70.36c2.291-1.166 4.777-1.972 7.514-1.972zm0 99.986v-66.388c-2.737 0-5.223-.82-7.514-1.986v70.347c2.291-1.167 4.777-1.972 7.514-1.972zm0 33.598c-2.737 0-5.223-.82-7.514-1.986v21.903c0 5.43-4.403 9.847-9.848 9.847-42.016-.272-285.36-15.759-279.209 7.514H811.03c8.695 0 15.75-7.056 15.75-15.75v-21.528zM822.156 83.347l-5.791 5.778a9.814 9.814 0 012.889 6.958v21.64c2.291-1.167 4.777-1.987 7.514-1.987v-21.25a15.678 15.678 0 00-4.612-11.139zM17.362 2079.098a9.746 9.746 0 01-6.958-2.889l-5.792 5.778a15.714 15.714 0 0011.14 4.61H569.11c-10.134-24.118-506.178-7.499-551.748-7.499z" fill="#004e29"/>
  <path d="M7.514 96.097v21.64c5.444 2.777 9.292 8.29 9.292 14.819 0 6.527-3.848 12.041-9.292 14.819v70.389c5.444 2.778 9.292 8.292 9.292 14.82 0 6.527-3.848 12.041-9.292 14.819v70.375c5.444 2.778 9.292 8.292 9.292 14.82 0 6.527-3.848 12.041-9.292 14.819v70.36c5.444 2.779 9.292 8.293 9.292 14.82 0 6.528-3.848 12.042-9.292 14.82v70.347c5.444 2.778 9.292 8.292 9.292 14.82 0 6.527-3.848 12.041-9.292 14.819v70.361c5.444 2.778 9.292 8.292 9.292 14.82 0 6.527-3.848 12.041-9.292 14.819v70.361c5.444 2.778 9.292 8.292 9.292 14.82 0 6.527-3.848 12.041-9.292 14.819v70.361c5.444 2.778 9.292 8.292 9.292 14.82 0 6.527-3.848 12.041-9.292 14.819v70.361c5.444 2.778 9.292 8.292 9.292 14.82 0 6.527-3.848 12.041-9.292 14.82v70.36c5.444 2.778 9.292 8.292 9.292 14.82 0 6.527-3.848 12.041-9.292 14.82v70.36c5.444 2.778 9.292 8.292 9.292 14.82 0 6.527-3.848 12.041-9.292 14.82v70.36c5.444 2.778 9.292 8.292 9.292 14.82 0 6.528-3.848 12.041-9.292 14.82v70.36c5.444 2.778 9.292 8.292 9.292 14.82 0 6.528-3.848 12.041-9.292 14.82v70.36c5.444 2.778 9.292 8.292 9.292 14.82 0 6.528-3.848 12.041-9.292 14.82v70.36c5.444 2.778 9.292 8.292 9.292 14.82 0 6.528-3.848 12.042-9.292 14.82v70.36c5.444 2.778 9.292 8.292 9.292 14.82 0 6.528-3.848 12.042-9.292 14.82v70.36c5.444 2.778 9.292 8.292 9.292 14.82 0 6.528-3.848 12.042-9.292 14.82v70.36c5.444 2.778 9.292 8.292 9.292 14.82 0 6.528-3.848 12.042-9.292 14.82v70.36c5.444 2.778 9.292 8.292 9.292 14.82 0 6.528-3.848 12.042-9.292 14.82v70.347c5.444 2.777 9.292 8.291 9.292 14.82 0 6.527-3.848 12.04-9.292 14.819v21.902c0 5.43 4.403 9.848 9.847 9.848 291.478.17 499.15.71 792.06 0 5.43 0 9.847-4.403 9.847-9.848v-21.902c-5.445-2.778-9.292-8.292-9.292-14.82 0-6.528 3.847-12.042 9.292-14.82v-70.347c-5.445-2.777-9.292-8.291-9.292-14.82 0-6.527 3.847-12.04 9.292-14.818v-70.362c-5.445-2.777-9.292-8.291-9.292-14.82 0-6.527 3.847-12.04 9.292-14.818v-70.362c-5.445-2.777-9.292-8.291-9.292-14.82 0-6.527 3.847-12.04 9.292-14.819v-70.36c-5.445-2.778-9.292-8.292-9.292-14.82 0-6.528 3.847-12.042 9.292-14.82v-70.36c-5.445-2.778-9.292-8.292-9.292-14.82 0-6.528 3.847-12.042 9.292-14.82v-70.36c-5.445-2.779-9.292-8.292-9.292-14.82 0-6.528 3.847-12.042 9.292-14.82v-70.36c-5.445-2.779-9.292-8.292-9.292-14.82 0-6.528 3.847-12.042 9.292-14.82v-70.36c-5.445-2.779-9.292-8.292-9.292-14.82 0-6.528 3.847-12.042 9.292-14.82v-70.36c-5.445-2.779-9.292-8.293-9.292-14.82 0-6.528 3.847-12.042 9.292-14.82v-70.36c-5.445-2.779-9.292-8.293-9.292-14.82 0-6.528 3.847-12.042 9.292-14.82v-70.36c-5.445-2.779-9.292-8.293-9.292-14.82 0-6.528 3.847-12.042 9.292-14.82v-70.361c-5.445-2.778-9.292-8.292-9.292-14.82 0-6.527 3.847-12.041 9.292-14.819v-70.361c-5.445-2.778-9.292-8.292-9.292-14.82 0-6.527 3.847-12.041 9.292-14.819v-70.361c-5.445-2.778-9.292-8.292-9.292-14.82 0-6.527 3.847-12.041 9.292-14.819v-70.361c-5.445-2.778-9.292-8.292-9.292-14.82 0-6.527 3.847-12.041 9.292-14.819v-70.347c-5.445-2.778-9.292-8.292-9.292-14.82 0-6.527 3.847-12.041 9.292-14.82v-70.36c-5.445-2.778-9.292-8.292-9.292-14.82 0-6.527 3.847-12.041 9.292-14.82v-70.374c-5.445-2.778-9.292-8.292-9.292-14.82 0-6.527 3.847-12.041 9.292-14.819v-70.375c-5.445-2.778-9.292-8.292-9.292-14.82 0-6.527 3.847-12.041 9.292-14.819V96.097c0-5.43-4.403-9.847-9.848-9.847H17.361c-5.444 0-9.847 4.417-9.847 9.847zm55.875 1953.07c-9.167 0-16.625-7.458-16.625-16.625 0-9.166 7.458-16.625 16.625-16.625s16.625 7.459 16.625 16.625c0 9.167-7.458 16.625-16.625 16.625zm16.625-116.61c0 9.166-7.458 16.624-16.625 16.624s-16.625-7.458-16.625-16.625 7.458-16.625 16.625-16.625 16.625 7.458 16.625 16.625zm0-100c0 9.166-7.458 16.624-16.625 16.624s-16.625-7.458-16.625-16.625 7.458-16.625 16.625-16.625 16.625 7.458 16.625 16.625zm0-100c0 9.166-7.458 16.624-16.625 16.624s-16.625-7.458-16.625-16.625 7.458-16.625 16.625-16.625 16.625 7.458 16.625 16.625zm0-100c0 9.166-7.458 16.624-16.625 16.624s-16.625-7.458-16.625-16.625 7.458-16.625 16.625-16.625 16.625 7.458 16.625 16.625zm0-100.001c0 9.167-7.458 16.625-16.625 16.625s-16.625-7.458-16.625-16.625 7.458-16.625 16.625-16.625 16.625 7.472 16.625 16.625zm0-100c0 9.167-7.458 16.625-16.625 16.625s-16.625-7.458-16.625-16.625 7.458-16.625 16.625-16.625 16.625 7.472 16.625 16.625zm0-100c0 9.167-7.458 16.625-16.625 16.625s-16.625-7.458-16.625-16.625 7.458-16.625 16.625-16.625 16.625 7.458 16.625 16.625zm0-100c0 9.167-7.458 16.625-16.625 16.625s-16.625-7.458-16.625-16.625 7.458-16.625 16.625-16.625 16.625 7.458 16.625 16.625zm0-100c0 9.167-7.458 16.625-16.625 16.625s-16.625-7.458-16.625-16.625 7.458-16.625 16.625-16.625 16.625 7.458 16.625 16.625zm0-100c0 9.167-7.458 16.625-16.625 16.625s-16.625-7.458-16.625-16.625 7.458-16.625 16.625-16.625 16.625 7.472 16.625 16.625zm0-100c0 9.167-7.458 16.625-16.625 16.625s-16.625-7.458-16.625-16.625 7.458-16.625 16.625-16.625 16.625 7.472 16.625 16.625zm0-100c0 9.166-7.458 16.625-16.625 16.625s-16.625-7.459-16.625-16.625c0-9.167 7.458-16.625 16.625-16.625s16.625 7.458 16.625 16.625zm0-100c0 9.166-7.458 16.625-16.625 16.625s-16.625-7.459-16.625-16.625c0-9.167 7.458-16.625 16.625-16.625s16.625 7.458 16.625 16.625zm0-100c0 9.166-7.458 16.625-16.625 16.625s-16.625-7.459-16.625-16.625c0-9.167 7.458-16.625 16.625-16.625s16.625 7.458 16.625 16.625zm0-100c0 9.166-7.458 16.625-16.625 16.625s-16.625-7.459-16.625-16.625c0-9.167 7.458-16.625 16.625-16.625s16.625 7.472 16.625 16.625zm0-99.986c0 9.166-7.458 16.625-16.625 16.625s-16.625-7.459-16.625-16.625c0-9.167 7.458-16.625 16.625-16.625s16.625 7.458 16.625 16.625zm0-99.987c0 9.167-7.458 16.625-16.625 16.625s-16.625-7.458-16.625-16.625c0-9.166 7.458-16.625 16.625-16.625s16.625 7.459 16.625 16.625zm0-100.013c0 9.166-7.458 16.625-16.625 16.625s-16.625-7.459-16.625-16.625c0-9.167 7.458-16.625 16.625-16.625s16.625 7.472 16.625 16.625zm0-100.014c0 9.166-7.458 16.625-16.625 16.625s-16.625-7.459-16.625-16.625c0-9.167 7.458-16.625 16.625-16.625s16.625 7.458 16.625 16.625zm109.167 1908.389c-19.291 0-34.986-15.694-34.986-35 0-19.305 15.695-35 34.986-35 19.292 0 34.987 15.694 34.987 35 0 19.306-15.695 35-34.987 35zm0-1846.528c-19.291 0-34.986-15.695-34.986-35 0-19.306 15.695-34.986 34.986-34.986 19.292 0 34.987 15.694 34.987 34.986 0 19.291-15.695 35-34.987 35zm557.586 1838.126c0-9.167 7.459-16.626 16.625-16.626 9.167 0 16.625 7.459 16.625 16.625 0 9.167-7.458 16.625-16.625 16.625-9.166 0-16.625-7.458-16.625-16.625zm0-99.987c0-9.167 7.459-16.625 16.625-16.625 9.167 0 16.625 7.458 16.625 16.625s-7.458 16.625-16.625 16.625c-9.166 0-16.625-7.458-16.625-16.625zm0-100c0-9.167 7.459-16.625 16.625-16.625 9.167 0 16.625 7.458 16.625 16.625s-7.458 16.625-16.625 16.625c-9.166 0-16.625-7.458-16.625-16.625zm0-100c0-9.167 7.459-16.625 16.625-16.625 9.167 0 16.625 7.458 16.625 16.625s-7.458 16.625-16.625 16.625c-9.166 0-16.625-7.458-16.625-16.625zm0-100c0-9.167 7.459-16.625 16.625-16.625 9.167 0 16.625 7.458 16.625 16.625s-7.458 16.625-16.625 16.625c-9.166 0-16.625-7.458-16.625-16.625zm0-100c0-9.167 7.459-16.625 16.625-16.625 9.167 0 16.625 7.458 16.625 16.625s-7.458 16.625-16.625 16.625c-9.166 0-16.625-7.458-16.625-16.625zm0-100c0-9.167 7.459-16.625 16.625-16.625 9.167 0 16.625 7.458 16.625 16.625s-7.458 16.625-16.625 16.625c-9.166 0-16.625-7.458-16.625-16.625zm0-100c0-9.167 7.459-16.625 16.625-16.625 9.167 0 16.625 7.458 16.625 16.625s-7.458 16.625-16.625 16.625c-9.166 0-16.625-7.458-16.625-16.625zm0-100c0-9.167 7.459-16.625 16.625-16.625 9.167 0 16.625 7.458 16.625 16.625s-7.458 16.625-16.625 16.625c-9.166 0-16.625-7.458-16.625-16.625zm0-100c0-9.167 7.459-16.625 16.625-16.625 9.167 0 16.625 7.458 16.625 16.625s-7.458 16.625-16.625 16.625c-9.166 0-16.625-7.458-16.625-16.625zm0-100c0-9.167 7.459-16.625 16.625-16.625 9.167 0 16.625 7.458 16.625 16.625s-7.458 16.625-16.625 16.625c-9.166 0-16.625-7.458-16.625-16.625zm0-100c0-9.167 7.459-16.625 16.625-16.625 9.167 0 16.625 7.458 16.625 16.625s-7.458 16.625-16.625 16.625c-9.166 0-16.625-7.458-16.625-16.625zm0-100c0-9.167 7.459-16.625 16.625-16.625 9.167 0 16.625 7.458 16.625 16.625 0 9.166-7.458 16.625-16.625 16.625-9.166 0-16.625-7.459-16.625-16.625zm0-100c0-9.167 7.459-16.625 16.625-16.625 9.167 0 16.625 7.458 16.625 16.625 0 9.166-7.458 16.625-16.625 16.625-9.166 0-16.625-7.459-16.625-16.625zm0-100c0-9.167 7.459-16.625 16.625-16.625 9.167 0 16.625 7.458 16.625 16.625 0 9.166-7.458 16.625-16.625 16.625-9.166 0-16.625-7.459-16.625-16.625zm0-100c0-9.167 7.459-16.625 16.625-16.625 9.167 0 16.625 7.458 16.625 16.625 0 9.166-7.458 16.625-16.625 16.625-9.166 0-16.625-7.459-16.625-16.625zm0-99.986c0-9.167 7.459-16.625 16.625-16.625 9.167 0 16.625 7.458 16.625 16.625 0 9.166-7.458 16.625-16.625 16.625-9.166 0-16.625-7.459-16.625-16.625zm0-99.987c0-9.166 7.459-16.625 16.625-16.625 9.167 0 16.625 7.459 16.625 16.625 0 9.167-7.458 16.625-16.625 16.625-9.166 0-16.625-7.458-16.625-16.625zm0-100.013c0-9.167 7.459-16.625 16.625-16.625 9.167 0 16.625 7.458 16.625 16.625 0 9.166-7.458 16.625-16.625 16.625-9.166 0-16.625-7.459-16.625-16.625zm0-100.014c0-9.167 7.459-16.625 16.625-16.625 9.167 0 16.625 7.458 16.625 16.625 0 9.166-7.458 16.625-16.625 16.625-9.166 0-16.625-7.459-16.625-16.625zM637.601 2040.945c-19.307 0-35.001-15.694-35.001-35 0-19.305 15.694-35 35-35 19.292 0 34.986 15.695 34.986 35 0 19.306-15.694 35-34.986 35zm0-1846.528c-19.307 0-35.001-15.695-35.001-35 0-19.306 15.694-34.986 35-34.986 19.292 0 34.986 15.694 34.986 34.986 0 19.291-15.694 35-34.986 35z" fill="#006837"/>
  <path d="M811.031 78.736H15.751C7.055 78.736 0 85.792 0 94.486v21.278c2.736 0 5.222.82 7.514 1.986V96.097c0-5.43 4.403-9.847 9.847-9.847h792.06a9.757 9.757 0 016.958 2.889l5.791-5.778c-2.86-2.861-6.791-4.625-11.139-4.625zM0 249.375v66.417c2.736 0 5.222.82 7.514 1.986v-70.375c-2.292 1.153-4.778 1.972-7.514 1.972zm0 100v66.403c2.736 0 5.222.82 7.514 1.986v-70.361c-2.292 1.167-4.778 1.972-7.514 1.972zm0 100v66.39c2.736 0 5.222.818 7.514 1.985v-70.347c-2.292 1.153-4.778 1.972-7.514 1.972zm0 99.986v66.403c2.736 0 5.222.82 7.514 1.986v-70.36c-2.292 1.151-4.778 1.97-7.514 1.97zm0 100v66.403c2.736 0 5.222.82 7.514 1.986v-70.36c-2.292 1.151-4.778 1.97-7.514 1.97zm0 100v66.403c2.736 0 5.222.82 7.514 1.986v-70.36c-2.292 1.151-4.778 1.97-7.514 1.97zm0 100v66.403c2.736 0 5.222.82 7.514 1.986v-70.36c-2.292 1.151-4.778 1.97-7.514 1.97zm0 100v66.403c2.736 0 5.222.82 7.514 1.986v-70.36c-2.292 1.151-4.778 1.97-7.514 1.97zm0 100v66.403c2.736 0 5.222.82 7.514 1.986v-70.36c-2.292 1.152-4.778 1.971-7.514 1.971zm0 100v66.403c2.736 0 5.222.82 7.514 1.986v-70.36c-2.292 1.152-4.778 1.971-7.514 1.971zm0 100v66.403c2.736 0 5.222.82 7.514 1.986v-70.36c-2.292 1.152-4.778 1.971-7.514 1.971zm0 100v66.403c2.736 0 5.222.82 7.514 1.987v-70.362c-2.292 1.153-4.778 1.973-7.514 1.973zm0 100.001v66.402c2.736 0 5.222.82 7.514 1.986v-70.36c-2.292 1.152-4.778 1.972-7.514 1.972zm0 99.999v66.403c2.736 0 5.222.82 7.514 1.987v-70.362c-2.292 1.153-4.778 1.973-7.514 1.973zm0 100.001v66.402c2.736 0 5.222.82 7.514 1.987v-70.362c-2.292 1.153-4.778 1.973-7.514 1.973zm0 100v66.402c2.736 0 5.222.82 7.514 1.987v-70.362c-2.292 1.153-4.778 1.973-7.514 1.973zm0 100v66.402c2.736 0 5.222.82 7.514 1.987v-70.362c-2.292 1.153-4.778 1.973-7.514 1.973zm0 100v66.389c2.736 0 5.222.82 7.514 1.986v-70.348c-2.292 1.153-4.778 1.973-7.514 1.973zM0 149.361v66.417c2.736 0 5.222.82 7.514 1.986v-70.389c-2.292 1.167-4.778 1.986-7.514 1.986zM4.611 2082l5.792-5.777a9.814 9.814 0 01-2.89-6.958v-21.89c-2.29 1.167-4.777 1.987-7.513 1.987v21.528c0 4.319 1.764 8.264 4.611 11.11z" fill="#33865f"/>
  <circle r="48.875" cx="189.181" cy="2005.944" fill="none" stroke="#fcee21" stroke-width="27.778"/>
  <circle r="48.875" cx="637.586" cy="2005.944" fill="none" stroke="#fcee21" stroke-width="27.778"/>
  <circle r="48.875" cx="189.181" cy="159.416" fill="none" stroke="#fcee21" stroke-width="27.778"/>
  <circle r="48.875" cx="637.586" cy="159.416" fill="none" stroke="#fcee21" stroke-width="27.778"/>
  <path d="M274.682 943.972H552.1v277.417H274.682z" fill="#30312e"/>
  <path d="M543.308 236.236H283.46a7.878 7.878 0 01-7.875-7.875V34.806a7.878 7.878 0 017.875-7.875h259.848a7.878 7.878 0 017.875 7.875V228.36a7.878 7.878 0 01-7.875 7.875z" fill="#363a44"/>
  <path d="M295.32 0a7.893 7.893 0 00-7.54 5.597l-4.32 14.306-7.875 7.875V228.36a7.878 7.878 0 007.875 7.875h48.055a3.927 3.927 0 003.931-3.93v-11.5a7.858 7.858 0 00-4.097-6.903l-26.75-14.611a7.858 7.858 0 01-4.098-6.903v-11.486h17.473v-13.264h27v13.236h15.889v27.375a7.878 7.878 0 007.875 7.875h12.778V201.93h63.736v14.194h12.778a7.878 7.878 0 007.875-7.875v-27.375h15.889V167.64h27v13.236h17.472v11.486a7.858 7.858 0 01-4.097 6.903l-26.75 14.625a7.858 7.858 0 00-4.097 6.903v11.5c0 2.18 1.764 3.93 3.93 3.93h48.056a7.878 7.878 0 007.875-7.875V27.777l-7.875-7.874-4.32-14.306A7.893 7.893 0 00531.448 0z" fill="#ccc"/>
  <path d="M284.224 40.042c-3.459-4.611-6.973-9.264-10.126-14.584-3.222-5.264-5.555-11.541-6.68-17.416l-.028-.18a4.699 4.699 0 013.736-5.515c2.375-.458 4.68.972 5.39 3.222 3.11 10.042 10.25 17.223 18.221 25.375 2.709 2.723 2.695 7.14-.027 9.848-2.723 2.708-7.14 2.694-9.848 0-.208-.209-.458-.5-.639-.723zm247.82-9.098c7.986-8.152 15.111-15.333 18.222-25.375a4.711 4.711 0 015.903-3.097 4.736 4.736 0 013.236 5.375l-.041.195c-1.14 5.86-3.459 12.152-6.681 17.416-3.153 5.32-6.667 9.973-10.125 14.584-2.306 3.07-6.667 3.694-9.75 1.389a6.97 6.97 0 01-1.389-9.75c.167-.237.417-.528.625-.737zM371.946 1471.931H269.585a7.878 7.878 0 01-7.875-7.875v-62.986a7.878 7.878 0 017.875-7.875h102.361a7.878 7.878 0 017.875 7.875v62.986a7.878 7.878 0 01-7.875 7.875z" fill="#ccc"/>
  <path d="M303.744 754.156v118.111h-78.736V754.156zm270.218-311.755v98.431h-98.431v-98.431zM676.621 272.09v98.431h-59.056V272.09z" fill="#2a2d2e"/>
  <path d="M223.501 456.042h102.362a7.878 7.878 0 017.875 7.875v141.736a7.878 7.878 0 01-7.875 7.875H223.5a7.878 7.878 0 01-7.875-7.875V463.917a7.878 7.878 0 017.875-7.875z" fill="#ccc"/>
  <path d="M274.682 465.889c27.18 0 49.208 22.028 49.208 49.208v39.375c0 27.181-22.028 49.209-49.208 49.209s-49.209-22.028-49.209-49.209v-39.375c0-27.18 22.028-49.208 49.209-49.208zm-59.056-1.972v14.791c0 7.014 8.486 10.528 13.444 5.57l14.792-14.792c4.959-4.958 1.445-13.444-5.57-13.444h-14.791a7.878 7.878 0 00-7.875 7.875zm110.237-7.875H311.07c-7.014 0-10.528 8.486-5.57 13.444l14.792 14.792c4.958 4.958 13.445 1.444 13.445-5.57v-14.791a7.878 7.878 0 00-7.875-7.875z" fill="#fff"/>
  <path d="M333.738 605.236v-14.791c0-7.014-8.487-10.528-13.445-5.57l-14.792 14.792c-4.958 4.958-1.444 13.444 5.57 13.444h14.792a7.878 7.878 0 007.875-7.875zm-110.237 7.875h14.792c7.014 0 10.528-8.486 5.57-13.444l-14.793-14.792c-4.958-4.958-13.444-1.444-13.444 5.57v14.791a7.878 7.878 0 007.875 7.875z" fill="#fff"/>
  <path d="M607.725 532.959v-82.681a7.878 7.878 0 017.875-7.875h62.986a7.878 7.878 0 017.875 7.875v82.68a7.878 7.878 0 01-7.875 7.876H615.6a7.878 7.878 0 01-7.875-7.875z" fill="#2a2d2e"/>
  <g fill="#eee">
    <path fill="#c6c6c6" d="M160 248h52v24h-52z"/>
    <path stroke="#aaa" d="M172 246h27v28h-27z"/>
  </g>
  <circle r="16.625" cx="186.57" cy="364.028" fill="#9a916c"/>
  <circle r="16.625" cx="651.128" cy="1849.182" fill="#9a916c"/>
  <path d="M533.697 1692.056l-2.861-4.306c0-32.972-15.056-45.874-32.973-55.902 5.014-1.43 10.75-2.861 12.181-9.32 9.32-2.153 10.75-6.444 12.18-10.75 2.153-1.43 10.75-6.444 9.32-13.625 4.306-2.86 7.167-7.166 5.736-12.903 5.014-5.013 6.445-9.319 4.306-13.625 5.736-7.166 3.583-10.75.722-15.055 4.306-7.889.722-16.486-11.472-15.056-5.014-7.166-15.056-5.736-17.209-5.736-2.152-2.153-4.305-4.305-11.472-3.583-5.014-4.306-10.042-3.583-15.764-1.43-6.444-5.015-10.75-.723-15.764.721-7.889-2.86-10.042.723-13.625 2.153-8.597-2.152-11.472 2.153-15.764 6.445h-5.014c-12.903 7.889-19.347 22.93-22.222 30.82-2.153-7.89-8.597-23.654-22.222-30.82h-5.014c-4.306-4.306-6.445-7.89-15.764-6.445-3.584-1.43-5.736-5.013-13.625-2.152-3.584-.723-6.445-2.862-10.042-2.862-2.153 0-3.583.723-6.445 2.153-5.736-2.153-10.75-2.86-15.764 1.43-7.166-.722-10.041.723-11.472 3.584-1.43 0-12.18-1.43-17.208 5.736-12.18-1.43-15.764 7.167-11.472 15.056-2.153 3.583-5.014 7.166.722 15.055-2.153 4.306-.722 8.598 4.305 13.625-1.43 5.736 1.43 9.32 5.736 12.903-.722 7.889 7.167 12.18 9.32 13.625.722 4.306 2.861 8.597 12.18 10.75 1.431 6.445 7.167 7.889 12.181 9.32-17.917 10.041-32.972 23.652-32.972 55.902l-2.861 4.306c-20.07 12.18-38.709 50.889-10.042 83.139 2.153 10.042 5.014 17.208 7.889 25.083 4.305 31.542 31.542 46.584 38.708 48.736 10.75 7.89 21.5 15.056 36.556 20.792 14.333 14.333 29.39 20.07 45.153 20.07h.722c15.764 0 30.82-5.737 45.153-20.07 15.056-5.014 26.514-12.903 36.556-20.792 7.167-1.43 34.403-16.486 38.709-48.736 2.86-7.889 5.736-15.055 7.888-25.083 31.514-32.264 13.598-70.972-7.18-83.153zm-15.056-5.736c-.722 12.903-69.528-45.875-58.056-48.028 32.25-5.014 58.778 13.625 58.056 48.028zm-30.82 65.222c-17.208 11.472-42.291 4.306-55.194-15.764-13.625-20.07-10.042-45.153 7.167-56.625 17.208-11.472 42.292-4.305 55.194 15.764 13.612 20.792 10.028 45.875-7.166 56.625zm-47.305-202.847c.722 2.861 1.43 5.014 2.153 5.014 3.583-4.306 7.166-8.597 11.472-12.18 0 2.152-1.43 5.013 1.43 6.444 2.862-3.584 6.445-6.445 10.75-9.32-2.152 3.584-.722 5.014.723 6.445 3.583-2.861 7.166-6.445 13.625-8.597-2.153 2.152-4.306 4.305-1.43 7.166 3.583-2.153 7.166-4.305 16.485-6.444-2.152 2.153-6.444 4.305-3.583 6.444 5.014-1.43 10.042-2.861 15.764-3.583-2.861 2.153-5.014 4.305-2.861 6.444 5.014-1.43 12.18-3.583 18.639-2.152l-4.306 4.305c-.722.722 10.042.722 16.487.722-2.153 3.583-5.014 7.167-6.445 12.903.722.722 4.306 0 7.167 0-3.584 7.167-9.32 8.597-10.042 11.472 2.153 1.43 5.014 1.43 7.889 0-2.153 5.014-7.167 7.89-11.472 12.18.722.723 2.86 1.431 7.166.723-3.583 3.583-7.889 7.167-12.902 10.75.722.722 4.305.722 7.166 1.43-5.014 4.306-10.75 7.167-16.486 10.042 2.861 2.153 5.014 1.43 7.167 1.43-4.306 3.584-10.75 5.015-17.209 7.167 1.43 2.153 2.153 2.153 5.014 2.862-6.444 3.583-16.486 2.152-19.347 3.583.722 2.153 2.153 2.861 5.014 4.305-10.75.723-40.14-.722-45.875-22.93 10.75-12.18 31.541-26.514 65.944-43.722-27.236 9.32-51.61 20.791-71.68 37.986-25.098-11.459-8.612-39.417 3.583-50.89zm-24.375 81c17.208 0 37.986 12.18 37.986 24.375 0 10.75-15.056 19.347-37.986 18.639-22.93 0-37.987-10.75-37.987-20.792 0-8.611 18.64-22.944 37.987-22.222zm-86.723-9.32c2.861-.722 3.584-.722 5.014-2.86-6.444-2.153-12.903-3.584-17.208-7.167 2.152 0 4.305.722 7.166-1.43-5.736-2.862-11.472-5.737-16.486-10.043 2.861 0 6.445 0 7.167-1.43-5.014-2.861-9.32-6.444-12.903-10.75 4.306.722 5.736 0 7.167-.722-3.584-4.306-8.598-7.167-11.473-12.18 2.862.721 5.737 1.43 7.89 0-1.431-2.862-7.167-5.015-10.042-11.473 2.86 0 6.444.722 7.166 0-1.43-5.736-4.305-9.32-6.444-12.903 7.167 0 17.208 0 16.486-.722l-4.305-4.306c6.444-1.43 13.625 0 18.638 2.153 2.153-1.43 0-3.583-2.86-6.444 5.735.722 10.75 2.152 15.763 3.583 2.153-2.153-1.43-4.305-3.583-6.444 8.597 1.43 12.903 4.305 16.486 6.444 2.861-2.861 0-5.014-1.43-7.167 6.444 2.153 10.041 5.736 13.625 8.598 1.43-1.431 2.86-2.862.722-6.445 5.014 2.861 8.597 5.736 10.75 9.32 2.861-2.153 1.43-4.306 1.43-6.445 5.014 3.584 7.89 7.889 11.473 12.18.722-.721 1.43-2.152 2.153-5.013 11.472 11.472 27.958 39.417 4.305 50.18-20.07-16.486-44.445-28.666-71.68-37.986 34.402 17.917 55.194 31.542 65.944 43.722-5.736 22.223-35.125 23.653-45.875 22.931 2.153-.722 4.305-2.153 5.014-4.306-3.584-.722-12.903.709-20.07-2.875zm42.278 17.195c12.18 2.153-56.625 60.93-58.056 48.028-.708-34.403 25.806-53.042 58.056-48.028zm-72.39 131.18c-16.485-12.902-22.221-51.61 8.598-69.527 18.64-4.306 6.459 76.694-8.597 69.528zm63.793 69.528c-9.32 5.736-32.25 3.584-48.736-19.347-10.75-19.347-9.32-38.708-2.153-44.444 11.472-7.167 29.389 2.152 43 17.916 12.194 13.611 17.93 38.695 7.889 45.875zm-18.64-84.583c-17.208-11.472-20.069-36.556-7.166-56.625 13.625-20.07 37.986-27.236 55.195-15.764 17.208 11.472 20.07 36.556 7.167 56.625-12.903 20.07-37.987 27.236-55.195 15.764zm71.682 124c-20.792.722-40.862-16.486-40.862-22.93 0-8.598 25.084-15.765 41.57-15.765 16.486-.722 39.417 5.015 39.417 13.626.736 7.86-20.056 25.069-40.125 25.069zm41.57-88.167c0 20.792-18.64 37.986-41.57 37.986s-41.57-16.486-41.57-37.986v-.722c0-20.792 18.64-37.986 41.57-37.986 22.93.722 41.57 17.208 41.57 38.708zm58.055 30.111c-17.917 24.376-41.57 25.084-50.889 18.64-9.32-8.598-2.153-35.834 10.75-50.89 15.056-16.486 30.82-27.236 41.57-18.638 7.18 7.166 11.472 34.402-1.43 50.888zm15.778-51.61c-15.056 6.444-27.236-73.834-8.597-69.529 30.82 17.917 25.792 56.626 8.597 69.528z" fill="#fff"/>
  <path d="M0 1937.805h826.781v46.861H0z" fill="none"/>
  <text font-size="38.889" transform="rotate(-90)" fill="#fff" stroke-width="13.889">
    <tspan x="-657.542" y="188">B</tspan>
    <tspan x="-622.487" y="188">O</tspan>
    <tspan x="-581.547" y="188">O</tspan>
    <tspan x="-542.058" y="188">T</tspan>
    <tspan x="-512.442" y="188">S</tspan>
    <tspan x="-482.351" y="188">E</tspan>
    <tspan x="-451.827" y="188">L</tspan>
  </text>
  <text font-size="38.889" fill="#fff" stroke-width="13.889">
    <tspan x="140.174" y="321.297">L</tspan>
    <tspan x="168.916" y="321.297">E</tspan>
    <tspan x="199.439" y="321.297">D</tspan>
    <tspan x="96.514" y="149.182">1</tspan>
    <tspan x="96.514" y="249.198">2</tspan>
    <tspan x="672.642" y="249.198">3</tspan>
    <tspan x="704.279" y="249.198">9</tspan>
    <tspan x="361.413" y="321.297">U</tspan>
    <tspan x="400.218" y="321.297">S</tspan>
    <tspan x="430.315" y="321.297">B</tspan>
  </text>
  <path d="M115.667 672.5h87.084v1242.876h-87.084z" fill="none"/>
  <text font-size="55.556" transform="rotate(-90)" stroke-width="13.889" fill="#fff">
    <tspan x="-1915.365" y="176">R</tspan>
    <tspan x="-1863.986" y="176">a</tspan>
    <tspan x="-1816.711" y="176">s</tspan>
    <tspan x="-1774.963" y="176">p</tspan>
    <tspan x="-1723.856" y="176">b</tspan>
    <tspan x="-1672.749" y="176">e</tspan>
    <tspan x="-1625.169" y="176">r</tspan>
    <tspan x="-1587.048" y="176">r</tspan>
    <tspan x="-1548.93" y="176">y</tspan>
    <tspan x="-1476.115" y="176">P</tspan>
    <tspan x="-1425.685" y="176">i</tspan>
    <tspan x="-1368.841" y="176">P</tspan>
    <tspan x="-1318.412" y="176">i</tspan>
    <tspan x="-1290.023" y="176">c</tspan>
    <tspan x="-1247.462" y="176">o</tspan>
    <tspan x="-1168.51" y="176">©</tspan>
    <tspan x="-1100.312" y="176">2</tspan>
    <tspan x="-1051.649" y="176">0</tspan>
    <tspan x="-1002.981" y="176">2</tspan>
    <tspan x="-954.316" y="176">0</tspan>
  </text>
  <text font-size="24.445" fill="#3d3f38" stroke-width="13.889">
    <tspan x="297.659" y="1167">R</tspan>
    <tspan x="316.933" y="1167">P</tspan>
    <tspan x="336.919" y="1167">2</tspan>
    <tspan x="355.059" y="1167">-</tspan>
    <tspan x="365.693" y="1167">8</tspan>
    <tspan x="383.834" y="1167">0</tspan>
    <tspan x="442.191" y="1167">2</tspan>
    <tspan x="460.325" y="1167">0</tspan>
    <tspan x="478.466" y="1167">/</tspan>
    <tspan x="492.843" y="1167">2</tspan>
    <tspan x="510.985" y="1167">1</tspan>
    <tspan x="297.252" y="1201">P</tspan>
    <tspan x="317.245" y="1201">6</tspan>
    <tspan x="335.379" y="1201">4</tspan>
    <tspan x="353.52" y="1201">M</tspan>
    <tspan x="379.65" y="1201">1</tspan>
    <tspan x="397.791" y="1201">5</tspan>
    <tspan x="415.925" y="1201">.</tspan>
    <tspan x="427.027" y="1201">0</tspan>
    <tspan x="445.161" y="1201">0</tspan>
    <tspan x="472.762" y="1201">T</tspan>
    <tspan x="491.955" y="1201">T</tspan>
    <tspan x="511.154" y="1201">T</tspan>
  </text>
  <path d="M462.085 1053.292l-1.166-1.736c0-13.347-6.098-18.57-13.348-22.639 2.028-.583 4.348-1.167 4.931-3.778 3.778-.875 4.347-2.611 4.93-4.347.876-.583 4.348-2.611 3.778-5.514 1.737-1.167 2.903-2.903 2.32-5.222 2.028-2.028 2.611-3.778 1.736-5.514 2.32-2.903 1.444-4.347.292-6.097 1.736-3.195.291-6.68-4.64-6.097-2.027-2.903-6.097-2.32-6.958-2.32-.875-.875-1.736-1.736-4.639-1.444-2.027-1.736-4.055-1.445-6.388-.584-2.612-2.027-4.348-.291-6.39.292-3.194-1.167-4.055.292-5.513.875-3.486-.875-4.64.875-6.39 2.611h-2.027c-5.222 3.195-7.833 9.292-9 12.472-.875-3.194-3.486-9.57-9-12.472h-2.028c-1.736-1.736-2.611-3.194-6.389-2.611-1.444-.583-2.32-2.028-5.514-.875-1.444-.292-2.61-1.167-4.055-1.167-.875 0-1.445.292-2.611.875-2.32-.875-4.348-1.166-6.39.584-2.902-.292-4.055.291-4.638 1.444-.584 0-4.93-.583-6.959 2.32-4.93-.584-6.388 2.902-4.638 6.097-.875 1.444-2.028 2.902.291 6.097-.875 1.736-.291 3.486 1.736 5.514-.583 2.32.584 3.778 2.32 5.222-.292 3.194 2.903 4.93 3.778 5.514.291 1.736 1.166 3.486 4.93 4.347.583 2.611 2.903 3.195 4.93 3.778-7.25 4.056-13.347 9.57-13.347 22.639l-1.166 1.736c-8.125 4.93-15.667 20.597-4.056 33.653.875 4.055 2.028 6.958 3.195 10.153 1.736 12.763 12.764 18.86 15.666 19.736 4.348 3.194 8.709 6.097 14.792 8.416 5.806 5.806 11.903 8.125 18.278 8.125h.292c6.389 0 12.472-2.32 18.277-8.125 6.098-2.027 10.737-5.222 14.792-8.416 2.903-.584 13.93-6.68 15.667-19.736 1.167-3.195 2.32-6.098 3.194-10.153 12.792-13.056 5.542-28.722-2.875-33.653zm-6.083-2.32c-.292 5.223-28.153-18.569-23.5-19.444 13.042-2.028 23.778 5.514 23.5 19.444zm-12.486 26.403c-6.958 4.64-17.125 1.736-22.347-6.389-5.514-8.125-4.056-18.277 2.902-22.916 6.959-4.64 17.125-1.736 22.348 6.389 5.514 8.416 4.07 18.569-2.903 22.916zm-19.153-82.11c.292 1.166.583 2.027.875 2.027 1.444-1.736 2.903-3.486 4.639-4.93 0 .874-.583 2.027.583 2.61 1.167-1.444 2.611-2.61 4.348-3.777-.875 1.444-.292 2.028.291 2.61 1.445-1.166 2.903-2.61 5.514-3.485-.875.875-1.736 1.736-.583 2.903 1.444-.875 2.903-1.737 6.68-2.612-.875.875-2.61 1.737-1.444 2.612 2.028-.584 4.055-1.167 6.389-1.445-1.167.875-2.028 1.736-1.167 2.611 2.028-.583 4.93-1.444 7.542-.875l-1.736 1.736c-.292.292 4.055.292 6.68.292-.875 1.444-2.027 2.903-2.61 5.222.29.292 1.735 0 2.902 0-1.444 2.903-3.778 3.486-4.056 4.639.875.583 2.028.583 3.195 0-.875 2.028-2.903 3.195-4.64 4.93.293.292 1.168.584 2.904.292-1.445 1.445-3.195 2.903-5.223 4.348.292.291 1.737.291 2.903.583-2.028 1.736-4.347 2.903-6.68 4.055 1.166.875 2.027.584 2.902.584-1.736 1.444-4.347 2.028-6.958 2.903.583.875.875.875 2.028 1.166-2.611 1.445-6.68.875-7.833 1.445.291.875.875 1.166 2.027 1.736-4.347.291-16.25-.292-18.57-9.292 4.348-4.93 12.765-10.736 26.695-17.694-11.027 3.777-20.889 8.416-29.014 15.375-10.18-4.611-3.514-15.93 1.417-20.57zm-9.861 32.79c6.958 0 15.375 4.931 15.375 9.862 0 4.347-6.097 7.833-15.375 7.542-9.292 0-15.375-4.348-15.375-8.417 0-3.486 7.541-9.278 15.375-8.986zm-35.111-3.777c1.166-.292 1.444-.292 2.027-1.167-2.61-.875-5.222-1.444-6.958-2.902.875 0 1.736.291 2.903-.584-2.32-1.166-4.64-2.32-6.68-4.055 1.166 0 2.61 0 2.902-.584-2.028-1.166-3.778-2.61-5.222-4.347 1.736.292 2.32 0 2.903-.292-1.445-1.736-3.487-2.902-4.64-4.93 1.167.292 2.32.583 3.195 0-.583-1.167-2.903-2.028-4.055-4.639 1.166 0 2.61.292 2.902 0-.583-2.32-1.736-3.778-2.61-5.222 2.902 0 6.958 0 6.68-.292l-1.736-1.736c2.61-.583 5.514 0 7.541.875.875-.583 0-1.444-1.166-2.611 2.32.292 4.347.875 6.389 1.444.875-.875-.584-1.736-1.445-2.61 3.486.583 5.222 1.735 6.68 2.61 1.167-1.166 0-2.027-.583-2.902 2.612.875 4.056 2.32 5.514 3.486.584-.584 1.167-1.167.292-2.611 2.028 1.166 3.486 2.32 4.347 3.777 1.167-.875.584-1.736.584-2.61 2.027 1.444 3.194 3.194 4.638 4.93.292-.292.584-.875.875-2.028 4.64 4.639 11.32 15.958 1.737 20.306-8.125-6.68-17.987-11.612-29.014-15.375 13.93 7.25 22.347 12.763 26.694 17.694-2.32 9-14.222 9.57-18.57 9.292.876-.292 1.737-.875 2.028-1.736-1.472-.306-5.25.263-8.152-1.18zm17.125 6.958c4.93.875-22.917 24.667-23.5 19.445-.292-13.93 10.444-21.472 23.5-19.445zm-29.306 53.111c-6.68-5.222-9-20.888 3.486-28.152 7.542-1.736 2.597 31.041-3.486 28.152zm25.82 28.14c-3.778 2.319-13.056 1.444-19.737-7.834-4.347-7.833-3.777-15.667-.875-17.986 4.64-2.903 11.903.875 17.417 7.25 4.93 5.514 7.264 15.667 3.195 18.57zm-7.542-34.237c-6.959-4.639-8.125-14.791-2.903-22.916 5.514-8.125 15.375-11.028 22.347-6.39 6.973 4.64 8.125 14.792 2.903 22.917-5.236 8.125-15.389 11.028-22.347 6.39zm29.014 50.195c-8.417.291-16.542-6.68-16.542-9.292 0-3.486 10.153-6.389 16.834-6.389 6.68-.292 15.958 2.028 15.958 5.514.292 3.208-8.125 10.167-16.25 10.167zm16.833-35.695c0 8.417-7.541 15.375-16.833 15.375-9.292 0-16.834-6.68-16.834-15.375v-.291c0-8.417 7.542-15.375 16.834-15.375 9.292.291 16.833 6.972 16.833 15.666zm23.5 12.195c-7.25 9.86-16.833 10.153-20.597 7.541-3.778-3.486-.875-14.513 4.347-20.597 6.098-6.68 12.473-11.028 16.834-7.542 2.903 2.89 4.639 13.917-.584 20.598zm6.39-20.89c-6.098 2.612-11.029-29.888-3.487-28.152 12.472 7.25 10.445 22.93 3.486 28.153z" fill="#3d3f38"/>
  <path d="M90.82 232.57c0-15.125-12.306-27.431-27.43-27.431H0v10.639c9.264 0 16.806 7.528 16.806 16.792 0 9.263-7.542 16.805-16.806 16.805v10.639h63.39c15.124-.014 27.43-12.32 27.43-27.444zm-27.43 16.625c-9.168 0-16.626-7.459-16.626-16.625 0-9.167 7.458-16.625 16.625-16.625s16.625 7.458 16.625 16.625c0 9.166-7.458 16.625-16.625 16.625zm27.43 55.958H0v10.639c9.264 0 16.806 7.528 16.806 16.791 0 9.264-7.542 16.792-16.806 16.792v10.639h90.82zm-27.43 44.055c-9.168 0-16.626-7.458-16.626-16.625 0-9.166 7.458-16.625 16.625-16.625s16.625 7.459 16.625 16.625c0 9.167-7.458 16.625-16.625 16.625zm27.43 83.362c0-15.125-12.306-27.431-27.43-27.431H0v10.639c9.264 0 16.806 7.528 16.806 16.792 0 9.263-7.542 16.805-16.806 16.805v10.639h63.39c15.124-.014 27.43-12.32 27.43-27.444zm-27.43 16.625c-9.168 0-16.626-7.459-16.626-16.625 0-9.167 7.458-16.625 16.625-16.625s16.625 7.458 16.625 16.625c0 9.166-7.458 16.625-16.625 16.625zm27.43 83.361c0-15.125-12.306-27.43-27.43-27.43H0v10.638c9.264 0 16.806 7.528 16.806 16.792 0 9.264-7.542 16.805-16.806 16.805v10.64h63.39c15.124-.015 27.43-12.32 27.43-27.445zM63.39 549.18c-9.168 0-16.626-7.459-16.626-16.625 0-9.167 7.458-16.625 16.625-16.625s16.625 7.458 16.625 16.625c0 9.166-7.458 16.625-16.625 16.625zm27.43 83.376c0-15.125-12.306-27.43-27.43-27.43H0v10.638c9.264 0 16.806 7.528 16.806 16.792 0 9.264-7.542 16.805-16.806 16.805v10.64h63.39c15.124-.015 27.43-12.32 27.43-27.445zM63.39 649.18c-9.168 0-16.626-7.459-16.626-16.625 0-9.167 7.458-16.625 16.625-16.625s16.625 7.458 16.625 16.625c0 9.166-7.458 16.625-16.625 16.625zm27.43 83.376c0-15.125-12.306-27.43-27.43-27.43H0v10.638c9.264 0 16.806 7.528 16.806 16.792 0 9.264-7.542 16.805-16.806 16.805v10.64h63.39c15.124-.015 27.43-12.32 27.43-27.445zM63.39 749.18c-9.168 0-16.626-7.459-16.626-16.625 0-9.167 7.458-16.625 16.625-16.625s16.625 7.458 16.625 16.625c0 9.166-7.458 16.625-16.625 16.625zm27.43 55.945H0v10.64c9.264 0 16.806 7.527 16.806 16.79 0 9.265-7.542 16.806-16.806 16.806v10.64h90.82zm-27.43 44.056c-9.168 0-16.626-7.459-16.626-16.625 0-9.167 7.458-16.625 16.625-16.625s16.625 7.458 16.625 16.625c0 9.166-7.458 16.625-16.625 16.625zm27.43 83.375c0-15.125-12.306-27.43-27.43-27.43H0v10.638c9.264 0 16.806 7.528 16.806 16.792 0 9.264-7.542 16.805-16.806 16.805v10.64h63.39c15.124-.015 27.43-12.32 27.43-27.445zM63.39 949.18c-9.168 0-16.626-7.458-16.626-16.625s7.458-16.625 16.625-16.625 16.625 7.458 16.625 16.625-7.458 16.625-16.625 16.625zm27.43 83.376c0-15.125-12.306-27.43-27.43-27.43H0v10.638c9.264 0 16.806 7.528 16.806 16.792 0 9.264-7.542 16.805-16.806 16.805v10.64h63.39c15.124-.015 27.43-12.32 27.43-27.445zm-27.43 16.625c-9.168 0-16.626-7.458-16.626-16.625s7.458-16.625 16.625-16.625 16.625 7.458 16.625 16.625-7.458 16.625-16.625 16.625zm27.43 83.375c0-15.125-12.306-27.43-27.43-27.43H0v10.638c9.264 0 16.806 7.528 16.806 16.792 0 9.264-7.542 16.806-16.806 16.806V1160h63.39c15.124-.014 27.43-12.32 27.43-27.444zm-27.43 16.625c-9.168 0-16.626-7.458-16.626-16.625s7.458-16.625 16.625-16.625 16.625 7.458 16.625 16.625-7.458 16.625-16.625 16.625zm27.43 83.375c0-15.125-12.306-27.43-27.43-27.43H0v10.638c9.264 0 16.806 7.528 16.806 16.792 0 9.264-7.542 16.805-16.806 16.805v10.64h63.39c15.124-.015 27.43-12.32 27.43-27.445zm-27.43 16.625c-9.168 0-16.626-7.458-16.626-16.625s7.458-16.625 16.625-16.625 16.625 7.458 16.625 16.625-7.458 16.625-16.625 16.625zm27.43 55.944H0v10.64c9.264 0 16.806 7.527 16.806 16.79 0 9.265-7.542 16.806-16.806 16.806v10.64h90.82zm-27.43 44.056c-9.168 0-16.626-7.458-16.626-16.625s7.458-16.625 16.625-16.625 16.625 7.458 16.625 16.625-7.458 16.625-16.625 16.625zm27.43 83.375c0-15.125-12.306-27.43-27.43-27.43H0v10.638c9.264 0 16.806 7.528 16.806 16.792 0 9.264-7.542 16.792-16.806 16.792v10.639h63.39c15.124 0 27.43-12.306 27.43-27.431zm-27.43 16.625c-9.168 0-16.626-7.458-16.626-16.625s7.458-16.625 16.625-16.625 16.625 7.458 16.625 16.625-7.458 16.625-16.625 16.625zm27.43 83.375c0-15.125-12.306-27.43-27.43-27.43H0v10.638c9.264 0 16.806 7.528 16.806 16.792 0 9.264-7.542 16.792-16.806 16.792v10.639h63.39c15.124 0 27.43-12.306 27.43-27.431zm-27.43 16.625c-9.168 0-16.626-7.458-16.626-16.625s7.458-16.625 16.625-16.625 16.625 7.458 16.625 16.625-7.458 16.625-16.625 16.625zm27.43 83.375c0-15.125-12.306-27.43-27.43-27.43H0v10.638c9.264 0 16.806 7.528 16.806 16.792 0 9.264-7.542 16.792-16.806 16.792v10.639h63.39c15.124 0 27.43-12.306 27.43-27.43zm-27.43 16.625c-9.168 0-16.626-7.458-16.626-16.625s7.458-16.625 16.625-16.625 16.625 7.458 16.625 16.625-7.458 16.625-16.625 16.625zm27.43 83.375c0-15.125-12.306-27.43-27.43-27.43H0v10.638c9.264 0 16.806 7.528 16.806 16.792 0 9.264-7.542 16.792-16.806 16.792v10.639h63.39c15.124 0 27.43-12.306 27.43-27.43zm-27.43 16.625c-9.168 0-16.626-7.458-16.626-16.625s7.458-16.625 16.625-16.625 16.625 7.458 16.625 16.625-7.458 16.625-16.625 16.625zm27.43 55.945H0v10.639c9.264 0 16.806 7.527 16.806 16.791S9.264 1849.348 0 1849.348v10.639h90.82zm-27.43 44.055c-9.168 0-16.626-7.458-16.626-16.625s7.458-16.625 16.625-16.625 16.625 7.458 16.625 16.625-7.458 16.625-16.625 16.625zm27.43 83.375c0-15.125-12.306-27.43-27.43-27.43H0v10.638c9.264 0 16.806 7.528 16.806 16.792 0 9.264-7.542 16.792-16.806 16.792v10.639h63.39c15.124 0 27.43-12.306 27.43-27.43zm-27.43 16.625c-9.168 0-16.626-7.458-16.626-16.625s7.458-16.625 16.625-16.625 16.625 7.458 16.625 16.625-7.458 16.625-16.625 16.625zm27.43 83.361c0-15.125-12.306-27.43-27.43-27.43H0v10.639c9.264 0 16.806 7.527 16.806 16.791S9.264 2049.334 0 2049.334v10.639h63.39c15.124 0 27.43-12.306 27.43-27.43zm-27.43 16.625c-9.168 0-16.626-7.458-16.626-16.625 0-9.166 7.458-16.625 16.625-16.625s16.625 7.459 16.625 16.625c0 9.167-7.458 16.625-16.625 16.625zM763.392 260h63.39v-10.639c-9.264 0-16.806-7.528-16.806-16.791 0-9.264 7.542-16.792 16.806-16.792v-10.639h-63.39c-15.125 0-27.43 12.306-27.43 27.43 0 15.126 12.305 27.431 27.43 27.431zm-16.625-27.43c0-9.167 7.459-16.625 16.625-16.625 9.167 0 16.625 7.458 16.625 16.625 0 9.166-7.458 16.625-16.625 16.625-9.166 0-16.625-7.459-16.625-16.625zm-10.805 127.444h90.82v-10.639c-9.264 0-16.806-7.528-16.806-16.792 0-9.263 7.542-16.791 16.805-16.791v-10.64h-90.82zm10.805-27.43c0-9.167 7.459-16.626 16.625-16.626 9.167 0 16.625 7.459 16.625 16.625 0 9.167-7.458 16.625-16.625 16.625-9.166 0-16.625-7.458-16.625-16.625zM763.392 460h63.39v-10.639c-9.264 0-16.806-7.528-16.806-16.791 0-9.264 7.542-16.792 16.806-16.792v-10.639h-63.39c-15.125 0-27.43 12.306-27.43 27.43 0 15.126 12.305 27.431 27.43 27.431zm-16.625-27.43c0-9.167 7.459-16.625 16.625-16.625 9.167 0 16.625 7.458 16.625 16.625 0 9.166-7.458 16.625-16.625 16.625-9.166 0-16.625-7.459-16.625-16.625zm16.625 127.416h63.39v-10.639c-9.264 0-16.806-7.527-16.806-16.791s7.542-16.792 16.806-16.792v-10.639h-63.39c-15.125 0-27.43 12.306-27.43 27.43 0 15.126 12.305 27.431 27.43 27.431zm-16.625-27.43c0-9.167 7.459-16.625 16.625-16.625 9.167 0 16.625 7.458 16.625 16.625 0 9.166-7.458 16.625-16.625 16.625-9.166 0-16.625-7.459-16.625-16.625zm16.625 127.43h63.39v-10.639c-9.264 0-16.806-7.527-16.806-16.791s7.542-16.792 16.806-16.792v-10.639h-63.39c-15.125 0-27.43 12.306-27.43 27.43 0 15.126 12.305 27.431 27.43 27.431zm-16.625-27.43c0-9.167 7.459-16.625 16.625-16.625 9.167 0 16.625 7.458 16.625 16.625 0 9.166-7.458 16.625-16.625 16.625-9.166 0-16.625-7.459-16.625-16.625zm16.625 127.43h63.39v-10.639c-9.264 0-16.806-7.527-16.806-16.791s7.542-16.792 16.806-16.792v-10.639h-63.39c-15.125 0-27.43 12.306-27.43 27.43 0 15.126 12.305 27.431 27.43 27.431zm-16.625-27.43c0-9.167 7.459-16.625 16.625-16.625 9.167 0 16.625 7.458 16.625 16.625 0 9.166-7.458 16.625-16.625 16.625-9.166 0-16.625-7.459-16.625-16.625zm-10.805 127.43h90.82v-10.639c-9.264 0-16.806-7.527-16.806-16.791s7.542-16.792 16.805-16.792v-10.639h-90.82zm10.805-27.43c0-9.167 7.459-16.625 16.625-16.625 9.167 0 16.625 7.458 16.625 16.625 0 9.166-7.458 16.625-16.625 16.625-9.166 0-16.625-7.459-16.625-16.625zm16.625 127.43h63.39v-10.638c-9.264 0-16.806-7.528-16.806-16.792 0-9.264 7.542-16.792 16.806-16.792v-10.639h-63.39c-15.125 0-27.43 12.306-27.43 27.43 0 15.126 12.305 27.431 27.43 27.431zm-16.625-27.43c0-9.167 7.459-16.625 16.625-16.625 9.167 0 16.625 7.458 16.625 16.625s-7.458 16.625-16.625 16.625c-9.166 0-16.625-7.458-16.625-16.625zm16.625 127.43h63.39v-10.638c-9.264 0-16.806-7.528-16.806-16.792 0-9.264 7.542-16.792 16.806-16.792v-10.639h-63.39c-15.125 0-27.43 12.306-27.43 27.43 0 15.126 12.305 27.431 27.43 27.431zm-16.625-27.43c0-9.167 7.459-16.625 16.625-16.625 9.167 0 16.625 7.458 16.625 16.625s-7.458 16.625-16.625 16.625c-9.166 0-16.625-7.458-16.625-16.625zm16.625 127.43h63.39v-10.639c-9.264 0-16.806-7.527-16.806-16.791s7.542-16.792 16.806-16.792v-10.639h-63.39c-15.125 0-27.43 12.306-27.43 27.43 0 15.126 12.305 27.431 27.43 27.431zm-16.625-27.43c0-9.167 7.459-16.625 16.625-16.625 9.167 0 16.625 7.458 16.625 16.625s-7.458 16.625-16.625 16.625c-9.166 0-16.625-7.458-16.625-16.625zm16.625 127.43h63.39v-10.638c-9.264 0-16.806-7.528-16.806-16.792 0-9.264 7.542-16.792 16.806-16.792v-10.639h-63.39c-15.125 0-27.43 12.306-27.43 27.431 0 15.125 12.305 27.43 27.43 27.43zm-16.625-27.43c0-9.167 7.459-16.625 16.625-16.625 9.167 0 16.625 7.458 16.625 16.625s-7.458 16.625-16.625 16.625c-9.166 0-16.625-7.458-16.625-16.625zm-10.805 127.43h90.82v-10.638c-9.264 0-16.806-7.528-16.806-16.792 0-9.264 7.542-16.792 16.805-16.792v-10.639h-90.82zm10.805-27.43c0-9.167 7.459-16.625 16.625-16.625 9.167 0 16.625 7.458 16.625 16.625s-7.458 16.625-16.625 16.625c-9.166 0-16.625-7.458-16.625-16.625zm16.625 127.43h63.39v-10.638c-9.264 0-16.806-7.528-16.806-16.792 0-9.264 7.542-16.792 16.806-16.792v-10.639h-63.39c-15.125 0-27.43 12.306-27.43 27.431 0 15.125 12.305 27.43 27.43 27.43zm-16.625-27.43c0-9.167 7.459-16.625 16.625-16.625 9.167 0 16.625 7.458 16.625 16.625s-7.458 16.625-16.625 16.625c-9.166 0-16.625-7.458-16.625-16.625zm16.625 127.431h63.39v-10.64c-9.264 0-16.806-7.527-16.806-16.791s7.542-16.792 16.806-16.792v-10.638h-63.39c-15.125 0-27.43 12.305-27.43 27.43s12.305 27.43 27.43 27.43zm-16.625-27.431c0-9.167 7.459-16.625 16.625-16.625 9.167 0 16.625 7.458 16.625 16.625s-7.458 16.625-16.625 16.625c-9.166 0-16.625-7.458-16.625-16.625zm16.625 127.431h63.39v-10.64c-9.264 0-16.806-7.527-16.806-16.79 0-9.265 7.542-16.793 16.806-16.793v-10.638h-63.39c-15.125 0-27.43 12.305-27.43 27.43s12.305 27.43 27.43 27.43zm-16.625-27.43c0-9.168 7.459-16.626 16.625-16.626 9.167 0 16.625 7.458 16.625 16.625s-7.458 16.625-16.625 16.625c-9.166 0-16.625-7.458-16.625-16.625zm16.625 127.43h63.39v-10.64c-9.264 0-16.806-7.527-16.806-16.79 0-9.265 7.542-16.793 16.806-16.793v-10.638h-63.39c-15.125 0-27.43 12.305-27.43 27.43s12.305 27.43 27.43 27.43zm-16.625-27.43c0-9.168 7.459-16.626 16.625-16.626 9.167 0 16.625 7.458 16.625 16.625s-7.458 16.625-16.625 16.625c-9.166 0-16.625-7.458-16.625-16.625zm-10.805 127.43h90.82v-10.64c-9.264 0-16.806-7.527-16.806-16.79 0-9.265 7.542-16.793 16.805-16.793v-10.638h-90.82zm10.805-27.43c0-9.168 7.459-16.626 16.625-16.626 9.167 0 16.625 7.458 16.625 16.625s-7.458 16.625-16.625 16.625c-9.166 0-16.625-7.458-16.625-16.625zm16.625 127.43h63.39v-10.64c-9.264 0-16.806-7.527-16.806-16.79 0-9.265 7.542-16.793 16.806-16.793v-10.638h-63.39c-15.125 0-27.43 12.305-27.43 27.43s12.305 27.43 27.43 27.43zm-16.625-27.43c0-9.168 7.459-16.626 16.625-16.626 9.167 0 16.625 7.458 16.625 16.625s-7.458 16.625-16.625 16.625c-9.166 0-16.625-7.458-16.625-16.625zm16.625 127.416h63.39v-10.64c-9.264 0-16.806-7.527-16.806-16.79 0-9.265 7.542-16.792 16.806-16.792v-10.64h-63.39c-15.125 0-27.43 12.306-27.43 27.431 0 15.125 12.305 27.43 27.43 27.43zm-16.625-27.43c0-9.167 7.459-16.626 16.625-16.626 9.167 0 16.625 7.459 16.625 16.625 0 9.167-7.458 16.625-16.625 16.625-9.166 0-16.625-7.458-16.625-16.625zm16.625-1872.557h63.39v-10.639c-9.264 0-16.806-7.528-16.806-16.791 0-9.264 7.542-16.792 16.806-16.792v-10.639h-63.39c-15.125 0-27.43 12.306-27.43 27.43 0 15.126 12.305 27.431 27.43 27.431zm-16.625-27.43c0-9.167 7.459-16.625 16.625-16.625 9.167 0 16.625 7.458 16.625 16.625 0 9.166-7.458 16.625-16.625 16.625-9.166 0-16.625-7.459-16.625-16.625zm-655.947 0c0-15.125-12.306-27.431-27.43-27.431H0v10.639c9.264 0 16.806 7.528 16.806 16.792 0 9.263-7.542 16.805-16.806 16.805V160h63.39c15.124-.014 27.43-12.32 27.43-27.444zM63.39 149.18c-9.168 0-16.626-7.459-16.626-16.625 0-9.167 7.458-16.625 16.625-16.625s16.625 7.458 16.625 16.625c0 9.166-7.458 16.625-16.625 16.625z" fill="#958863"/>
</svg>
