<svg width="52.9mm" height="76.6mm" viewBox="0 0 52.9 76.6" xmlns="http://www.w3.org/2000/svg">
  <g fill="#444">
    <circle cx="48.4" cy="71.6" r="4.49"/>
    <path d="M12.916 4.08 17.57 0h24.48l3.506 4.08-4.654 4.08h-24.48zM45.686 4.842l3.506 4.08-3.444 24.48-4.654 4.08-3.506-4.08 3.444-24.48zM41.154 39.18l3.506 4.08-3.444 24.48-4.654 4.08-3.506-4.08L36.5 43.26zM36.372 72.45l-4.654 4.08H7.238l-3.506-4.08 4.654-4.08h24.48zM3.502 71.82l-3.506-4.08L3.44 43.26l4.654-4.08 3.506 4.08-3.444 24.48zM8.174 37.482l-3.506-4.08 3.444-24.48 4.654-4.08 3.506 4.08-3.444 24.48zM40.964 38.33l-4.654 4.08H11.83l-3.506-4.08 4.654-4.08h24.48z"/>
  </g>
  <text fill="#fff" font-family="sans-serif" font-size="8.9" font-weight="bold">
    <tspan x="25.807" y="7.318">A</tspan>
    <tspan x="39.84" y="24.418">B</tspan>
    <tspan x="35.654" y="58.799">C</tspan>
    <tspan x="16.195" y="75.765">D</tspan>
    <tspan x="2.643" y="58.799">E</tspan>
    <tspan x="21.172" y="41.604">G</tspan>
    <tspan x="7.334" y="24.418">F</tspan>
    <tspan x="44.117" y="73.54" font-size="5.34">DP</tspan>
  </text>
</svg>
