<svg width="15.2mm" height="20.3mm" viewBox="0 0 15.2 20.3" xmlns="http://www.w3.org/2000/svg">
  <defs>
    <g id="pin">
      <circle r=".7" cy="1.27" fill="#ffe680"/>
      <circle r=".45" cy="1.27" fill="#fff"/>
    </g>
  </defs>
  <path fill="#087f45" d="M0 0h15.2v20.3H0z"/>
  <path d="M3.3 6.5h5v5h-5z"/>
  <path fill="#ccc" d="M7.4 15.8h3v3h-3z"/>
  <path fill="#eae5e2" d="M7.4 17.2s.142-.701.642-1.006c.5-.305 1.313-.129 1.313-.129l.105-.429 1.183 1.736-.458.047s-.166.787-.487 1.05c-.32.263-1.297.314-1.297.314l-.41-.524s-.205-.045-.276-.153c-.072-.108 0-.458 0-.458z"/>
  <path fill="#a99" d="M8.092 18.03l-.238-.363.324-.233s-.027-.163-.013-.255c.014-.09.104-.28.104-.28l-.215-.338.367-.229.21.358s.194-.083.324-.056c.13.027.291.137.291.137l.248-.181.258.338-.23.19s.06.16.034.349a.639.639 0 01-.162.324l.133.22-.42.224L8.97 18s-.214-.007-.305-.035a1.242 1.242 0 01-.234-.122z"/>
  <use href="#pin" x="1.27"/>
  <use href="#pin" x="1.27" y="2.54"/>
  <use href="#pin" x="1.27" y="5.08"/>
  <use href="#pin" x="1.27" y="7.62"/>
  <use href="#pin" x="1.27" y="10.16"/>
  <use href="#pin" x="1.27" y="12.7"/>
  <use href="#pin" x="1.27" y="15.24"/>
  <use href="#pin" x="1.27" y="17.78"/>
  <use href="#pin" x="13.93" y="17.76"/>
  <use href="#pin" x="13.93" y="15.22"/>
  <use href="#pin" x="13.93" y="12.68"/>
  <use href="#pin" x="13.93" y="10.14"/>
  <use href="#pin" x="13.93" y="7.6"/>
  <use href="#pin" x="13.93" y="5.06"/>
  <use href="#pin" x="13.93" y="2.52"/>
  <use href="#pin" x="13.93" y="-.02"/>
  <text y="4" x="7.6" font-size="3" text-anchor="middle" fill="#fff">
    A4988
  </text>
</svg>
