<?xml version="1.0" encoding="UTF-8"?>
<svg width="100mm" height="73.9mm" version="1.1" viewBox="0 0 100 73.9" xmlns="http://www.w3.org/2000/svg" font-family="sans-serif">
 <text fill="#777" font-family="sans-serif" font-size="7px" text-align="center" text-anchor="middle">
  <tspan x="18.282" y="12.153" text-align="center">Left</tspan>
  <tspan x="18.282" y="20.973" text-align="center">Position</tspan>
 </text>
 <rect x="2.83" y="36.3" width="33.1" height="13.6" fill="#ccc" stroke-width=".213"/>
 <g fill="#aaa" stroke-width=".33">
  <rect x="18.4" y="39.6" width="1.95" height="24.5" rx=".974" ry="1.46"/>
  <rect x="8.83" y="39.6" width="1.95" height="24.6" rx=".974" ry="1.46"/>
  <rect x="28.1" y="39.6" width="2.05" height="24.5" rx="1.02" ry="1.46"/>
 </g>
 <path d="m13.5 28.8 0.565-0.498 0.689 0.282 0.678-0.282 0.588 0.282 0.6-0.282 0.588 0.282 0.498-0.282 0.522 0.282 0.479-0.282 0.565 0.498 7.8e-5 7.79h-5.76z" stroke-width=".243"/>
 <rect x="2.96" y="46.8" width="6.04" height="3.13" stroke-width=".248"/>
 <rect x="29.9" y="46.8" width="6.04" height="3.13" stroke-width=".248"/>
 <rect x="12.8" y="46.8" width="13.5" height="3.13" stroke-width=".372"/>
 <rect x="7.89" y="36.5" width="15.9" height="4.19" fill="#808080" stroke-width=".429"/>
 <text fill="#d00" font-size="10.6px">
  <tspan x="0.516" y="62.561">1</tspan>
  <tspan x="16.122" y="73.877">2</tspan>
  <tspan x="31.208" y="62.561" fill="#888">3</tspan>
 </text>
 <text fill="#777" font-family="sans-serif" font-size="7px" text-align="center" text-anchor="middle">
  <tspan x="80.429" y="12.119" text-align="center">Right</tspan>
  <tspan x="80.429" y="20.938" text-align="center">Position</tspan>
 </text>
 <rect x="63.7" y="36.3" width="33.1" height="13.6" fill="#ccc" stroke-width=".213"/>
 <g fill="#aaa" stroke-width=".321">
  <rect x="79.3" y="39.6" width="1.95" height="24.5" rx=".974" ry="1.46"/>
  <rect x="69.7" y="39.6" width="1.95" height="24.5" rx=".974" ry="1.46"/>
  <rect x="89" y="39.6" width="1.95" height="24.5" rx=".974" ry="1.46"/>
 </g>
 <path d="m81.2 28.8 0.565-0.498 0.689 0.282 0.678-0.282 0.588 0.282 0.6-0.282 0.588 0.282 0.498-0.282 0.522 0.282 0.479-0.282 0.565 0.498 7.8e-5 7.79h-5.76z" stroke-width=".243"/>
 <rect x="63.8" y="46.8" width="6.04" height="3.13" stroke-width=".248"/>
 <rect x="90.8" y="46.8" width="6.04" height="3.13" stroke-width=".248"/>
 <rect x="73.6" y="46.8" width="13.5" height="3.13" stroke-width=".372"/>
 <text fill="#d00" font-family="sans-serif" font-size="10.6px">
  <tspan x="62.429" y="62.561" fill="#888">1</tspan>
  <tspan x="77.505" y="73.877">2</tspan>
  <tspan x="92.062" y="62.561">3</tspan>
 </text>
 <rect x="76" y="36.4" width="15.9" height="4.19" fill="#808080" stroke-width=".429"/>
</svg>
