<svg xmlns="http://www.w3.org/2000/svg" viewBox="0 0 41.392 24.854" height="94" width="156">
  <path fill="#ccc" d="M0 2.091h4.3v.75H0zm0 2.54h4.3v.75H0zm0 2.54h4.3v.75H0zm0 2.54h4.3v.75H0zm0 2.54h4.3v.75H0zm0 2.54h4.3v.75H0zm0 2.54h4.3v.75H0zm0 2.54h4.3v.75H0zm0 2.54h4.3v.75H0z"/>
  <path fill="purple" stroke="#44374b" stroke-width=".195" stroke-linecap="round" d="M4.085.097h37.21v24.658H4.085z"/>
  <text font-size="2.469" font-family="sans-serif" fill="#f2f2f2">
    <tspan y="3.363" x="4.585">D0</tspan><tspan x="4.585" y="5.907">D1</tspan><tspan y="8.462" x="4.585">D2</tspan><tspan x="4.585" y="10.984">D3</tspan><tspan y="13.524" x="4.585">D4</tspan><tspan x="4.585" y="16.045">D5</tspan><tspan y="18.602" x="4.585">D6</tspan><tspan x="4.585" y="21.144">D7</tspan><tspan y="23.683" x="4.688">GND</tspan>
  </text>
  <g fill="#fff">
    <path d="M23.548 5.132a.616.616 0 01-.08-.67c.101-.188.087-.285-.146-.96-.234-.683-.279-.763-.483-.864-.48-.237-.442-.863.06-1a.526.526 0 01.605.776c-.104.188-.09.278.148.966.242.7.281.768.49.865.299.137.406.47.243.756-.162.285-.641.36-.837.132zm.478-.25c.116-.095.106-.2-.026-.275-.06-.034-.136-.046-.17-.028-.106.058-.102.254.006.315a.182.182 0 00.19-.012zm-.873-2.59c.086-.047.056-.269-.045-.326-.084-.048-.249.068-.245.171.003.097.202.203.29.156zM25.486 5a.616.616 0 01-.08-.671c.101-.187.087-.284-.146-.96-.234-.683-.278-.763-.483-.864-.48-.237-.442-.863.06-1a.526.526 0 01.605.776c-.104.188-.09.279.148.967.242.699.281.768.491.864.298.137.405.47.242.756-.162.285-.641.36-.837.132zm.478-.25c.116-.096.107-.2-.026-.275-.059-.034-.136-.047-.17-.028-.105.057-.101.253.007.315a.182.182 0 00.19-.013zm-.873-2.59c.087-.047.056-.27-.045-.327-.084-.048-.248.067-.245.172.003.096.202.203.29.155z"/>
    <path d="M23.636 5.305c-.507-.297-.326-1.046.254-1.046.187 0 .204-.044.466-.292s.708-.657 1.008-.806c.081.115.143.404.152.437-.193 0-.688.379-.897.634-.203.248-.246.35-.232.547.013.183-.02.278-.136.386-.194.182-.446.239-.615.14zm.39-.424c.053-.14-.007-.225-.159-.225-.148 0-.224.102-.173.234.05.13.281.123.332-.009zm1.77-.616s.071-.141.348-.93c.36-1.018.377-1.1.274-1.315-.222-.46.209-.921.673-.72.173.075.233.146.309.373.083.245.076.297-.061.43a1.226 1.226 0 01-.308.214c-.117.049-.243.313-.546 1.154-.361 1-.265.704-.168.885.24.448-.065.123-.52-.091zm1.267-2.462c-.003-.15-.089-.208-.23-.153-.064.026-.122.078-.129.116-.021.118.135.238.25.192a.181.181 0 00.109-.156zm2.037 3.34q-.595.09-1.059-.231-.492-.343-.577-.988-.103-.787.245-1.496.389-.788 1.11-.898.694-.106 1.075.18.398.296.497 1.05.103.787-.21 1.48-.36.792-1.082.902zm-.22-3.147q-.516.079-.802.688-.264.56-.184 1.174.058.439.395.668.323.215.749.15.512-.078.772-.686.232-.543.151-1.164-.071-.543-.326-.73-.243-.178-.755-.1zm2.53-.501a.218.218 0 00-.164.069.237.237 0 00-.064.167c0 .306-.01.77-.025 1.339.079-.127.193-.211.317-.224a.57.57 0 01.117 0 15.97 15.97 0 01.02-.421c.019-.314.029-.545.029-.694a.233.233 0 00-.067-.167.213.213 0 00-.163-.069zm1.706.039c-.065 0-.123.03-.175.09l-.659.764a13.22 13.22 0 01-.486.525c.137.08.229.22.269.37.236-.231.471-.462.692-.704.395-.438.593-.707.593-.808a.225.225 0 00-.071-.168.228.228 0 00-.164-.069zm-1.052 2.077a.401.401 0 01-.178.23.494.494 0 01-.189.065l.583.586c.43.409.761.613.994.613a.185.185 0 00.159-.087.261.261 0 00.048-.15c0-.111-.06-.187-.182-.227a.953.953 0 01-.282-.151l-.241-.203a26.553 26.553 0 01-.712-.676zm-.923.057a52.749 52.749 0 00-.023 1.276c0 .074.021.142.064.205a.241.241 0 00.209.114c.133 0 .2-.075.2-.227l.002-1.127a.656.656 0 01-.416-.196.982.982 0 01-.036-.045zm.333-.822c.585-.059.814.756.412.995-.228.135-.52.063-.71-.128-.117-.14-.146-.237-.117-.391.05-.262.22-.457.415-.476zm-.065.572c.039.145.138.179.26.089.12-.088.122-.215.003-.292-.117-.075-.3.067-.263.203zm5.36 1.814a.304.304 0 01-.186-.06.206.206 0 01-.092-.17 2.377 2.377 0 01-.133-.452 54.49 54.49 0 00-.181-.99 12.56 12.56 0 01-.156-.992 8.887 8.887 0 01-.439 1.284c-.18.406-.298.724-.351.953.018.035.027.07.027.104 0 .068-.03.125-.092.17a.306.306 0 01-.188.062c-.207 0-.31-.093-.31-.278l-.071-.292-.25-1.125c-.1-.38-.27-.924-.51-1.633a.306.306 0 01-.016-.092c0-.142.08-.214.24-.214.1 0 .177.055.23.163.028.055.084.214.168.476.09.277.18.61.271 1.001l.223 1.015c.164-.38.327-.842.489-1.387.1-.332.175-.562.227-.691.138-.339.272-.508.402-.508.108 0 .183.055.228.163.055.132.11.446.167.942.03.251.083.553.156.905l.198.902c.205-.493.462-1.16.769-2 .017-.046.055-.19.115-.434a1.41 1.41 0 01.163-.418c.055-.084.127-.126.216-.126.155 0 .41.107.41.26 0 .026-.203.072-.252.199l-.091.248-.127.409-.682 1.658c-.062.182-.17.447-.324.794a.266.266 0 01-.248.154zm2.588-2.23a16.238 16.238 0 00-.053 1.277c0 .108.003.24.01.398.005.157.008.29.008.397-.155.289-.462.184-.528-.014.042-.535.043-.488.042-.75 0-.354.021-.796.064-1.326.239-.573.592-.473.592-.473.01.19-.145.388-.135.492zm-.088-1.67c.585-.058.814.757.412.996-.229.135-.52.063-.71-.128-.117-.14-.146-.237-.117-.391.05-.262.22-.457.415-.476zm-.065.573c.039.145.137.178.26.089.12-.088.122-.215.002-.292-.115-.075-.3.067-.262.203z"/>
  </g>
  <text font-size="4.5" font-family="sans-serif" text-anchor="end" fill="#f2f2f2">
    <tspan y="8.6" x="39.8" font-size="3">LOGIC</tspan><tspan y="24" x="39.8" font-size="2" fill="#fff">beta version</tspan>
  </text>
  <path fill="#673a80" d="M8.8 1.61h1.6v1.7H8.8zM8.8 4.15h1.6v1.7H8.8zM8.8 6.69h1.6v1.7H8.8zM8.8 9.23h1.6v1.7H8.8zM8.8 11.77h1.6v1.7H8.8zM8.8 14.31h1.6v1.7H8.8zM8.8 16.85h1.6v1.7H8.8zM8.8 19.39h1.6v1.7H8.8z"/>
  <path fill="#1a1a1a" d="M13.554 11.776h26v10.032h-26z"/>
  <text font-size="2.822" font-family="sans-serif" fill="#ececec">
    <tspan y="15.4" x="14.7">24.2K samples</tspan>
  </text>
</svg>
